<svg xmlns="http://www.w3.org/2000/svg" viewBox="0 0 696 696"><defs><style>.cls-1{fill:#cd5967;}</style></defs><title>1ball_2</title><g id="Layer_2" data-name="Layer 2"><g id="Layer_3" data-name="Layer 3"><path class="cls-1" d="M348,0C155.81,0,0,155.81,0,348S155.81,696,348,696,696,540.19,696,348C695.78,155.9,540.1.22,348,0Zm12.42,100.33L481.4,52a325.66,325.66,0,0,1,39.75,21.42l.32.2a327.38,327.38,0,0,1,35.81,26.26l1,.85q7.62,6.49,14.82,13.43c.61.6,1.24,1.16,1.85,1.77q7.55,7.36,14.63,15.2c.39.44.76.91,1.16,1.35,4.14,4.64,8.12,9.44,12,14.32.93,1.16,1.86,2.33,2.76,3.49,4.19,5.42,8.25,10.94,12.07,16.64L593.41,269.42,474.75,309l-114.3-91.46Zm-269.88,50q1.35-1.74,2.75-3.47,5.71-7.28,11.84-14.18c.44-.49.85-1,1.29-1.47q7-7.84,14.57-15.2c.58-.57,1.16-1.16,1.76-1.68q7.16-6.9,14.7-13.35l1.16-1a330.17,330.17,0,0,1,35.47-26.1l.45-.29A327.36,327.36,0,0,1,214,52.2l121.54,48.13V217.49L221.27,308.93,102.62,269.45,78.5,166.93C82.36,161.24,86.37,155.73,90.54,150.32ZM76.56,526q-5.11-7.8-9.78-15.89l-.75-1.3q-4.65-8.06-8.78-16.38l-.1-.17a325.68,325.68,0,0,1-15.28-36v-.12c-2.06-5.8-3.94-11.74-5.68-17.71l-.63-2.21q-2.39-8.42-4.32-17c-.12-.56-.26-1.1-.37-1.65a323.82,323.82,0,0,1-6.13-39.29l70.82-85,117.83,39.27,34.2,136.79L191.4,544.15ZM425.25,663.44c-5.8,1.44-11.76,2.68-17.71,3.79-.83.17-1.68.3-2.51.46-5.07.9-10.2,1.68-15.34,2.31l-4.09.53c-4.77.55-9.59,1-14.41,1.32-1.52.1-3,.25-4.54.35-6.17.38-12.39.6-18.65.6q-8.61,0-17.11-.45c-.69,0-1.34-.12-2-.17q-7.58-.43-15.08-1.15l-.58-.11a328.79,328.79,0,0,1-32.71-5.22L211.88,558.27l55.31-73.75H428.81L485,558.76Zm240-245.84c-.12.56-.26,1.09-.38,1.65q-2,8.6-4.33,17l-.62,2.21c-1.74,6-3.62,11.89-5.69,17.71v.12a321.84,321.84,0,0,1-15.27,36l-.1.17q-4.16,8.34-8.78,16.38l-.75,1.3q-4.63,8.13-9.76,15.87L505.09,544l-56.59-74.7,34.19-136.76,117.83-39.27,70.82,85A324.11,324.11,0,0,1,665.22,417.6Z"/></g></g></svg>