<svg width="152" height="152" viewBox="0 0 152 152" fill="none" xmlns="http://www.w3.org/2000/svg">
<g clip-path="url(#clip0_18_185)">
<path d="M0.199341 104.054V7.07286C0.199341 3.16361 3.36759 -0.00463867 7.27684 -0.00463867H144.409C148.366 -0.00463867 151.511 3.16361 151.511 7.09661V100.562C147.255 97.9641 142.258 96.6769 136.567 96.6769C128.625 96.6769 122.612 98.5579 118.508 102.344C114.375 106.129 112.347 110.756 112.347 116.446C112.347 122.583 114.451 127.134 118.679 130.055C121.153 131.86 125.704 133.47 132.235 134.881L138.89 136.392C142.875 137.256 145.668 138.296 147.502 139.313C149.283 140.477 150.223 142.082 150.223 144.163C150.223 147.749 148.395 150.224 144.709 151.435L144.538 151.535H130.535C128.865 150.957 127.361 149.98 126.155 148.689C125.015 147.279 124.25 145.203 123.88 142.282H111.335C111.335 145.844 112.005 148.889 113.439 151.634H102.799C103.987 149.183 104.68 146.438 104.68 143.298C104.68 137.731 102.799 133.475 99.0896 130.53C96.7146 128.649 93.1283 127.139 88.3783 126.003L77.4913 123.457C73.3113 122.564 70.5896 121.676 69.2548 120.911C67.3026 119.771 66.3621 118.066 66.3621 115.914C66.3621 113.516 67.3786 111.611 69.3308 110.271C71.4113 108.937 74.0808 108.319 77.4961 108.319C80.6121 108.319 83.0631 108.889 85.1673 109.953C88.2833 111.587 89.9173 114.333 90.1643 118.118H102.833C102.633 111.487 100.211 106.391 95.5603 102.88C90.8341 99.4176 85.2671 97.6126 78.6361 97.6126C70.6941 97.6126 64.7328 99.5174 60.5766 103.18C56.5201 106.866 54.4396 111.592 54.4396 117.183C54.4396 123.32 56.5201 127.87 60.7713 130.791C63.2936 132.497 67.8488 134.107 74.3801 135.617L80.9873 137.128C84.8728 137.992 87.7181 138.933 89.6228 140.073C91.3803 141.213 92.3446 142.795 92.3446 144.899C92.3446 148.509 90.4398 150.836 86.7538 152.171H72.5798C70.7748 151.501 69.2881 150.561 68.2003 149.226C67.0603 147.839 66.2481 145.664 65.8728 142.818H53.0811C53.0811 146.333 53.7508 149.449 55.1093 152.171H41.8758C43.9801 148.879 45.3908 145.094 46.0796 140.842H33.0646C32.1716 144.082 31.0838 146.533 29.7491 148.138C28.1198 150.188 25.8446 151.626 23.2938 152.219H15.5276C12.6586 151.549 10.2076 149.943 8.23159 147.393C5.31034 143.854 3.87584 138.562 3.87584 131.561C3.87584 124.46 5.33409 119.092 8.05584 115.23C10.9011 111.345 14.5871 109.464 19.3846 109.464C24.1346 109.464 27.6211 110.775 30.0958 113.544C31.4306 115.055 32.5706 117.33 33.3876 120.346H46.5736C46.3741 116.437 44.9158 112.504 42.2178 108.571C37.3206 101.593 29.6018 98.1066 19.0141 98.1066C11.6658 98.1066 5.50509 100.406 0.584091 104.837L0.261091 104.144L0.199341 104.054ZM151.53 127.063V117.24H148.238C148.015 113.454 146.357 110.756 143.288 109.15C141.308 108.11 138.738 107.592 135.741 107.592C132.302 107.592 129.68 108.286 127.675 109.621C126.73 110.24 125.957 111.089 125.43 112.089C124.902 113.088 124.637 114.205 124.659 115.335C124.659 117.586 125.723 119.268 127.675 120.384C129.086 121.054 131.808 121.994 135.988 122.93L146.875 125.528C148.779 125.923 150.413 126.493 151.948 126.987L151.625 127.186L151.53 127.063Z" fill="white"/>
</g>
<defs>
<clipPath id="clip0_18_185">
<rect width="152" height="152" fill="white"/>
</clipPath>
</defs>
</svg>
