<svg width="174" height="174" viewBox="0 0 174 174" fill="none" xmlns="http://www.w3.org/2000/svg">
<path d="M10.875 10.875V163.125H163.125V10.875H10.875ZM92.4375 129.141C92.4375 143.961 83.6831 151.186 71.0103 151.186C59.5644 151.186 52.9205 145.259 49.5492 138.106L61.1991 131.054C63.4454 135.04 65.1514 138.412 70.0554 138.412C74.1335 138.412 77.4844 136.573 77.4844 129.419V81.5625H92.4375V129.141ZM126.201 150.846C112.916 150.846 104.332 144.852 100.142 136.573L111.809 129.82C114.867 134.83 118.86 138.167 125.912 138.167C131.839 138.167 135.282 135.543 135.282 131.455C135.282 126.551 131.737 124.814 125.195 121.939L121.62 120.403C111.295 116.012 104.451 110.493 104.451 98.8402C104.451 88.1113 112.624 80.2745 125.399 80.2745C134.497 80.2745 141.032 83.102 145.739 91.3806L134.578 98.5547C132.124 94.1605 129.48 92.4375 125.382 92.4375C121.192 92.4375 118.534 95.0951 118.534 98.5547C118.534 102.847 121.192 104.584 127.322 107.241L130.898 108.774C143.061 113.987 149.908 119.309 149.908 131.258C149.912 144.138 139.795 150.846 126.201 150.846Z" fill="white"/>
</svg>
