<svg width="349" height="123" viewBox="0 0 349 123" fill="none" xmlns="http://www.w3.org/2000/svg">
<path d="M263.721 28.4829C271.902 28.4829 279.462 29.3569 288.634 31.232L282.098 45.1204C277.017 44.1199 281.691 44.9863 277.852 44.6116V46.6125L278.098 54.7373L278.221 65.2399C278.345 67.8645 278.345 70.4905 278.47 73.1158V78.3671C278.47 94.8705 277.107 102.621 273.017 108.997C267.068 118.374 256.781 123 242.157 123C234.72 123 228.277 121.875 221.583 119.249V101.496H221.584C228.278 104.996 234.97 106.621 242.034 106.621C254.551 106.621 259.88 101.496 259.88 89.2431V88.8683C256.163 90.7428 252.444 91.4936 247.487 91.4936C230.756 91.4936 220.096 80.3667 220.096 62.7391C220.096 40.8586 235.837 28.4823 263.721 28.4823L263.721 28.4829ZM90.5969 29.7323V74.3645C90.5969 89.743 89.481 97.1183 86.1355 103.495C83.0361 109.622 78.9456 113.497 70.5191 117.748L52.7958 109.246C61.2236 105.246 65.3128 101.747 67.9153 96.3681C70.6425 90.8672 71.5109 84.491 71.5109 67.7387V29.733H90.5969V29.7323ZM318.263 28.1068C337.349 28.1068 349 40.2349 349 59.8628C349 79.9926 336.855 92.6192 317.52 92.6192C298.432 92.6192 286.659 80.4918 286.659 60.9891C286.66 40.7334 298.806 28.1075 318.263 28.1075V28.1068ZM127.409 28.3578C137.2 28.3578 143.644 30.9824 146.495 36.1086C148.106 38.9841 148.601 42.7344 148.601 50.7368V89.8674C140.049 91.1175 129.267 91.9935 121.335 91.9935C105.348 91.9935 98.1583 86.3654 98.1583 73.8646C98.1583 60.3613 107.701 54.1109 131.127 52.11V47.8591C131.127 44.3592 129.392 43.1098 124.558 43.1098C117.494 43.1098 109.561 45.1094 102.125 48.9861V34.1083C110.554 30.1091 118.609 28.3585 127.409 28.3585V28.3578ZM60.2332 0V89.1193C50.4428 90.9944 43.2535 91.7446 35.4467 91.7446C12.1455 91.7446 0 81.1176 0 60.7388C0 41.1102 12.8898 28.3592 32.8435 28.3592C35.9415 28.3592 38.2966 28.6081 41.1472 29.3583V0H60.2332ZM187.889 28.3585C197.681 28.3585 204.745 30.6083 208.96 34.9843C212.926 39.1093 214.165 43.6097 214.165 53.2377V90.9937H195.078V53.9878C195.078 46.6118 192.6 43.86 185.783 43.86C183.181 43.86 180.826 44.1103 176.983 45.2352V90.9937H157.897V32.7331C169.175 29.733 178.47 28.3585 187.889 28.3585ZM131.994 64.7393C119.352 65.9894 115.262 67.9904 115.262 72.9907C115.262 76.7409 117.618 78.4916 122.823 78.4916C125.673 78.4916 128.276 78.242 131.994 77.6169V64.7393ZM318.017 43.6104C310.455 43.6104 306.116 49.737 306.116 60.3627C306.117 70.9904 310.455 77.1163 317.89 77.1163C325.204 77.1163 329.542 70.9897 329.542 60.3627C329.542 49.8615 325.327 43.6104 318.017 43.6104ZM34.703 43.86C25.036 43.86 19.4581 49.8615 19.4581 60.3627C19.4581 70.615 24.7885 76.241 34.5789 76.241C36.6852 76.241 38.4207 76.1159 41.1472 75.7418V44.8598C38.9162 44.1103 37.0574 43.86 34.703 43.86ZM246.496 46.7342C241.912 49.3609 239.555 54.1123 239.555 60.8626C239.555 70.4905 244.266 75.9907 252.693 75.9907C255.296 75.9907 257.403 75.4901 259.881 74.7406V68.1155C259.881 65.865 259.758 63.3634 259.758 60.7388L259.635 51.8624L259.51 45.4862V43.9851H257.527C253.81 43.86 249.472 44.8598 246.496 46.7349L246.496 46.7342ZM90.5969 0.103142V19.8569H71.5109V0.102454H90.5969V0.103142Z" fill="white"/>
</svg>
