<svg width="50" height="52" viewBox="0 0 50 52" fill="none" xmlns="http://www.w3.org/2000/svg">
<path d="M22.656 25.5682C22.656 26.2039 22.903 26.8136 23.3425 27.2631C23.782 27.7126 24.3782 27.9652 24.9998 27.9652C25.6214 27.9652 26.2175 27.7126 26.6571 27.2631C27.0966 26.8136 27.3435 26.2039 27.3435 25.5682C27.3435 24.9324 27.0966 24.3228 26.6571 23.8732C26.2175 23.4237 25.6214 23.1712 24.9998 23.1712C24.3782 23.1712 23.782 23.4237 23.3425 23.8732C22.903 24.3228 22.656 24.9324 22.656 25.5682V25.5682ZM32.4217 25.5682C32.4217 26.2039 32.6686 26.8136 33.1081 27.2631C33.5477 27.7126 34.1438 27.9652 34.7654 27.9652C35.387 27.9652 35.9832 27.7126 36.4227 27.2631C36.8622 26.8136 37.1092 26.2039 37.1092 25.5682C37.1092 24.9324 36.8622 24.3228 36.4227 23.8732C35.9832 23.4237 35.387 23.1712 34.7654 23.1712C34.1438 23.1712 33.5477 23.4237 33.1081 23.8732C32.6686 24.3228 32.4217 24.9324 32.4217 25.5682ZM12.8904 25.5682C12.8904 26.2039 13.1373 26.8136 13.5769 27.2631C14.0164 27.7126 14.6126 27.9652 15.2342 27.9652C15.8558 27.9652 16.4519 27.7126 16.8914 27.2631C17.331 26.8136 17.5779 26.2039 17.5779 25.5682C17.5779 24.9324 17.331 24.3228 16.8914 23.8732C16.4519 23.4237 15.8558 23.1712 15.2342 23.1712C14.6126 23.1712 14.0164 23.4237 13.5769 23.8732C13.1373 24.3228 12.8904 24.9324 12.8904 25.5682V25.5682ZM45.1756 16.899C44.0721 14.2173 42.49 11.8103 40.4734 9.74287C38.4709 7.68741 36.0937 6.05357 33.4764 4.93385C30.7908 3.78029 27.9392 3.19601 24.9998 3.19601H24.9021C21.9431 3.211 19.0769 3.81025 16.3816 4.98878C13.7867 6.11998 11.4317 7.75672 9.44803 9.80779C7.45096 11.8702 5.88358 14.2672 4.79959 16.9389C3.67655 19.7055 3.11014 22.6468 3.12479 25.673C3.14136 29.1411 3.9436 32.558 5.46854 35.6556V43.2462C5.46854 43.8554 5.70518 44.4397 6.1264 44.8705C6.54763 45.3013 7.11893 45.5433 7.71463 45.5433H15.1414C18.1702 47.1029 21.5112 47.9234 24.9021 47.9403H25.0047C27.9295 47.9403 30.7664 47.3611 33.4373 46.2275C36.0414 45.1211 38.4098 43.5063 40.4099 41.4734C42.4265 39.4309 44.0135 37.0439 45.1219 34.3822C46.2742 31.6256 46.8601 28.6943 46.8748 25.668C46.8894 22.6268 46.3133 19.6755 45.1756 16.899V16.899ZM37.7976 38.7717C34.3748 42.2374 29.8338 44.1451 24.9998 44.1451H24.9168C21.9724 44.1301 19.0476 43.381 16.4646 41.9728L16.0545 41.748H9.17948V34.7168L8.95975 34.2973C7.5828 31.6556 6.85038 28.6643 6.83573 25.6531C6.8162 20.6743 8.67655 16.0001 12.0896 12.4795C15.4978 8.95884 20.0535 7.01127 24.9217 6.99129H25.0047C27.4461 6.99129 29.8142 7.47569 32.0457 8.4345C34.2234 9.36833 36.1765 10.7117 37.8562 12.4295C39.531 14.1424 40.8494 16.1449 41.7625 18.3721C42.7098 20.6793 43.1834 23.1262 43.1736 25.6531C43.1443 30.6269 41.2351 35.2861 37.7976 38.7717V38.7717Z" fill="white"/>
</svg>
