<svg width="50" height="50" viewBox="0 0 50 50" fill="none" xmlns="http://www.w3.org/2000/svg">
<path d="M39.0623 6.25C39.9515 6.25 40.832 6.42513 41.6534 6.7654C42.4749 7.10567 43.2213 7.6044 43.85 8.23313C44.4788 8.86186 44.9775 9.60827 45.3178 10.4297C45.658 11.2512 45.8332 12.1317 45.8332 13.0208V36.9792C45.8332 37.8683 45.658 38.7488 45.3178 39.5703C44.9775 40.3917 44.4788 41.1381 43.85 41.7669C43.2213 42.3956 42.4749 42.8943 41.6534 43.2346C40.832 43.5749 39.9515 43.75 39.0623 43.75H10.9373C9.1416 43.75 7.41941 43.0366 6.14964 41.7669C4.87986 40.4971 4.1665 38.7749 4.1665 36.9792V13.0208C4.1665 11.2251 4.87986 9.50291 6.14964 8.23313C7.41941 6.96335 9.1416 6.25 10.9373 6.25H39.0623ZM39.0623 9.375H10.9373C9.9704 9.375 9.04307 9.75911 8.35934 10.4428C7.67562 11.1266 7.2915 12.0539 7.2915 13.0208V36.9792C7.2915 38.9917 8.92484 40.625 10.9373 40.625H39.0623C40.0293 40.625 40.9566 40.2409 41.6403 39.5572C42.3241 38.8734 42.7082 37.9461 42.7082 36.9792V13.0208C42.7082 12.0539 42.3241 11.1266 41.6403 10.4428C40.9566 9.75911 40.0293 9.375 39.0623 9.375ZM14.0582 13.5417H35.9457C36.3416 13.5418 36.7226 13.6922 37.0119 13.9624C37.3012 14.2327 37.4771 14.6027 37.5041 14.9977C37.531 15.3926 37.4071 15.7831 37.1573 16.0902C36.9074 16.3973 36.5504 16.5981 36.1582 16.6521L35.9457 16.6667H14.0582C13.6625 16.666 13.2817 16.5153 12.9929 16.2448C12.704 15.9744 12.5285 15.6044 12.5018 15.2096C12.4751 14.8148 12.5992 14.4246 12.849 14.1177C13.0988 13.8108 13.4557 13.6102 13.8478 13.5562L14.0582 13.5417H35.9457H14.0582V13.5417Z" fill="white"/>
</svg>
