<?xml version="1.0" encoding="utf-8"?>
<!-- Generator: Adobe Illustrator 23.0.1, SVG Export Plug-In . SVG Version: 6.00 Build 0)  -->
<svg version="1.1" id="Capa_1" xmlns="http://www.w3.org/2000/svg" xmlns:xlink="http://www.w3.org/1999/xlink" x="0px" y="0px"
	 viewBox="0 0 512 512" style="enable-background:new 0 0 512 512;" xml:space="preserve">
<style type="text/css">
	.st0{fill:#29294C;}
</style>
<g>
	<g>
		<g>
			<path class="st0" d="M369.7,239.8H345c2.5,6.9,3.9,14.3,3.9,22.1v93.4c0,3.2-0.6,6.3-1.6,9.2h40.9c15.3,0,27.7-12.4,27.7-27.7
				V286C415.9,260.5,395.2,239.8,369.7,239.8z"/>
		</g>
	</g>
	<g>
		<g>
			<path class="st0" d="M163.1,261.9c0-7.8,1.4-15.2,3.9-22.1h-24.7c-25.4,0-46.2,20.7-46.2,46.2v50.9c0,15.3,12.4,27.7,27.7,27.7
				h40.9c-1-2.9-1.6-6-1.6-9.2V261.9z"/>
		</g>
	</g>
	<g>
		<g>
			<path class="st0" d="M284.3,215.8h-56.5c-25.4,0-46.2,20.7-46.2,46.2v93.4c0,5.1,4.1,9.2,9.2,9.2h130.4c5.1,0,9.2-4.1,9.2-9.2
				v-93.4C330.4,236.5,309.7,215.8,284.3,215.8z"/>
		</g>
	</g>
	<g>
		<g>
			<path class="st0" d="M256,93.4c-30.6,0-55.5,24.9-55.5,55.5c0,20.8,11.5,38.9,28.4,48.4c8,4.5,17.3,7.1,27.1,7.1
				s19.1-2.6,27.1-7.1c16.9-9.5,28.4-27.7,28.4-48.4C311.5,118.3,286.6,93.4,256,93.4z"/>
		</g>
	</g>
	<g>
		<g>
			<path class="st0" d="M158.5,145.1c-22.9,0-41.5,18.6-41.5,41.5s18.6,41.5,41.5,41.5c5.8,0,11.3-1.2,16.4-3.4
				c8.7-3.7,15.8-10.4,20.3-18.6c3.1-5.8,4.9-12.5,4.9-19.5C200,163.8,181.4,145.1,158.5,145.1z"/>
		</g>
	</g>
	<g>
		<g>
			<path class="st0" d="M353.5,145.1c-22.9,0-41.5,18.6-41.5,41.5c0,7,1.8,13.7,4.9,19.5c4.4,8.3,11.6,14.9,20.3,18.6
				c5,2.2,10.6,3.4,16.4,3.4c22.9,0,41.5-18.6,41.5-41.5S376.4,145.1,353.5,145.1z"/>
		</g>
	</g>
</g>
<g>
	<path class="st0" d="M256,1C115.4,1,1,115.4,1,256s114.4,255,255,255s255-114.4,255-255S396.6,1,256,1z M256,436
		c-115,0-208.6-65-208.6-180S141,47.4,256,47.4S464.6,141,464.6,256S371,436,256,436z"/>
</g>
</svg>
