<?xml version="1.0" encoding="utf-8"?>
<!-- Generator: Adobe Illustrator 23.0.1, SVG Export Plug-In . SVG Version: 6.00 Build 0)  -->
<svg version="1.1" id="Capa_1" xmlns="http://www.w3.org/2000/svg" xmlns:xlink="http://www.w3.org/1999/xlink" x="0px" y="0px"
	 viewBox="0 0 330 330" style="enable-background:new 0 0 330 330;" xml:space="preserve">
<style type="text/css">
	.st0{fill:#29294C;}
</style>
<g>
	<g>
		<path class="st0" d="M165,0C74.3,0,0.5,73.8,0.5,164.5S74.3,329,165,329s164.5-73.8,164.5-164.5S255.7,0,165,0z M165,280.6
			c-74.2,0-134.6-41.9-134.6-116.1S90.8,29.9,165,29.9s134.6,60.4,134.6,134.6S239.2,280.6,165,280.6z"/>
	</g>
	<path class="st0" d="M164.5,64c-11,0-20,9-20,20c0,11,9,20,20,20s20-9,20-20C184.5,73,175.5,64,164.5,64z"/>
	<path class="st0" d="M164.5,121c-8.3,0-15,6.7-15,15v90c0,8.3,6.7,15,15,15s15-6.7,15-15v-90C179.5,127.7,172.8,121,164.5,121z"/>
</g>
</svg>
