<?xml version="1.0" encoding="utf-8"?>
<!-- Generator: Adobe Illustrator 23.0.1, SVG Export Plug-In . SVG Version: 6.00 Build 0)  -->
<svg version="1.1" id="Capa_1" xmlns="http://www.w3.org/2000/svg" xmlns:xlink="http://www.w3.org/1999/xlink" x="0px" y="0px"
	 viewBox="0 0 512 512" style="enable-background:new 0 0 512 512;" xml:space="preserve">
<style type="text/css">
	.st0{fill:#29294C;}
</style>
<g>
	<g>
		<g>
			<circle class="st0" cx="256" cy="354.5" r="25"/>
			<path class="st0" d="M256,104.5c-44.1,0-80,35.9-80,80c0,11,9,20,20,20s20-9,20-20c0-22.1,17.9-40,40-40s40,17.9,40,40
				s-17.9,40-40,40c-11,0-20,9-20,20v50c0,11,9,20,20,20c11,0,20-9,20-20V262c34.5-8.9,60-40.3,60-77.5
				C336,140.4,300.1,104.5,256,104.5z"/>
		</g>
	</g>
</g>
<g>
	<path class="st0" d="M256,2C115.4,2,1,116.4,1,257s114.4,255,255,255s255-114.4,255-255S396.6,2,256,2z M256,437
		c-115,0-208.6-65-208.6-180S141,48.4,256,48.4S464.6,142,464.6,257S371,437,256,437z"/>
</g>
</svg>
