<svg id="Capa_1" data-name="Capa 1" xmlns="http://www.w3.org/2000/svg" viewBox="0 0 512 512"><defs><style>.cls-1{fill:#faad1c;}.cls-2{fill:#ff4f19;}.cls-3{fill:#e9001e;}.cls-4{fill:#f29d20;}</style></defs><title>1rocket</title><path class="cls-1" d="M260.12,1.14a8,8,0,0,0-8.24,0C248.46,3.2,168,52.71,168,160c0,43.33,10.77,158.6,25.05,268.13A32.06,32.06,0,0,0,224.74,456h62.52A32.06,32.06,0,0,0,319,428.13C333.24,318.6,344,203.33,344,160,344,52.71,263.54,3.2,260.12,1.14ZM256,216a48,48,0,1,1,48-48A48,48,0,0,1,256,216Z"/><path class="cls-2" d="M317,306.85a8,8,0,0,1,14.71-3.5l49,76.63A71.84,71.84,0,0,1,392,418.64V504a8,8,0,0,1-5.31,7.54A8.09,8.09,0,0,1,384,512a8,8,0,0,1-6.19-2.93l-70.32-85.95a8,8,0,0,1-1.77-5.88Z"/><path class="cls-3" d="M195,306.85a8,8,0,0,0-14.71-3.5l-49,76.63A71.84,71.84,0,0,0,120,418.64V504a8,8,0,0,0,14.2,5.07l70.32-85.95a8.07,8.07,0,0,0,1.76-5.88Z"/><path class="cls-4" d="M256,216a48,48,0,0,1,0-96h0V0h0a8.09,8.09,0,0,0-4.11,1.14C248.46,3.2,168,52.71,168,160c0,43.33,10.77,158.6,25.05,268.13A32.06,32.06,0,0,0,224.74,456H256V216Z"/><path class="cls-2" d="M256,512a8,8,0,0,1-8-8V312a8,8,0,0,1,16,0V504A8,8,0,0,1,256,512Z"/><path class="cls-2" d="M251.88,1.14c-2.28,1.38-39,24-63.07,70.86H323.19C299.1,25.13,262.41,2.52,260.12,1.14A8,8,0,0,0,251.88,1.14Z"/><path class="cls-3" d="M256,0a8,8,0,0,0-4.12,1.14c-2.28,1.38-39,24-63.07,70.86H256Z"/></svg>