<svg width="123" height="61" viewBox="0 0 123 61" fill="none" xmlns="http://www.w3.org/2000/svg">
<path d="M20.5469 44.3359L27.2266 17.7344H41.0938L27.3047 60H13.8672L0.078125 17.7344H13.9844L20.5469 44.3359ZM46.6016 47.2266C48.6849 47.2266 50.4167 47.8516 51.7969 49.1016C53.1771 50.3255 53.8672 51.901 53.8672 53.8281C53.8672 55.7552 53.1771 57.3438 51.7969 58.5938C50.4167 59.8177 48.6849 60.4297 46.6016 60.4297C44.4922 60.4297 42.7474 59.8047 41.3672 58.5547C40.013 57.3047 39.3359 55.7292 39.3359 53.8281C39.3359 51.9271 40.013 50.3516 41.3672 49.1016C42.7474 47.8516 44.4922 47.2266 46.6016 47.2266ZM76.5625 60H63.3594V17.7344H76.5625V60ZM62.5781 6.83594C62.5781 4.96094 63.2552 3.42448 64.6094 2.22656C65.9635 1.02865 67.7214 0.429688 69.8828 0.429688C72.0443 0.429688 73.8021 1.02865 75.1562 2.22656C76.5104 3.42448 77.1875 4.96094 77.1875 6.83594C77.1875 8.71094 76.5104 10.2474 75.1562 11.4453C73.8021 12.6432 72.0443 13.2422 69.8828 13.2422C67.7214 13.2422 65.9635 12.6432 64.6094 11.4453C63.2552 10.2474 62.5781 8.71094 62.5781 6.83594ZM101.562 44.3359L108.242 17.7344H122.109L108.32 60H94.8828L81.0938 17.7344H95L101.562 44.3359Z" fill="#E2B22D"/>
</svg>
