<svg width="132" height="98" viewBox="0 0 132 98" fill="none" xmlns="http://www.w3.org/2000/svg">
<path d="M20.5469 58.3359L19.576 58.5755L21.5168 58.5795L20.5469 58.3359ZM27.2266 31.7344V30.7344H26.4466L26.2567 31.4908L27.2266 31.7344ZM41.0938 31.7344L42.0444 32.0445L42.4719 30.7344H41.0938V31.7344ZM27.3047 74V75H28.0303L28.2554 74.3102L27.3047 74ZM13.8672 74L12.9165 74.3102L13.1416 75H13.8672V74ZM0.078125 31.7344V30.7344H-1.3L-0.87256 32.0445L0.078125 31.7344ZM13.9844 31.7344L14.9553 31.4949L14.7677 30.7344H13.9844V31.7344ZM21.5168 58.5795L28.1965 31.9779L26.2567 31.4908L19.577 58.0924L21.5168 58.5795ZM27.2266 32.7344H41.0938V30.7344H27.2266V32.7344ZM40.1431 31.4242L26.354 73.6898L28.2554 74.3102L42.0444 32.0445L40.1431 31.4242ZM27.3047 73H13.8672V75H27.3047V73ZM14.8179 73.6898L1.02881 31.4242L-0.87256 32.0445L12.9165 74.3102L14.8179 73.6898ZM0.078125 32.7344H13.9844V30.7344H0.078125V32.7344ZM13.0135 31.9739L19.576 58.5755L21.5178 58.0964L14.9553 31.4949L13.0135 31.9739ZM51.7969 63.1016L51.1256 63.8428L51.1334 63.8498L51.7969 63.1016ZM51.7969 72.5938L52.4604 73.342L52.4682 73.335L51.7969 72.5938ZM41.3672 72.5547L40.6889 73.2895L40.6959 73.2959L41.3672 72.5547ZM41.3672 63.1016L40.6959 62.3603L40.6889 62.3668L41.3672 63.1016ZM46.6016 62.2266C48.4685 62.2266 49.9515 62.7795 51.1256 63.8428L52.4682 62.3604C50.8818 60.9237 48.9013 60.2266 46.6016 60.2266V62.2266ZM51.1334 63.8498C52.289 64.8745 52.8672 66.1726 52.8672 67.8281H54.8672C54.8672 65.6295 54.0652 63.7765 52.4604 62.3534L51.1334 63.8498ZM52.8672 67.8281C52.8672 69.484 52.2883 70.7995 51.1256 71.8525L52.4682 73.335C54.0658 71.888 54.8672 70.0264 54.8672 67.8281H52.8672ZM51.1334 71.8456C49.96 72.8861 48.4743 73.4297 46.6016 73.4297V75.4297C48.8955 75.4297 50.8734 74.7493 52.4604 73.3419L51.1334 71.8456ZM46.6016 73.4297C44.7049 73.4297 43.2101 72.8746 42.0385 71.8135L40.6959 73.2959C42.2846 74.7347 44.2794 75.4297 46.6016 75.4297V73.4297ZM42.0455 71.8199C40.9036 70.7659 40.3359 69.46 40.3359 67.8281H38.3359C38.3359 69.9983 39.1224 71.8435 40.6889 73.2895L42.0455 71.8199ZM40.3359 67.8281C40.3359 66.1962 40.9036 64.8904 42.0455 63.8364L40.6889 62.3668C39.1224 63.8127 38.3359 65.658 38.3359 67.8281H40.3359ZM42.0385 63.8428C43.2101 62.7816 44.7049 62.2266 46.6016 62.2266V60.2266C44.2794 60.2266 42.2846 60.9215 40.6959 62.3604L42.0385 63.8428ZM76.5625 74V75H77.5625V74H76.5625ZM63.3594 74H62.3594V75H63.3594V74ZM63.3594 31.7344V30.7344H62.3594V31.7344H63.3594ZM76.5625 31.7344H77.5625V30.7344H76.5625V31.7344ZM76.5625 73H63.3594V75H76.5625V73ZM64.3594 74V31.7344H62.3594V74H64.3594ZM63.3594 32.7344H76.5625V30.7344H63.3594V32.7344ZM75.5625 31.7344V74H77.5625V31.7344H75.5625ZM63.5781 20.8359C63.5781 19.2353 64.1412 17.9758 65.2719 16.9756L63.9468 15.4776C62.3692 16.8732 61.5781 18.6866 61.5781 20.8359H63.5781ZM65.2719 16.9756C66.4089 15.9698 67.9152 15.4297 69.8828 15.4297V13.4297C67.5275 13.4297 65.5182 14.0875 63.9468 15.4776L65.2719 16.9756ZM69.8828 15.4297C71.8504 15.4297 73.3567 15.9698 74.4937 16.9756L75.8188 15.4776C74.2474 14.0875 72.2381 13.4297 69.8828 13.4297V15.4297ZM74.4937 16.9756C75.6244 17.9758 76.1875 19.2353 76.1875 20.8359H78.1875C78.1875 18.6866 77.3965 16.8732 75.8188 15.4776L74.4937 16.9756ZM76.1875 20.8359C76.1875 22.4366 75.6244 23.6961 74.4937 24.6963L75.8188 26.1943C77.3965 24.7987 78.1875 22.9853 78.1875 20.8359H76.1875ZM74.4937 24.6963C73.3567 25.7021 71.8504 26.2422 69.8828 26.2422V28.2422C72.2381 28.2422 74.2474 27.5844 75.8188 26.1943L74.4937 24.6963ZM69.8828 26.2422C67.9152 26.2422 66.4089 25.7021 65.2719 24.6963L63.9468 26.1943C65.5182 27.5844 67.5275 28.2422 69.8828 28.2422V26.2422ZM65.2719 24.6963C64.1412 23.6961 63.5781 22.4366 63.5781 20.8359H61.5781C61.5781 22.9853 62.3692 24.7987 63.9468 26.1943L65.2719 24.6963ZM101.562 58.3359L100.592 58.5755L102.532 58.5795L101.562 58.3359ZM108.242 31.7344V30.7344H107.462L107.272 31.4908L108.242 31.7344ZM122.109 31.7344L123.06 32.0445L123.487 30.7344H122.109V31.7344ZM108.32 74V75H109.046L109.271 74.3102L108.32 74ZM94.8828 74L93.9321 74.3102L94.1572 75H94.8828V74ZM81.0938 31.7344V30.7344H79.7156L80.1431 32.0445L81.0938 31.7344ZM95 31.7344L95.9709 31.4949L95.7833 30.7344H95V31.7344ZM102.532 58.5795L109.212 31.9779L107.272 31.4908L100.593 58.0924L102.532 58.5795ZM108.242 32.7344H122.109V30.7344H108.242V32.7344ZM121.159 31.4242L107.37 73.6898L109.271 74.3102L123.06 32.0445L121.159 31.4242ZM108.32 73H94.8828V75H108.32V73ZM95.8335 73.6898L82.0444 31.4242L80.1431 32.0445L93.9321 74.3102L95.8335 73.6898ZM81.0938 32.7344H95V30.7344H81.0938V32.7344ZM94.0291 31.9739L100.592 58.5755L102.533 58.0964L95.9709 31.4949L94.0291 31.9739Z" fill="#E2B22D"/>
<path d="M29.5469 62.3359L36.2266 35.7344H50.0938L36.3047 78H22.8672L9.07812 35.7344H22.9844L29.5469 62.3359ZM55.6016 65.2266C57.6849 65.2266 59.4167 65.8516 60.7969 67.1016C62.1771 68.3255 62.8672 69.901 62.8672 71.8281C62.8672 73.7552 62.1771 75.3438 60.7969 76.5938C59.4167 77.8177 57.6849 78.4297 55.6016 78.4297C53.4922 78.4297 51.7474 77.8047 50.3672 76.5547C49.013 75.3047 48.3359 73.7292 48.3359 71.8281C48.3359 69.9271 49.013 68.3516 50.3672 67.1016C51.7474 65.8516 53.4922 65.2266 55.6016 65.2266ZM85.5625 78H72.3594V35.7344H85.5625V78ZM71.5781 24.8359C71.5781 22.9609 72.2552 21.4245 73.6094 20.2266C74.9635 19.0286 76.7214 18.4297 78.8828 18.4297C81.0443 18.4297 82.8021 19.0286 84.1562 20.2266C85.5104 21.4245 86.1875 22.9609 86.1875 24.8359C86.1875 26.7109 85.5104 28.2474 84.1562 29.4453C82.8021 30.6432 81.0443 31.2422 78.8828 31.2422C76.7214 31.2422 74.9635 30.6432 73.6094 29.4453C72.2552 28.2474 71.5781 26.7109 71.5781 24.8359ZM110.562 62.3359L117.242 35.7344H131.109L117.32 78H103.883L90.0938 35.7344H104L110.562 62.3359Z" fill="#E2B22D"/>
</svg>
