<svg xmlns="http://www.w3.org/2000/svg" viewBox="0 0 911.62 910.64"><defs><style>.cls-1{fill:#212121;}.cls-2{fill:#e2b22d;}</style></defs><title>11b</title><g id="Layer_2" data-name="Layer 2"><g id="Layer_1-2" data-name="Layer 1"><path class="cls-1" d="M1.77,26.62,407.55,899.8A18.72,18.72,0,0,0,441,900.9l468.33-856a18.72,18.72,0,0,0-16.06-27.71L19.12,0A18.73,18.73,0,0,0,1.77,26.62Z"/><path class="cls-2" d="M151.82,111.07,421.13,706.91a11.07,11.07,0,0,0,19.86.64L751.81,123.44a11.09,11.09,0,0,0-9.55-16.3L162.13,95.42A11.08,11.08,0,0,0,151.82,111.07Z"/><path d="M489.17,148.41H392.28c-16.47,0-30.46,13.44-30.46,29.9v227A30.16,30.16,0,0,0,392,435.22l97.05-.11A30,30,0,0,0,519,405.24l.14-226.94A29.91,29.91,0,0,0,489.17,148.41Zm-62.44,17.93h28.11a4.48,4.48,0,1,1,0,9H426.73a4.48,4.48,0,0,1,0-9Zm-16.89,1.43a4.63,4.63,0,0,1,6.34,0,4.47,4.47,0,1,1-6.34,0Zm30,258.57a13.42,13.42,0,1,1,13.41-13.41A13.43,13.43,0,0,1,439.88,426.34Zm65.33-35.94H377.5V191H505.21V390.4Z"/></g></g></svg>