<svg xmlns="http://www.w3.org/2000/svg" viewBox="0 0 911.62 910.64"><defs><style>.cls-1{fill:#212121;}.cls-2{fill:#e2b22d;}</style></defs><title>1а</title><g id="Layer_2" data-name="Layer 2"><g id="Layer_1-2" data-name="Layer 1"><path class="cls-1" d="M1.77,26.62,407.55,899.8A18.72,18.72,0,0,0,441,900.9l468.33-856a18.72,18.72,0,0,0-16.06-27.71L19.12,0A18.73,18.73,0,0,0,1.77,26.62Z"/><path class="cls-2" d="M151.82,111.07,421.13,706.91a11.07,11.07,0,0,0,19.86.64L751.81,123.44a11.09,11.09,0,0,0-9.55-16.3L162.13,95.42A11.08,11.08,0,0,0,151.82,111.07Z"/><path class="cls-1" d="M550.49,315.77V187.7a9.88,9.88,0,0,0-9.85-9.85h-197a9.88,9.88,0,0,0-9.86,9.85V315.77l-24.63,29.56a14.78,14.78,0,0,0,14.78,14.76H560.35a14.78,14.78,0,0,0,14.77-14.76Zm-88.65,39.41H422.43a2.47,2.47,0,1,1,0-4.93h39.41a2.47,2.47,0,1,1,0,4.93Zm-60.33-9.84,7.52-9H475.2l7.53,9Zm135.11-47A8.61,8.61,0,0,1,528,307H356.21a8.63,8.63,0,0,1-8.59-8.6v-103a8.6,8.6,0,0,1,8.59-8.6H528a8.62,8.62,0,0,1,8.58,8.6Z"/></g></g></svg>