<svg xmlns="http://www.w3.org/2000/svg" viewBox="0 0 279.91 450.63"><defs><style>.cls-1{fill:#e2b22d;}.cls-2{fill:#d8a72b;}</style></defs><title>1bolt</title><g id="Layer_2" data-name="Layer 2"><g id="Layer_1-2" data-name="Layer 1"><path class="cls-1" d="M104.8,448.27,278.62,149a9.42,9.42,0,0,0-9.41-14.06L153.59,150.64l27.62-145a4.71,4.71,0,0,0-8.37-3.73L1.93,227.47a9.42,9.42,0,0,0,8.5,15.05l127.46-13.41L96.11,445A4.71,4.71,0,0,0,104.8,448.27Z"/><path class="cls-2" d="M55.38,211.49a3.9,3.9,0,0,1-3.62-6L179.54,1.09a4.64,4.64,0,0,0-6.7.79L1.93,227.47a9.42,9.42,0,0,0,8.5,15.05L137.89,229.1,96.11,445a4.57,4.57,0,0,0,3.69,5.45l71.61-226.59A15.69,15.69,0,0,0,155.2,203.5Z"/></g></g></svg>