<svg id="color_line" height="512" viewBox="0 0 74 74" width="512" xmlns="http://www.w3.org/2000/svg" data-name="color line"><path d="m24.964 30.776a9.821 9.821 0 0 1 4.62-2.571c.164-.032.327-.043.491-.071a37.665 37.665 0 0 0 -1.613-9.409 40.849 40.849 0 0 0 -9.562-15.725 40.738 40.738 0 0 0 1.091 18.383c.057.19.123.38.18.56a38.9 38.9 0 0 0 4.516 9.129c.089-.1.178-.205.277-.296z" fill="#6fc666"/><path d="m28.645 28.465a6.966 6.966 0 0 1 .939-.259c.163-.031.325-.043.488-.07a37.647 37.647 0 0 0 -1.612-9.406 40.834 40.834 0 0 0 -9.56-15.73 32.1 32.1 0 0 0 -.49 4.11 41.369 41.369 0 0 1 8.89 15.04 35.951 35.951 0 0 1 1.345 6.315z" fill="#65b54e"/><path d="m24.68 31.076a38.827 38.827 0 0 1 -4.513-9.133c-.066-.066-.133-.123-.2-.18a33.741 33.741 0 0 0 -13.6-6.871 33.9 33.9 0 0 0 8.8 12.442 25.755 25.755 0 0 0 2.743 2.078c.161.029.323.066.484.1a30.14 30.14 0 0 1 5.891 2.04 5.7 5.7 0 0 1 .395-.476z" fill="#6fc666"/><path d="m20.17 21.94c.34 1.05.73 2.05 1.15 3.01l-.02-.02a33.9 33.9 0 0 0 -13.42-6.83 27.877 27.877 0 0 1 -1.51-3.21 33.8 33.8 0 0 1 13.6 6.87c.06.06.13.12.2.18z" fill="#65b54e"/><path d="m22.852 35.875a7.621 7.621 0 0 1 1.431-4.319 30.14 30.14 0 0 0 -5.891-2.04c-.161-.038-.323-.076-.484-.1a33.926 33.926 0 0 0 -14.758.408 33.9 33.9 0 0 0 13.6 6.871 30.375 30.375 0 0 0 6.287.724 7.059 7.059 0 0 1 -.185-1.544z" fill="#6fc666"/><path d="m24.285 31.555a29.6 29.6 0 0 0 -5.895-2.035c-.16-.04-.32-.08-.48-.11a33.977 33.977 0 0 0 -14.76.41 27.11 27.11 0 0 0 2.97 2.21 34.038 34.038 0 0 1 14.16-.25 4.256 4.256 0 0 1 .49.1 28.641 28.641 0 0 1 2.83.82 6.879 6.879 0 0 1 .685-1.145z" fill="#65b54e"/><g fill="#323c6b"><path d="m24.683 31.572h-.04a.5.5 0 0 1 -.377-.223 39.233 39.233 0 0 1 -4.574-9.249l-.185-.573a41.643 41.643 0 0 1 -1.101-18.627.5.5 0 0 1 .834-.26 41.757 41.757 0 0 1 9.7 15.938 38.064 38.064 0 0 1 1.635 9.534.5.5 0 0 1 -.417.517l-.235.033c-.081.01-.162.02-.243.036a9.209 9.209 0 0 0 -4.38 2.446c-.064.059-.123.125-.183.191l-.069.076a.5.5 0 0 1 -.365.161zm-5.457-27.513a40.715 40.715 0 0 0 1.238 17.175l.18.559a37.871 37.871 0 0 0 4.121 8.489 10.043 10.043 0 0 1 4.725-2.567l.062-.011a36.826 36.826 0 0 0 -1.566-8.829 40.836 40.836 0 0 0 -8.76-14.816z"/><path d="m24.283 32.056a.5.5 0 0 1 -.209-.046 29.779 29.779 0 0 0 -5.793-2.01c-.159-.038-.309-.073-.459-.1a.509.509 0 0 1 -.189-.075 26.439 26.439 0 0 1 -2.8-2.119 34.058 34.058 0 0 1 -8.933-12.642.5.5 0 0 1 .571-.663 33.9 33.9 0 0 1 13.825 6.982c.075.064.149.129.225.2a.494.494 0 0 1 .123.2 38.176 38.176 0 0 0 4.456 9.017.5.5 0 0 1 -.049.615 5.2 5.2 0 0 0 -.362.438.5.5 0 0 1 -.406.203zm-6.183-3.117c.134.026.268.058.4.089a30.4 30.4 0 0 1 5.435 1.823 38.94 38.94 0 0 1 -4.2-8.631l-.091-.079a33.609 33.609 0 0 0 -12.426-6.52 33.771 33.771 0 0 0 8.276 11.333 25.378 25.378 0 0 0 2.606 1.985z"/><path d="m23.038 37.915h-.008a30.922 30.922 0 0 1 -6.391-.736 34.058 34.058 0 0 1 -13.822-6.986.5.5 0 0 1 .194-.853 34.079 34.079 0 0 1 15-.417c.153.026.322.066.491.106a30.76 30.76 0 0 1 5.991 2.071.5.5 0 0 1 .193.751 7.121 7.121 0 0 0 -1.333 4.022 6.552 6.552 0 0 0 .173 1.43.5.5 0 0 1 -.488.61zm-18.8-7.847a33.784 33.784 0 0 0 12.624 6.132 29.581 29.581 0 0 0 5.57.7 6.965 6.965 0 0 1 -.08-1.025 8.211 8.211 0 0 1 1.187-4.106 29.416 29.416 0 0 0 -5.258-1.769c-.159-.038-.309-.073-.459-.1a33.858 33.858 0 0 0 -13.581.168z"/></g><path d="m70.655 46.513c-.5 4.157-4.493 16.584-15.616 22.1a23.823 23.823 0 0 1 -30.739-9.113c-6.319-10.688-2.892-23.283-1.046-27.041" fill="#b98c6c"/><g opacity=".4"><path d="m70.65 46.51c-.49 4.16-4.49 16.59-15.61 22.1a23.826 23.826 0 0 1 -30.74-9.11c-.27-.45-.52-.91-.75-1.37a23.887 23.887 0 0 0 29.18 6.81c9.2-4.57 13.53-13.87 15.03-19.29z" fill="#9b715b"/></g><ellipse cx="46.956" cy="39.486" fill="#9b715b" rx="10.629" ry="24.719" transform="matrix(.284 -.959 .959 .284 -4.249 73.279)"/><path d="m57.882 52.368a50.585 50.585 0 0 1 -14.09-2.211 46.125 46.125 0 0 1 -16.051-8.049c-4.069-3.388-5.832-6.865-4.964-9.79 1.774-5.983 13.785-7.522 27.342-3.5a46.125 46.125 0 0 1 16.051 8.047c4.069 3.388 5.832 6.865 4.964 9.79s-4.241 4.88-9.5 5.5a31.948 31.948 0 0 1 -3.752.213zm-21.974-24.783c-6.461 0-11.2 1.746-12.172 5.016-.747 2.519.9 5.622 4.645 8.737a45.121 45.121 0 0 0 15.7 7.859 45.122 45.122 0 0 0 17.442 1.967c4.836-.573 7.911-2.275 8.657-4.793s-.9-5.622-4.645-8.737a45.121 45.121 0 0 0 -15.7-7.859 50.036 50.036 0 0 0 -13.927-2.19z" fill="#323c6b"/><ellipse cx="46.956" cy="39.486" fill="#eeefee" rx="6.453" ry="19.026" transform="matrix(.284 -.959 .959 .284 -4.249 73.279)"/><path d="m65.2 44.89c-1.02 3.42-10 3.77-20.08.78-7.78-2.31-13.93-5.93-15.86-9.03 2.92 2.41 7.79 4.84 13.55 6.55 10.07 2.98 19.06 2.64 20.07-.78a3.141 3.141 0 0 0 -.54-2.56c2.19 1.8 3.29 3.58 2.86 5.04z" fill="#e1e6e9"/><path d="m44.852 71.469a24.442 24.442 0 0 1 -20.98-11.715c-6.5-11-2.854-23.873-1.064-27.516a.5.5 0 0 1 .9.441c-1.729 3.517-5.25 15.947 1.027 26.565a23.433 23.433 0 0 0 30.084 8.92c11.052-5.481 14.875-17.822 15.342-21.712a.5.5 0 1 1 .993.119c-.484 4.03-4.443 16.812-15.891 22.489a23.384 23.384 0 0 1 -10.411 2.409z" fill="#323c6b"/><path d="m57.5 48.2a45.526 45.526 0 0 1 -12.518-2.046c-10.5-3.112-17.852-8.479-16.744-12.217 1.109-3.738 10.2-4.228 20.7-1.115a44.058 44.058 0 0 1 12.507 5.708c3.288 2.323 4.792 4.635 4.236 6.509-.624 2.085-3.733 3.161-8.181 3.161zm-28.3-13.979c-.817 2.756 5.445 7.824 16.069 10.974s18.635 2.316 19.454-.44c.418-1.41-.987-3.382-3.854-5.409a43.038 43.038 0 0 0 -12.214-5.565c-10.625-3.151-18.637-2.315-19.454.44z" fill="#323c6b"/><path d="m28.417 58.953a.649.649 0 0 1 -.536-.281 22.367 22.367 0 0 1 -3.381-8.072.65.65 0 1 1 1.271-.272 21.073 21.073 0 0 0 3.177 7.6.65.65 0 0 1 -.535 1.019z" fill="#fff"/><path d="m24.667 48a.649.649 0 0 1 -.646-.589q-.029-.311-.052-.619a.65.65 0 1 1 1.3-.1q.023.3.05.6a.649.649 0 0 1 -.586.708z" fill="#fff"/></svg>