<svg width="55" height="55" viewBox="0 0 55 55" fill="none" xmlns="http://www.w3.org/2000/svg">
<path d="M27.5 3.4375C14.2119 3.4375 3.4375 14.2119 3.4375 27.5C3.4375 40.7881 14.2119 51.5625 27.5 51.5625C40.7881 51.5625 51.5625 40.7881 51.5625 27.5C51.5625 14.2119 40.7881 3.4375 27.5 3.4375ZM39.064 21.5757C39.0801 21.8281 39.0801 22.0913 39.0801 22.3491C39.0801 30.2339 33.0752 39.3164 22.1021 39.3164C18.7183 39.3164 15.5815 38.3335 12.939 36.6416C13.4224 36.6953 13.8843 36.7168 14.3784 36.7168C17.1714 36.7168 19.7388 35.7715 21.7852 34.1709C19.1641 34.1172 16.9619 32.3984 16.21 30.0352C17.1284 30.1694 17.9556 30.1694 18.9009 29.9277C17.5513 29.6535 16.3382 28.9206 15.4678 27.8533C14.5973 26.7861 14.1232 25.4504 14.126 24.0732V23.998C14.9155 24.4438 15.8447 24.7178 16.8169 24.7554C15.9996 24.2107 15.3294 23.4728 14.8656 22.6071C14.4019 21.7414 14.1589 20.7746 14.1582 19.7925C14.1582 18.6807 14.4482 17.6655 14.9692 16.7847C16.4672 18.6288 18.3365 20.137 20.4556 21.2113C22.5747 22.2857 24.8961 22.9021 27.269 23.0205C26.4258 18.9653 29.4551 15.6836 33.0967 15.6836C34.8154 15.6836 36.3623 16.4033 37.4526 17.5635C38.8008 17.311 40.0898 16.8062 41.2393 16.1294C40.7935 17.5098 39.8589 18.6753 38.6182 19.4111C39.8213 19.2822 40.9814 18.9492 42.0557 18.4819C41.2446 19.6743 40.2295 20.7324 39.064 21.5757Z" fill="#CD5967"/>
</svg>
