<svg width="2015" height="329" viewBox="0 0 2015 329" fill="none" xmlns="http://www.w3.org/2000/svg">
<rect x="306" y="267" width="165" height="793" transform="rotate(-90 306 267)" fill="#2D3540"/>
<path d="M1200.89 204.141H1167.84L1187.81 62.25H1230.14L1200.89 204.141ZM1154.77 248.578C1154.58 242.391 1156.55 237.188 1160.67 232.969C1164.8 228.656 1170.05 226.406 1176.42 226.219C1182.42 226.031 1187.62 227.906 1192.03 231.844C1196.44 235.688 1198.73 240.75 1198.92 247.031C1199.11 253.219 1197.14 258.469 1193.02 262.781C1188.89 267.094 1183.59 269.344 1177.12 269.531C1170.56 269.531 1165.17 267.469 1160.95 263.344C1156.83 259.219 1154.77 254.297 1154.77 248.578Z" fill="#2D3540"/>
<rect y="267" width="165" height="49" transform="rotate(-90 0 267)" fill="#2D3540"/>
<rect x="148" y="267" width="165" height="49" transform="rotate(-90 148 267)" fill="#2D3540"/>
<rect x="73" y="267" width="165" height="49" transform="rotate(-90 73 267)" fill="#2D3540"/>
<rect x="227" y="267" width="165" height="49" transform="rotate(-90 227 267)" fill="#2D3540"/>
</svg>
