<svg width="174" height="174" viewBox="0 0 174 174" fill="none" xmlns="http://www.w3.org/2000/svg">
<path d="M76.3425 77.7928C75.6175 75.5453 74.965 73.3703 74.24 71.1228C73.515 68.8753 72.8625 66.7728 72.2825 64.6703C71.7025 62.6403 71.195 60.7553 70.6875 59.0153H70.5425C69.89 62.1328 69.0925 65.2503 68.0775 68.3678C66.99 71.8478 65.9025 75.4728 64.7425 79.0978C63.7275 82.7953 62.64 86.2028 61.5525 89.2478H79.9675C79.5325 87.718 78.9525 85.9128 78.3 84.0205C77.6475 82.0703 76.995 79.9678 76.3425 77.7928ZM143.188 2.17529H30.8125C13.775 2.17529 0 15.9503 0 32.9878V141.013C0 158.05 13.775 171.825 30.8125 171.825H143.188C160.225 171.825 174 158.05 174 141.013V32.9878C174 15.9503 160.225 2.17529 143.188 2.17529ZM106.575 122.018H91.4153C90.915 122.09 90.4075 121.728 90.2625 121.22L84.3175 103.965H57.3475L51.8375 121.003C51.6925 121.655 51.1125 122.09 50.46 122.025H36.83C36.0325 122.025 35.815 121.583 36.0325 120.72L59.3775 53.5053C59.595 52.7803 59.8125 51.9828 60.1025 51.1128C60.3925 49.5903 60.5375 47.9953 60.5375 46.4003C60.465 46.0378 60.755 45.6753 61.1175 45.6028H79.895C80.475 45.6028 80.765 45.8203 80.8375 46.1828L107.3 120.858C107.518 121.648 107.3 122.018 106.575 122.018ZM131.225 120.93C131.225 121.728 130.942 122.09 130.29 122.09H116.073C115.348 122.09 114.985 121.648 114.985 120.93V65.1053C114.985 64.3803 115.282 64.0903 115.935 64.0903H130.29C130.942 64.0903 131.225 64.4528 131.225 65.1053V120.93ZM129.71 55.4628C128.854 56.3324 127.821 57.0087 126.682 57.4463C125.543 57.884 124.323 58.0729 123.105 58.0003C120.712 58.0728 118.393 57.1303 116.645 55.4628C114.984 53.6466 114.1 51.2527 114.18 48.7928C114.108 46.3278 115.05 44.0078 116.783 42.3403C118.537 40.6728 120.857 39.8028 123.25 39.8028C126.085 39.8028 128.245 40.6728 129.848 42.3403C131.443 44.0803 132.312 46.4003 132.24 48.7928C132.312 51.2578 131.443 53.6503 129.71 55.4628Z" fill="white"/>
</svg>
