<svg width="260" height="260" viewBox="0 0 260 260" fill="none" xmlns="http://www.w3.org/2000/svg">
<path d="M198.726 94.3574C191.067 94.3574 184.87 100.554 184.87 108.202V157.277C184.87 160.952 186.33 164.476 188.929 167.075C191.527 169.673 195.051 171.133 198.726 171.133C202.401 171.133 205.925 169.673 208.524 167.075C211.122 164.476 212.582 160.952 212.582 157.277V108.202C212.582 100.554 206.385 94.3574 198.726 94.3574ZM61.2729 94.3574C53.6137 94.3574 47.4171 100.554 47.4171 108.202V157.277C47.4171 160.952 48.8769 164.476 51.4753 167.075C54.0738 169.673 57.5981 171.133 61.2729 171.133C64.9477 171.133 68.472 169.673 71.0704 167.075C73.6689 164.476 75.1287 160.952 75.1287 157.277V108.202C75.1301 106.383 74.7726 104.581 74.0767 102.9C73.3808 101.219 72.36 99.6915 71.073 98.4055C69.7859 97.1194 68.2578 96.0999 66.5762 95.4052C64.8945 94.7106 63.0924 94.3545 61.2729 94.3574ZM157.57 53.0932L165.89 38.0565C166.134 37.6284 166.289 37.1563 166.348 36.6675C166.408 36.1787 166.369 35.6831 166.235 35.2093C166.101 34.7356 165.874 34.2932 165.568 33.9079C165.261 33.5226 164.881 33.2021 164.45 32.9649C164.019 32.7223 163.545 32.5676 163.055 32.5099C162.564 32.4522 162.067 32.4925 161.592 32.6286C161.118 32.7647 160.675 32.9938 160.289 33.3026C159.904 33.6114 159.583 33.9937 159.347 34.4274L150.8 49.8107C144.43 47.2649 137.41 45.824 130 45.824C122.59 45.824 115.57 47.254 109.2 49.7999L100.652 34.4382C100.416 34.0046 100.095 33.6222 99.71 33.3134C99.3245 33.0046 98.8815 32.7755 98.4068 32.6395C97.932 32.5034 97.4349 32.463 96.9444 32.5208C96.4539 32.5785 95.9798 32.7331 95.5495 32.9757C95.1202 33.215 94.7423 33.5367 94.4374 33.9222C94.1326 34.3078 93.9068 34.7497 93.7729 35.2227C93.6391 35.6956 93.5999 36.1903 93.6575 36.6785C93.7151 37.1666 93.8684 37.6386 94.1087 38.0674L102.429 53.104C87.4462 61.6407 77.4362 76.9049 77.4362 94.3574C77.4362 94.4765 77.4362 94.5849 77.4579 94.7257C77.4362 94.7907 77.4362 94.8665 77.4362 94.9315V94.9424H182.552V94.9315V94.7257V94.3574C182.563 76.9049 172.553 61.6515 157.57 53.0932ZM105.733 74.4132C105.24 74.4096 104.753 74.309 104.298 74.1171C103.844 73.9252 103.433 73.6457 103.087 73.2946C102.388 72.5856 101.999 71.6279 102.006 70.6324C102.013 69.6368 102.416 68.6849 103.125 67.986C103.834 67.2871 104.791 66.8985 105.787 66.9057C106.783 66.9129 107.735 67.3153 108.433 68.0243C109.132 68.7333 109.521 69.691 109.514 70.6865C109.507 71.6821 109.104 72.634 108.395 73.3329C107.686 74.0318 106.728 74.4204 105.733 74.4132ZM154.266 74.4132C153.321 74.3413 152.438 73.9152 151.794 73.2202C151.15 72.5252 150.792 71.6125 150.792 70.6649C150.792 69.7172 151.15 68.8046 151.794 68.1096C152.438 67.4145 153.321 66.9884 154.266 66.9165C155.26 66.9165 156.214 67.3114 156.917 68.0144C157.62 68.7173 158.015 69.6707 158.015 70.6649C158.015 71.659 157.62 72.6124 156.917 73.3153C156.214 74.0183 155.26 74.4132 154.266 74.4132ZM77.4362 174.632C77.4362 181.631 83.1237 187.318 90.1545 187.318H96.5029V213.329C96.5029 217.004 97.9627 220.528 100.561 223.127C103.16 225.725 106.684 227.185 110.359 227.185C114.034 227.185 117.558 225.725 120.156 223.127C122.755 220.528 124.215 217.004 124.215 213.329V187.318H135.763V213.329C135.763 220.988 141.96 227.174 149.597 227.174C157.278 227.174 163.475 220.988 163.475 213.329V187.318H169.823C176.843 187.318 182.541 181.642 182.541 174.632V97.8024H77.4362V174.632Z" fill="white"/>
</svg>
