<svg width="172" height="172" viewBox="0 0 172 172" fill="none" xmlns="http://www.w3.org/2000/svg">
<path d="M70.5917 60.3437C67.94 59.2687 65.0733 58.8387 62.135 58.9104C60.2717 58.9104 58.6233 58.9104 57.2617 58.9821C55.8283 58.9104 54.825 58.9821 54.3233 59.0537V83.1337C55.3267 83.2054 56.2583 83.2771 57.1183 83.2771H60.9167C63.7117 83.2771 66.5067 82.8471 69.1583 81.9871C71.4517 81.342 73.4583 79.9804 75.035 78.1887C76.54 76.3971 77.2567 73.9604 77.2567 70.8071C77.3283 68.5854 76.755 66.3637 75.6083 64.4287C74.4134 62.5679 72.656 61.1369 70.5917 60.3437ZM141.542 2.15039H30.4583C13.6167 2.15039 0 15.7671 0 32.6087V139.385C0 156.227 13.6167 169.843 30.4583 169.843H141.542C158.383 169.843 172 156.227 172 139.385V32.6087C172 15.7671 158.383 2.15039 141.542 2.15039ZM88.5728 85.6421C85.7133 89.6554 81.7 92.6654 77.0417 94.3854C72.1683 96.1771 66.7933 96.8221 60.9167 96.8221C59.1967 96.8221 58.05 96.8221 57.3333 96.7504C56.6167 96.6787 55.6133 96.6787 54.2517 96.6787V119.677C54.3233 120.178 53.965 120.615 53.4633 120.687H39.56C38.9867 120.687 38.7 120.393 38.7 119.748V46.0104C38.7 45.5087 38.915 45.2221 39.4167 45.2221C40.635 45.2221 41.7817 45.2221 43.43 45.1504C45.15 45.0787 46.9417 45.0787 48.8767 45.0071C50.8117 44.9354 52.89 44.9354 55.1117 44.8637C57.3333 44.7921 59.4833 44.7921 61.6333 44.7921C67.51 44.7921 72.3833 45.5087 76.3967 47.0137C79.98 48.2321 83.2767 50.2387 86 52.8904C88.2933 55.1837 90.085 57.9787 91.2317 61.0604C92.2995 64.0704 92.8728 67.1521 92.8728 70.3771C92.88 76.5404 91.4467 81.6287 88.5728 85.6421ZM139.392 113.52C137.385 116.387 134.583 118.602 131.365 119.906C127.853 121.404 123.553 122.185 118.386 122.185C115.097 122.185 111.864 121.905 108.647 121.26C106.138 120.823 103.63 120.042 101.337 118.967C100.835 118.688 100.469 118.186 100.541 117.613V105.143C100.541 104.935 100.62 104.641 100.835 104.498C101.043 104.354 101.265 104.426 101.48 104.569C104.275 106.218 107.213 107.371 110.367 108.081C113.083 108.798 115.949 109.156 118.823 109.156C121.547 109.156 123.482 108.79 124.772 108.145C125.918 107.644 126.707 106.425 126.707 105.135C126.707 104.125 126.133 103.2 124.987 102.269C123.84 101.344 121.482 100.269 117.97 98.8932C114.315 97.6032 110.954 95.8832 107.794 93.7404C105.551 92.1342 103.689 90.0546 102.34 87.6487C101.201 85.3812 100.637 82.8683 100.699 80.3316C100.699 77.2499 101.559 74.3116 103.143 71.6599C104.934 68.7932 107.579 66.4999 110.66 65.0666C114.022 63.3537 118.25 62.5654 123.338 62.5654C126.277 62.5654 129.287 62.7804 132.225 63.2104C134.375 63.4971 136.453 64.0704 138.388 64.8587C138.668 64.9304 138.962 65.2171 139.105 65.5037C139.177 65.7904 139.248 66.0771 139.248 66.3637V78.0454C139.248 78.3321 139.105 78.6187 138.89 78.7621C138.245 78.9054 137.887 78.9054 137.6 78.7621C135.45 77.6154 133.157 76.827 130.72 76.3254C128.068 75.7521 125.417 75.3937 122.693 75.3937C121.26 75.3221 119.755 75.5371 118.386 75.8954C117.462 76.1104 116.666 76.6121 116.164 77.3287C115.806 77.9021 115.591 78.6187 115.591 79.2637C115.591 79.9087 115.878 80.5537 116.315 81.1271C116.96 81.9154 117.813 82.5604 118.752 83.0621C120.393 83.9221 122.12 84.7104 123.833 85.4271C127.71 86.7171 131.437 88.5087 134.877 90.6587C137.242 92.1565 139.177 94.1704 140.531 96.607C141.678 98.886 142.251 101.409 142.18 103.982C142.258 107.357 141.255 110.718 139.392 113.52Z" fill="white"/>
</svg>
