<svg width="184" height="184" viewBox="0 0 184 184" fill="none" xmlns="http://www.w3.org/2000/svg">
<path d="M117.544 66.4538C124.186 66.2545 130.488 63.4762 135.116 58.708C139.743 53.9398 142.331 47.5567 142.331 40.9123C142.331 34.268 139.743 27.8849 135.116 23.1167C130.488 18.3485 124.186 15.5702 117.544 15.3708H66.4537C59.8123 15.5702 53.5098 18.3485 48.8825 23.1167C44.2552 27.8849 41.6672 34.268 41.6672 40.9123C41.6672 47.5567 44.2552 53.9398 48.8825 58.708C53.5098 63.4762 59.8123 66.2545 66.4537 66.4538C59.7543 66.5699 53.3685 69.3127 48.6718 74.0915C43.9751 78.8703 41.3433 85.3026 41.3433 92.003C41.3433 98.7034 43.9751 105.136 48.6718 109.915C53.3685 114.693 59.7543 117.436 66.4537 117.552C59.787 117.716 53.4483 120.479 48.7909 125.251C44.1336 130.024 41.5266 136.429 41.5266 143.098C41.5266 149.766 44.1336 156.171 48.7909 160.944C53.4483 165.716 59.787 168.48 66.4537 168.643C73.2288 168.639 79.7251 165.945 84.5152 161.154C89.3052 156.362 91.997 149.865 91.999 143.09V66.4538H117.544Z" fill="white"/>
<path d="M117.545 117.545C131.654 117.545 143.091 106.108 143.091 91.9997C143.091 77.8914 131.654 66.4543 117.545 66.4543C103.437 66.4543 92 77.8914 92 91.9997C92 106.108 103.437 117.545 117.545 117.545Z" fill="white"/>
</svg>
