<svg width="209" height="209" viewBox="0 0 209 209" fill="none" xmlns="http://www.w3.org/2000/svg">
<path d="M29.5947 19.5938L43.0654 171.976L104.459 189.406L165.608 171.976L179.344 19.5938H29.5947ZM154.28 162.587L104.459 176.793L54.4135 162.587L42.8409 31.7174H166.077L154.28 162.587ZM57.3525 50.8213L57.6995 55.781L62.3326 107.521H104.48V107.5H127.523L125.196 131.686L104.296 137.34V137.381H104.133L83.2326 131.727L81.906 116.787H63.3327L65.6391 146.32L104.133 156.934H104.48V156.852L142.789 146.3L143.136 142.973L147.463 93.5397L148.117 88.5801H104.296V88.6209H79.5792L77.9056 69.3945H149.77L150.117 65.4146L151.096 55.781L151.443 50.8213H104.296H57.3525Z" fill="white"/>
</svg>
