<svg width="204" height="215" viewBox="0 0 204 215" fill="none" xmlns="http://www.w3.org/2000/svg">
<path d="M118.105 64.5V0H53.6842C47.989 0 42.5271 2.26517 38.5 6.2972C34.4729 10.3292 32.2105 15.7978 32.2105 21.5V129.193C36.0488 128.638 39.9647 129.285 43.4211 131.046C46.8774 132.807 49.7048 135.596 51.5154 139.03C54.4739 135.861 58.0518 133.335 62.0267 131.61C66.0017 129.884 70.2886 128.996 74.6211 129H75.6947C84.0951 129 92.1514 132.341 98.0914 138.288C104.031 144.236 107.368 152.302 107.368 160.713V161.25C107.368 166.087 105.543 170.495 102.537 173.828C105.629 178.547 107.368 184.148 107.368 190.028V194.037C107.368 202.068 104.384 209.41 99.4661 215H182.526C188.221 215 193.683 212.735 197.711 208.703C201.738 204.671 204 199.202 204 193.5V86H139.579C133.884 86 128.422 83.7348 124.395 79.7028C120.368 75.6708 118.105 70.2022 118.105 64.5ZM134.211 64.5V5.375L198.632 69.875H139.579C138.155 69.875 136.79 69.3087 135.783 68.3007C134.776 67.2927 134.211 65.9255 134.211 64.5ZM34.8947 139.75C37.0304 139.75 39.0786 140.599 40.5888 142.111C42.099 143.623 42.9474 145.674 42.9474 147.812V193.5C42.9474 199.202 40.685 204.671 36.6579 208.703C32.6308 212.735 27.1689 215 21.4737 215C15.7785 215 10.3166 212.735 6.2895 208.703C2.2624 204.671 0 199.202 0 193.5V190.812C3.18243e-08 188.674 0.8484 186.623 2.35856 185.111C3.86872 183.599 5.91694 182.75 8.05263 182.75C10.1883 182.75 12.2365 183.599 13.7467 185.111C15.2569 186.623 16.1053 188.674 16.1053 190.812V193.5C16.1053 194.926 16.6709 196.293 17.6776 197.301C18.6844 198.309 20.0499 198.875 21.4737 198.875C22.8975 198.875 24.263 198.309 25.2697 197.301C26.2765 196.293 26.8421 194.926 26.8421 193.5V147.812C26.8421 145.674 27.6905 143.623 29.2007 142.111C30.7108 140.599 32.759 139.75 34.8947 139.75ZM74.6211 139.75C69.0683 139.75 63.7429 141.959 59.8165 145.89C55.89 149.821 53.6842 155.153 53.6842 160.713V163.228C53.6842 169.829 57.1522 175.956 62.8105 179.353L79.2272 189.221C79.6233 189.46 79.9511 189.798 80.1787 190.201C80.4063 190.604 80.526 191.059 80.5263 191.522V194.037C80.5263 195.32 80.0173 196.551 79.1112 197.458C78.2051 198.365 76.9762 198.875 75.6947 198.875H74.6211C73.3396 198.875 72.1107 198.365 71.2046 197.458C70.2985 196.551 69.7895 195.32 69.7895 194.037V193.5C69.7895 191.362 68.9411 189.311 67.4309 187.799C65.9208 186.287 63.8725 185.438 61.7368 185.438C59.6012 185.438 57.5529 186.287 56.0428 187.799C54.5326 189.311 53.6842 191.362 53.6842 193.5V194.037C53.6842 199.597 55.89 204.929 59.8165 208.86C63.7429 212.791 69.0683 215 74.6211 215H75.6947C81.2475 215 86.5729 212.791 90.4993 208.86C94.4257 204.929 96.6316 199.597 96.6316 194.037V191.522C96.63 188.274 95.7887 185.082 94.1894 182.256C92.5901 179.43 90.2873 177.067 87.5053 175.397L71.0886 165.529C70.6925 165.29 70.3647 164.952 70.1371 164.549C69.9095 164.146 69.7897 163.691 69.7895 163.228V160.713C69.7895 159.43 70.2985 158.199 71.2046 157.292C72.1107 156.385 73.3396 155.875 74.6211 155.875H75.6947C76.9762 155.875 78.2051 156.385 79.1112 157.292C80.0173 158.199 80.5263 159.43 80.5263 160.713V161.25C80.5263 163.388 81.3747 165.439 82.8849 166.951C84.395 168.463 86.4433 169.312 88.5789 169.312C90.7146 169.312 92.7629 168.463 94.273 166.951C95.7832 165.439 96.6316 163.388 96.6316 161.25V160.713C96.6316 155.153 94.4257 149.821 90.4993 145.89C86.5729 141.959 81.2475 139.75 75.6947 139.75H74.6211V139.75Z" fill="white"/>
</svg>
