<svg width="206" height="41" viewBox="0 0 206 41" fill="none" xmlns="http://www.w3.org/2000/svg">
<rect x="0.522644" y="0.857346" width="204.295" height="39.7212" rx="12" fill="#FFA68F"/>
<path d="M19.5456 9.3766V19.1766H18.3976L12.5176 11.8686V19.1766H11.1176V9.3766H12.2656L18.1456 16.6846V9.3766H19.5456ZM22.8429 11.7566H24.1869V19.1766H22.8429V11.7566ZM23.5149 10.3286C23.2536 10.3286 23.0342 10.2446 22.8569 10.0766C22.6889 9.9086 22.6049 9.70327 22.6049 9.46061C22.6049 9.21794 22.6889 9.0126 22.8569 8.8446C23.0342 8.66727 23.2536 8.5786 23.5149 8.5786C23.7762 8.5786 23.9909 8.6626 24.1589 8.8306C24.3362 8.98927 24.4249 9.18994 24.4249 9.4326C24.4249 9.6846 24.3362 9.89927 24.1589 10.0766C23.9909 10.2446 23.7762 10.3286 23.5149 10.3286ZM30.5471 19.2606C29.7911 19.2606 29.1144 19.0973 28.5171 18.7706C27.9291 18.4439 27.4671 17.9959 27.1311 17.4266C26.7951 16.8479 26.6271 16.1946 26.6271 15.4666C26.6271 14.7386 26.7951 14.0899 27.1311 13.5206C27.4671 12.9419 27.9291 12.4939 28.5171 12.1766C29.1144 11.8499 29.7911 11.6866 30.5471 11.6866C31.2191 11.6866 31.8164 11.8219 32.3391 12.0926C32.8711 12.3633 33.2817 12.7553 33.5711 13.2686L32.5491 13.9266C32.3157 13.5719 32.0264 13.3059 31.6811 13.1286C31.3357 12.9513 30.9531 12.8626 30.5331 12.8626C30.0477 12.8626 29.6091 12.9699 29.2171 13.1846C28.8344 13.3993 28.5311 13.7073 28.3071 14.1086C28.0924 14.5006 27.9851 14.9533 27.9851 15.4666C27.9851 15.9893 28.0924 16.4513 28.3071 16.8526C28.5311 17.2446 28.8344 17.5479 29.2171 17.7626C29.6091 17.9773 30.0477 18.0846 30.5331 18.0846C30.9531 18.0846 31.3357 17.9959 31.6811 17.8186C32.0264 17.6413 32.3157 17.3753 32.5491 17.0206L33.5711 17.6646C33.2817 18.1779 32.8711 18.5746 32.3391 18.8546C31.8164 19.1253 31.2191 19.2606 30.5471 19.2606ZM42.4677 15.5086C42.4677 15.6113 42.4584 15.7466 42.4397 15.9146H36.4197C36.5037 16.5679 36.7884 17.0953 37.2737 17.4966C37.7684 17.8886 38.3797 18.0846 39.1077 18.0846C39.9944 18.0846 40.7084 17.7859 41.2497 17.1886L41.9917 18.0566C41.6557 18.4486 41.2357 18.7473 40.7317 18.9526C40.2371 19.1579 39.6817 19.2606 39.0657 19.2606C38.2817 19.2606 37.5864 19.1019 36.9797 18.7846C36.3731 18.4579 35.9017 18.0053 35.5657 17.4266C35.2391 16.8479 35.0757 16.1946 35.0757 15.4666C35.0757 14.7479 35.2344 14.0993 35.5517 13.5206C35.8784 12.9419 36.3217 12.4939 36.8817 12.1766C37.4511 11.8499 38.0904 11.6866 38.7997 11.6866C39.5091 11.6866 40.1391 11.8499 40.6897 12.1766C41.2497 12.4939 41.6837 12.9419 41.9917 13.5206C42.3091 14.0993 42.4677 14.7619 42.4677 15.5086ZM38.7997 12.8206C38.1557 12.8206 37.6144 13.0166 37.1757 13.4086C36.7464 13.8006 36.4944 14.3139 36.4197 14.9486H41.1797C41.1051 14.3233 40.8484 13.8146 40.4097 13.4226C39.9804 13.0213 39.4437 12.8206 38.7997 12.8206ZM44.712 9.3766H46.294L46.028 16.0826H44.964L44.712 9.3766ZM45.51 19.2606C45.2487 19.2606 45.0293 19.1766 44.852 19.0086C44.6747 18.8313 44.586 18.6166 44.586 18.3646C44.586 18.1126 44.6747 17.9026 44.852 17.7346C45.0293 17.5573 45.2487 17.4686 45.51 17.4686C45.7713 17.4686 45.986 17.5573 46.154 17.7346C46.322 17.9026 46.406 18.1126 46.406 18.3646C46.406 18.6166 46.3173 18.8313 46.14 19.0086C45.972 19.1766 45.762 19.2606 45.51 19.2606ZM62.1439 9.3766V19.1766H60.7439V14.8086H55.1159V19.1766H53.7159V9.3766H55.1159V13.5906H60.7439V9.3766H62.1439ZM68.6192 19.2606C67.8819 19.2606 67.2192 19.0973 66.6312 18.7706C66.0432 18.4439 65.5812 17.9959 65.2452 17.4266C64.9185 16.8479 64.7552 16.1946 64.7552 15.4666C64.7552 14.7386 64.9185 14.0899 65.2452 13.5206C65.5812 12.9419 66.0432 12.4939 66.6312 12.1766C67.2192 11.8499 67.8819 11.6866 68.6192 11.6866C69.3565 11.6866 70.0145 11.8499 70.5932 12.1766C71.1812 12.4939 71.6385 12.9419 71.9652 13.5206C72.3012 14.0899 72.4692 14.7386 72.4692 15.4666C72.4692 16.1946 72.3012 16.8479 71.9652 17.4266C71.6385 17.9959 71.1812 18.4439 70.5932 18.7706C70.0145 19.0973 69.3565 19.2606 68.6192 19.2606ZM68.6192 18.0846C69.0952 18.0846 69.5199 17.9773 69.8932 17.7626C70.2759 17.5386 70.5745 17.2306 70.7892 16.8386C71.0039 16.4373 71.1112 15.9799 71.1112 15.4666C71.1112 14.9533 71.0039 14.5006 70.7892 14.1086C70.5745 13.7073 70.2759 13.3993 69.8932 13.1846C69.5199 12.9699 69.0952 12.8626 68.6192 12.8626C68.1432 12.8626 67.7139 12.9699 67.3312 13.1846C66.9579 13.3993 66.6592 13.7073 66.4352 14.1086C66.2205 14.5006 66.1132 14.9533 66.1132 15.4666C66.1132 15.9799 66.2205 16.4373 66.4352 16.8386C66.6592 17.2306 66.9579 17.5386 67.3312 17.7626C67.7139 17.9773 68.1432 18.0846 68.6192 18.0846ZM85.9108 11.7566L83.1388 19.1766H81.8508L79.7088 13.5486L77.5388 19.1766H76.2508L73.4928 11.7566H74.7668L76.9228 17.6646L79.1628 11.7566H80.2968L82.4948 17.6926L84.7068 11.7566H85.9108ZM92.1544 8.7886H93.4984V19.1766H92.1544V8.7886ZM99.8026 19.2606C99.0652 19.2606 98.4026 19.0973 97.8146 18.7706C97.2266 18.4439 96.7646 17.9959 96.4286 17.4266C96.1019 16.8479 95.9386 16.1946 95.9386 15.4666C95.9386 14.7386 96.1019 14.0899 96.4286 13.5206C96.7646 12.9419 97.2266 12.4939 97.8146 12.1766C98.4026 11.8499 99.0652 11.6866 99.8026 11.6866C100.54 11.6866 101.198 11.8499 101.777 12.1766C102.365 12.4939 102.822 12.9419 103.149 13.5206C103.485 14.0899 103.653 14.7386 103.653 15.4666C103.653 16.1946 103.485 16.8479 103.149 17.4266C102.822 17.9959 102.365 18.4439 101.777 18.7706C101.198 19.0973 100.54 19.2606 99.8026 19.2606ZM99.8026 18.0846C100.279 18.0846 100.703 17.9773 101.077 17.7626C101.459 17.5386 101.758 17.2306 101.973 16.8386C102.187 16.4373 102.295 15.9799 102.295 15.4666C102.295 14.9533 102.187 14.5006 101.973 14.1086C101.758 13.7073 101.459 13.3993 101.077 13.1846C100.703 12.9699 100.279 12.8626 99.8026 12.8626C99.3266 12.8626 98.8972 12.9699 98.5146 13.1846C98.1412 13.3993 97.8426 13.7073 97.6186 14.1086C97.4039 14.5006 97.2966 14.9533 97.2966 15.4666C97.2966 15.9799 97.4039 16.4373 97.6186 16.8386C97.8426 17.2306 98.1412 17.5386 98.5146 17.7626C98.8972 17.9773 99.3266 18.0846 99.8026 18.0846ZM110.033 11.6866C110.976 11.6866 111.723 11.9619 112.273 12.5126C112.833 13.0539 113.113 13.8519 113.113 14.9066V19.1766H111.769V15.0606C111.769 14.3419 111.597 13.8006 111.251 13.4366C110.906 13.0726 110.411 12.8906 109.767 12.8906C109.039 12.8906 108.465 13.1053 108.045 13.5346C107.625 13.9546 107.415 14.5613 107.415 15.3546V19.1766H106.071V11.7566H107.359V12.8766C107.63 12.4939 107.994 12.1999 108.451 11.9946C108.918 11.7893 109.445 11.6866 110.033 11.6866ZM123.3 11.7566V18.1686C123.3 19.4659 122.978 20.4226 122.334 21.0386C121.69 21.6639 120.728 21.9766 119.45 21.9766C118.75 21.9766 118.082 21.8786 117.448 21.6826C116.813 21.4959 116.3 21.2253 115.908 20.8706L116.552 19.8346C116.897 20.1333 117.322 20.3666 117.826 20.5346C118.339 20.7119 118.866 20.8006 119.408 20.8006C120.276 20.8006 120.915 20.5953 121.326 20.1846C121.746 19.7739 121.956 19.1486 121.956 18.3086V17.7206C121.638 18.1033 121.246 18.3926 120.78 18.5886C120.322 18.7753 119.823 18.8686 119.282 18.8686C118.572 18.8686 117.928 18.7193 117.35 18.4206C116.78 18.1126 116.332 17.6879 116.006 17.1466C115.679 16.5959 115.516 15.9706 115.516 15.2706C115.516 14.5706 115.679 13.9499 116.006 13.4086C116.332 12.8579 116.78 12.4333 117.35 12.1346C117.928 11.8359 118.572 11.6866 119.282 11.6866C119.842 11.6866 120.36 11.7893 120.836 11.9946C121.321 12.1999 121.718 12.5033 122.026 12.9046V11.7566H123.3ZM119.436 17.6926C119.921 17.6926 120.355 17.5899 120.738 17.3846C121.13 17.1793 121.433 16.8946 121.648 16.5306C121.872 16.1573 121.984 15.7373 121.984 15.2706C121.984 14.5519 121.746 13.9733 121.27 13.5346C120.794 13.0866 120.182 12.8626 119.436 12.8626C118.68 12.8626 118.064 13.0866 117.588 13.5346C117.112 13.9733 116.874 14.5519 116.874 15.2706C116.874 15.7373 116.981 16.1573 117.196 16.5306C117.42 16.8946 117.723 17.1793 118.106 17.3846C118.498 17.5899 118.941 17.6926 119.436 17.6926ZM134.709 11.6866C135.652 11.6866 136.399 11.9619 136.949 12.5126C137.509 13.0539 137.789 13.8519 137.789 14.9066V19.1766H136.445V15.0606C136.445 14.3419 136.273 13.8006 135.927 13.4366C135.582 13.0726 135.087 12.8906 134.443 12.8906C133.715 12.8906 133.141 13.1053 132.721 13.5346C132.301 13.9546 132.091 14.5613 132.091 15.3546V19.1766H130.747V8.7886H132.091V12.8066C132.371 12.4519 132.735 12.1766 133.183 11.9806C133.641 11.7846 134.149 11.6866 134.709 11.6866ZM143.539 11.6866C144.565 11.6866 145.349 11.9386 145.891 12.4426C146.441 12.9466 146.717 13.6979 146.717 14.6966V19.1766H145.443V18.1966C145.219 18.5419 144.897 18.8079 144.477 18.9946C144.066 19.1719 143.576 19.2606 143.007 19.2606C142.176 19.2606 141.509 19.0599 141.005 18.6586C140.51 18.2573 140.263 17.7299 140.263 17.0766C140.263 16.4233 140.501 15.9006 140.977 15.5086C141.453 15.1073 142.209 14.9066 143.245 14.9066H145.373V14.6406C145.373 14.0619 145.205 13.6186 144.869 13.3106C144.533 13.0026 144.038 12.8486 143.385 12.8486C142.946 12.8486 142.517 12.9233 142.097 13.0726C141.677 13.2126 141.322 13.4039 141.033 13.6466L140.473 12.6386C140.855 12.3306 141.313 12.0973 141.845 11.9386C142.377 11.7706 142.941 11.6866 143.539 11.6866ZM143.231 18.2246C143.744 18.2246 144.187 18.1126 144.561 17.8886C144.934 17.6553 145.205 17.3286 145.373 16.9086V15.8726H143.301C142.162 15.8726 141.593 16.2553 141.593 17.0206C141.593 17.3939 141.737 17.6879 142.027 17.9026C142.316 18.1173 142.717 18.2246 143.231 18.2246ZM156.193 11.7566L152.945 19.1766H151.573L148.325 11.7566H149.725L152.273 17.7066L154.877 11.7566H156.193ZM164.508 15.5086C164.508 15.6113 164.499 15.7466 164.48 15.9146H158.46C158.544 16.5679 158.829 17.0953 159.314 17.4966C159.809 17.8886 160.42 18.0846 161.148 18.0846C162.035 18.0846 162.749 17.7859 163.29 17.1886L164.032 18.0566C163.696 18.4486 163.276 18.7473 162.772 18.9526C162.278 19.1579 161.722 19.2606 161.106 19.2606C160.322 19.2606 159.627 19.1019 159.02 18.7846C158.414 18.4579 157.942 18.0053 157.606 17.4266C157.28 16.8479 157.116 16.1946 157.116 15.4666C157.116 14.7479 157.275 14.0993 157.592 13.5206C157.919 12.9419 158.362 12.4939 158.922 12.1766C159.492 11.8499 160.131 11.6866 160.84 11.6866C161.55 11.6866 162.18 11.8499 162.73 12.1766C163.29 12.4939 163.724 12.9419 164.032 13.5206C164.35 14.0993 164.508 14.7619 164.508 15.5086ZM160.84 12.8206C160.196 12.8206 159.655 13.0166 159.216 13.4086C158.787 13.8006 158.535 14.3139 158.46 14.9486H163.22C163.146 14.3233 162.889 13.8146 162.45 13.4226C162.021 13.0213 161.484 12.8206 160.84 12.8206ZM177.82 11.7566L174.222 19.9186C173.905 20.6746 173.532 21.2066 173.102 21.5146C172.682 21.8226 172.174 21.9766 171.576 21.9766C171.212 21.9766 170.858 21.9159 170.512 21.7946C170.176 21.6826 169.896 21.5146 169.672 21.2906L170.246 20.2826C170.629 20.6466 171.072 20.8286 171.576 20.8286C171.903 20.8286 172.174 20.7399 172.388 20.5626C172.612 20.3946 172.813 20.1006 172.99 19.6806L173.228 19.1626L169.952 11.7566H171.352L173.942 17.6926L176.504 11.7566H177.82ZM182.608 19.2606C181.87 19.2606 181.208 19.0973 180.62 18.7706C180.032 18.4439 179.57 17.9959 179.234 17.4266C178.907 16.8479 178.744 16.1946 178.744 15.4666C178.744 14.7386 178.907 14.0899 179.234 13.5206C179.57 12.9419 180.032 12.4939 180.62 12.1766C181.208 11.8499 181.87 11.6866 182.608 11.6866C183.345 11.6866 184.003 11.8499 184.582 12.1766C185.17 12.4939 185.627 12.9419 185.954 13.5206C186.29 14.0899 186.458 14.7386 186.458 15.4666C186.458 16.1946 186.29 16.8479 185.954 17.4266C185.627 17.9959 185.17 18.4439 184.582 18.7706C184.003 19.0973 183.345 19.2606 182.608 19.2606ZM182.608 18.0846C183.084 18.0846 183.508 17.9773 183.882 17.7626C184.264 17.5386 184.563 17.2306 184.778 16.8386C184.992 16.4373 185.1 15.9799 185.1 15.4666C185.1 14.9533 184.992 14.5006 184.778 14.1086C184.563 13.7073 184.264 13.3993 183.882 13.1846C183.508 12.9699 183.084 12.8626 182.608 12.8626C182.132 12.8626 181.702 12.9699 181.32 13.1846C180.946 13.3993 180.648 13.7073 180.424 14.1086C180.209 14.5006 180.102 14.9533 180.102 15.4666C180.102 15.9799 180.209 16.4373 180.424 16.8386C180.648 17.2306 180.946 17.5386 181.32 17.7626C181.702 17.9773 182.132 18.0846 182.608 18.0846ZM195.792 11.7566V19.1766H194.518V18.0566C194.248 18.4393 193.888 18.7379 193.44 18.9526C193.002 19.1579 192.521 19.2606 191.998 19.2606C191.009 19.2606 190.23 18.9899 189.66 18.4486C189.091 17.8979 188.806 17.0906 188.806 16.0266V11.7566H190.15V15.8726C190.15 16.5913 190.323 17.1373 190.668 17.5106C191.014 17.8746 191.508 18.0566 192.152 18.0566C192.862 18.0566 193.422 17.8419 193.832 17.4126C194.243 16.9833 194.448 16.3766 194.448 15.5926V11.7566H195.792ZM14.8556 26.6866C15.5743 26.6866 16.2183 26.8453 16.7876 27.1626C17.3569 27.4799 17.8003 27.9233 18.1176 28.4926C18.4443 29.0619 18.6076 29.7199 18.6076 30.4666C18.6076 31.2133 18.4443 31.8759 18.1176 32.4546C17.8003 33.0239 17.3569 33.4673 16.7876 33.7846C16.2183 34.1019 15.5743 34.2606 14.8556 34.2606C14.3049 34.2606 13.8009 34.1533 13.3436 33.9386C12.8862 33.7239 12.5082 33.4113 12.2096 33.0006V34.1766H10.9216V23.7886H12.2656V27.8766C12.5642 27.4846 12.9376 27.1906 13.3856 26.9946C13.8336 26.7893 14.3236 26.6866 14.8556 26.6866ZM14.7436 33.0846C15.2196 33.0846 15.6442 32.9773 16.0176 32.7626C16.4002 32.5386 16.6989 32.2306 16.9136 31.8386C17.1376 31.4373 17.2496 30.9799 17.2496 30.4666C17.2496 29.9533 17.1376 29.5006 16.9136 29.1086C16.6989 28.7073 16.4002 28.3993 16.0176 28.1846C15.6442 27.9699 15.2196 27.8626 14.7436 27.8626C14.2769 27.8626 13.8522 27.9699 13.4696 28.1846C13.0869 28.3993 12.7882 28.7073 12.5736 29.1086C12.3589 29.5006 12.2516 29.9533 12.2516 30.4666C12.2516 30.9799 12.3589 31.4373 12.5736 31.8386C12.7882 32.2306 13.0869 32.5386 13.4696 32.7626C13.8522 32.9773 14.2769 33.0846 14.7436 33.0846ZM27.7306 30.5086C27.7306 30.6113 27.7212 30.7466 27.7026 30.9146H21.6826C21.7666 31.5679 22.0512 32.0953 22.5366 32.4966C23.0312 32.8886 23.6426 33.0846 24.3706 33.0846C25.2572 33.0846 25.9712 32.7859 26.5126 32.1886L27.2546 33.0566C26.9186 33.4486 26.4986 33.7473 25.9946 33.9526C25.4999 34.1579 24.9446 34.2606 24.3286 34.2606C23.5446 34.2606 22.8492 34.1019 22.2426 33.7846C21.6359 33.4579 21.1646 33.0053 20.8286 32.4266C20.5019 31.8479 20.3386 31.1946 20.3386 30.4666C20.3386 29.7479 20.4972 29.0993 20.8146 28.5206C21.1412 27.9419 21.5846 27.4939 22.1446 27.1766C22.7139 26.8499 23.3532 26.6866 24.0626 26.6866C24.7719 26.6866 25.4019 26.8499 25.9526 27.1766C26.5126 27.4939 26.9466 27.9419 27.2546 28.5206C27.5719 29.0993 27.7306 29.7619 27.7306 30.5086ZM24.0626 27.8206C23.4186 27.8206 22.8772 28.0166 22.4386 28.4086C22.0092 28.8006 21.7572 29.3139 21.6826 29.9486H26.4426C26.3679 29.3233 26.1112 28.8146 25.6726 28.4226C25.2432 28.0213 24.7066 27.8206 24.0626 27.8206ZM36.8628 30.5086C36.8628 30.6113 36.8535 30.7466 36.8348 30.9146H30.8148C30.8988 31.5679 31.1835 32.0953 31.6688 32.4966C32.1635 32.8886 32.7748 33.0846 33.5028 33.0846C34.3895 33.0846 35.1035 32.7859 35.6448 32.1886L36.3868 33.0566C36.0508 33.4486 35.6308 33.7473 35.1268 33.9526C34.6322 34.1579 34.0768 34.2606 33.4608 34.2606C32.6768 34.2606 31.9815 34.1019 31.3748 33.7846C30.7682 33.4579 30.2968 33.0053 29.9608 32.4266C29.6342 31.8479 29.4708 31.1946 29.4708 30.4666C29.4708 29.7479 29.6295 29.0993 29.9468 28.5206C30.2735 27.9419 30.7168 27.4939 31.2768 27.1766C31.8462 26.8499 32.4855 26.6866 33.1948 26.6866C33.9042 26.6866 34.5342 26.8499 35.0848 27.1766C35.6448 27.4939 36.0788 27.9419 36.3868 28.5206C36.7042 29.0993 36.8628 29.7619 36.8628 30.5086ZM33.1948 27.8206C32.5508 27.8206 32.0095 28.0166 31.5708 28.4086C31.1415 28.8006 30.8895 29.3139 30.8148 29.9486H35.5748C35.5002 29.3233 35.2435 28.8146 34.8048 28.4226C34.3755 28.0213 33.8388 27.8206 33.1948 27.8206ZM43.2511 26.6866C44.1938 26.6866 44.9404 26.9619 45.4911 27.5126C46.0511 28.0539 46.3311 28.8519 46.3311 29.9066V34.1766H44.9871V30.0606C44.9871 29.3419 44.8144 28.8006 44.4691 28.4366C44.1238 28.0726 43.6291 27.8906 42.9851 27.8906C42.2571 27.8906 41.6831 28.1053 41.2631 28.5346C40.8431 28.9546 40.6331 29.5613 40.6331 30.3546V34.1766H39.2891V26.7566H40.5771V27.8766C40.8478 27.4939 41.2118 27.1999 41.6691 26.9946C42.1358 26.7893 42.6631 26.6866 43.2511 26.6866ZM60.6981 23.7886V34.1766H59.4101V33.0006C59.1115 33.4113 58.7335 33.7239 58.2761 33.9386C57.8188 34.1533 57.3148 34.2606 56.7641 34.2606C56.0455 34.2606 55.4015 34.1019 54.8321 33.7846C54.2628 33.4673 53.8148 33.0239 53.4881 32.4546C53.1708 31.8759 53.0121 31.2133 53.0121 30.4666C53.0121 29.7199 53.1708 29.0619 53.4881 28.4926C53.8148 27.9233 54.2628 27.4799 54.8321 27.1626C55.4015 26.8453 56.0455 26.6866 56.7641 26.6866C57.2961 26.6866 57.7861 26.7893 58.2341 26.9946C58.6821 27.1906 59.0555 27.4846 59.3541 27.8766V23.7886H60.6981ZM56.8761 33.0846C57.3428 33.0846 57.7675 32.9773 58.1501 32.7626C58.5328 32.5386 58.8315 32.2306 59.0461 31.8386C59.2608 31.4373 59.3681 30.9799 59.3681 30.4666C59.3681 29.9533 59.2608 29.5006 59.0461 29.1086C58.8315 28.7073 58.5328 28.3993 58.1501 28.1846C57.7675 27.9699 57.3428 27.8626 56.8761 27.8626C56.4001 27.8626 55.9708 27.9699 55.5881 28.1846C55.2148 28.3993 54.9161 28.7073 54.6921 29.1086C54.4775 29.5006 54.3701 29.9533 54.3701 30.4666C54.3701 30.9799 54.4775 31.4373 54.6921 31.8386C54.9161 32.2306 55.2148 32.5386 55.5881 32.7626C55.9708 32.9773 56.4001 33.0846 56.8761 33.0846ZM66.5031 26.6866C67.5298 26.6866 68.3138 26.9386 68.8551 27.4426C69.4058 27.9466 69.6811 28.6979 69.6811 29.6966V34.1766H68.4071V33.1966C68.1831 33.5419 67.8611 33.8079 67.4411 33.9946C67.0304 34.1719 66.5404 34.2606 65.9711 34.2606C65.1404 34.2606 64.4731 34.0599 63.9691 33.6586C63.4744 33.2573 63.2271 32.7299 63.2271 32.0766C63.2271 31.4233 63.4651 30.9006 63.9411 30.5086C64.4171 30.1073 65.1731 29.9066 66.2091 29.9066H68.3371V29.6406C68.3371 29.0619 68.1691 28.6186 67.8331 28.3106C67.4971 28.0026 67.0024 27.8486 66.3491 27.8486C65.9104 27.8486 65.4811 27.9233 65.0611 28.0726C64.6411 28.2126 64.2864 28.4039 63.9971 28.6466L63.4371 27.6386C63.8198 27.3306 64.2771 27.0973 64.8091 26.9386C65.3411 26.7706 65.9058 26.6866 66.5031 26.6866ZM66.1951 33.2246C66.7084 33.2246 67.1518 33.1126 67.5251 32.8886C67.8984 32.6553 68.1691 32.3286 68.3371 31.9086V30.8726H66.2651C65.1264 30.8726 64.5571 31.2553 64.5571 32.0206C64.5571 32.3939 64.7018 32.6879 64.9911 32.9026C65.2804 33.1173 65.6818 33.2246 66.1951 33.2246ZM76.6903 26.6866C77.633 26.6866 78.3796 26.9619 78.9303 27.5126C79.4903 28.0539 79.7703 28.8519 79.7703 29.9066V34.1766H78.4263V30.0606C78.4263 29.3419 78.2536 28.8006 77.9083 28.4366C77.563 28.0726 77.0683 27.8906 76.4243 27.8906C75.6963 27.8906 75.1223 28.1053 74.7023 28.5346C74.2823 28.9546 74.0723 29.5613 74.0723 30.3546V34.1766H72.7283V26.7566H74.0163V27.8766C74.287 27.4939 74.651 27.1999 75.1083 26.9946C75.575 26.7893 76.1023 26.6866 76.6903 26.6866ZM86.0926 34.2606C85.3366 34.2606 84.66 34.0973 84.0626 33.7706C83.4746 33.4439 83.0126 32.9959 82.6766 32.4266C82.3406 31.8479 82.1726 31.1946 82.1726 30.4666C82.1726 29.7386 82.3406 29.0899 82.6766 28.5206C83.0126 27.9419 83.4746 27.4939 84.0626 27.1766C84.66 26.8499 85.3366 26.6866 86.0926 26.6866C86.7646 26.6866 87.362 26.8219 87.8846 27.0926C88.4166 27.3633 88.8273 27.7553 89.1166 28.2686L88.0946 28.9266C87.8613 28.5719 87.572 28.3059 87.2266 28.1286C86.8813 27.9513 86.4986 27.8626 86.0786 27.8626C85.5933 27.8626 85.1546 27.9699 84.7626 28.1846C84.38 28.3993 84.0766 28.7073 83.8526 29.1086C83.638 29.5006 83.5306 29.9533 83.5306 30.4666C83.5306 30.9893 83.638 31.4513 83.8526 31.8526C84.0766 32.2446 84.38 32.5479 84.7626 32.7626C85.1546 32.9773 85.5933 33.0846 86.0786 33.0846C86.4986 33.0846 86.8813 32.9959 87.2266 32.8186C87.572 32.6413 87.8613 32.3753 88.0946 32.0206L89.1166 32.6646C88.8273 33.1779 88.4166 33.5746 87.8846 33.8546C87.362 34.1253 86.7646 34.2606 86.0926 34.2606ZM91.4167 26.7566H92.7607V34.1766H91.4167V26.7566ZM92.0887 25.3286C91.8273 25.3286 91.608 25.2446 91.4307 25.0766C91.2627 24.9086 91.1787 24.7033 91.1787 24.4606C91.1787 24.2179 91.2627 24.0126 91.4307 23.8446C91.608 23.6673 91.8273 23.5786 92.0887 23.5786C92.35 23.5786 92.5647 23.6626 92.7327 23.8306C92.91 23.9893 92.9987 24.1899 92.9987 24.4326C92.9987 24.6846 92.91 24.8993 92.7327 25.0766C92.5647 25.2446 92.35 25.3286 92.0887 25.3286ZM99.8488 26.6866C100.791 26.6866 101.538 26.9619 102.089 27.5126C102.649 28.0539 102.929 28.8519 102.929 29.9066V34.1766H101.585V30.0606C101.585 29.3419 101.412 28.8006 101.067 28.4366C100.721 28.0726 100.227 27.8906 99.5828 27.8906C98.8548 27.8906 98.2808 28.1053 97.8608 28.5346C97.4408 28.9546 97.2308 29.5613 97.2308 30.3546V34.1766H95.8868V26.7566H97.1748V27.8766C97.4455 27.4939 97.8095 27.1999 98.2668 26.9946C98.7335 26.7893 99.2608 26.6866 99.8488 26.6866ZM113.115 26.7566V33.1686C113.115 34.4659 112.793 35.4226 112.149 36.0386C111.505 36.6639 110.544 36.9766 109.265 36.9766C108.565 36.9766 107.898 36.8786 107.263 36.6826C106.628 36.4959 106.115 36.2253 105.723 35.8706L106.367 34.8346C106.712 35.1333 107.137 35.3666 107.641 35.5346C108.154 35.7119 108.682 35.8006 109.223 35.8006C110.091 35.8006 110.73 35.5953 111.141 35.1846C111.561 34.7739 111.771 34.1486 111.771 33.3086V32.7206C111.454 33.1033 111.062 33.3926 110.595 33.5886C110.138 33.7753 109.638 33.8686 109.097 33.8686C108.388 33.8686 107.744 33.7193 107.165 33.4206C106.596 33.1126 106.148 32.6879 105.821 32.1466C105.494 31.5959 105.331 30.9706 105.331 30.2706C105.331 29.5706 105.494 28.9499 105.821 28.4086C106.148 27.8579 106.596 27.4333 107.165 27.1346C107.744 26.8359 108.388 26.6866 109.097 26.6866C109.657 26.6866 110.175 26.7893 110.651 26.9946C111.136 27.1999 111.533 27.5033 111.841 27.9046V26.7566H113.115ZM109.251 32.6926C109.736 32.6926 110.17 32.5899 110.553 32.3846C110.945 32.1793 111.248 31.8946 111.463 31.5306C111.687 31.1573 111.799 30.7373 111.799 30.2706C111.799 29.5519 111.561 28.9733 111.085 28.5346C110.609 28.0866 109.998 27.8626 109.251 27.8626C108.495 27.8626 107.879 28.0866 107.403 28.5346C106.927 28.9733 106.689 29.5519 106.689 30.2706C106.689 30.7373 106.796 31.1573 107.011 31.5306C107.235 31.8946 107.538 32.1793 107.921 32.3846C108.313 32.5899 108.756 32.6926 109.251 32.6926ZM118.353 31.0826C118.353 30.7093 118.413 30.3826 118.535 30.1026C118.665 29.8133 118.819 29.5706 118.997 29.3746C119.183 29.1786 119.426 28.9453 119.725 28.6746C120.098 28.3479 120.373 28.0679 120.551 27.8346C120.728 27.5919 120.817 27.3026 120.817 26.9666C120.817 26.5093 120.639 26.1453 120.285 25.8746C119.93 25.5946 119.44 25.4546 118.815 25.4546C117.723 25.4546 116.887 25.8233 116.309 26.5606L115.287 25.8326C115.679 25.3286 116.178 24.9413 116.785 24.6706C117.401 24.3999 118.11 24.2646 118.913 24.2646C119.93 24.2646 120.737 24.4886 121.335 24.9366C121.932 25.3753 122.231 25.9819 122.231 26.7566C122.231 27.1393 122.165 27.4799 122.035 27.7786C121.913 28.0679 121.764 28.3106 121.587 28.5066C121.409 28.7026 121.171 28.9359 120.873 29.2066C120.49 29.5519 120.205 29.8553 120.019 30.1166C119.841 30.3779 119.753 30.6999 119.753 31.0826H118.353ZM119.067 34.2606C118.805 34.2606 118.586 34.1766 118.409 34.0086C118.241 33.8313 118.157 33.6166 118.157 33.3646C118.157 33.1126 118.241 32.9026 118.409 32.7346C118.586 32.5573 118.805 32.4686 119.067 32.4686C119.328 32.4686 119.543 32.5573 119.711 32.7346C119.879 32.9026 119.963 33.1126 119.963 33.3646C119.963 33.6166 119.874 33.8313 119.697 34.0086C119.529 34.1766 119.319 34.2606 119.067 34.2606Z" fill="white"/>
</svg>
