<svg width="205" height="41" viewBox="0 0 205 41" fill="none" xmlns="http://www.w3.org/2000/svg">
<rect x="0.227234" y="0.925369" width="204.295" height="39.7212" rx="12" fill="#F87C6B"/>
<path d="M13.2349 18.1622C12.2455 18.1622 11.3542 17.9475 10.5609 17.5182C9.76752 17.0795 9.14218 16.4775 8.68485 15.7122C8.23685 14.9469 8.01285 14.0929 8.01285 13.1502C8.01285 12.2075 8.23685 11.3535 8.68485 10.5882C9.14218 9.82285 9.76752 9.22552 10.5609 8.79619C11.3542 8.35752 12.2455 8.13819 13.2349 8.13819C14.2149 8.13819 15.1015 8.35752 15.8949 8.79619C16.6882 9.22552 17.3089 9.82285 17.7569 10.5882C18.2049 11.3442 18.4289 12.1982 18.4289 13.1502C18.4289 14.1022 18.2049 14.9609 17.7569 15.7262C17.3089 16.4822 16.6882 17.0795 15.8949 17.5182C15.1015 17.9475 14.2149 18.1622 13.2349 18.1622ZM13.2349 16.9162C13.9535 16.9162 14.5975 16.7529 15.1669 16.4262C15.7455 16.0995 16.1982 15.6515 16.5249 15.0822C16.8609 14.5035 17.0289 13.8595 17.0289 13.1502C17.0289 12.4409 16.8609 11.8015 16.5249 11.2322C16.1982 10.6535 15.7455 10.2009 15.1669 9.87419C14.5975 9.54752 13.9535 9.38419 13.2349 9.38419C12.5162 9.38419 11.8629 9.54752 11.2749 9.87419C10.6962 10.2009 10.2389 10.6535 9.90285 11.2322C9.57618 11.8015 9.41285 12.4409 9.41285 13.1502C9.41285 13.8595 9.57618 14.5035 9.90285 15.0822C10.2389 15.6515 10.6962 16.0995 11.2749 16.4262C11.8629 16.7529 12.5162 16.9162 13.2349 16.9162ZM24.8947 10.5602C25.8373 10.5602 26.584 10.8355 27.1347 11.3862C27.6947 11.9275 27.9747 12.7255 27.9747 13.7802V18.0502H26.6307V13.9342C26.6307 13.2155 26.458 12.6742 26.1127 12.3102C25.7673 11.9462 25.2727 11.7642 24.6287 11.7642C23.9007 11.7642 23.3267 11.9789 22.9067 12.4082C22.4867 12.8282 22.2767 13.4349 22.2767 14.2282V18.0502H20.9327V10.6302H22.2207V11.7502C22.4913 11.3675 22.8553 11.0735 23.3127 10.8682C23.7793 10.6629 24.3067 10.5602 24.8947 10.5602ZM31.022 7.66219H32.366V18.0502H31.022V7.66219ZM42.0581 10.6302L38.4601 18.7922C38.1428 19.5482 37.7695 20.0802 37.3401 20.3882C36.9201 20.6962 36.4115 20.8502 35.8141 20.8502C35.4501 20.8502 35.0955 20.7895 34.7501 20.6682C34.4141 20.5562 34.1341 20.3882 33.9101 20.1642L34.4841 19.1562C34.8668 19.5202 35.3101 19.7022 35.8141 19.7022C36.1408 19.7022 36.4115 19.6135 36.6261 19.4362C36.8501 19.2682 37.0508 18.9742 37.2281 18.5542L37.4661 18.0362L34.1901 10.6302H35.5901L38.1801 16.5662L40.7421 10.6302H42.0581ZM50.8942 10.5602C51.9209 10.5602 52.7049 10.8122 53.2462 11.3162C53.7969 11.8202 54.0722 12.5715 54.0722 13.5702V18.0502H52.7982V17.0702C52.5742 17.4155 52.2522 17.6815 51.8322 17.8682C51.4215 18.0455 50.9315 18.1342 50.3622 18.1342C49.5315 18.1342 48.8642 17.9335 48.3602 17.5322C47.8655 17.1309 47.6182 16.6035 47.6182 15.9502C47.6182 15.2969 47.8562 14.7742 48.3322 14.3822C48.8082 13.9809 49.5642 13.7802 50.6002 13.7802H52.7282V13.5142C52.7282 12.9355 52.5602 12.4922 52.2242 12.1842C51.8882 11.8762 51.3935 11.7222 50.7402 11.7222C50.3015 11.7222 49.8722 11.7969 49.4522 11.9462C49.0322 12.0862 48.6775 12.2775 48.3882 12.5202L47.8282 11.5122C48.2109 11.2042 48.6682 10.9709 49.2002 10.8122C49.7322 10.6442 50.2969 10.5602 50.8942 10.5602ZM50.5862 17.0982C51.0995 17.0982 51.5429 16.9862 51.9162 16.7622C52.2895 16.5289 52.5602 16.2022 52.7282 15.7822V14.7462H50.6562C49.5175 14.7462 48.9482 15.1289 48.9482 15.8942C48.9482 16.2675 49.0929 16.5615 49.3822 16.7762C49.6715 16.9909 50.0729 17.0982 50.5862 17.0982ZM64.1551 8.68419C63.3525 8.68419 62.9511 9.11819 62.9511 9.98619V10.6302H65.1071V11.7362H62.9791V18.0502H61.6351V11.7362H60.3751V10.6302H61.6351V9.97219C61.6351 9.23485 61.8498 8.65152 62.2791 8.22219C62.7085 7.79285 63.3105 7.57819 64.0851 7.57819C64.3838 7.57819 64.6638 7.61552 64.9251 7.69019C65.1865 7.76485 65.4105 7.87219 65.5971 8.01219L65.1911 9.03419C64.8831 8.80085 64.5378 8.68419 64.1551 8.68419ZM73.5313 14.3822C73.5313 14.4849 73.522 14.6202 73.5033 14.7882H67.4833C67.5673 15.4415 67.852 15.9689 68.3373 16.3702C68.832 16.7622 69.4433 16.9582 70.1713 16.9582C71.058 16.9582 71.772 16.6595 72.3133 16.0622L73.0553 16.9302C72.7193 17.3222 72.2993 17.6209 71.7953 17.8262C71.3007 18.0315 70.7453 18.1342 70.1293 18.1342C69.3453 18.1342 68.65 17.9755 68.0433 17.6582C67.4367 17.3315 66.9653 16.8789 66.6293 16.3002C66.3027 15.7215 66.1393 15.0682 66.1393 14.3402C66.1393 13.6215 66.298 12.9729 66.6153 12.3942C66.942 11.8155 67.3853 11.3675 67.9453 11.0502C68.5147 10.7235 69.154 10.5602 69.8633 10.5602C70.5727 10.5602 71.2027 10.7235 71.7533 11.0502C72.3133 11.3675 72.7473 11.8155 73.0553 12.3942C73.3727 12.9729 73.5313 13.6355 73.5313 14.3822ZM69.8633 11.6942C69.2193 11.6942 68.678 11.8902 68.2393 12.2822C67.81 12.6742 67.558 13.1875 67.4833 13.8222H72.2433C72.1687 13.1969 71.912 12.6882 71.4733 12.2962C71.044 11.8949 70.5073 11.6942 69.8633 11.6942ZM87.0489 10.6302L84.2769 18.0502H82.9889L80.8469 12.4222L78.6769 18.0502H77.3889L74.6309 10.6302H75.9049L78.0609 16.5382L80.3009 10.6302H81.4349L83.6329 16.5662L85.8449 10.6302H87.0489ZM102.574 10.5602C103.508 10.5602 104.245 10.8309 104.786 11.3722C105.337 11.9135 105.612 12.7162 105.612 13.7802V18.0502H104.268V13.9342C104.268 13.2155 104.1 12.6742 103.764 12.3102C103.438 11.9462 102.966 11.7642 102.35 11.7642C101.669 11.7642 101.128 11.9789 100.726 12.4082C100.325 12.8282 100.124 13.4349 100.124 14.2282V18.0502H98.7804V13.9342C98.7804 13.2155 98.6124 12.6742 98.2764 12.3102C97.9498 11.9462 97.4784 11.7642 96.8624 11.7642C96.1811 11.7642 95.6398 11.9789 95.2384 12.4082C94.8371 12.8282 94.6364 13.4349 94.6364 14.2282V18.0502H93.2924V10.6302H94.5804V11.7362C94.8511 11.3535 95.2058 11.0642 95.6444 10.8682C96.0831 10.6629 96.5824 10.5602 97.1424 10.5602C97.7211 10.5602 98.2344 10.6769 98.6824 10.9102C99.1304 11.1435 99.4758 11.4842 99.7184 11.9322C99.9984 11.5029 100.386 11.1669 100.88 10.9242C101.384 10.6815 101.949 10.5602 102.574 10.5602ZM111.864 18.1342C111.127 18.1342 110.464 17.9709 109.876 17.6442C109.288 17.3175 108.826 16.8695 108.49 16.3002C108.164 15.7215 108 15.0682 108 14.3402C108 13.6122 108.164 12.9635 108.49 12.3942C108.826 11.8155 109.288 11.3675 109.876 11.0502C110.464 10.7235 111.127 10.5602 111.864 10.5602C112.602 10.5602 113.26 10.7235 113.838 11.0502C114.426 11.3675 114.884 11.8155 115.21 12.3942C115.546 12.9635 115.714 13.6122 115.714 14.3402C115.714 15.0682 115.546 15.7215 115.21 16.3002C114.884 16.8695 114.426 17.3175 113.838 17.6442C113.26 17.9709 112.602 18.1342 111.864 18.1342ZM111.864 16.9582C112.34 16.9582 112.765 16.8509 113.138 16.6362C113.521 16.4122 113.82 16.1042 114.034 15.7122C114.249 15.3109 114.356 14.8535 114.356 14.3402C114.356 13.8269 114.249 13.3742 114.034 12.9822C113.82 12.5809 113.521 12.2729 113.138 12.0582C112.765 11.8435 112.34 11.7362 111.864 11.7362C111.388 11.7362 110.959 11.8435 110.576 12.0582C110.203 12.2729 109.904 12.5809 109.68 12.9822C109.466 13.3742 109.358 13.8269 109.358 14.3402C109.358 14.8535 109.466 15.3109 109.68 15.7122C109.904 16.1042 110.203 16.4122 110.576 16.6362C110.959 16.8509 111.388 16.9582 111.864 16.9582ZM122.095 10.5602C123.038 10.5602 123.784 10.8355 124.335 11.3862C124.895 11.9275 125.175 12.7255 125.175 13.7802V18.0502H123.831V13.9342C123.831 13.2155 123.658 12.6742 123.313 12.3102C122.968 11.9462 122.473 11.7642 121.829 11.7642C121.101 11.7642 120.527 11.9789 120.107 12.4082C119.687 12.8282 119.477 13.4349 119.477 14.2282V18.0502H118.133V10.6302H119.421V11.7502C119.692 11.3675 120.056 11.0735 120.513 10.8682C120.98 10.6629 121.507 10.5602 122.095 10.5602ZM132.394 17.6162C132.198 17.7842 131.956 17.9149 131.666 18.0082C131.377 18.0922 131.078 18.1342 130.77 18.1342C130.024 18.1342 129.445 17.9335 129.034 17.5322C128.624 17.1309 128.418 16.5569 128.418 15.8102V11.7362H127.158V10.6302H128.418V9.00619H129.762V10.6302H131.89V11.7362H129.762V15.7542C129.762 16.1555 129.86 16.4635 130.056 16.6782C130.262 16.8929 130.551 17.0002 130.924 17.0002C131.335 17.0002 131.685 16.8835 131.974 16.6502L132.394 17.6162ZM138.541 10.5602C139.484 10.5602 140.231 10.8355 140.781 11.3862C141.341 11.9275 141.621 12.7255 141.621 13.7802V18.0502H140.277V13.9342C140.277 13.2155 140.105 12.6742 139.759 12.3102C139.414 11.9462 138.919 11.7642 138.275 11.7642C137.547 11.7642 136.973 11.9789 136.553 12.4082C136.133 12.8282 135.923 13.4349 135.923 14.2282V18.0502H134.579V7.66219H135.923V11.6802C136.203 11.3255 136.567 11.0502 137.015 10.8542C137.473 10.6582 137.981 10.5602 138.541 10.5602ZM146.797 18.1342C146.19 18.1342 145.607 18.0549 145.047 17.8962C144.487 17.7282 144.048 17.5182 143.731 17.2662L144.291 16.2022C144.617 16.4355 145.014 16.6222 145.481 16.7622C145.947 16.9022 146.419 16.9722 146.895 16.9722C148.071 16.9722 148.659 16.6362 148.659 15.9642C148.659 15.7402 148.579 15.5629 148.421 15.4322C148.262 15.3015 148.061 15.2082 147.819 15.1522C147.585 15.0869 147.249 15.0169 146.811 14.9422C146.213 14.8489 145.723 14.7415 145.341 14.6202C144.967 14.4989 144.645 14.2935 144.375 14.0042C144.104 13.7149 143.969 13.3089 143.969 12.7862C143.969 12.1142 144.249 11.5775 144.809 11.1762C145.369 10.7655 146.12 10.5602 147.063 10.5602C147.557 10.5602 148.052 10.6209 148.547 10.7422C149.041 10.8635 149.447 11.0269 149.765 11.2322L149.191 12.2962C148.584 11.9042 147.87 11.7082 147.049 11.7082C146.479 11.7082 146.045 11.8015 145.747 11.9882C145.448 12.1749 145.299 12.4222 145.299 12.7302C145.299 12.9729 145.383 13.1642 145.551 13.3042C145.719 13.4442 145.924 13.5469 146.167 13.6122C146.419 13.6775 146.769 13.7522 147.217 13.8362C147.814 13.9389 148.295 14.0509 148.659 14.1722C149.032 14.2842 149.349 14.4802 149.611 14.7602C149.872 15.0402 150.003 15.4322 150.003 15.9362C150.003 16.6082 149.713 17.1449 149.135 17.5462C148.565 17.9382 147.786 18.1342 146.797 18.1342ZM152.564 18.1342C152.303 18.1342 152.079 18.0455 151.892 17.8682C151.706 17.6815 151.612 17.4482 151.612 17.1682C151.612 16.8975 151.706 16.6735 151.892 16.4962C152.079 16.3095 152.303 16.2162 152.564 16.2162C152.826 16.2162 153.045 16.3049 153.222 16.4822C153.4 16.6595 153.488 16.8882 153.488 17.1682C153.488 17.4482 153.395 17.6815 153.208 17.8682C153.031 18.0455 152.816 18.1342 152.564 18.1342ZM156.296 18.1342C156.035 18.1342 155.811 18.0455 155.624 17.8682C155.437 17.6815 155.344 17.4482 155.344 17.1682C155.344 16.8975 155.437 16.6735 155.624 16.4962C155.811 16.3095 156.035 16.2162 156.296 16.2162C156.557 16.2162 156.777 16.3049 156.954 16.4822C157.131 16.6595 157.22 16.8882 157.22 17.1682C157.22 17.4482 157.127 17.6815 156.94 17.8682C156.763 18.0455 156.548 18.1342 156.296 18.1342ZM160.028 18.1342C159.767 18.1342 159.543 18.0455 159.356 17.8682C159.169 17.6815 159.076 17.4482 159.076 17.1682C159.076 16.8975 159.169 16.6735 159.356 16.4962C159.543 16.3095 159.767 16.2162 160.028 16.2162C160.289 16.2162 160.509 16.3049 160.686 16.4822C160.863 16.6595 160.952 16.8882 160.952 17.1682C160.952 17.4482 160.859 17.6815 160.672 17.8682C160.495 18.0455 160.28 18.1342 160.028 18.1342ZM167.954 8.25019H169.354V18.0502H167.954V8.25019ZM172.988 7.57819C173.249 7.57819 173.464 7.67152 173.632 7.85819C173.809 8.03552 173.898 8.25952 173.898 8.53019C173.898 8.67019 173.884 8.81019 173.856 8.95019C173.828 9.08085 173.767 9.27219 173.674 9.52419L173.002 11.4842H172.12L172.638 9.39819C172.46 9.33285 172.316 9.22552 172.204 9.07619C172.101 8.91752 172.05 8.73552 172.05 8.53019C172.05 8.25019 172.138 8.02152 172.316 7.84419C172.493 7.66685 172.717 7.57819 172.988 7.57819ZM185.666 10.5602C186.599 10.5602 187.336 10.8309 187.878 11.3722C188.428 11.9135 188.704 12.7162 188.704 13.7802V18.0502H187.36V13.9342C187.36 13.2155 187.192 12.6742 186.856 12.3102C186.529 11.9462 186.058 11.7642 185.442 11.7642C184.76 11.7642 184.219 11.9789 183.818 12.4082C183.416 12.8282 183.216 13.4349 183.216 14.2282V18.0502H181.872V13.9342C181.872 13.2155 181.704 12.6742 181.368 12.3102C181.041 11.9462 180.57 11.7642 179.954 11.7642C179.272 11.7642 178.731 11.9789 178.33 12.4082C177.928 12.8282 177.728 13.4349 177.728 14.2282V18.0502H176.384V10.6302H177.672V11.7362C177.942 11.3535 178.297 11.0642 178.736 10.8682C179.174 10.6629 179.674 10.5602 180.234 10.5602C180.812 10.5602 181.326 10.6769 181.774 10.9102C182.222 11.1435 182.567 11.4842 182.81 11.9322C183.09 11.5029 183.477 11.1669 183.972 10.9242C184.476 10.6815 185.04 10.5602 185.666 10.5602ZM12.5769 25.5602C13.5195 25.5602 14.2662 25.8355 14.8169 26.3862C15.3769 26.9275 15.6569 27.7255 15.6569 28.7802V33.0502H14.3129V28.9342C14.3129 28.2155 14.1402 27.6742 13.7949 27.3102C13.4495 26.9462 12.9549 26.7642 12.3109 26.7642C11.5829 26.7642 11.0089 26.9789 10.5889 27.4082C10.1689 27.8282 9.95885 28.4349 9.95885 29.2282V33.0502H8.61485V25.6302H9.90285V26.7502C10.1735 26.3675 10.5375 26.0735 10.9949 25.8682C11.4615 25.6629 11.9889 25.5602 12.5769 25.5602ZM21.9232 33.1342C21.1858 33.1342 20.5232 32.9709 19.9352 32.6442C19.3472 32.3175 18.8852 31.8695 18.5492 31.3002C18.2225 30.7215 18.0592 30.0682 18.0592 29.3402C18.0592 28.6122 18.2225 27.9635 18.5492 27.3942C18.8852 26.8155 19.3472 26.3675 19.9352 26.0502C20.5232 25.7235 21.1858 25.5602 21.9232 25.5602C22.6605 25.5602 23.3185 25.7235 23.8972 26.0502C24.4852 26.3675 24.9425 26.8155 25.2692 27.3942C25.6052 27.9635 25.7732 28.6122 25.7732 29.3402C25.7732 30.0682 25.6052 30.7215 25.2692 31.3002C24.9425 31.8695 24.4852 32.3175 23.8972 32.6442C23.3185 32.9709 22.6605 33.1342 21.9232 33.1342ZM21.9232 31.9582C22.3992 31.9582 22.8238 31.8509 23.1972 31.6362C23.5798 31.4122 23.8785 31.1042 24.0932 30.7122C24.3078 30.3109 24.4152 29.8535 24.4152 29.3402C24.4152 28.8269 24.3078 28.3742 24.0932 27.9822C23.8785 27.5809 23.5798 27.2729 23.1972 27.0582C22.8238 26.8435 22.3992 26.7362 21.9232 26.7362C21.4472 26.7362 21.0178 26.8435 20.6352 27.0582C20.2618 27.2729 19.9632 27.5809 19.7392 27.9822C19.5245 28.3742 19.4172 28.8269 19.4172 29.3402C19.4172 29.8535 19.5245 30.3109 19.7392 30.7122C19.9632 31.1042 20.2618 31.4122 20.6352 31.6362C21.0178 31.8509 21.4472 31.9582 21.9232 31.9582ZM32.3639 32.6162C32.1679 32.7842 31.9252 32.9149 31.6359 33.0082C31.3465 33.0922 31.0479 33.1342 30.7399 33.1342C29.9932 33.1342 29.4145 32.9335 29.0039 32.5322C28.5932 32.1309 28.3879 31.5569 28.3879 30.8102V26.7362H27.1279V25.6302H28.3879V24.0062H29.7319V25.6302H31.8599V26.7362H29.7319V30.7542C29.7319 31.1555 29.8299 31.4635 30.0259 31.6782C30.2312 31.8929 30.5205 32.0002 30.8939 32.0002C31.3045 32.0002 31.6545 31.8835 31.9439 31.6502L32.3639 32.6162ZM45.4345 25.6302L42.1865 33.0502H40.8145L37.5665 25.6302H38.9665L41.5145 31.5802L44.1185 25.6302H45.4345ZM53.7498 29.3822C53.7498 29.4849 53.7404 29.6202 53.7218 29.7882H47.7018C47.7858 30.4415 48.0704 30.9689 48.5558 31.3702C49.0504 31.7622 49.6618 31.9582 50.3898 31.9582C51.2764 31.9582 51.9904 31.6595 52.5318 31.0622L53.2738 31.9302C52.9378 32.3222 52.5178 32.6209 52.0138 32.8262C51.5191 33.0315 50.9638 33.1342 50.3478 33.1342C49.5638 33.1342 48.8684 32.9755 48.2618 32.6582C47.6551 32.3315 47.1838 31.8789 46.8478 31.3002C46.5211 30.7215 46.3578 30.0682 46.3578 29.3402C46.3578 28.6215 46.5164 27.9729 46.8338 27.3942C47.1604 26.8155 47.6038 26.3675 48.1638 26.0502C48.7331 25.7235 49.3724 25.5602 50.0818 25.5602C50.7911 25.5602 51.4211 25.7235 51.9718 26.0502C52.5318 26.3675 52.9658 26.8155 53.2738 27.3942C53.5911 27.9729 53.7498 28.6355 53.7498 29.3822ZM50.0818 26.6942C49.4378 26.6942 48.8964 26.8902 48.4578 27.2822C48.0284 27.6742 47.7764 28.1875 47.7018 28.8222H52.4618C52.3871 28.1969 52.1304 27.6882 51.6918 27.2962C51.2624 26.8949 50.7258 26.6942 50.0818 26.6942ZM57.464 26.8762C57.6974 26.4469 58.0427 26.1202 58.5 25.8962C58.9574 25.6722 59.5127 25.5602 60.166 25.5602V26.8622C60.0914 26.8529 59.9887 26.8482 59.858 26.8482C59.13 26.8482 58.556 27.0675 58.136 27.5062C57.7254 27.9355 57.52 28.5515 57.52 29.3542V33.0502H56.176V25.6302H57.464V26.8762ZM69.2493 25.6302L65.6513 33.7922C65.334 34.5482 64.9606 35.0802 64.5313 35.3882C64.1113 35.6962 63.6026 35.8502 63.0053 35.8502C62.6413 35.8502 62.2866 35.7895 61.9413 35.6682C61.6053 35.5562 61.3253 35.3882 61.1013 35.1642L61.6753 34.1562C62.058 34.5202 62.5013 34.7022 63.0053 34.7022C63.332 34.7022 63.6026 34.6135 63.8173 34.4362C64.0413 34.2682 64.242 33.9742 64.4193 33.5542L64.6573 33.0362L61.3813 25.6302H62.7813L65.3713 31.5662L67.9333 25.6302H69.2493ZM82.4814 25.6302V32.0422C82.4814 33.3395 82.1594 34.2962 81.5154 34.9122C80.8714 35.5375 79.91 35.8502 78.6314 35.8502C77.9314 35.8502 77.264 35.7522 76.6294 35.5562C75.9947 35.3695 75.4814 35.0989 75.0894 34.7442L75.7334 33.7082C76.0787 34.0069 76.5034 34.2402 77.0074 34.4082C77.5207 34.5855 78.048 34.6742 78.5894 34.6742C79.4574 34.6742 80.0967 34.4689 80.5074 34.0582C80.9274 33.6475 81.1374 33.0222 81.1374 32.1822V31.5942C80.82 31.9769 80.428 32.2662 79.9614 32.4622C79.504 32.6489 79.0047 32.7422 78.4634 32.7422C77.754 32.7422 77.11 32.5929 76.5314 32.2942C75.962 31.9862 75.514 31.5615 75.1874 31.0202C74.8607 30.4695 74.6974 29.8442 74.6974 29.1442C74.6974 28.4442 74.8607 27.8235 75.1874 27.2822C75.514 26.7315 75.962 26.3069 76.5314 26.0082C77.11 25.7095 77.754 25.5602 78.4634 25.5602C79.0234 25.5602 79.5414 25.6629 80.0174 25.8682C80.5027 26.0735 80.8994 26.3769 81.2074 26.7782V25.6302H82.4814ZM78.6174 31.5662C79.1027 31.5662 79.5367 31.4635 79.9194 31.2582C80.3114 31.0529 80.6147 30.7682 80.8294 30.4042C81.0534 30.0309 81.1654 29.6109 81.1654 29.1442C81.1654 28.4255 80.9274 27.8469 80.4514 27.4082C79.9754 26.9602 79.364 26.7362 78.6174 26.7362C77.8614 26.7362 77.2454 26.9602 76.7694 27.4082C76.2934 27.8469 76.0554 28.4255 76.0554 29.1442C76.0554 29.6109 76.1627 30.0309 76.3774 30.4042C76.6014 30.7682 76.9047 31.0529 77.2874 31.2582C77.6794 31.4635 78.1227 31.5662 78.6174 31.5662ZM88.7874 33.1342C88.05 33.1342 87.3874 32.9709 86.7994 32.6442C86.2114 32.3175 85.7494 31.8695 85.4134 31.3002C85.0867 30.7215 84.9234 30.0682 84.9234 29.3402C84.9234 28.6122 85.0867 27.9635 85.4134 27.3942C85.7494 26.8155 86.2114 26.3675 86.7994 26.0502C87.3874 25.7235 88.05 25.5602 88.7874 25.5602C89.5247 25.5602 90.1827 25.7235 90.7614 26.0502C91.3494 26.3675 91.8067 26.8155 92.1334 27.3942C92.4694 27.9635 92.6374 28.6122 92.6374 29.3402C92.6374 30.0682 92.4694 30.7215 92.1334 31.3002C91.8067 31.8695 91.3494 32.3175 90.7614 32.6442C90.1827 32.9709 89.5247 33.1342 88.7874 33.1342ZM88.7874 31.9582C89.2634 31.9582 89.688 31.8509 90.0614 31.6362C90.444 31.4122 90.7427 31.1042 90.9574 30.7122C91.172 30.3109 91.2794 29.8535 91.2794 29.3402C91.2794 28.8269 91.172 28.3742 90.9574 27.9822C90.7427 27.5809 90.444 27.2729 90.0614 27.0582C89.688 26.8435 89.2634 26.7362 88.7874 26.7362C88.3114 26.7362 87.882 26.8435 87.4994 27.0582C87.126 27.2729 86.8274 27.5809 86.6034 27.9822C86.3887 28.3742 86.2814 28.8269 86.2814 29.3402C86.2814 29.8535 86.3887 30.3109 86.6034 30.7122C86.8274 31.1042 87.126 31.4122 87.4994 31.6362C87.882 31.8509 88.3114 31.9582 88.7874 31.9582ZM98.2341 33.1342C97.4968 33.1342 96.8341 32.9709 96.2461 32.6442C95.6581 32.3175 95.1961 31.8695 94.8601 31.3002C94.5334 30.7215 94.3701 30.0682 94.3701 29.3402C94.3701 28.6122 94.5334 27.9635 94.8601 27.3942C95.1961 26.8155 95.6581 26.3675 96.2461 26.0502C96.8341 25.7235 97.4968 25.5602 98.2341 25.5602C98.9714 25.5602 99.6294 25.7235 100.208 26.0502C100.796 26.3675 101.253 26.8155 101.58 27.3942C101.916 27.9635 102.084 28.6122 102.084 29.3402C102.084 30.0682 101.916 30.7215 101.58 31.3002C101.253 31.8695 100.796 32.3175 100.208 32.6442C99.6294 32.9709 98.9714 33.1342 98.2341 33.1342ZM98.2341 31.9582C98.7101 31.9582 99.1348 31.8509 99.5081 31.6362C99.8908 31.4122 100.189 31.1042 100.404 30.7122C100.619 30.3109 100.726 29.8535 100.726 29.3402C100.726 28.8269 100.619 28.3742 100.404 27.9822C100.189 27.5809 99.8908 27.2729 99.5081 27.0582C99.1348 26.8435 98.7101 26.7362 98.2341 26.7362C97.7581 26.7362 97.3288 26.8435 96.9461 27.0582C96.5728 27.2729 96.2741 27.5809 96.0501 27.9822C95.8354 28.3742 95.7281 28.8269 95.7281 29.3402C95.7281 29.8535 95.8354 30.3109 96.0501 30.7122C96.2741 31.1042 96.5728 31.4122 96.9461 31.6362C97.3288 31.8509 97.7581 31.9582 98.2341 31.9582ZM111.503 22.6622V33.0502H110.215V31.8742C109.916 32.2849 109.538 32.5975 109.081 32.8122C108.623 33.0269 108.119 33.1342 107.569 33.1342C106.85 33.1342 106.206 32.9755 105.637 32.6582C105.067 32.3409 104.619 31.8975 104.293 31.3282C103.975 30.7495 103.817 30.0869 103.817 29.3402C103.817 28.5935 103.975 27.9355 104.293 27.3662C104.619 26.7969 105.067 26.3535 105.637 26.0362C106.206 25.7189 106.85 25.5602 107.569 25.5602C108.101 25.5602 108.591 25.6629 109.039 25.8682C109.487 26.0642 109.86 26.3582 110.159 26.7502V22.6622H111.503ZM107.681 31.9582C108.147 31.9582 108.572 31.8509 108.955 31.6362C109.337 31.4122 109.636 31.1042 109.851 30.7122C110.065 30.3109 110.173 29.8535 110.173 29.3402C110.173 28.8269 110.065 28.3742 109.851 27.9822C109.636 27.5809 109.337 27.2729 108.955 27.0582C108.572 26.8435 108.147 26.7362 107.681 26.7362C107.205 26.7362 106.775 26.8435 106.393 27.0582C106.019 27.2729 105.721 27.5809 105.497 27.9822C105.282 28.3742 105.175 28.8269 105.175 29.3402C105.175 29.8535 105.282 30.3109 105.497 30.7122C105.721 31.1042 106.019 31.4122 106.393 31.6362C106.775 31.8509 107.205 31.9582 107.681 31.9582ZM114.942 31.2162C115.203 31.2162 115.418 31.3095 115.586 31.4962C115.763 31.6735 115.852 31.8975 115.852 32.1682C115.852 32.3082 115.833 32.4435 115.796 32.5742C115.768 32.7049 115.707 32.9055 115.614 33.1762L114.956 35.1222H114.074L114.592 33.0362C114.414 32.9709 114.27 32.8635 114.158 32.7142C114.055 32.5555 114.004 32.3735 114.004 32.1682C114.004 31.8882 114.092 31.6595 114.27 31.4822C114.447 31.3049 114.671 31.2162 114.942 31.2162ZM126.619 25.5602C127.562 25.5602 128.309 25.8355 128.859 26.3862C129.419 26.9275 129.699 27.7255 129.699 28.7802V33.0502H128.355V28.9342C128.355 28.2155 128.183 27.6742 127.837 27.3102C127.492 26.9462 126.997 26.7642 126.353 26.7642C125.625 26.7642 125.051 26.9789 124.631 27.4082C124.211 27.8282 124.001 28.4349 124.001 29.2282V33.0502H122.657V22.6622H124.001V26.6802C124.281 26.3255 124.645 26.0502 125.093 25.8542C125.551 25.6582 126.059 25.5602 126.619 25.5602ZM135.449 25.5602C136.475 25.5602 137.259 25.8122 137.801 26.3162C138.351 26.8202 138.627 27.5715 138.627 28.5702V33.0502H137.353V32.0702C137.129 32.4155 136.807 32.6815 136.387 32.8682C135.976 33.0455 135.486 33.1342 134.917 33.1342C134.086 33.1342 133.419 32.9335 132.915 32.5322C132.42 32.1309 132.173 31.6035 132.173 30.9502C132.173 30.2969 132.411 29.7742 132.887 29.3822C133.363 28.9809 134.119 28.7802 135.155 28.7802H137.283V28.5142C137.283 27.9355 137.115 27.4922 136.779 27.1842C136.443 26.8762 135.948 26.7222 135.295 26.7222C134.856 26.7222 134.427 26.7969 134.007 26.9462C133.587 27.0862 133.232 27.2775 132.943 27.5202L132.383 26.5122C132.765 26.2042 133.223 25.9709 133.755 25.8122C134.287 25.6442 134.851 25.5602 135.449 25.5602ZM135.141 32.0982C135.654 32.0982 136.097 31.9862 136.471 31.7622C136.844 31.5289 137.115 31.2022 137.283 30.7822V29.7462H135.211C134.072 29.7462 133.503 30.1289 133.503 30.8942C133.503 31.2675 133.647 31.5615 133.937 31.7762C134.226 31.9909 134.627 32.0982 135.141 32.0982ZM145.636 25.5602C146.579 25.5602 147.325 25.8355 147.876 26.3862C148.436 26.9275 148.716 27.7255 148.716 28.7802V33.0502H147.372V28.9342C147.372 28.2155 147.199 27.6742 146.854 27.3102C146.509 26.9462 146.014 26.7642 145.37 26.7642C144.642 26.7642 144.068 26.9789 143.648 27.4082C143.228 27.8282 143.018 28.4349 143.018 29.2282V33.0502H141.674V22.6622H143.018V26.6802C143.298 26.3255 143.662 26.0502 144.11 25.8542C144.567 25.6582 145.076 25.5602 145.636 25.5602ZM154.465 25.5602C155.492 25.5602 156.276 25.8122 156.817 26.3162C157.368 26.8202 157.643 27.5715 157.643 28.5702V33.0502H156.369V32.0702C156.145 32.4155 155.823 32.6815 155.403 32.8682C154.993 33.0455 154.503 33.1342 153.933 33.1342C153.103 33.1342 152.435 32.9335 151.931 32.5322C151.437 32.1309 151.189 31.6035 151.189 30.9502C151.189 30.2969 151.427 29.7742 151.903 29.3822C152.379 28.9809 153.135 28.7802 154.171 28.7802H156.299V28.5142C156.299 27.9355 156.131 27.4922 155.795 27.1842C155.459 26.8762 154.965 26.7222 154.311 26.7222C153.873 26.7222 153.443 26.7969 153.023 26.9462C152.603 27.0862 152.249 27.2775 151.959 27.5202L151.399 26.5122C151.782 26.2042 152.239 25.9709 152.771 25.8122C153.303 25.6442 153.868 25.5602 154.465 25.5602ZM154.157 32.0982C154.671 32.0982 155.114 31.9862 155.487 31.7622C155.861 31.5289 156.131 31.2022 156.299 30.7822V29.7462H154.227C153.089 29.7462 152.519 30.1289 152.519 30.8942C152.519 31.2675 152.664 31.5615 152.953 31.7762C153.243 31.9909 153.644 32.0982 154.157 32.0982ZM169.742 33.0502L167.6 30.2082L165.43 33.0502H163.932L166.858 29.2562L164.072 25.6302H165.57L167.614 28.3042L169.644 25.6302H171.114L168.314 29.2562L171.268 33.0502H169.742ZM173.491 23.2502H177.621C178.657 23.2502 179.576 23.4555 180.379 23.8662C181.181 24.2769 181.802 24.8555 182.241 25.6022C182.689 26.3395 182.913 27.1889 182.913 28.1502C182.913 29.1115 182.689 29.9655 182.241 30.7122C181.802 31.4495 181.181 32.0235 180.379 32.4342C179.576 32.8449 178.657 33.0502 177.621 33.0502H173.491V23.2502ZM177.537 31.8322C178.33 31.8322 179.025 31.6782 179.623 31.3702C180.229 31.0622 180.696 30.6329 181.023 30.0822C181.349 29.5222 181.513 28.8782 181.513 28.1502C181.513 27.4222 181.349 26.7829 181.023 26.2322C180.696 25.6722 180.229 25.2382 179.623 24.9302C179.025 24.6222 178.33 24.4682 177.537 24.4682H174.891V31.8322H177.537Z" fill="white"/>
</svg>
