<svg width="204" height="23" viewBox="0 0 204 23" fill="none" xmlns="http://www.w3.org/2000/svg">
<rect x="0.227234" y="0.25766" width="138.557" height="22.5689" rx="11.2844" fill="#F87C6B"/>
<path d="M17.2389 7.58245V17.3824H15.8389V13.0144H10.2109V17.3824H8.81085V7.58245H10.2109V11.7964H15.8389V7.58245H17.2389ZM23.7142 17.4664C22.9768 17.4664 22.3142 17.3031 21.7262 16.9764C21.1382 16.6498 20.6762 16.2018 20.3402 15.6324C20.0135 15.0538 19.8502 14.4004 19.8502 13.6724C19.8502 12.9444 20.0135 12.2958 20.3402 11.7264C20.6762 11.1478 21.1382 10.6998 21.7262 10.3824C22.3142 10.0558 22.9768 9.89245 23.7142 9.89245C24.4515 9.89245 25.1095 10.0558 25.6882 10.3824C26.2762 10.6998 26.7335 11.1478 27.0602 11.7264C27.3962 12.2958 27.5642 12.9444 27.5642 13.6724C27.5642 14.4004 27.3962 15.0538 27.0602 15.6324C26.7335 16.2018 26.2762 16.6498 25.6882 16.9764C25.1095 17.3031 24.4515 17.4664 23.7142 17.4664ZM23.7142 16.2904C24.1902 16.2904 24.6148 16.1831 24.9882 15.9684C25.3708 15.7444 25.6695 15.4364 25.8842 15.0444C26.0988 14.6431 26.2062 14.1858 26.2062 13.6724C26.2062 13.1591 26.0988 12.7064 25.8842 12.3144C25.6695 11.9131 25.3708 11.6051 24.9882 11.3904C24.6148 11.1758 24.1902 11.0684 23.7142 11.0684C23.2382 11.0684 22.8088 11.1758 22.4262 11.3904C22.0528 11.6051 21.7542 11.9131 21.5302 12.3144C21.3155 12.7064 21.2082 13.1591 21.2082 13.6724C21.2082 14.1858 21.3155 14.6431 21.5302 15.0444C21.7542 15.4364 22.0528 15.7444 22.4262 15.9684C22.8088 16.1831 23.2382 16.2904 23.7142 16.2904ZM41.0058 9.96245L38.2338 17.3824H36.9458L34.8038 11.7544L32.6338 17.3824H31.3458L28.5878 9.96245H29.8618L32.0178 15.8704L34.2578 9.96245H35.3918L37.5898 15.8984L39.8018 9.96245H41.0058ZM49.9514 9.89245C50.9781 9.89245 51.7621 10.1444 52.3034 10.6484C52.8541 11.1524 53.1294 11.9038 53.1294 12.9024V17.3824H51.8554V16.4024C51.6314 16.7478 51.3094 17.0138 50.8894 17.2004C50.4787 17.3778 49.9887 17.4664 49.4194 17.4664C48.5887 17.4664 47.9214 17.2658 47.4174 16.8644C46.9227 16.4631 46.6754 15.9358 46.6754 15.2824C46.6754 14.6291 46.9134 14.1064 47.3894 13.7144C47.8654 13.3131 48.6214 13.1124 49.6574 13.1124H51.7854V12.8464C51.7854 12.2678 51.6174 11.8244 51.2814 11.5164C50.9454 11.2084 50.4507 11.0544 49.7974 11.0544C49.3587 11.0544 48.9294 11.1291 48.5094 11.2784C48.0894 11.4184 47.7347 11.6098 47.4454 11.8524L46.8854 10.8444C47.2681 10.5364 47.7254 10.3031 48.2574 10.1444C48.7894 9.97645 49.3541 9.89245 49.9514 9.89245ZM49.6434 16.4304C50.1567 16.4304 50.6001 16.3184 50.9734 16.0944C51.3467 15.8611 51.6174 15.5344 51.7854 15.1144V14.0784H49.7134C48.5747 14.0784 48.0054 14.4611 48.0054 15.2264C48.0054 15.5998 48.1501 15.8938 48.4394 16.1084C48.7287 16.3231 49.1301 16.4304 49.6434 16.4304ZM60.1106 9.89245C60.8292 9.89245 61.4732 10.0511 62.0426 10.3684C62.6119 10.6858 63.0552 11.1291 63.3726 11.6984C63.6992 12.2678 63.8626 12.9258 63.8626 13.6724C63.8626 14.4191 63.6992 15.0818 63.3726 15.6604C63.0552 16.2298 62.6119 16.6731 62.0426 16.9904C61.4732 17.3078 60.8292 17.4664 60.1106 17.4664C59.5599 17.4664 59.0559 17.3591 58.5986 17.1444C58.1412 16.9298 57.7632 16.6171 57.4646 16.2064V17.3824H56.1766V6.99445H57.5206V11.0824C57.8192 10.6904 58.1926 10.3964 58.6406 10.2004C59.0886 9.99511 59.5786 9.89245 60.1106 9.89245ZM59.9986 16.2904C60.4746 16.2904 60.8992 16.1831 61.2726 15.9684C61.6552 15.7444 61.9539 15.4364 62.1686 15.0444C62.3926 14.6431 62.5046 14.1858 62.5046 13.6724C62.5046 13.1591 62.3926 12.7064 62.1686 12.3144C61.9539 11.9131 61.6552 11.6051 61.2726 11.3904C60.8992 11.1758 60.4746 11.0684 59.9986 11.0684C59.5319 11.0684 59.1072 11.1758 58.7246 11.3904C58.3419 11.6051 58.0432 11.9131 57.8286 12.3144C57.6139 12.7064 57.5066 13.1591 57.5066 13.6724C57.5066 14.1858 57.6139 14.6431 57.8286 15.0444C58.0432 15.4364 58.3419 15.7444 58.7246 15.9684C59.1072 16.1831 59.5319 16.2904 59.9986 16.2904ZM69.4575 17.4664C68.7202 17.4664 68.0575 17.3031 67.4695 16.9764C66.8815 16.6498 66.4195 16.2018 66.0835 15.6324C65.7569 15.0538 65.5935 14.4004 65.5935 13.6724C65.5935 12.9444 65.7569 12.2958 66.0835 11.7264C66.4195 11.1478 66.8815 10.6998 67.4695 10.3824C68.0575 10.0558 68.7202 9.89245 69.4575 9.89245C70.1949 9.89245 70.8529 10.0558 71.4315 10.3824C72.0195 10.6998 72.4769 11.1478 72.8035 11.7264C73.1395 12.2958 73.3075 12.9444 73.3075 13.6724C73.3075 14.4004 73.1395 15.0538 72.8035 15.6324C72.4769 16.2018 72.0195 16.6498 71.4315 16.9764C70.8529 17.3031 70.1949 17.4664 69.4575 17.4664ZM69.4575 16.2904C69.9335 16.2904 70.3582 16.1831 70.7315 15.9684C71.1142 15.7444 71.4129 15.4364 71.6275 15.0444C71.8422 14.6431 71.9495 14.1858 71.9495 13.6724C71.9495 13.1591 71.8422 12.7064 71.6275 12.3144C71.4129 11.9131 71.1142 11.6051 70.7315 11.3904C70.3582 11.1758 69.9335 11.0684 69.4575 11.0684C68.9815 11.0684 68.5522 11.1758 68.1695 11.3904C67.7962 11.6051 67.4975 11.9131 67.2735 12.3144C67.0589 12.7064 66.9515 13.1591 66.9515 13.6724C66.9515 14.1858 67.0589 14.6431 67.2735 15.0444C67.4975 15.4364 67.7962 15.7444 68.1695 15.9684C68.5522 16.1831 68.9815 16.2904 69.4575 16.2904ZM82.6423 9.96245V17.3824H81.3683V16.2624C81.0976 16.6451 80.7383 16.9438 80.2903 17.1584C79.8516 17.3638 79.3709 17.4664 78.8483 17.4664C77.8589 17.4664 77.0796 17.1958 76.5103 16.6544C75.9409 16.1038 75.6563 15.2964 75.6563 14.2324V9.96245H77.0003V14.0784C77.0003 14.7971 77.1729 15.3431 77.5183 15.7164C77.8636 16.0804 78.3583 16.2624 79.0023 16.2624C79.7116 16.2624 80.2716 16.0478 80.6823 15.6184C81.0929 15.1891 81.2983 14.5824 81.2983 13.7984V9.96245H82.6423ZM89.9329 16.9484C89.7369 17.1164 89.4942 17.2471 89.2049 17.3404C88.9155 17.4244 88.6169 17.4664 88.3089 17.4664C87.5622 17.4664 86.9835 17.2658 86.5729 16.8644C86.1622 16.4631 85.9569 15.8891 85.9569 15.1424V11.0684H84.6969V9.96245H85.9569V8.33845H87.3009V9.96245H89.4289V11.0684H87.3009V15.0864C87.3009 15.4878 87.3989 15.7958 87.5949 16.0104C87.8002 16.2251 88.0895 16.3324 88.4629 16.3324C88.8735 16.3324 89.2235 16.2158 89.5129 15.9824L89.9329 16.9484ZM103.004 9.96245L99.4055 18.1244C99.0882 18.8804 98.7148 19.4124 98.2855 19.7204C97.8655 20.0284 97.3568 20.1824 96.7595 20.1824C96.3955 20.1824 96.0408 20.1218 95.6955 20.0004C95.3595 19.8884 95.0795 19.7204 94.8555 19.4964L95.4295 18.4884C95.8122 18.8524 96.2555 19.0344 96.7595 19.0344C97.0862 19.0344 97.3568 18.9458 97.5715 18.7684C97.7955 18.6004 97.9962 18.3064 98.1735 17.8864L98.4115 17.3684L95.1355 9.96245H96.5355L99.1255 15.8984L101.688 9.96245H103.004ZM107.791 17.4664C107.053 17.4664 106.391 17.3031 105.803 16.9764C105.215 16.6498 104.753 16.2018 104.417 15.6324C104.09 15.0538 103.927 14.4004 103.927 13.6724C103.927 12.9444 104.09 12.2958 104.417 11.7264C104.753 11.1478 105.215 10.6998 105.803 10.3824C106.391 10.0558 107.053 9.89245 107.791 9.89245C108.528 9.89245 109.186 10.0558 109.765 10.3824C110.353 10.6998 110.81 11.1478 111.137 11.7264C111.473 12.2958 111.641 12.9444 111.641 13.6724C111.641 14.4004 111.473 15.0538 111.137 15.6324C110.81 16.2018 110.353 16.6498 109.765 16.9764C109.186 17.3031 108.528 17.4664 107.791 17.4664ZM107.791 16.2904C108.267 16.2904 108.691 16.1831 109.065 15.9684C109.447 15.7444 109.746 15.4364 109.961 15.0444C110.175 14.6431 110.283 14.1858 110.283 13.6724C110.283 13.1591 110.175 12.7064 109.961 12.3144C109.746 11.9131 109.447 11.6051 109.065 11.3904C108.691 11.1758 108.267 11.0684 107.791 11.0684C107.315 11.0684 106.885 11.1758 106.503 11.3904C106.129 11.6051 105.831 11.9131 105.607 12.3144C105.392 12.7064 105.285 13.1591 105.285 13.6724C105.285 14.1858 105.392 14.6431 105.607 15.0444C105.831 15.4364 106.129 15.7444 106.503 15.9684C106.885 16.1831 107.315 16.2904 107.791 16.2904ZM120.975 9.96245V17.3824H119.701V16.2624C119.431 16.6451 119.071 16.9438 118.623 17.1584C118.185 17.3638 117.704 17.4664 117.181 17.4664C116.192 17.4664 115.413 17.1958 114.843 16.6544C114.274 16.1038 113.989 15.2964 113.989 14.2324V9.96245H115.333V14.0784C115.333 14.7971 115.506 15.3431 115.851 15.7164C116.197 16.0804 116.691 16.2624 117.335 16.2624C118.045 16.2624 118.605 16.0478 119.015 15.6184C119.426 15.1891 119.631 14.5824 119.631 13.7984V9.96245H120.975ZM126.203 14.2884C126.203 13.9151 126.264 13.5884 126.385 13.3084C126.516 13.0191 126.67 12.7764 126.847 12.5804C127.034 12.3844 127.277 12.1511 127.575 11.8804C127.949 11.5538 128.224 11.2738 128.401 11.0404C128.579 10.7978 128.667 10.5084 128.667 10.1724C128.667 9.71511 128.49 9.35111 128.135 9.08045C127.781 8.80045 127.291 8.66045 126.665 8.66045C125.573 8.66045 124.738 9.02911 124.159 9.76645L123.137 9.03845C123.529 8.53445 124.029 8.14711 124.635 7.87645C125.251 7.60578 125.961 7.47045 126.763 7.47045C127.781 7.47045 128.588 7.69445 129.185 8.14245C129.783 8.58111 130.081 9.18778 130.081 9.96245C130.081 10.3451 130.016 10.6858 129.885 10.9844C129.764 11.2738 129.615 11.5164 129.437 11.7124C129.26 11.9084 129.022 12.1418 128.723 12.4124C128.341 12.7578 128.056 13.0611 127.869 13.3224C127.692 13.5838 127.603 13.9058 127.603 14.2884H126.203ZM126.917 17.4664C126.656 17.4664 126.437 17.3824 126.259 17.2144C126.091 17.0371 126.007 16.8224 126.007 16.5704C126.007 16.3184 126.091 16.1084 126.259 15.9404C126.437 15.7631 126.656 15.6744 126.917 15.6744C127.179 15.6744 127.393 15.7631 127.561 15.9404C127.729 16.1084 127.813 16.3184 127.813 16.5704C127.813 16.8224 127.725 17.0371 127.547 17.2144C127.379 17.3824 127.169 17.4664 126.917 17.4664Z" fill="white"/>
</svg>
