<svg width="205" height="41" viewBox="0 0 205 41" fill="none" xmlns="http://www.w3.org/2000/svg">
<rect y="0.724487" width="204.295" height="39.7212" rx="12" fill="#FFA68F"/>
<path d="M15.8389 16.5938H10.6309L9.55294 19.0438H8.11094L12.5489 9.24376H13.9349L18.3869 19.0438H16.9169L15.8389 16.5938ZM15.3489 15.4738L13.2349 10.6718L11.1209 15.4738H15.3489ZM24.1468 11.5538C24.8655 11.5538 25.5095 11.7124 26.0788 12.0298C26.6482 12.3471 27.0915 12.7904 27.4088 13.3598C27.7355 13.9291 27.8988 14.5871 27.8988 15.3338C27.8988 16.0804 27.7355 16.7431 27.4088 17.3218C27.0915 17.8911 26.6482 18.3344 26.0788 18.6518C25.5095 18.9691 24.8655 19.1278 24.1468 19.1278C23.5962 19.1278 23.0922 19.0204 22.6348 18.8058C22.1775 18.5911 21.7995 18.2784 21.5008 17.8678V19.0438H20.2128V8.65576H21.5568V12.7438C21.8555 12.3518 22.2288 12.0578 22.6768 11.8618C23.1248 11.6564 23.6148 11.5538 24.1468 11.5538ZM24.0348 17.9518C24.5108 17.9518 24.9355 17.8444 25.3088 17.6298C25.6915 17.4058 25.9902 17.0978 26.2048 16.7058C26.4288 16.3044 26.5408 15.8471 26.5408 15.3338C26.5408 14.8204 26.4288 14.3678 26.2048 13.9758C25.9902 13.5744 25.6915 13.2664 25.3088 13.0518C24.9355 12.8371 24.5108 12.7298 24.0348 12.7298C23.5682 12.7298 23.1435 12.8371 22.7608 13.0518C22.3782 13.2664 22.0795 13.5744 21.8648 13.9758C21.6502 14.3678 21.5428 14.8204 21.5428 15.3338C21.5428 15.8471 21.6502 16.3044 21.8648 16.7058C22.0795 17.0978 22.3782 17.4058 22.7608 17.6298C23.1435 17.8444 23.5682 17.9518 24.0348 17.9518ZM33.4938 19.1278C32.7565 19.1278 32.0938 18.9644 31.5058 18.6378C30.9178 18.3111 30.4558 17.8631 30.1198 17.2938C29.7931 16.7151 29.6298 16.0618 29.6298 15.3338C29.6298 14.6058 29.7931 13.9571 30.1198 13.3878C30.4558 12.8091 30.9178 12.3611 31.5058 12.0438C32.0938 11.7171 32.7565 11.5538 33.4938 11.5538C34.2311 11.5538 34.8891 11.7171 35.4678 12.0438C36.0558 12.3611 36.5131 12.8091 36.8398 13.3878C37.1758 13.9571 37.3438 14.6058 37.3438 15.3338C37.3438 16.0618 37.1758 16.7151 36.8398 17.2938C36.5131 17.8631 36.0558 18.3111 35.4678 18.6378C34.8891 18.9644 34.2311 19.1278 33.4938 19.1278ZM33.4938 17.9518C33.9698 17.9518 34.3945 17.8444 34.7678 17.6298C35.1505 17.4058 35.4491 17.0978 35.6638 16.7058C35.8785 16.3044 35.9858 15.8471 35.9858 15.3338C35.9858 14.8204 35.8785 14.3678 35.6638 13.9758C35.4491 13.5744 35.1505 13.2664 34.7678 13.0518C34.3945 12.8371 33.9698 12.7298 33.4938 12.7298C33.0178 12.7298 32.5885 12.8371 32.2058 13.0518C31.8325 13.2664 31.5338 13.5744 31.3098 13.9758C31.0951 14.3678 30.9878 14.8204 30.9878 15.3338C30.9878 15.8471 31.0951 16.3044 31.3098 16.7058C31.5338 17.0978 31.8325 17.4058 32.2058 17.6298C32.5885 17.8444 33.0178 17.9518 33.4938 17.9518ZM46.6785 11.6238V19.0438H45.4045V17.9238C45.1339 18.3064 44.7745 18.6051 44.3265 18.8198C43.8879 19.0251 43.4072 19.1278 42.8845 19.1278C41.8952 19.1278 41.1159 18.8571 40.5465 18.3158C39.9772 17.7651 39.6925 16.9578 39.6925 15.8938V11.6238H41.0365V15.7398C41.0365 16.4584 41.2092 17.0044 41.5545 17.3778C41.8999 17.7418 42.3945 17.9238 43.0385 17.9238C43.7479 17.9238 44.3079 17.7091 44.7185 17.2798C45.1292 16.8504 45.3345 16.2438 45.3345 15.4598V11.6238H46.6785ZM53.9691 18.6098C53.7731 18.7778 53.5305 18.9084 53.2411 19.0018C52.9518 19.0858 52.6531 19.1278 52.3451 19.1278C51.5985 19.1278 51.0198 18.9271 50.6091 18.5258C50.1985 18.1244 49.9931 17.5504 49.9931 16.8038V12.7298H48.7331V11.6238H49.9931V9.99976H51.3371V11.6238H53.4651V12.7298H51.3371V16.7478C51.3371 17.1491 51.4351 17.4571 51.6311 17.6718C51.8365 17.8864 52.1258 17.9938 52.4991 17.9938C52.9098 17.9938 53.2598 17.8771 53.5491 17.6438L53.9691 18.6098ZM66.7598 17.8258V19.0438H59.7178V18.0918L63.7078 14.2418C64.1931 13.7751 64.5198 13.3738 64.6878 13.0378C64.8558 12.6924 64.9398 12.3471 64.9398 12.0018C64.9398 11.4884 64.7578 11.0918 64.3938 10.8118C64.0391 10.5224 63.5258 10.3778 62.8538 10.3778C61.7711 10.3778 60.9358 10.7324 60.3478 11.4418L59.3958 10.6158C59.7785 10.1491 60.2778 9.7851 60.8938 9.52376C61.5191 9.26243 62.2145 9.13176 62.9798 9.13176C64.0065 9.13176 64.8231 9.3791 65.4298 9.87376C66.0365 10.3591 66.3398 11.0218 66.3398 11.8618C66.3398 12.3844 66.2278 12.8791 66.0038 13.3458C65.7798 13.8124 65.3551 14.3444 64.7298 14.9418L61.7338 17.8258H66.7598ZM79.9586 11.6238L76.3606 19.7858C76.0433 20.5418 75.6699 21.0738 75.2406 21.3818C74.8206 21.6898 74.3119 21.8438 73.7146 21.8438C73.3506 21.8438 72.9959 21.7831 72.6506 21.6618C72.3146 21.5498 72.0346 21.3818 71.8106 21.1578L72.3846 20.1498C72.7673 20.5138 73.2106 20.6958 73.7146 20.6958C74.0413 20.6958 74.3119 20.6071 74.5266 20.4298C74.7506 20.2618 74.9513 19.9678 75.1286 19.5478L75.3666 19.0298L72.0906 11.6238H73.4906L76.0806 17.5598L78.6426 11.6238H79.9586ZM88.2738 15.3758C88.2738 15.4784 88.2645 15.6138 88.2458 15.7818H82.2258C82.3098 16.4351 82.5945 16.9624 83.0798 17.3638C83.5745 17.7558 84.1858 17.9518 84.9138 17.9518C85.8005 17.9518 86.5145 17.6531 87.0558 17.0558L87.7978 17.9238C87.4618 18.3158 87.0418 18.6144 86.5378 18.8198C86.0432 19.0251 85.4878 19.1278 84.8718 19.1278C84.0878 19.1278 83.3925 18.9691 82.7858 18.6518C82.1792 18.3251 81.7078 17.8724 81.3718 17.2938C81.0452 16.7151 80.8818 16.0618 80.8818 15.3338C80.8818 14.6151 81.0405 13.9664 81.3578 13.3878C81.6845 12.8091 82.1278 12.3611 82.6878 12.0438C83.2572 11.7171 83.8965 11.5538 84.6058 11.5538C85.3152 11.5538 85.9452 11.7171 86.4958 12.0438C87.0558 12.3611 87.4898 12.8091 87.7978 13.3878C88.1152 13.9664 88.2738 14.6291 88.2738 15.3758ZM84.6058 12.6878C83.9618 12.6878 83.4205 12.8838 82.9818 13.2758C82.5525 13.6678 82.3005 14.1811 82.2258 14.8158H86.9858C86.9112 14.1904 86.6545 13.6818 86.2158 13.2898C85.7865 12.8884 85.2498 12.6878 84.6058 12.6878ZM93.197 11.5538C94.2237 11.5538 95.0077 11.8058 95.549 12.3098C96.0997 12.8138 96.375 13.5651 96.375 14.5638V19.0438H95.101V18.0638C94.877 18.4091 94.555 18.6751 94.135 18.8618C93.7244 19.0391 93.2344 19.1278 92.665 19.1278C91.8344 19.1278 91.167 18.9271 90.663 18.5258C90.1684 18.1244 89.921 17.5971 89.921 16.9438C89.921 16.2904 90.159 15.7678 90.635 15.3758C91.111 14.9744 91.867 14.7738 92.903 14.7738H95.031V14.5078C95.031 13.9291 94.863 13.4858 94.527 13.1778C94.191 12.8698 93.6964 12.7158 93.043 12.7158C92.6044 12.7158 92.175 12.7904 91.755 12.9398C91.335 13.0798 90.9804 13.2711 90.691 13.5138L90.131 12.5058C90.5137 12.1978 90.971 11.9644 91.503 11.8058C92.035 11.6378 92.5997 11.5538 93.197 11.5538ZM92.889 18.0918C93.4024 18.0918 93.8457 17.9798 94.219 17.7558C94.5924 17.5224 94.863 17.1958 95.031 16.7758V15.7398H92.959C91.8204 15.7398 91.251 16.1224 91.251 16.8878C91.251 17.2611 91.3957 17.5551 91.685 17.7698C91.9744 17.9844 92.3757 18.0918 92.889 18.0918ZM100.71 12.8698C100.944 12.4404 101.289 12.1138 101.746 11.8898C102.204 11.6658 102.759 11.5538 103.412 11.5538V12.8558C103.338 12.8464 103.235 12.8418 103.104 12.8418C102.376 12.8418 101.802 13.0611 101.382 13.4998C100.972 13.9291 100.766 14.5451 100.766 15.3478V19.0438H99.4222V11.6238H100.71V12.8698ZM107.811 19.1278C107.205 19.1278 106.621 19.0484 106.061 18.8898C105.501 18.7218 105.063 18.5118 104.745 18.2598L105.305 17.1958C105.632 17.4291 106.029 17.6158 106.495 17.7558C106.962 17.8958 107.433 17.9658 107.909 17.9658C109.085 17.9658 109.673 17.6298 109.673 16.9578C109.673 16.7338 109.594 16.5564 109.435 16.4258C109.277 16.2951 109.076 16.2018 108.833 16.1458C108.6 16.0804 108.264 16.0104 107.825 15.9358C107.228 15.8424 106.738 15.7351 106.355 15.6138C105.982 15.4924 105.66 15.2871 105.389 14.9978C105.119 14.7084 104.983 14.3024 104.983 13.7798C104.983 13.1078 105.263 12.5711 105.823 12.1698C106.383 11.7591 107.135 11.5538 108.077 11.5538C108.572 11.5538 109.067 11.6144 109.561 11.7358C110.056 11.8571 110.462 12.0204 110.779 12.2258L110.205 13.2898C109.599 12.8978 108.885 12.7018 108.063 12.7018C107.494 12.7018 107.06 12.7951 106.761 12.9818C106.463 13.1684 106.313 13.4158 106.313 13.7238C106.313 13.9664 106.397 14.1578 106.565 14.2978C106.733 14.4378 106.939 14.5404 107.181 14.6058C107.433 14.6711 107.783 14.7458 108.231 14.8298C108.829 14.9324 109.309 15.0444 109.673 15.1658C110.047 15.2778 110.364 15.4738 110.625 15.7538C110.887 16.0338 111.017 16.4258 111.017 16.9298C111.017 17.6018 110.728 18.1384 110.149 18.5398C109.58 18.9318 108.801 19.1278 107.811 19.1278ZM121.539 11.5538C122.481 11.5538 123.228 11.8291 123.779 12.3798C124.339 12.9211 124.619 13.7191 124.619 14.7738V19.0438H123.275V14.9278C123.275 14.2091 123.102 13.6678 122.757 13.3038C122.411 12.9398 121.917 12.7578 121.273 12.7578C120.545 12.7578 119.971 12.9724 119.551 13.4018C119.131 13.8218 118.921 14.4284 118.921 15.2218V19.0438H117.577V11.6238H118.865V12.7438C119.135 12.3611 119.499 12.0671 119.957 11.8618C120.423 11.6564 120.951 11.5538 121.539 11.5538ZM130.885 19.1278C130.148 19.1278 129.485 18.9644 128.897 18.6378C128.309 18.3111 127.847 17.8631 127.511 17.2938C127.184 16.7151 127.021 16.0618 127.021 15.3338C127.021 14.6058 127.184 13.9571 127.511 13.3878C127.847 12.8091 128.309 12.3611 128.897 12.0438C129.485 11.7171 130.148 11.5538 130.885 11.5538C131.622 11.5538 132.28 11.7171 132.859 12.0438C133.447 12.3611 133.904 12.8091 134.231 13.3878C134.567 13.9571 134.735 14.6058 134.735 15.3338C134.735 16.0618 134.567 16.7151 134.231 17.2938C133.904 17.8631 133.447 18.3111 132.859 18.6378C132.28 18.9644 131.622 19.1278 130.885 19.1278ZM130.885 17.9518C131.361 17.9518 131.786 17.8444 132.159 17.6298C132.542 17.4058 132.84 17.0978 133.055 16.7058C133.27 16.3044 133.377 15.8471 133.377 15.3338C133.377 14.8204 133.27 14.3678 133.055 13.9758C132.84 13.5744 132.542 13.2664 132.159 13.0518C131.786 12.8371 131.361 12.7298 130.885 12.7298C130.409 12.7298 129.98 12.8371 129.597 13.0518C129.224 13.2664 128.925 13.5744 128.701 13.9758C128.486 14.3678 128.379 14.8204 128.379 15.3338C128.379 15.8471 128.486 16.3044 128.701 16.7058C128.925 17.0978 129.224 17.4058 129.597 17.6298C129.98 17.8444 130.409 17.9518 130.885 17.9518ZM148.177 11.6238L145.405 19.0438H144.117L141.975 13.4158L139.805 19.0438H138.517L135.759 11.6238H137.033L139.189 17.5318L141.429 11.6238H142.563L144.761 17.5598L146.973 11.6238H148.177ZM149.958 19.1278C149.696 19.1278 149.472 19.0391 149.286 18.8618C149.099 18.6751 149.006 18.4418 149.006 18.1618C149.006 17.8911 149.099 17.6671 149.286 17.4898C149.472 17.3031 149.696 17.2098 149.958 17.2098C150.219 17.2098 150.438 17.2984 150.616 17.4758C150.793 17.6531 150.882 17.8818 150.882 18.1618C150.882 18.4418 150.788 18.6751 150.602 18.8618C150.424 19.0391 150.21 19.1278 149.958 19.1278ZM164.477 13.9618C165.047 14.1204 165.495 14.4098 165.821 14.8298C166.148 15.2404 166.311 15.7631 166.311 16.3978C166.311 17.2471 165.989 17.9004 165.345 18.3578C164.711 18.8151 163.782 19.0438 162.559 19.0438H157.883V9.24376H162.279C163.399 9.24376 164.263 9.46776 164.869 9.91576C165.485 10.3638 165.793 10.9844 165.793 11.7778C165.793 12.2911 165.672 12.7344 165.429 13.1078C165.196 13.4811 164.879 13.7658 164.477 13.9618ZM159.283 10.3778V13.5138H162.153C162.872 13.5138 163.423 13.3831 163.805 13.1218C164.197 12.8511 164.393 12.4591 164.393 11.9458C164.393 11.4324 164.197 11.0451 163.805 10.7838C163.423 10.5131 162.872 10.3778 162.153 10.3778H159.283ZM162.503 17.9098C163.297 17.9098 163.894 17.7791 164.295 17.5178C164.697 17.2564 164.897 16.8458 164.897 16.2858C164.897 15.1938 164.099 14.6478 162.503 14.6478H159.283V17.9098H162.503ZM175.759 11.6238V19.0438H174.485V17.9238C174.214 18.3064 173.855 18.6051 173.407 18.8198C172.968 19.0251 172.488 19.1278 171.965 19.1278C170.976 19.1278 170.196 18.8571 169.627 18.3158C169.058 17.7651 168.773 16.9578 168.773 15.8938V11.6238H170.117V15.7398C170.117 16.4584 170.29 17.0044 170.635 17.3778C170.98 17.7418 171.475 17.9238 172.119 17.9238C172.828 17.9238 173.388 17.7091 173.799 17.2798C174.21 16.8504 174.415 16.2438 174.415 15.4598V11.6238H175.759ZM183.05 18.6098C182.854 18.7778 182.611 18.9084 182.322 19.0018C182.032 19.0858 181.734 19.1278 181.426 19.1278C180.679 19.1278 180.1 18.9271 179.69 18.5258C179.279 18.1244 179.074 17.5504 179.074 16.8038V12.7298H177.814V11.6238H179.074V9.99976H180.418V11.6238H182.546V12.7298H180.418V16.7478C180.418 17.1491 180.516 17.4571 180.712 17.6718C180.917 17.8864 181.206 17.9938 181.58 17.9938C181.99 17.9938 182.34 17.8771 182.63 17.6438L183.05 18.6098ZM189.75 9.24376H191.15V19.0438H189.75V9.24376ZM12.1009 26.5538C13.1276 26.5538 13.9116 26.8058 14.4529 27.3098C15.0036 27.8138 15.2789 28.5651 15.2789 29.5638V34.0438H14.0049V33.0638C13.7809 33.4091 13.4589 33.6751 13.0389 33.8618C12.6283 34.0391 12.1383 34.1278 11.5689 34.1278C10.7383 34.1278 10.0709 33.9271 9.56694 33.5258C9.07227 33.1244 8.82494 32.5971 8.82494 31.9438C8.82494 31.2904 9.06294 30.7678 9.53894 30.3758C10.0149 29.9744 10.7709 29.7738 11.8069 29.7738H13.9349V29.5078C13.9349 28.9291 13.7669 28.4858 13.4309 28.1778C13.0949 27.8698 12.6003 27.7158 11.9469 27.7158C11.5083 27.7158 11.0789 27.7904 10.6589 27.9398C10.2389 28.0798 9.88427 28.2711 9.59494 28.5138L9.03494 27.5058C9.41761 27.1978 9.87494 26.9644 10.4069 26.8058C10.9389 26.6378 11.5036 26.5538 12.1009 26.5538ZM11.7929 33.0918C12.3063 33.0918 12.7496 32.9798 13.1229 32.7558C13.4963 32.5224 13.7669 32.1958 13.9349 31.7758V30.7398H11.8629C10.7243 30.7398 10.1549 31.1224 10.1549 31.8878C10.1549 32.2611 10.2996 32.5551 10.5889 32.7698C10.8783 32.9844 11.2796 33.0918 11.7929 33.0918ZM27.6081 26.5538C28.5415 26.5538 29.2788 26.8244 29.8201 27.3658C30.3708 27.9071 30.6461 28.7098 30.6461 29.7738V34.0438H29.3021V29.9278C29.3021 29.2091 29.1341 28.6678 28.7981 28.3038C28.4715 27.9398 28.0001 27.7578 27.3841 27.7578C26.7028 27.7578 26.1615 27.9724 25.7601 28.4018C25.3588 28.8218 25.1581 29.4284 25.1581 30.2218V34.0438H23.8141V29.9278C23.8141 29.2091 23.6461 28.6678 23.3101 28.3038C22.9835 27.9398 22.5121 27.7578 21.8961 27.7578C21.2148 27.7578 20.6735 27.9724 20.2721 28.4018C19.8708 28.8218 19.6701 29.4284 19.6701 30.2218V34.0438H18.3261V26.6238H19.6141V27.7298C19.8848 27.3471 20.2395 27.0578 20.6781 26.8618C21.1168 26.6564 21.6161 26.5538 22.1761 26.5538C22.7548 26.5538 23.2681 26.6704 23.7161 26.9038C24.1641 27.1371 24.5095 27.4778 24.7521 27.9258C25.0321 27.4964 25.4195 27.1604 25.9141 26.9178C26.4181 26.6751 26.9828 26.5538 27.6081 26.5538ZM40.1269 34.1278C39.5202 34.1278 38.9369 34.0484 38.3769 33.8898C37.8169 33.7218 37.3782 33.5118 37.0609 33.2598L37.6209 32.1958C37.9475 32.4291 38.3442 32.6158 38.8109 32.7558C39.2775 32.8958 39.7489 32.9658 40.2249 32.9658C41.4009 32.9658 41.9889 32.6298 41.9889 31.9578C41.9889 31.7338 41.9095 31.5564 41.7509 31.4258C41.5922 31.2951 41.3915 31.2018 41.1489 31.1458C40.9155 31.0804 40.5795 31.0104 40.1409 30.9358C39.5435 30.8424 39.0535 30.7351 38.6709 30.6138C38.2975 30.4924 37.9755 30.2871 37.7049 29.9978C37.4342 29.7084 37.2989 29.3024 37.2989 28.7798C37.2989 28.1078 37.5789 27.5711 38.1389 27.1698C38.6989 26.7591 39.4502 26.5538 40.3929 26.5538C40.8875 26.5538 41.3822 26.6144 41.8769 26.7358C42.3715 26.8571 42.7775 27.0204 43.0949 27.2258L42.5209 28.2898C41.9142 27.8978 41.2002 27.7018 40.3789 27.7018C39.8095 27.7018 39.3755 27.7951 39.0769 27.9818C38.7782 28.1684 38.6289 28.4158 38.6289 28.7238C38.6289 28.9664 38.7129 29.1578 38.8809 29.2978C39.0489 29.4378 39.2542 29.5404 39.4969 29.6058C39.7489 29.6711 40.0989 29.7458 40.5469 29.8298C41.1442 29.9324 41.6249 30.0444 41.9889 30.1658C42.3622 30.2778 42.6795 30.4738 42.9409 30.7538C43.2022 31.0338 43.3329 31.4258 43.3329 31.9298C43.3329 32.6018 43.0435 33.1384 42.4649 33.5398C41.8955 33.9318 41.1162 34.1278 40.1269 34.1278ZM49.7445 33.6098C49.5485 33.7778 49.3059 33.9084 49.0165 34.0018C48.7272 34.0858 48.4285 34.1278 48.1205 34.1278C47.3739 34.1278 46.7952 33.9271 46.3845 33.5258C45.9739 33.1244 45.7685 32.5504 45.7685 31.8038V27.7298H44.5085V26.6238H45.7685V24.9998H47.1125V26.6238H49.2405V27.7298H47.1125V31.7478C47.1125 32.1491 47.2105 32.4571 47.4065 32.6718C47.6119 32.8864 47.9012 32.9938 48.2745 32.9938C48.6852 32.9938 49.0352 32.8771 49.3245 32.6438L49.7445 33.6098ZM51.9294 26.6238H53.2734V34.0438H51.9294V26.6238ZM52.6014 25.1958C52.3401 25.1958 52.1207 25.1118 51.9434 24.9438C51.7754 24.7758 51.6914 24.5704 51.6914 24.3278C51.6914 24.0851 51.7754 23.8798 51.9434 23.7118C52.1207 23.5344 52.3401 23.4458 52.6014 23.4458C52.8627 23.4458 53.0774 23.5298 53.2454 23.6978C53.4227 23.8564 53.5114 24.0571 53.5114 24.2998C53.5114 24.5518 53.4227 24.7664 53.2454 24.9438C53.0774 25.1118 52.8627 25.1958 52.6014 25.1958ZM56.3996 23.6558H57.7436V34.0438H56.3996V23.6558ZM60.8697 23.6558H62.2137V34.0438H60.8697V23.6558ZM72.3616 26.5538C73.3883 26.5538 74.1723 26.8058 74.7136 27.3098C75.2643 27.8138 75.5396 28.5651 75.5396 29.5638V34.0438H74.2656V33.0638C74.0416 33.4091 73.7196 33.6751 73.2996 33.8618C72.889 34.0391 72.399 34.1278 71.8296 34.1278C70.999 34.1278 70.3316 33.9271 69.8276 33.5258C69.333 33.1244 69.0856 32.5971 69.0856 31.9438C69.0856 31.2904 69.3236 30.7678 69.7996 30.3758C70.2756 29.9744 71.0316 29.7738 72.0676 29.7738H74.1956V29.5078C74.1956 28.9291 74.0276 28.4858 73.6916 28.1778C73.3556 27.8698 72.861 27.7158 72.2076 27.7158C71.769 27.7158 71.3396 27.7904 70.9196 27.9398C70.4996 28.0798 70.145 28.2711 69.8556 28.5138L69.2956 27.5058C69.6783 27.1978 70.1356 26.9644 70.6676 26.8058C71.1996 26.6378 71.7643 26.5538 72.3616 26.5538ZM72.0536 33.0918C72.567 33.0918 73.0103 32.9798 73.3836 32.7558C73.757 32.5224 74.0276 32.1958 74.1956 31.7758V30.7398H72.1236C70.985 30.7398 70.4156 31.1224 70.4156 31.8878C70.4156 32.2611 70.5603 32.5551 70.8496 32.7698C71.139 32.9844 71.5403 33.0918 72.0536 33.0918ZM86.8406 26.5538C87.5593 26.5538 88.2033 26.7124 88.7726 27.0298C89.3419 27.3471 89.7853 27.7904 90.1026 28.3598C90.4293 28.9291 90.5926 29.5871 90.5926 30.3338C90.5926 31.0804 90.4293 31.7431 90.1026 32.3218C89.7853 32.8911 89.3419 33.3344 88.7726 33.6518C88.2033 33.9691 87.5593 34.1278 86.8406 34.1278C86.2899 34.1278 85.7859 34.0204 85.3286 33.8058C84.8713 33.5911 84.4933 33.2784 84.1946 32.8678V34.0438H82.9066V23.6558H84.2506V27.7438C84.5493 27.3518 84.9226 27.0578 85.3706 26.8618C85.8186 26.6564 86.3086 26.5538 86.8406 26.5538ZM86.7286 32.9518C87.2046 32.9518 87.6293 32.8444 88.0026 32.6298C88.3853 32.4058 88.6839 32.0978 88.8986 31.7058C89.1226 31.3044 89.2346 30.8471 89.2346 30.3338C89.2346 29.8204 89.1226 29.3678 88.8986 28.9758C88.6839 28.5744 88.3853 28.2664 88.0026 28.0518C87.6293 27.8371 87.2046 27.7298 86.7286 27.7298C86.2619 27.7298 85.8373 27.8371 85.4546 28.0518C85.0719 28.2664 84.7733 28.5744 84.5586 28.9758C84.3439 29.3678 84.2366 29.8204 84.2366 30.3338C84.2366 30.8471 84.3439 31.3044 84.5586 31.7058C84.7733 32.0978 85.0719 32.4058 85.4546 32.6298C85.8373 32.8444 86.2619 32.9518 86.7286 32.9518ZM99.7156 30.3758C99.7156 30.4784 99.7062 30.6138 99.6876 30.7818H93.6676C93.7516 31.4351 94.0362 31.9624 94.5216 32.3638C95.0162 32.7558 95.6276 32.9518 96.3556 32.9518C97.2422 32.9518 97.9562 32.6531 98.4976 32.0558L99.2396 32.9238C98.9036 33.3158 98.4836 33.6144 97.9796 33.8198C97.4849 34.0251 96.9296 34.1278 96.3136 34.1278C95.5296 34.1278 94.8342 33.9691 94.2276 33.6518C93.6209 33.3251 93.1496 32.8724 92.8136 32.2938C92.4869 31.7151 92.3236 31.0618 92.3236 30.3338C92.3236 29.6151 92.4822 28.9664 92.7996 28.3878C93.1262 27.8091 93.5696 27.3611 94.1296 27.0438C94.6989 26.7171 95.3382 26.5538 96.0476 26.5538C96.7569 26.5538 97.3869 26.7171 97.9376 27.0438C98.4976 27.3611 98.9316 27.8091 99.2396 28.3878C99.5569 28.9664 99.7156 29.6291 99.7156 30.3758ZM96.0476 27.6878C95.4036 27.6878 94.8622 27.8838 94.4236 28.2758C93.9942 28.6678 93.7422 29.1811 93.6676 29.8158H98.4276C98.3529 29.1904 98.0962 28.6818 97.6576 28.2898C97.2282 27.8884 96.6916 27.6878 96.0476 27.6878ZM109.24 26.6238V33.0358C109.24 34.3331 108.918 35.2898 108.274 35.9058C107.63 36.5311 106.668 36.8438 105.39 36.8438C104.69 36.8438 104.022 36.7458 103.388 36.5498C102.753 36.3631 102.24 36.0924 101.848 35.7378L102.492 34.7018C102.837 35.0004 103.262 35.2338 103.766 35.4018C104.279 35.5791 104.806 35.6678 105.348 35.6678C106.216 35.6678 106.855 35.4624 107.266 35.0518C107.686 34.6411 107.896 34.0158 107.896 33.1758V32.5878C107.578 32.9704 107.186 33.2598 106.72 33.4558C106.262 33.6424 105.763 33.7358 105.222 33.7358C104.512 33.7358 103.868 33.5864 103.29 33.2878C102.72 32.9798 102.272 32.5551 101.946 32.0138C101.619 31.4631 101.456 30.8378 101.456 30.1378C101.456 29.4378 101.619 28.8171 101.946 28.2758C102.272 27.7251 102.72 27.3004 103.29 27.0018C103.868 26.7031 104.512 26.5538 105.222 26.5538C105.782 26.5538 106.3 26.6564 106.776 26.8618C107.261 27.0671 107.658 27.3704 107.966 27.7718V26.6238H109.24ZM105.376 32.5598C105.861 32.5598 106.295 32.4571 106.678 32.2518C107.07 32.0464 107.373 31.7618 107.588 31.3978C107.812 31.0244 107.924 30.6044 107.924 30.1378C107.924 29.4191 107.686 28.8404 107.21 28.4018C106.734 27.9538 106.122 27.7298 105.376 27.7298C104.62 27.7298 104.004 27.9538 103.528 28.4018C103.052 28.8404 102.814 29.4191 102.814 30.1378C102.814 30.6044 102.921 31.0244 103.136 31.3978C103.36 31.7618 103.663 32.0464 104.046 32.2518C104.438 32.4571 104.881 32.5598 105.376 32.5598ZM112.368 26.6238H113.712V34.0438H112.368V26.6238ZM113.04 25.1958C112.779 25.1958 112.559 25.1118 112.382 24.9438C112.214 24.7758 112.13 24.5704 112.13 24.3278C112.13 24.0851 112.214 23.8798 112.382 23.7118C112.559 23.5344 112.779 23.4458 113.04 23.4458C113.301 23.4458 113.516 23.5298 113.684 23.6978C113.861 23.8564 113.95 24.0571 113.95 24.2998C113.95 24.5518 113.861 24.7664 113.684 24.9438C113.516 25.1118 113.301 25.1958 113.04 25.1958ZM120.8 26.5538C121.743 26.5538 122.489 26.8291 123.04 27.3798C123.6 27.9211 123.88 28.7191 123.88 29.7738V34.0438H122.536V29.9278C122.536 29.2091 122.363 28.6678 122.018 28.3038C121.673 27.9398 121.178 27.7578 120.534 27.7578C119.806 27.7578 119.232 27.9724 118.812 28.4018C118.392 28.8218 118.182 29.4284 118.182 30.2218V34.0438H116.838V26.6238H118.126V27.7438C118.397 27.3611 118.761 27.0671 119.218 26.8618C119.685 26.6564 120.212 26.5538 120.8 26.5538ZM130.889 26.5538C131.832 26.5538 132.579 26.8291 133.129 27.3798C133.689 27.9211 133.969 28.7191 133.969 29.7738V34.0438H132.625V29.9278C132.625 29.2091 132.453 28.6678 132.107 28.3038C131.762 27.9398 131.267 27.7578 130.623 27.7578C129.895 27.7578 129.321 27.9724 128.901 28.4018C128.481 28.8218 128.271 29.4284 128.271 30.2218V34.0438H126.927V26.6238H128.215V27.7438C128.486 27.3611 128.85 27.0671 129.307 26.8618C129.774 26.6564 130.301 26.5538 130.889 26.5538ZM143.764 30.3758C143.764 30.4784 143.754 30.6138 143.736 30.7818H137.716C137.8 31.4351 138.084 31.9624 138.57 32.3638C139.064 32.7558 139.676 32.9518 140.404 32.9518C141.29 32.9518 142.004 32.6531 142.546 32.0558L143.288 32.9238C142.952 33.3158 142.532 33.6144 142.028 33.8198C141.533 34.0251 140.978 34.1278 140.362 34.1278C139.578 34.1278 138.882 33.9691 138.276 33.6518C137.669 33.3251 137.198 32.8724 136.862 32.2938C136.535 31.7151 136.372 31.0618 136.372 30.3338C136.372 29.6151 136.53 28.9664 136.848 28.3878C137.174 27.8091 137.618 27.3611 138.178 27.0438C138.747 26.7171 139.386 26.5538 140.096 26.5538C140.805 26.5538 141.435 26.7171 141.986 27.0438C142.546 27.3611 142.98 27.8091 143.288 28.3878C143.605 28.9664 143.764 29.6291 143.764 30.3758ZM140.096 27.6878C139.452 27.6878 138.91 27.8838 138.472 28.2758C138.042 28.6678 137.79 29.1811 137.716 29.8158H142.476C142.401 29.1904 142.144 28.6818 141.706 28.2898C141.276 27.8884 140.74 27.6878 140.096 27.6878ZM147.478 27.8698C147.711 27.4404 148.057 27.1138 148.514 26.8898C148.971 26.6658 149.527 26.5538 150.18 26.5538V27.8558C150.105 27.8464 150.003 27.8418 149.872 27.8418C149.144 27.8418 148.57 28.0611 148.15 28.4998C147.739 28.9291 147.534 29.5451 147.534 30.3478V34.0438H146.19V26.6238H147.478V27.8698ZM152.31 24.2438H153.892L153.626 30.9498H152.562L152.31 24.2438ZM153.108 34.1278C152.847 34.1278 152.627 34.0438 152.45 33.8758C152.273 33.6984 152.184 33.4838 152.184 33.2318C152.184 32.9798 152.273 32.7698 152.45 32.6018C152.627 32.4244 152.847 32.3358 153.108 32.3358C153.369 32.3358 153.584 32.4244 153.752 32.6018C153.92 32.7698 154.004 32.9798 154.004 33.2318C154.004 33.4838 153.915 33.6984 153.738 33.8758C153.57 34.0438 153.36 34.1278 153.108 34.1278Z" fill="white"/>
</svg>
