<svg width="205" height="41" viewBox="0 0 205 41" fill="none" xmlns="http://www.w3.org/2000/svg">
<rect x="0.522644" y="0.35321" width="204.295" height="39.7212" rx="12" fill="#FFA68F"/>
<path d="M13.8696 14.2845V17.6725H12.4836V14.2565L8.59158 7.87252H10.0896L13.2256 13.0385L16.3756 7.87252H17.7616L13.8696 14.2845ZM25.4181 14.0045C25.4181 14.1072 25.4087 14.2425 25.3901 14.4105H19.3701C19.4541 15.0638 19.7387 15.5912 20.2241 15.9925C20.7187 16.3845 21.3301 16.5805 22.0581 16.5805C22.9447 16.5805 23.6587 16.2818 24.2001 15.6845L24.9421 16.5525C24.6061 16.9445 24.1861 17.2432 23.6821 17.4485C23.1874 17.6538 22.6321 17.7565 22.0161 17.7565C21.2321 17.7565 20.5367 17.5978 19.9301 17.2805C19.3234 16.9538 18.8521 16.5012 18.5161 15.9225C18.1894 15.3438 18.0261 14.6905 18.0261 13.9625C18.0261 13.2438 18.1847 12.5952 18.5021 12.0165C18.8287 11.4378 19.2721 10.9898 19.8321 10.6725C20.4014 10.3458 21.0407 10.1825 21.7501 10.1825C22.4594 10.1825 23.0894 10.3458 23.6401 10.6725C24.2001 10.9898 24.6341 11.4378 24.9421 12.0165C25.2594 12.5952 25.4181 13.2578 25.4181 14.0045ZM21.7501 11.3165C21.1061 11.3165 20.5647 11.5125 20.1261 11.9045C19.6967 12.2965 19.4447 12.8098 19.3701 13.4445H24.1301C24.0554 12.8192 23.7987 12.3105 23.3601 11.9185C22.9307 11.5172 22.3941 11.3165 21.7501 11.3165ZM29.9723 17.7565C29.3657 17.7565 28.7823 17.6772 28.2223 17.5185C27.6623 17.3505 27.2237 17.1405 26.9063 16.8885L27.4663 15.8245C27.793 16.0578 28.1897 16.2445 28.6563 16.3845C29.123 16.5245 29.5943 16.5945 30.0703 16.5945C31.2463 16.5945 31.8343 16.2585 31.8343 15.5865C31.8343 15.3625 31.755 15.1852 31.5963 15.0545C31.4377 14.9238 31.237 14.8305 30.9943 14.7745C30.761 14.7092 30.425 14.6392 29.9863 14.5645C29.389 14.4712 28.899 14.3638 28.5163 14.2425C28.143 14.1212 27.821 13.9158 27.5503 13.6265C27.2797 13.3372 27.1443 12.9312 27.1443 12.4085C27.1443 11.7365 27.4243 11.1998 27.9843 10.7985C28.5443 10.3878 29.2957 10.1825 30.2383 10.1825C30.733 10.1825 31.2277 10.2432 31.7223 10.3645C32.217 10.4858 32.623 10.6492 32.9403 10.8545L32.3663 11.9185C31.7597 11.5265 31.0457 11.3305 30.2243 11.3305C29.655 11.3305 29.221 11.4238 28.9223 11.6105C28.6237 11.7972 28.4743 12.0445 28.4743 12.3525C28.4743 12.5952 28.5583 12.7865 28.7263 12.9265C28.8943 13.0665 29.0997 13.1692 29.3423 13.2345C29.5943 13.2998 29.9443 13.3745 30.3923 13.4585C30.9897 13.5612 31.4703 13.6732 31.8343 13.7945C32.2077 13.9065 32.525 14.1025 32.7863 14.3825C33.0477 14.6625 33.1783 15.0545 33.1783 15.5585C33.1783 16.2305 32.889 16.7672 32.3103 17.1685C31.741 17.5605 30.9617 17.7565 29.9723 17.7565ZM35.754 15.8385C36.0153 15.8385 36.23 15.9318 36.398 16.1185C36.5753 16.2958 36.664 16.5198 36.664 16.7905C36.664 16.9305 36.6453 17.0658 36.608 17.1965C36.58 17.3272 36.5193 17.5278 36.426 17.7985L35.768 19.7445H34.886L35.404 17.6585C35.2267 17.5932 35.082 17.4858 34.97 17.3365C34.8673 17.1778 34.816 16.9958 34.816 16.7905C34.816 16.5105 34.9047 16.2818 35.082 16.1045C35.2593 15.9272 35.4833 15.8385 35.754 15.8385ZM47.6416 17.2385C47.4456 17.4065 47.203 17.5372 46.9136 17.6305C46.6243 17.7145 46.3256 17.7565 46.0176 17.7565C45.271 17.7565 44.6923 17.5558 44.2816 17.1545C43.871 16.7532 43.6656 16.1792 43.6656 15.4325V11.3585H42.4056V10.2525H43.6656V8.62852H45.0096V10.2525H47.1376V11.3585H45.0096V15.3765C45.0096 15.7778 45.1076 16.0858 45.3036 16.3005C45.509 16.5152 45.7983 16.6225 46.1716 16.6225C46.5823 16.6225 46.9323 16.5058 47.2216 16.2725L47.6416 17.2385ZM53.7885 10.1825C54.7312 10.1825 55.4778 10.4578 56.0285 11.0085C56.5885 11.5498 56.8685 12.3478 56.8685 13.4025V17.6725H55.5245V13.5565C55.5245 12.8378 55.3518 12.2965 55.0065 11.9325C54.6612 11.5685 54.1665 11.3865 53.5225 11.3865C52.7945 11.3865 52.2205 11.6012 51.8005 12.0305C51.3805 12.4505 51.1705 13.0572 51.1705 13.8505V17.6725H49.8265V7.28452H51.1705V11.3025C51.4505 10.9478 51.8145 10.6725 52.2625 10.4765C52.7198 10.2805 53.2285 10.1825 53.7885 10.1825ZM62.6178 10.1825C63.6445 10.1825 64.4285 10.4345 64.9698 10.9385C65.5205 11.4425 65.7958 12.1938 65.7958 13.1925V17.6725H64.5218V16.6925C64.2978 17.0378 63.9758 17.3038 63.5558 17.4905C63.1451 17.6678 62.6551 17.7565 62.0858 17.7565C61.2551 17.7565 60.5878 17.5558 60.0838 17.1545C59.5891 16.7532 59.3418 16.2258 59.3418 15.5725C59.3418 14.9192 59.5798 14.3965 60.0558 14.0045C60.5318 13.6032 61.2878 13.4025 62.3238 13.4025H64.4518V13.1365C64.4518 12.5578 64.2838 12.1145 63.9478 11.8065C63.6118 11.4985 63.1171 11.3445 62.4638 11.3445C62.0251 11.3445 61.5958 11.4192 61.1758 11.5685C60.7558 11.7085 60.4011 11.8998 60.1118 12.1425L59.5518 11.1345C59.9345 10.8265 60.3918 10.5932 60.9238 10.4345C61.4558 10.2665 62.0205 10.1825 62.6178 10.1825ZM62.3098 16.7205C62.8231 16.7205 63.2665 16.6085 63.6398 16.3845C64.0131 16.1512 64.2838 15.8245 64.4518 15.4045V14.3685H62.3798C61.2411 14.3685 60.6718 14.7512 60.6718 15.5165C60.6718 15.8898 60.8165 16.1838 61.1058 16.3985C61.3951 16.6132 61.7965 16.7205 62.3098 16.7205ZM73.015 17.2385C72.819 17.4065 72.5763 17.5372 72.287 17.6305C71.9977 17.7145 71.699 17.7565 71.391 17.7565C70.6443 17.7565 70.0657 17.5558 69.655 17.1545C69.2443 16.7532 69.039 16.1792 69.039 15.4325V11.3585H67.779V10.2525H69.039V8.62852H70.383V10.2525H72.511V11.3585H70.383V15.3765C70.383 15.7778 70.481 16.0858 70.677 16.3005C70.8823 16.5152 71.1717 16.6225 71.545 16.6225C71.9557 16.6225 72.3057 16.5058 72.595 16.2725L73.015 17.2385ZM82.7536 17.7565C81.9976 17.7565 81.321 17.5932 80.7236 17.2665C80.1356 16.9398 79.6736 16.4918 79.3376 15.9225C79.0016 15.3438 78.8336 14.6905 78.8336 13.9625C78.8336 13.2345 79.0016 12.5858 79.3376 12.0165C79.6736 11.4378 80.1356 10.9898 80.7236 10.6725C81.321 10.3458 81.9976 10.1825 82.7536 10.1825C83.4256 10.1825 84.023 10.3178 84.5456 10.5885C85.0776 10.8592 85.4883 11.2512 85.7776 11.7645L84.7556 12.4225C84.5223 12.0678 84.233 11.8018 83.8876 11.6245C83.5423 11.4472 83.1596 11.3585 82.7396 11.3585C82.2543 11.3585 81.8156 11.4658 81.4236 11.6805C81.041 11.8952 80.7376 12.2032 80.5136 12.6045C80.299 12.9965 80.1916 13.4492 80.1916 13.9625C80.1916 14.4852 80.299 14.9472 80.5136 15.3485C80.7376 15.7405 81.041 16.0438 81.4236 16.2585C81.8156 16.4732 82.2543 16.5805 82.7396 16.5805C83.1596 16.5805 83.5423 16.4918 83.8876 16.3145C84.233 16.1372 84.5223 15.8712 84.7556 15.5165L85.7776 16.1605C85.4883 16.6738 85.0776 17.0705 84.5456 17.3505C84.023 17.6212 83.4256 17.7565 82.7536 17.7565ZM91.1463 17.7565C90.409 17.7565 89.7463 17.5932 89.1583 17.2665C88.5703 16.9398 88.1083 16.4918 87.7723 15.9225C87.4456 15.3438 87.2823 14.6905 87.2823 13.9625C87.2823 13.2345 87.4456 12.5858 87.7723 12.0165C88.1083 11.4378 88.5703 10.9898 89.1583 10.6725C89.7463 10.3458 90.409 10.1825 91.1463 10.1825C91.8836 10.1825 92.5416 10.3458 93.1203 10.6725C93.7083 10.9898 94.1656 11.4378 94.4923 12.0165C94.8283 12.5858 94.9963 13.2345 94.9963 13.9625C94.9963 14.6905 94.8283 15.3438 94.4923 15.9225C94.1656 16.4918 93.7083 16.9398 93.1203 17.2665C92.5416 17.5932 91.8836 17.7565 91.1463 17.7565ZM91.1463 16.5805C91.6223 16.5805 92.047 16.4732 92.4203 16.2585C92.803 16.0345 93.1016 15.7265 93.3163 15.3345C93.531 14.9332 93.6383 14.4758 93.6383 13.9625C93.6383 13.4492 93.531 12.9965 93.3163 12.6045C93.1016 12.2032 92.803 11.8952 92.4203 11.6805C92.047 11.4658 91.6223 11.3585 91.1463 11.3585C90.6703 11.3585 90.241 11.4658 89.8583 11.6805C89.485 11.8952 89.1863 12.2032 88.9623 12.6045C88.7476 12.9965 88.6403 13.4492 88.6403 13.9625C88.6403 14.4758 88.7476 14.9332 88.9623 15.3345C89.1863 15.7265 89.485 16.0345 89.8583 16.2585C90.241 16.4732 90.6703 16.5805 91.1463 16.5805ZM104.331 10.2525V17.6725H103.057V16.5525C102.786 16.9352 102.427 17.2338 101.979 17.4485C101.54 17.6538 101.06 17.7565 100.537 17.7565C99.5477 17.7565 98.7684 17.4858 98.199 16.9445C97.6297 16.3938 97.345 15.5865 97.345 14.5225V10.2525H98.689V14.3685C98.689 15.0872 98.8617 15.6332 99.207 16.0065C99.5524 16.3705 100.047 16.5525 100.691 16.5525C101.4 16.5525 101.96 16.3378 102.371 15.9085C102.782 15.4792 102.987 14.8725 102.987 14.0885V10.2525H104.331ZM107.45 7.28452H108.794V17.6725H107.45V7.28452ZM118.92 7.28452V17.6725H117.632V16.4965C117.333 16.9072 116.955 17.2198 116.498 17.4345C116.04 17.6492 115.536 17.7565 114.986 17.7565C114.267 17.7565 113.623 17.5978 113.054 17.2805C112.484 16.9632 112.036 16.5198 111.71 15.9505C111.392 15.3718 111.234 14.7092 111.234 13.9625C111.234 13.2158 111.392 12.5578 111.71 11.9885C112.036 11.4192 112.484 10.9758 113.054 10.6585C113.623 10.3412 114.267 10.1825 114.986 10.1825C115.518 10.1825 116.008 10.2852 116.456 10.4905C116.904 10.6865 117.277 10.9805 117.576 11.3725V7.28452H118.92ZM115.098 16.5805C115.564 16.5805 115.989 16.4732 116.372 16.2585C116.754 16.0345 117.053 15.7265 117.268 15.3345C117.482 14.9332 117.59 14.4758 117.59 13.9625C117.59 13.4492 117.482 12.9965 117.268 12.6045C117.053 12.2032 116.754 11.8952 116.372 11.6805C115.989 11.4658 115.564 11.3585 115.098 11.3585C114.622 11.3585 114.192 11.4658 113.81 11.6805C113.436 11.8952 113.138 12.2032 112.914 12.6045C112.699 12.9965 112.592 13.4492 112.592 13.9625C112.592 14.4758 112.699 14.9332 112.914 15.3345C113.138 15.7265 113.436 16.0345 113.81 16.2585C114.192 16.4732 114.622 16.5805 115.098 16.5805ZM130.277 10.1825C130.995 10.1825 131.639 10.3412 132.209 10.6585C132.778 10.9758 133.221 11.4192 133.539 11.9885C133.865 12.5578 134.029 13.2158 134.029 13.9625C134.029 14.7092 133.865 15.3718 133.539 15.9505C133.221 16.5198 132.778 16.9632 132.209 17.2805C131.639 17.5978 130.995 17.7565 130.277 17.7565C129.726 17.7565 129.222 17.6492 128.765 17.4345C128.307 17.2198 127.929 16.9072 127.631 16.4965V17.6725H126.343V7.28452H127.687V11.3725C127.985 10.9805 128.359 10.6865 128.807 10.4905C129.255 10.2852 129.745 10.1825 130.277 10.1825ZM130.165 16.5805C130.641 16.5805 131.065 16.4732 131.439 16.2585C131.821 16.0345 132.12 15.7265 132.335 15.3345C132.559 14.9332 132.671 14.4758 132.671 13.9625C132.671 13.4492 132.559 12.9965 132.335 12.6045C132.12 12.2032 131.821 11.8952 131.439 11.6805C131.065 11.4658 130.641 11.3585 130.165 11.3585C129.698 11.3585 129.273 11.4658 128.891 11.6805C128.508 11.8952 128.209 12.2032 127.995 12.6045C127.78 12.9965 127.673 13.4492 127.673 13.9625C127.673 14.4758 127.78 14.9332 127.995 15.3345C128.209 15.7265 128.508 16.0345 128.891 16.2585C129.273 16.4732 129.698 16.5805 130.165 16.5805ZM143.151 14.0045C143.151 14.1072 143.142 14.2425 143.123 14.4105H137.103C137.187 15.0638 137.472 15.5912 137.957 15.9925C138.452 16.3845 139.063 16.5805 139.791 16.5805C140.678 16.5805 141.392 16.2818 141.933 15.6845L142.675 16.5525C142.339 16.9445 141.919 17.2432 141.415 17.4485C140.921 17.6538 140.365 17.7565 139.749 17.7565C138.965 17.7565 138.27 17.5978 137.663 17.2805C137.057 16.9538 136.585 16.5012 136.249 15.9225C135.923 15.3438 135.759 14.6905 135.759 13.9625C135.759 13.2438 135.918 12.5952 136.235 12.0165C136.562 11.4378 137.005 10.9898 137.565 10.6725C138.135 10.3458 138.774 10.1825 139.483 10.1825C140.193 10.1825 140.823 10.3458 141.373 10.6725C141.933 10.9898 142.367 11.4378 142.675 12.0165C142.993 12.5952 143.151 13.2578 143.151 14.0045ZM139.483 11.3165C138.839 11.3165 138.298 11.5125 137.859 11.9045C137.43 12.2965 137.178 12.8098 137.103 13.4445H141.863C141.789 12.8192 141.532 12.3105 141.093 11.9185C140.664 11.5172 140.127 11.3165 139.483 11.3165ZM152.614 8.30652C151.811 8.30652 151.41 8.74052 151.41 9.60852V10.2525H153.566V11.3585H151.438V17.6725H150.094V11.3585H148.834V10.2525H150.094V9.59452C150.094 8.85718 150.308 8.27385 150.738 7.84452C151.167 7.41518 151.769 7.20052 152.544 7.20052C152.842 7.20052 153.122 7.23785 153.384 7.31252C153.645 7.38718 153.869 7.49452 154.056 7.63452L153.65 8.65652C153.342 8.42318 152.996 8.30652 152.614 8.30652ZM162.309 10.2525V17.6725H161.035V16.5525C160.764 16.9352 160.405 17.2338 159.957 17.4485C159.518 17.6538 159.038 17.7565 158.515 17.7565C157.526 17.7565 156.746 17.4858 156.177 16.9445C155.608 16.3938 155.323 15.5865 155.323 14.5225V10.2525H156.667V14.3685C156.667 15.0872 156.84 15.6332 157.185 16.0065C157.53 16.3705 158.025 16.5525 158.669 16.5525C159.378 16.5525 159.938 16.3378 160.349 15.9085C160.76 15.4792 160.965 14.8725 160.965 14.0885V10.2525H162.309ZM169.39 10.1825C170.332 10.1825 171.079 10.4578 171.63 11.0085C172.19 11.5498 172.47 12.3478 172.47 13.4025V17.6725H171.126V13.5565C171.126 12.8378 170.953 12.2965 170.608 11.9325C170.262 11.5685 169.768 11.3865 169.124 11.3865C168.396 11.3865 167.822 11.6012 167.402 12.0305C166.982 12.4505 166.772 13.0572 166.772 13.8505V17.6725H165.428V10.2525H166.716V11.3725C166.986 10.9898 167.35 10.6958 167.808 10.4905C168.274 10.2852 168.802 10.1825 169.39 10.1825ZM180.159 12.1005C179.897 12.1005 179.673 12.0118 179.487 11.8345C179.3 11.6478 179.207 11.4145 179.207 11.1345C179.207 10.8638 179.3 10.6398 179.487 10.4625C179.673 10.2758 179.897 10.1825 180.159 10.1825C180.42 10.1825 180.639 10.2712 180.817 10.4485C180.994 10.6258 181.083 10.8545 181.083 11.1345C181.083 11.4145 180.989 11.6478 180.803 11.8345C180.625 12.0118 180.411 12.1005 180.159 12.1005ZM180.159 17.7565C179.897 17.7565 179.673 17.6678 179.487 17.4905C179.3 17.3038 179.207 17.0705 179.207 16.7905C179.207 16.5198 179.3 16.2958 179.487 16.1185C179.673 15.9318 179.897 15.8385 180.159 15.8385C180.42 15.8385 180.639 15.9272 180.817 16.1045C180.994 16.2818 181.083 16.5105 181.083 16.7905C181.083 17.0705 180.989 17.3038 180.803 17.4905C180.625 17.6678 180.411 17.7565 180.159 17.7565ZM182.743 20.3885C183.303 19.4085 183.713 18.3818 183.975 17.3085C184.245 16.2352 184.381 15.0778 184.381 13.8365C184.381 12.5952 184.245 11.4378 183.975 10.3645C183.713 9.29118 183.303 8.26452 182.743 7.28452H184.017C184.558 8.12452 184.973 9.10452 185.263 10.2245C185.552 11.3445 185.697 12.5485 185.697 13.8365C185.697 15.1152 185.552 16.3145 185.263 17.4345C184.973 18.5545 184.558 19.5392 184.017 20.3885H182.743ZM23.9636 22.8725L20.6876 32.6725H19.2176L16.5436 24.8465L13.8696 32.6725H12.3716L9.09558 22.8725H10.5376L13.1836 30.8385L15.9416 22.8725H17.2296L19.9316 30.8805L22.6336 22.8725H23.9636ZM30.2073 25.1825C31.1499 25.1825 31.8966 25.4578 32.4473 26.0085C33.0073 26.5498 33.2873 27.3478 33.2873 28.4025V32.6725H31.9433V28.5565C31.9433 27.8378 31.7706 27.2965 31.4253 26.9325C31.0799 26.5685 30.5853 26.3865 29.9413 26.3865C29.2133 26.3865 28.6393 26.6012 28.2193 27.0305C27.7993 27.4505 27.5893 28.0572 27.5893 28.8505V32.6725H26.2453V22.2845H27.5893V26.3025C27.8693 25.9478 28.2333 25.6725 28.6813 25.4765C29.1386 25.2805 29.6473 25.1825 30.2073 25.1825ZM43.0816 29.0045C43.0816 29.1072 43.0722 29.2425 43.0536 29.4105H37.0336C37.1176 30.0638 37.4022 30.5912 37.8876 30.9925C38.3822 31.3845 38.9936 31.5805 39.7216 31.5805C40.6082 31.5805 41.3222 31.2818 41.8636 30.6845L42.6056 31.5525C42.2696 31.9445 41.8496 32.2432 41.3456 32.4485C40.8509 32.6538 40.2956 32.7565 39.6796 32.7565C38.8956 32.7565 38.2002 32.5978 37.5936 32.2805C36.9869 31.9538 36.5156 31.5012 36.1796 30.9225C35.8529 30.3438 35.6896 29.6905 35.6896 28.9625C35.6896 28.2438 35.8482 27.5952 36.1656 27.0165C36.4922 26.4378 36.9356 25.9898 37.4956 25.6725C38.0649 25.3458 38.7042 25.1825 39.4136 25.1825C40.1229 25.1825 40.7529 25.3458 41.3036 25.6725C41.8636 25.9898 42.2976 26.4378 42.6056 27.0165C42.9229 27.5952 43.0816 28.2578 43.0816 29.0045ZM39.4136 26.3165C38.7696 26.3165 38.2282 26.5125 37.7896 26.9045C37.3602 27.2965 37.1082 27.8098 37.0336 28.4445H41.7936C41.7189 27.8192 41.4622 27.3105 41.0236 26.9185C40.5942 26.5172 40.0576 26.3165 39.4136 26.3165ZM46.7958 26.4985C47.0292 26.0692 47.3745 25.7425 47.8318 25.5185C48.2892 25.2945 48.8445 25.1825 49.4978 25.1825V26.4845C49.4232 26.4752 49.3205 26.4705 49.1898 26.4705C48.4618 26.4705 47.8878 26.6898 47.4678 27.1285C47.0572 27.5578 46.8518 28.1738 46.8518 28.9765V32.6725H45.5078V25.2525H46.7958V26.4985ZM58.352 29.0045C58.352 29.1072 58.3426 29.2425 58.324 29.4105H52.304C52.388 30.0638 52.6726 30.5912 53.158 30.9925C53.6526 31.3845 54.264 31.5805 54.992 31.5805C55.8786 31.5805 56.5926 31.2818 57.134 30.6845L57.876 31.5525C57.54 31.9445 57.12 32.2432 56.616 32.4485C56.1213 32.6538 55.566 32.7565 54.95 32.7565C54.166 32.7565 53.4706 32.5978 52.864 32.2805C52.2573 31.9538 51.786 31.5012 51.45 30.9225C51.1233 30.3438 50.96 29.6905 50.96 28.9625C50.96 28.2438 51.1186 27.5952 51.436 27.0165C51.7626 26.4378 52.206 25.9898 52.766 25.6725C53.3353 25.3458 53.9746 25.1825 54.684 25.1825C55.3933 25.1825 56.0233 25.3458 56.574 25.6725C57.134 25.9898 57.568 26.4378 57.876 27.0165C58.1933 27.5952 58.352 28.2578 58.352 29.0045ZM54.684 26.3165C54.04 26.3165 53.4986 26.5125 53.06 26.9045C52.6306 27.2965 52.3786 27.8098 52.304 28.4445H57.064C56.9893 27.8192 56.7326 27.3105 56.294 26.9185C55.8646 26.5172 55.328 26.3165 54.684 26.3165ZM72.098 22.2845V32.6725H70.81V31.4965C70.5113 31.9072 70.1333 32.2198 69.676 32.4345C69.2187 32.6492 68.7147 32.7565 68.164 32.7565C67.4453 32.7565 66.8013 32.5978 66.232 32.2805C65.6627 31.9632 65.2147 31.5198 64.888 30.9505C64.5707 30.3718 64.412 29.7092 64.412 28.9625C64.412 28.2158 64.5707 27.5578 64.888 26.9885C65.2147 26.4192 65.6627 25.9758 66.232 25.6585C66.8013 25.3412 67.4453 25.1825 68.164 25.1825C68.696 25.1825 69.186 25.2852 69.634 25.4905C70.082 25.6865 70.4553 25.9805 70.754 26.3725V22.2845H72.098ZM68.276 31.5805C68.7427 31.5805 69.1673 31.4732 69.55 31.2585C69.9327 31.0345 70.2313 30.7265 70.446 30.3345C70.6607 29.9332 70.768 29.4758 70.768 28.9625C70.768 28.4492 70.6607 27.9965 70.446 27.6045C70.2313 27.2032 69.9327 26.8952 69.55 26.6805C69.1673 26.4658 68.7427 26.3585 68.276 26.3585C67.8 26.3585 67.3707 26.4658 66.988 26.6805C66.6147 26.8952 66.316 27.2032 66.092 27.6045C65.8773 27.9965 65.77 28.4492 65.77 28.9625C65.77 29.4758 65.8773 29.9332 66.092 30.3345C66.316 30.7265 66.6147 31.0345 66.988 31.2585C67.3707 31.4732 67.8 31.5805 68.276 31.5805ZM78.379 32.7565C77.6416 32.7565 76.979 32.5932 76.391 32.2665C75.803 31.9398 75.341 31.4918 75.005 30.9225C74.6783 30.3438 74.515 29.6905 74.515 28.9625C74.515 28.2345 74.6783 27.5858 75.005 27.0165C75.341 26.4378 75.803 25.9898 76.391 25.6725C76.979 25.3458 77.6416 25.1825 78.379 25.1825C79.1163 25.1825 79.7743 25.3458 80.353 25.6725C80.941 25.9898 81.3983 26.4378 81.725 27.0165C82.061 27.5858 82.229 28.2345 82.229 28.9625C82.229 29.6905 82.061 30.3438 81.725 30.9225C81.3983 31.4918 80.941 31.9398 80.353 32.2665C79.7743 32.5932 79.1163 32.7565 78.379 32.7565ZM78.379 31.5805C78.855 31.5805 79.2796 31.4732 79.653 31.2585C80.0356 31.0345 80.3343 30.7265 80.549 30.3345C80.7636 29.9332 80.871 29.4758 80.871 28.9625C80.871 28.4492 80.7636 27.9965 80.549 27.6045C80.3343 27.2032 80.0356 26.8952 79.653 26.6805C79.2796 26.4658 78.855 26.3585 78.379 26.3585C77.903 26.3585 77.4736 26.4658 77.091 26.6805C76.7176 26.8952 76.419 27.2032 76.195 27.6045C75.9803 27.9965 75.873 28.4492 75.873 28.9625C75.873 29.4758 75.9803 29.9332 76.195 30.3345C76.419 30.7265 76.7176 31.0345 77.091 31.2585C77.4736 31.4732 77.903 31.5805 78.379 31.5805ZM95.5334 25.2525L91.9354 33.4145C91.6181 34.1705 91.2448 34.7025 90.8154 35.0105C90.3954 35.3185 89.8868 35.4725 89.2894 35.4725C88.9254 35.4725 88.5708 35.4118 88.2254 35.2905C87.8894 35.1785 87.6094 35.0105 87.3854 34.7865L87.9594 33.7785C88.3421 34.1425 88.7854 34.3245 89.2894 34.3245C89.6161 34.3245 89.8868 34.2358 90.1014 34.0585C90.3254 33.8905 90.5261 33.5965 90.7034 33.1765L90.9414 32.6585L87.6654 25.2525H89.0654L91.6554 31.1885L94.2174 25.2525H95.5334ZM100.321 32.7565C99.5833 32.7565 98.9207 32.5932 98.3327 32.2665C97.7447 31.9398 97.2827 31.4918 96.9467 30.9225C96.62 30.3438 96.4567 29.6905 96.4567 28.9625C96.4567 28.2345 96.62 27.5858 96.9467 27.0165C97.2827 26.4378 97.7447 25.9898 98.3327 25.6725C98.9207 25.3458 99.5833 25.1825 100.321 25.1825C101.058 25.1825 101.716 25.3458 102.295 25.6725C102.883 25.9898 103.34 26.4378 103.667 27.0165C104.003 27.5858 104.171 28.2345 104.171 28.9625C104.171 29.6905 104.003 30.3438 103.667 30.9225C103.34 31.4918 102.883 31.9398 102.295 32.2665C101.716 32.5932 101.058 32.7565 100.321 32.7565ZM100.321 31.5805C100.797 31.5805 101.221 31.4732 101.595 31.2585C101.977 31.0345 102.276 30.7265 102.491 30.3345C102.705 29.9332 102.813 29.4758 102.813 28.9625C102.813 28.4492 102.705 27.9965 102.491 27.6045C102.276 27.2032 101.977 26.8952 101.595 26.6805C101.221 26.4658 100.797 26.3585 100.321 26.3585C99.8447 26.3585 99.4153 26.4658 99.0327 26.6805C98.6593 26.8952 98.3607 27.2032 98.1367 27.6045C97.922 27.9965 97.8147 28.4492 97.8147 28.9625C97.8147 29.4758 97.922 29.9332 98.1367 30.3345C98.3607 30.7265 98.6593 31.0345 99.0327 31.2585C99.4153 31.4732 99.8447 31.5805 100.321 31.5805ZM113.505 25.2525V32.6725H112.231V31.5525C111.961 31.9352 111.601 32.2338 111.153 32.4485C110.715 32.6538 110.234 32.7565 109.711 32.7565C108.722 32.7565 107.943 32.4858 107.373 31.9445C106.804 31.3938 106.519 30.5865 106.519 29.5225V25.2525H107.863V29.3685C107.863 30.0872 108.036 30.6332 108.381 31.0065C108.727 31.3705 109.221 31.5525 109.865 31.5525C110.575 31.5525 111.135 31.3378 111.545 30.9085C111.956 30.4792 112.161 29.8725 112.161 29.0885V25.2525H113.505ZM127.944 22.2845V32.6725H126.656V31.4965C126.357 31.9072 125.979 32.2198 125.522 32.4345C125.064 32.6492 124.56 32.7565 124.01 32.7565C123.291 32.7565 122.647 32.5978 122.078 32.2805C121.508 31.9632 121.06 31.5198 120.734 30.9505C120.416 30.3718 120.258 29.7092 120.258 28.9625C120.258 28.2158 120.416 27.5578 120.734 26.9885C121.06 26.4192 121.508 25.9758 122.078 25.6585C122.647 25.3412 123.291 25.1825 124.01 25.1825C124.542 25.1825 125.032 25.2852 125.48 25.4905C125.928 25.6865 126.301 25.9805 126.6 26.3725V22.2845H127.944ZM124.122 31.5805C124.588 31.5805 125.013 31.4732 125.396 31.2585C125.778 31.0345 126.077 30.7265 126.292 30.3345C126.506 29.9332 126.614 29.4758 126.614 28.9625C126.614 28.4492 126.506 27.9965 126.292 27.6045C126.077 27.2032 125.778 26.8952 125.396 26.6805C125.013 26.4658 124.588 26.3585 124.122 26.3585C123.646 26.3585 123.216 26.4658 122.834 26.6805C122.46 26.8952 122.162 27.2032 121.938 27.6045C121.723 27.9965 121.616 28.4492 121.616 28.9625C121.616 29.4758 121.723 29.9332 121.938 30.3345C122.162 30.7265 122.46 31.0345 122.834 31.2585C123.216 31.4732 123.646 31.5805 124.122 31.5805ZM133.749 25.1825C134.775 25.1825 135.559 25.4345 136.101 25.9385C136.651 26.4425 136.927 27.1938 136.927 28.1925V32.6725H135.653V31.6925C135.429 32.0378 135.107 32.3038 134.687 32.4905C134.276 32.6678 133.786 32.7565 133.217 32.7565C132.386 32.7565 131.719 32.5558 131.215 32.1545C130.72 31.7532 130.473 31.2258 130.473 30.5725C130.473 29.9192 130.711 29.3965 131.187 29.0045C131.663 28.6032 132.419 28.4025 133.455 28.4025H135.583V28.1365C135.583 27.5578 135.415 27.1145 135.079 26.8065C134.743 26.4985 134.248 26.3445 133.595 26.3445C133.156 26.3445 132.727 26.4192 132.307 26.5685C131.887 26.7085 131.532 26.8998 131.243 27.1425L130.683 26.1345C131.065 25.8265 131.523 25.5932 132.055 25.4345C132.587 25.2665 133.151 25.1825 133.749 25.1825ZM133.441 31.7205C133.954 31.7205 134.397 31.6085 134.771 31.3845C135.144 31.1512 135.415 30.8245 135.583 30.4045V29.3685H133.511C132.372 29.3685 131.803 29.7512 131.803 30.5165C131.803 30.8898 131.947 31.1838 132.237 31.3985C132.526 31.6132 132.927 31.7205 133.441 31.7205ZM143.936 25.1825C144.879 25.1825 145.625 25.4578 146.176 26.0085C146.736 26.5498 147.016 27.3478 147.016 28.4025V32.6725H145.672V28.5565C145.672 27.8378 145.499 27.2965 145.154 26.9325C144.809 26.5685 144.314 26.3865 143.67 26.3865C142.942 26.3865 142.368 26.6012 141.948 27.0305C141.528 27.4505 141.318 28.0572 141.318 28.8505V32.6725H139.974V25.2525H141.262V26.3725C141.533 25.9898 141.897 25.6958 142.354 25.4905C142.821 25.2852 143.348 25.1825 143.936 25.1825ZM153.338 32.7565C152.582 32.7565 151.906 32.5932 151.308 32.2665C150.72 31.9398 150.258 31.4918 149.922 30.9225C149.586 30.3438 149.418 29.6905 149.418 28.9625C149.418 28.2345 149.586 27.5858 149.922 27.0165C150.258 26.4378 150.72 25.9898 151.308 25.6725C151.906 25.3458 152.582 25.1825 153.338 25.1825C154.01 25.1825 154.608 25.3178 155.13 25.5885C155.662 25.8592 156.073 26.2512 156.362 26.7645L155.34 27.4225C155.107 27.0678 154.818 26.8018 154.472 26.6245C154.127 26.4472 153.744 26.3585 153.324 26.3585C152.839 26.3585 152.4 26.4658 152.008 26.6805C151.626 26.8952 151.322 27.2032 151.098 27.6045C150.884 27.9965 150.776 28.4492 150.776 28.9625C150.776 29.4852 150.884 29.9472 151.098 30.3485C151.322 30.7405 151.626 31.0438 152.008 31.2585C152.4 31.4732 152.839 31.5805 153.324 31.5805C153.744 31.5805 154.127 31.4918 154.472 31.3145C154.818 31.1372 155.107 30.8712 155.34 30.5165L156.362 31.1605C156.073 31.6738 155.662 32.0705 155.13 32.3505C154.608 32.6212 154.01 32.7565 153.338 32.7565ZM165.259 29.0045C165.259 29.1072 165.25 29.2425 165.231 29.4105H159.211C159.295 30.0638 159.58 30.5912 160.065 30.9925C160.56 31.3845 161.171 31.5805 161.899 31.5805C162.786 31.5805 163.5 31.2818 164.041 30.6845L164.783 31.5525C164.447 31.9445 164.027 32.2432 163.523 32.4485C163.028 32.6538 162.473 32.7565 161.857 32.7565C161.073 32.7565 160.378 32.5978 159.771 32.2805C159.164 31.9538 158.693 31.5012 158.357 30.9225C158.03 30.3438 157.867 29.6905 157.867 28.9625C157.867 28.2438 158.026 27.5952 158.343 27.0165C158.67 26.4378 159.113 25.9898 159.673 25.6725C160.242 25.3458 160.882 25.1825 161.591 25.1825C162.3 25.1825 162.93 25.3458 163.481 25.6725C164.041 25.9898 164.475 26.4378 164.783 27.0165C165.1 27.5952 165.259 28.2578 165.259 29.0045ZM161.591 26.3165C160.947 26.3165 160.406 26.5125 159.967 26.9045C159.538 27.2965 159.286 27.8098 159.211 28.4445H163.971C163.896 27.8192 163.64 27.3105 163.201 26.9185C162.772 26.5172 162.235 26.3165 161.591 26.3165ZM168.947 29.5785C168.947 29.2052 169.008 28.8785 169.129 28.5985C169.26 28.3092 169.414 28.0665 169.591 27.8705C169.778 27.6745 170.02 27.4412 170.319 27.1705C170.692 26.8438 170.968 26.5638 171.145 26.3305C171.322 26.0878 171.411 25.7985 171.411 25.4625C171.411 25.0052 171.234 24.6412 170.879 24.3705C170.524 24.0905 170.034 23.9505 169.409 23.9505C168.317 23.9505 167.482 24.3192 166.903 25.0565L165.881 24.3285C166.273 23.8245 166.772 23.4372 167.379 23.1665C167.995 22.8958 168.704 22.7605 169.507 22.7605C170.524 22.7605 171.332 22.9845 171.929 23.4325C172.526 23.8712 172.825 24.4778 172.825 25.2525C172.825 25.6352 172.76 25.9758 172.629 26.2745C172.508 26.5638 172.358 26.8065 172.181 27.0025C172.004 27.1985 171.766 27.4318 171.467 27.7025C171.084 28.0478 170.8 28.3512 170.613 28.6125C170.436 28.8738 170.347 29.1958 170.347 29.5785H168.947ZM169.661 32.7565C169.4 32.7565 169.18 32.6725 169.003 32.5045C168.835 32.3272 168.751 32.1125 168.751 31.8605C168.751 31.6085 168.835 31.3985 169.003 31.2305C169.18 31.0532 169.4 30.9645 169.661 30.9645C169.922 30.9645 170.137 31.0532 170.305 31.2305C170.473 31.3985 170.557 31.6085 170.557 31.8605C170.557 32.1125 170.468 32.3272 170.291 32.5045C170.123 32.6725 169.913 32.7565 169.661 32.7565Z" fill="white"/>
</svg>
