<svg width="688" height="99" viewBox="0 0 688 99" fill="none" xmlns="http://www.w3.org/2000/svg">
<path d="M112.42 57.18C111.86 57.18 111.38 56.99 110.98 56.61C110.58 56.21 110.38 55.71 110.38 55.11C110.38 54.53 110.58 54.05 110.98 53.67C111.38 53.27 111.86 53.07 112.42 53.07C112.98 53.07 113.45 53.26 113.83 53.64C114.21 54.02 114.4 54.51 114.4 55.11C114.4 55.71 114.2 56.21 113.8 56.61C113.42 56.99 112.96 57.18 112.42 57.18ZM124.317 57.18C123.757 57.18 123.277 56.99 122.877 56.61C122.477 56.21 122.277 55.71 122.277 55.11C122.277 54.53 122.477 54.05 122.877 53.67C123.277 53.27 123.757 53.07 124.317 53.07C124.877 53.07 125.347 53.26 125.727 53.64C126.107 54.02 126.297 54.51 126.297 55.11C126.297 55.71 126.097 56.21 125.697 56.61C125.317 56.99 124.857 57.18 124.317 57.18Z" fill="#EB886A"/>
<path d="M268.42 57.18C267.86 57.18 267.38 56.99 266.98 56.61C266.58 56.21 266.38 55.71 266.38 55.11C266.38 54.53 266.58 54.05 266.98 53.67C267.38 53.27 267.86 53.07 268.42 53.07C268.98 53.07 269.45 53.26 269.83 53.64C270.21 54.02 270.4 54.51 270.4 55.11C270.4 55.71 270.2 56.21 269.8 56.61C269.42 56.99 268.96 57.18 268.42 57.18ZM280.317 57.18C279.757 57.18 279.277 56.99 278.877 56.61C278.477 56.21 278.277 55.71 278.277 55.11C278.277 54.53 278.477 54.05 278.877 53.67C279.277 53.27 279.757 53.07 280.317 53.07C280.877 53.07 281.347 53.26 281.727 53.64C282.107 54.02 282.297 54.51 282.297 55.11C282.297 55.71 282.097 56.21 281.697 56.61C281.317 56.99 280.857 57.18 280.317 57.18Z" fill="#EB886A"/>
<path d="M414.42 57.18C413.86 57.18 413.38 56.99 412.98 56.61C412.58 56.21 412.38 55.71 412.38 55.11C412.38 54.53 412.58 54.05 412.98 53.67C413.38 53.27 413.86 53.07 414.42 53.07C414.98 53.07 415.45 53.26 415.83 53.64C416.21 54.02 416.4 54.51 416.4 55.11C416.4 55.71 416.2 56.21 415.8 56.61C415.42 56.99 414.96 57.18 414.42 57.18ZM426.317 57.18C425.757 57.18 425.277 56.99 424.877 56.61C424.477 56.21 424.277 55.71 424.277 55.11C424.277 54.53 424.477 54.05 424.877 53.67C425.277 53.27 425.757 53.07 426.317 53.07C426.877 53.07 427.347 53.26 427.727 53.64C428.107 54.02 428.297 54.51 428.297 55.11C428.297 55.71 428.097 56.21 427.697 56.61C427.317 56.99 426.857 57.18 426.317 57.18Z" fill="#EB886A"/>
<g clip-path="url(#clip0)">
<path fill-rule="evenodd" clip-rule="evenodd" d="M41.9068 62.5655C42.0998 62.6809 42.3204 62.7385 42.541 62.7385C42.7616 62.7385 42.9821 62.6809 43.2027 62.5366L64.5975 50.1328L63.6325 48.3154L42.541 60.5462L3.08736 37.6712L42.541 14.7962L81.9946 37.6712L71.5177 43.7578L72.4827 45.575L84.0348 38.8827C84.4484 38.6231 84.6965 38.1616 84.6965 37.6712C84.6689 37.1809 84.4208 36.7193 84.0072 36.4885L43.1751 12.8058C42.7891 12.575 42.2928 12.575 41.9068 12.8058L1.07467 36.4885C0.661113 36.7193 0.385406 37.1809 0.385406 37.6712C0.385406 38.1616 0.661113 38.6519 1.07467 38.8827L41.9068 62.5655ZM69.3398 61.7579H67.3547V48.1713C67.3547 47.652 67.0791 47.1617 66.6655 46.9309L44.0024 33.777L44.9674 31.9597L67.6305 45.1135C68.7057 45.7193 69.3674 46.9021 69.3674 48.1713V61.7579H69.3398ZM20.4292 54.3155C20.4292 64.6136 30.3546 73.0078 42.5409 73.0078C54.7271 73.0078 64.6526 64.6425 64.6526 54.3155H62.6674C62.6674 63.4598 53.6518 70.9021 42.5409 70.9021C31.4299 70.9021 22.4143 63.4598 22.4143 54.3155H20.4292ZM69.9465 79.8733H71.9315V68.2771C71.9315 66.2002 70.3325 64.5271 68.3474 64.5271C66.3623 64.5271 64.7632 66.2002 64.7632 68.2771V79.8733H66.7483V68.2771C66.7483 67.354 67.4651 66.604 68.3474 66.604C69.2297 66.604 69.9465 67.354 69.9465 68.2771V79.8733Z" fill="#EB886A"/>
</g>
<path d="M180.344 98.8978C178.537 98.8978 177.724 96.4871 177.137 94.7146C176.956 94.1946 176.798 93.6983 176.64 93.4147C176.346 92.8475 175.984 91.6658 175.465 90.0114C174.765 87.7425 173.906 84.93 173.025 83.2048C171.76 80.7232 169.569 72.6167 168.508 68.7171C168.259 67.819 168.101 67.1809 168.033 66.9445C167.785 66.1173 167.988 63.9903 168.372 60.6106C168.575 58.838 168.779 56.9946 168.733 56.3801C168.688 55.8365 168.575 55.482 168.508 55.3166C168.462 55.3638 168.417 55.4111 168.372 55.482C167.446 56.711 164.916 59.0744 163.854 59.3816C162.793 59.6889 161.934 58.5308 160.94 57.1837C160.647 56.7819 160.375 56.4037 160.104 56.0965C158.862 54.6548 158.704 53.804 160.263 52.0314C160.217 51.5824 158.839 51.1333 158.388 50.9679L157.958 50.8261C156.038 50.1171 156.558 48.1082 156.897 46.761C156.987 46.4538 157.19 46.0047 157.733 45.6975C159.314 44.7994 162.838 45.7211 163.809 45.9811C163.809 45.9338 163.786 45.8866 163.786 45.8393C163.538 44.8939 162.747 43.6886 161.979 42.5305C161.573 41.8924 161.144 41.2543 160.805 40.6398C160.15 39.5054 159.946 38.6782 160.104 37.9928C160.263 37.331 160.737 36.9765 161.076 36.7638C161.595 36.4566 162.183 35.7712 162.476 35.1567C162.634 34.8494 162.883 34.6367 163.199 34.5422C163.967 34.3531 164.871 34.9676 166.068 35.8657C166.136 35.913 166.203 35.9602 166.271 36.0075C166.859 35.4167 168.056 33.975 169.072 32.7933C170.247 31.3752 171.58 29.8154 172.754 28.5391C175.194 25.8685 174.584 23.9541 172.754 18.2583L172.574 17.7147C172.438 17.4075 172.19 16.533 172.777 15.115C172.958 14.7132 173.229 14.406 173.613 14.2405C174.516 13.886 175.623 14.406 176.798 14.9495C177.272 15.1623 177.746 15.3986 178.176 15.5404C179.26 15.8713 179.915 15.375 181.406 13.6969C182.626 12.3262 183.755 12.6098 184.162 12.7752C185.088 13.1534 185.698 14.2405 185.698 15.564C185.698 16.2022 185.833 16.2731 186.262 16.4621C186.579 16.6039 187.031 16.793 187.279 17.2657C187.686 17.9983 187.392 18.6601 187.189 19.1091C187.053 19.4164 186.963 19.6055 187.008 19.7945C187.053 20.0309 187.302 20.3854 187.527 20.6926C187.934 21.2835 188.408 21.9452 188.25 22.7252C188.07 23.5996 187.211 23.836 186.646 23.9778C186.308 24.0723 185.856 24.1668 185.811 24.3559C185.878 24.8286 187.663 26.5303 189.086 27.4992C189.335 27.6647 189.651 27.8301 189.967 27.9956C190.848 28.4446 191.661 28.87 191.865 29.6499C192.181 30.8317 190.961 32.4624 190.577 32.9351C190.012 33.6205 189.899 33.7859 190.396 34.6367C190.916 35.5585 196.631 37.4728 198.348 37.4728C200.29 37.4728 201.804 38.1346 202.73 39.3636C203.114 39.8599 205.237 39.8835 206.05 39.9071C206.48 39.9071 206.864 39.9071 207.112 39.9544C207.27 39.978 207.428 39.9308 207.587 39.789C207.88 39.529 208.106 39.009 208.151 38.3945C208.264 36.7165 208.874 35.6766 210.252 34.8258C210.726 34.5422 211.246 34.5186 211.72 34.7785C212.714 35.3221 213.279 37.0001 213.414 37.8982C213.686 37.9455 214.205 37.9928 214.612 37.9928C215.357 38.04 216.306 38.0873 217.255 38.3C217.706 38.3946 217.977 38.4418 218.136 38.4418C218.136 38.3236 218.136 38.1582 218.136 38.0164C218.136 37.8273 218.136 37.591 218.136 37.3547C218.181 36.0311 218.745 35.653 219.604 35.0385C220.236 34.5895 221.208 33.9277 222.676 32.5097C225.793 29.5081 227.51 29.7208 228.911 29.8627C229.182 29.8863 229.43 29.9336 229.701 29.9336C231.486 29.9336 231.779 31.6116 231.915 32.3915C231.937 32.5569 231.983 32.8405 232.028 32.9114C232.005 32.8642 232.141 32.8878 232.231 32.9114C232.705 33.006 233.473 33.1714 233.97 34.2113C234.851 36.0548 232.525 37.331 230.288 38.56C228.662 39.4581 228.504 41.6088 228.459 44.3267C228.391 47.3991 226.381 48.4863 225.296 49.0772L225.003 49.2426C224.551 49.5026 224.528 49.5971 224.438 50.0225C224.415 50.1643 224.37 50.3061 224.325 50.4716C224.28 50.6134 224.257 50.8261 224.235 51.0624C224.122 52.0314 223.918 53.8512 222.382 54.1821C220.891 54.4894 219.807 52.8586 218.881 51.4169C218.61 50.9915 218.339 50.5897 218.068 50.2352C217.571 49.5971 217.526 49.0062 217.571 48.6045C217.706 47.4937 218.745 46.6901 219.559 46.052C219.762 45.8866 219.965 45.7448 220.123 45.5793C220.214 45.5084 220.327 45.3666 220.327 45.2248C220.327 45.1775 220.327 45.1539 220.349 45.1303C219.197 45.4375 215.877 45.0357 215.063 44.7521C214.567 44.5867 214.024 44.2322 213.527 43.8777C213.369 43.7831 213.189 43.6413 213.008 43.5468C212.872 44.114 212.646 44.9176 211.946 45.4612C211.878 45.5084 211.833 45.5793 211.811 45.7211C211.788 46.0993 212.059 46.7137 212.421 47.0919C213.55 48.2736 213.64 53.7094 213.64 53.7803C213.64 56.0019 211.472 56.2146 210.184 56.3564C209.055 56.4746 208.603 56.9 208.355 57.9163C208.016 59.3107 207.315 61.2251 206.434 62.005C206.005 62.3831 205.441 62.454 204.831 62.5249C204.04 62.6195 203.136 62.7376 202.436 63.5412C201.058 65.1011 198.122 67.9608 196.902 68.7407C195.998 69.3079 195.682 69.5915 195.185 71.4586C194.62 73.5621 192.768 74.1529 191.413 74.5783C191.097 74.6729 190.803 74.7674 190.532 74.8856C189.583 75.2637 189.176 76.9417 188.973 81.2431C188.747 86.0172 188.16 89.3969 187.166 91.8548C186.466 93.5801 185.653 94.2419 185.02 94.7855C184.704 95.0454 184.455 95.2581 184.252 95.5654C184.117 95.7545 184.004 95.9672 183.868 96.2035C183.213 97.2907 182.309 98.8032 180.457 98.9214C180.435 98.8742 180.389 98.8978 180.344 98.8978ZM168.575 53.5204C168.733 53.5204 168.869 53.544 168.982 53.5913C169.773 53.8512 170.292 54.8202 170.382 56.2619C170.428 57.0418 170.224 58.7908 169.998 60.7997C169.795 62.6904 169.434 65.8337 169.592 66.4246C169.66 66.6609 169.84 67.3227 170.089 68.2444C171.037 71.7895 173.274 80.0614 174.471 82.3776C175.42 84.2447 176.323 87.128 177.046 89.4678C177.475 90.8386 177.859 92.1384 178.085 92.5639C178.266 92.9184 178.469 93.4856 178.673 94.1237C179.034 95.1872 179.689 97.1725 180.367 97.1725H180.389C181.338 97.1016 181.835 96.4162 182.513 95.2581C182.648 95.0218 182.806 94.7855 182.942 94.5491C183.281 94.0292 183.665 93.7219 184.049 93.4147C184.614 92.942 185.156 92.493 185.72 91.1458C186.646 88.8769 187.189 85.6863 187.415 81.125C187.64 76.4218 188.092 74.0347 190.012 73.2785C190.306 73.1603 190.645 73.0421 190.984 72.9476C192.407 72.4985 193.378 72.0967 193.672 70.9859C194.259 68.7407 194.801 68.1026 196.111 67.2754C197.105 66.6609 199.884 63.9903 201.307 62.3831C202.414 61.1542 203.769 60.9651 204.695 60.8469C204.966 60.7997 205.35 60.7524 205.463 60.7051C205.825 60.3742 206.457 59.0744 206.818 57.5145C207.225 55.7892 208.242 54.8675 209.936 54.6784C211.63 54.4894 212.059 54.3239 212.059 53.7803C212.059 51.9369 211.675 48.7935 211.291 48.2972C210.726 47.7064 210.162 46.6429 210.229 45.6266C210.275 45.0121 210.523 44.4921 210.997 44.1376C211.291 43.9013 211.381 43.4759 211.494 43.0505C211.63 42.5305 211.788 41.8451 212.488 41.6797C213.098 41.5379 213.686 41.9633 214.454 42.4833C214.86 42.7669 215.312 43.0741 215.583 43.1686C216.419 43.4523 219.468 43.6886 219.965 43.5231C220.598 43.2632 221.321 43.5704 221.727 44.2558C222.134 44.9648 222.134 46.0993 221.208 46.9265C221.027 47.0919 220.801 47.281 220.553 47.4464C220.033 47.8482 219.242 48.4627 219.197 48.8644C219.197 48.8881 219.175 49.0062 219.333 49.1953C219.626 49.5735 219.92 50.0225 220.214 50.4716C220.711 51.2279 221.637 52.6459 222.043 52.5277C222.45 52.4332 222.54 51.4878 222.631 50.8497C222.676 50.4952 222.721 50.188 222.789 49.9753C222.834 49.8571 222.857 49.7389 222.879 49.6207C223.037 48.9117 223.241 48.3209 224.235 47.7536L224.573 47.5646C225.567 47.021 226.81 46.3356 226.855 44.2794C226.9 41.6797 226.968 38.4655 229.43 37.1183C230.514 36.5275 232.48 35.4403 232.547 34.9203C232.412 34.6604 232.299 34.6367 231.96 34.5658C231.621 34.4949 231.147 34.4004 230.785 33.9277C230.514 33.5968 230.447 33.1478 230.379 32.6987C230.198 31.6825 230.085 31.6352 229.769 31.6352C229.453 31.6352 229.136 31.5879 228.798 31.5643C227.555 31.4225 226.403 31.2807 223.851 33.7623C222.269 35.2749 221.253 35.9839 220.575 36.4566C219.852 36.9765 219.852 36.9765 219.83 37.4019C219.83 37.6146 219.83 37.8037 219.83 37.9928C219.83 38.6545 219.83 39.3399 219.31 39.789C218.791 40.238 218.023 40.1907 216.984 39.9308C216.17 39.7417 215.335 39.6944 214.612 39.6472C213.324 39.5763 212.014 39.5054 211.924 38.2528C211.878 37.6146 211.359 36.3857 211.065 36.2438C210.365 36.7638 209.958 37.2365 209.868 38.4891C209.778 39.5763 209.394 40.498 208.716 41.0652C208.219 41.4906 207.632 41.6561 207.022 41.6088C206.818 41.5852 206.502 41.5851 206.118 41.5851C204.56 41.5615 202.414 41.5379 201.555 40.4034C200.787 39.3635 199.432 39.1508 198.461 39.1508C196.879 39.1508 190.17 37.331 189.109 35.4876C188.024 33.5968 188.838 32.5806 189.425 31.8479C190.057 31.068 190.419 30.2644 190.396 30.0517C190.306 30.0045 189.719 29.6972 189.357 29.5081C188.973 29.3191 188.589 29.1064 188.295 28.8937C187.234 28.161 183.778 25.5849 184.388 23.7651C184.726 22.7252 185.72 22.4652 186.375 22.2997C186.466 22.2761 186.601 22.2525 186.692 22.2052C186.601 22.0634 186.443 21.8271 186.33 21.6616C186.014 21.1889 185.63 20.669 185.517 20.0309C185.404 19.2982 185.653 18.731 185.833 18.3292C185.878 18.2347 185.924 18.0929 185.969 18.022C185.946 18.0692 185.833 17.9983 185.766 17.9747C185.223 17.7384 184.184 17.2893 184.184 15.5168C184.184 14.8314 183.936 14.406 183.687 14.3114C183.461 14.2169 183.077 14.406 182.716 14.8077C181.451 16.2258 180.028 17.8093 177.814 17.1239C177.34 16.9821 176.775 16.7221 176.233 16.4621C175.668 16.2022 174.584 15.6822 174.29 15.8004C173.997 16.5803 174.155 17.0057 174.155 17.0057L174.2 17.1003L174.381 17.6911C176.21 23.4105 177.114 26.2939 174.019 29.6972C172.867 30.9498 171.557 32.5097 170.382 33.9041C167.175 37.7328 166.836 38.0873 166.113 37.8273C165.91 37.7564 165.684 37.591 165.21 37.2365C164.893 37.0001 164.238 36.5038 163.809 36.2911C163.335 37.071 162.657 37.8037 161.979 38.2291C161.776 38.3473 161.753 38.4182 161.753 38.4182C161.753 38.4182 161.663 38.7254 162.273 39.789C162.612 40.3798 162.996 40.9707 163.402 41.5851C164.238 42.8614 165.097 44.1849 165.435 45.4139C165.616 46.0993 165.752 46.9737 165.21 47.5173C164.667 48.0609 163.967 47.8009 163.628 47.6827C162.296 47.2101 158.975 46.6901 158.523 47.2337C158.071 49.0299 158.252 49.1008 158.568 49.219L158.952 49.3608C160.127 49.7625 161.708 50.3061 162.025 51.5115C162.115 51.9132 162.115 52.5277 161.528 53.1895C160.872 53.9221 160.805 54.1585 160.805 54.2058C160.827 54.3476 161.211 54.7966 161.369 54.9857C161.663 55.3166 161.979 55.742 162.296 56.191C162.702 56.7346 163.357 57.6563 163.651 57.7745C163.99 57.6091 166.181 55.7183 167.13 54.4657C167.649 53.7094 168.169 53.5204 168.575 53.5204Z" fill="#EB886A"/>
<path fill-rule="evenodd" clip-rule="evenodd" d="M334.084 70.8017C334.307 71.0352 334.619 71.152 334.932 71.152H334.932C334.976 71.152 334.999 71.152 335.021 71.1286C335.378 71.1053 335.69 70.9185 335.914 70.6383L344.305 59.8977C344.84 59.2439 345.13 58.4034 345.153 57.5628L345.889 33.1631C345.956 31.2718 344.662 29.6607 342.876 29.3805C341.917 29.2404 340.957 29.4973 340.198 30.1277C339.44 30.7581 338.971 31.6687 338.859 32.6961L337.944 44.7909L339.551 44.931L340.444 32.8595C340.511 32.3225 340.779 31.8088 341.18 31.4819C341.582 31.1551 342.118 30.9916 342.631 31.085C343.613 31.2251 344.305 32.1124 344.282 33.1397L343.546 57.5395C343.546 58.0298 343.367 58.4968 343.077 58.8704L334.909 69.3307L326.786 61.7657L332.722 53.9204C333.213 53.2666 333.481 52.4961 333.526 51.6789L334.195 36.2218C334.218 35.5914 334.351 34.9843 334.552 34.4006L341.493 15.0209C341.671 14.5305 342.162 14.2503 342.653 14.3671C343.122 14.4838 343.457 14.9275 343.412 15.4411L342.408 27.9329L344.014 28.073L345.019 15.5579C345.108 14.227 344.282 13.0362 343.033 12.7093C341.738 12.3824 340.444 13.1296 339.975 14.4138L333.035 33.7935C332.745 34.5407 332.611 35.3345 332.566 36.1284L331.897 51.5855C331.874 52.0525 331.718 52.4961 331.45 52.8697L325.313 60.9718C324.889 61.5088 324.956 62.326 325.47 62.793L334.084 70.8017ZM357.985 71.1519H358.096C358.409 71.1519 358.699 71.0352 358.967 70.8484L367.581 62.8397C368.094 62.3727 368.161 61.5788 367.737 61.0184L361.6 52.9163C361.31 52.5427 361.154 52.0991 361.132 51.6321L360.462 36.175C360.417 35.3812 360.261 34.5873 359.993 33.8401L353.075 14.4604C352.607 13.1529 351.29 12.4291 350.018 12.756C348.768 13.0595 347.942 14.2503 348.032 15.6045L349.036 28.0963L350.62 27.9562L349.639 15.4644C349.594 14.9508 349.929 14.4838 350.397 14.367C350.866 14.2503 351.379 14.5305 351.558 15.0208L358.476 34.4005C358.677 34.9842 358.811 35.5913 358.833 36.2217L359.502 51.6788C359.547 52.496 359.815 53.2665 360.306 53.9203L366.242 61.7656L358.119 69.3307L349.951 58.8703C349.661 58.4967 349.505 58.0297 349.482 57.5394L348.746 33.1397C348.724 32.1123 349.415 31.225 350.397 31.085C350.911 30.9916 351.424 31.155 351.848 31.4819C352.272 31.8088 352.54 32.2991 352.584 32.8361L353.499 44.9309L355.106 44.7908L354.191 32.6727C354.102 31.6453 353.611 30.7581 352.852 30.1276C352.093 29.4972 351.156 29.2404 350.174 29.3805C348.389 29.6607 347.072 31.2717 347.139 33.163L347.875 57.5628C347.898 58.4267 348.21 59.2673 348.724 59.921L357.092 70.6616C357.315 70.9418 357.65 71.1286 357.985 71.1519ZM331.451 80.4916L330.245 79.3942L334.129 74.7011L322.234 63.3067L306.947 79.6978L305.786 78.5303L321.408 61.7657C321.832 61.3221 322.502 61.2987 322.926 61.719L335.557 73.8138C335.758 74.0006 335.892 74.2808 335.914 74.6077C335.936 74.9112 335.825 75.2147 335.646 75.4482L331.451 80.4916ZM357.382 75.4015L361.578 80.4916L362.783 79.3942L358.9 74.701L370.795 63.3067L386.082 79.6977L387.242 78.5303L371.62 61.7657C371.196 61.322 370.527 61.2987 370.081 61.7189L357.472 73.7904C357.271 74.0006 357.137 74.2807 357.115 74.5843C357.092 74.8878 357.204 75.1913 357.382 75.4015Z" fill="#EB886A"/>
<path d="M518.873 26.6867C517.876 22.4095 515.986 18.3084 513.309 14.5092L513.178 14.2828L512.155 12.9493C505.961 5.04903 497.222 0.142822 489.349 0.142822C475.597 0.142822 458.984 15.1885 458.984 33.8573C458.984 41.6821 462.029 49.532 467.487 55.8723L467.54 56.5768C467.382 59.3444 467.566 63.3952 467.96 65.6344C469.429 73.8115 471.004 78.3906 473.209 80.9318C475.518 83.5736 478.405 86.8192 480.242 88.354C481.817 90.0397 484.625 90.4171 486.593 90.5429C487.38 90.6435 488.036 90.6938 488.561 90.6938C488.745 90.6938 488.929 90.6938 489.034 90.6687C489.217 90.6687 489.401 90.6938 489.585 90.6938C490.162 90.6938 490.818 90.6435 491.553 90.5429C493.548 90.3919 496.382 90.0145 497.878 88.4043C499.794 86.7941 502.681 83.5484 504.99 80.9066C507.247 78.3151 508.795 73.7863 510.291 65.2822C510.606 63.4455 510.79 59.9231 510.842 57.5077L510.974 56.1239C511.919 55.0169 512.811 53.8847 513.546 52.7776C514.569 51.268 515.514 49.5823 516.459 47.5947L517.115 46.236L517.194 45.9844C517.876 44.2987 518.427 42.613 518.821 40.9524C519.031 40.097 519.188 39.2667 519.319 38.3861L519.661 33.7818C519.713 31.5174 519.424 29.102 518.873 26.6867ZM512.155 17.4781C512.365 17.1762 512.548 16.8743 512.706 16.5975C514.832 19.8935 516.354 23.4159 517.22 27.0641C517.482 28.2214 517.692 29.404 517.823 30.5865C515.356 27.844 510.396 24.6739 505.095 23.441C505.541 23.1643 505.987 22.8875 506.407 22.5856L506.617 22.4346C507.142 22.0824 507.641 21.7301 508.166 21.3276C508.638 20.9502 509.11 20.5728 509.53 20.2205L509.74 20.0444C510.16 19.6922 510.528 19.3148 510.895 18.9374L511.079 18.7361C511.472 18.3587 511.787 17.9813 512.155 17.4781ZM460.69 33.8825C460.69 19.4154 473.917 1.75306 489.375 1.75306C496.933 1.75306 505.882 7.06184 511.604 14.8363C511.577 14.9873 511.525 15.1382 511.42 15.415C511.394 15.5156 511.341 15.6163 511.315 15.7169C511.236 15.893 511.105 16.0691 511 16.2453L510.869 16.4465C510.79 16.5472 510.738 16.673 510.633 16.7736C510.501 16.9497 510.318 17.151 510.055 17.4278L509.924 17.5787C509.819 17.7045 509.714 17.8052 509.609 17.931C509.399 18.1323 509.189 18.3335 508.848 18.6355L508.664 18.8116C508.533 18.9374 508.428 19.038 508.271 19.1638C508.034 19.3651 507.772 19.5664 507.51 19.7677L507.3 19.9438C507.3 19.9438 506.801 20.3463 506.644 20.447C506.276 20.7237 505.856 21.0005 505.436 21.2773C505.436 21.2773 504.885 21.6547 504.754 21.7553C504.334 22.0321 503.888 22.2837 503.442 22.5604L502.602 23.0636C501.867 23.4914 501.08 23.9191 500.266 24.3216C499.348 24.7745 498.429 25.2274 497.484 25.6551C497.327 25.7306 496.566 26.0325 496.566 26.0325C495.936 26.3093 495.28 26.586 494.65 26.8376C494.466 26.9131 493.259 27.3408 493.259 27.3408C492.787 27.517 492.314 27.6931 491.868 27.8189C491.579 27.9195 491.291 27.995 491.028 28.0705L490.267 28.2969C489.926 28.3976 489.559 28.4982 489.27 28.5988C483.942 28.7498 471.162 40.2983 468.065 53.9853C463.288 47.9972 460.69 40.8769 460.69 33.8825ZM495.464 33.656C493.784 33.4296 491.816 33.3038 489.769 33.3038C487.38 33.3038 484.966 33.4547 482.683 33.7567C485.386 31.4923 487.8 30.1839 489.375 30.1839C490.556 30.1839 492.865 31.4922 495.464 33.656ZM508.691 65.0809C507.247 73.1824 505.777 77.6106 503.73 79.9757C502.287 81.6362 498.901 85.536 496.749 87.3224C495.568 88.5804 493.154 88.8823 491.396 89.0081C490.687 89.1088 490.084 89.1591 489.585 89.1591C489.401 89.1591 489.244 89.1591 489.086 89.1339C489.086 89.1339 488.798 89.1591 488.64 89.1591C488.141 89.1591 487.512 89.1088 486.777 89.0081C485.071 88.8823 482.656 88.5804 481.423 87.2721C479.376 85.5612 475.991 81.6614 474.495 79.9505C472.5 77.6609 471.03 73.3083 469.613 65.408C469.508 64.779 469.403 64.15 469.325 63.521C469.456 63.999 469.587 64.4771 469.692 64.9048C470.243 67.2447 470.847 69.2323 471.555 70.9684C471.87 71.6477 472.159 72.2767 472.448 72.9057C473.287 74.5159 474.232 75.7991 475.361 76.8055C475.702 77.1074 475.99 77.3087 476.279 77.4345L476.778 77.6358L477.171 77.2835C477.696 76.8307 477.854 76.0255 477.959 74.843C478.09 73.3837 479.533 70.2639 482.21 69.7607C482.578 69.7104 485.911 69.2826 489.112 69.2826C492.472 69.2826 495.962 69.7607 495.988 69.7607C498.692 70.289 500.109 73.3837 500.266 74.843C500.371 75.9752 500.555 76.8307 501.054 77.2835L501.473 77.6358L501.972 77.4345C502.261 77.3087 502.549 77.1074 502.891 76.8055C503.993 75.7991 504.964 74.5159 505.804 72.8805C506.092 72.3019 506.381 71.6477 506.696 70.9432C507.405 69.2323 508.008 67.2447 508.559 64.9048C508.664 64.4519 508.796 63.9487 508.927 63.4203C508.874 63.9739 508.796 64.5274 508.691 65.0809ZM509.294 55.8975C509.242 56.2497 509.137 56.9542 508.979 57.4574C508.454 59.1683 507.457 62.3888 506.932 64.5777C506.407 66.8673 505.804 68.7543 505.148 70.3645C504.859 71.0187 504.57 71.6477 504.308 72.2012C503.625 73.5095 502.891 74.5663 502.025 75.3965C501.998 75.2204 501.972 74.994 501.946 74.7424C501.788 73.0063 500.135 68.9556 496.33 68.2259C496.12 68.1756 492.524 67.7227 489.112 67.7227C485.701 67.7227 482.105 68.2008 481.895 68.2259C478.09 68.9556 476.437 73.0063 476.279 74.7424C476.253 74.994 476.227 75.2204 476.2 75.3965C475.361 74.5663 474.6 73.5347 473.943 72.2264C473.655 71.6477 473.392 71.0187 473.104 70.3645C472.448 68.7543 471.844 66.7918 471.319 64.5526C470.82 62.4894 469.928 59.596 469.403 57.8851L469.141 57.08L469.167 56.8536H469.193C469.193 56.8536 469.272 56.2246 469.325 55.9981C470.427 49.1798 474.626 41.5814 480.478 35.7695C483.313 35.2159 486.619 34.914 489.821 34.914C492.997 34.914 495.831 35.2159 497.72 35.694C500.634 38.5119 507.562 46.0851 509.32 55.6459L509.294 55.8975ZM512.207 51.9725C511.787 52.6015 511.289 53.2557 510.659 54.0357C508.034 43.0659 498.324 32.5238 492.131 29.4291L492.997 29.1524C493.574 28.9511 494.151 28.7498 494.729 28.5234C495.07 28.3976 495.385 28.2718 495.726 28.146C496.015 28.0202 496.33 27.9195 496.618 27.7937C500.03 29.4543 503.179 31.4922 505.961 33.8825C506.722 34.5366 507.431 35.1908 508.113 35.8701C508.271 36.0211 508.402 36.1469 508.533 36.2978L508.927 36.7004C509.294 37.0778 509.635 37.4552 509.976 37.8074C510.108 37.9835 510.816 38.8138 510.816 38.8138C511.053 39.1157 511.315 39.3925 511.525 39.6693C511.656 39.8454 512.207 40.6002 512.207 40.6002C512.417 40.8769 512.627 41.1537 512.811 41.4053C512.811 41.4053 513.729 42.7891 513.834 42.9904L514.622 44.349L514.884 44.8271C514.989 45.0535 515.383 45.8083 515.383 45.8083L515.514 45.9593C514.622 48.0727 513.519 50.0855 512.207 51.9725ZM517.246 40.7008C516.984 41.7827 516.669 42.8646 516.301 43.9465L516.091 43.5691C515.934 43.2923 515.776 43.0156 515.54 42.6381L515.304 42.2356C515.015 41.7575 514.7 41.2543 514.333 40.726L514.202 40.5247C513.861 40.0467 513.519 39.5435 513.126 39.0403L512.68 38.4616C512.365 38.059 512.024 37.6313 511.656 37.2036L511.079 36.5494C510.685 36.1217 510.265 35.6688 509.845 35.2411C509.845 35.2411 509.399 34.7882 509.242 34.6373C508.586 33.9831 507.903 33.3541 507.142 32.6999C504.596 30.5362 501.736 28.5988 498.587 26.9634C499.505 26.5357 501.08 25.7558 501.08 25.7558C501.631 25.479 502.208 25.1519 502.786 24.85L503.101 24.6739C510.265 25.63 517.404 31.0645 518.086 33.9579C518.033 36.1972 517.771 38.4616 517.246 40.7008Z" fill="#EB886A"/>
<defs>
<clipPath id="clip0">
<rect width="84.5573" height="67.653" fill="white" transform="translate(0.385406 12.6327)"/>
</clipPath>
</defs>
</svg>
