<svg id="sun_copy_2" data-name="sun copy 2" xmlns="http://www.w3.org/2000/svg" viewBox="0 0 1081 1080"><defs><style>.cls-1,.cls-4{fill:#0071bc;}.cls-2{fill:#e8821c;}.cls-3{fill:#1fa364;}.cls-3,.cls-4,.cls-5{stroke:#000;stroke-miterlimit:10;stroke-width:2px;}.cls-5{fill:#fff;}</style></defs><title>1p-earth</title><path d="M881.54,192.81a317.81,317.81,0,0,1,76.69,90.33,1.5,1.5,0,0,0,2.59-1.51,320.13,320.13,0,0,0-77.16-90.94c-1.49-1.2-3.62.91-2.12,2.12Z"/><path d="M931.15,220.26a221.34,221.34,0,0,1,56.67,73.47c.84,1.74,3.42.22,2.59-1.52a223.38,223.38,0,0,0-57.14-74.07c-1.46-1.24-3.6.87-2.12,2.12Z"/><path d="M58.28,572.06a399.7,399.7,0,0,0,8.55,120c.42,1.89,3.31,1.09,2.89-.79a397.08,397.08,0,0,1-8.44-119.22c.16-1.93-2.84-1.92-3,0Z"/><path d="M43.35,612c-1.46,22.39-2.67,45.47,5.84,66.71.71,1.77,3.62,1,2.9-.79-8.43-21-7.18-43.79-5.74-65.92.13-1.93-2.87-1.92-3,0Z"/><path d="M401.22,1012.78a1051,1051,0,0,0,229,14c1.92-.09,1.93-3.09,0-3A1047.33,1047.33,0,0,1,402,1009.89c-1.89-.32-2.7,2.57-.8,2.89Z"/><path d="M472.09,1033.1q52.8,5.52,105.94,6.34c1.93,0,1.93-3,0-3q-53.09-.81-105.94-6.34c-1.92-.2-1.91,2.8,0,3Z"/><path d="M667.25,57a343.19,343.19,0,0,1,106.59,53c1.56,1.14,3.06-1.46,1.52-2.59A346,346,0,0,0,668.05,54.06c-1.86-.54-2.65,2.35-.8,2.9Z"/><path d="M645.43,52.21a1.5,1.5,0,0,0,0-3,1.5,1.5,0,0,0,0,3Z"/><path d="M80,705.71a1.5,1.5,0,0,0,0-3,1.5,1.5,0,0,0,0,3Z"/><path d="M450.07,1031.77a1.5,1.5,0,0,0,0-3,1.5,1.5,0,0,0,0,3Z"/><path d="M979.44,743.05A316.9,316.9,0,0,1,923,846.79c-1.21,1.48.9,3.62,2.12,2.12a321,321,0,0,0,57.24-105.06c.59-1.84-2.31-2.63-2.9-.8Z"/><path d="M971.71,799.22a220.62,220.62,0,0,1-47.94,79c-1.33,1.41.79,3.53,2.12,2.13A224.33,224.33,0,0,0,974.6,800c.63-1.83-2.26-2.62-2.89-.8Z"/><path d="M155.16,243.85c-15.9,22.6-35.49,42.79-47.32,68-.81,1.74,1.78,3.27,2.59,1.52,11.83-25.26,31.42-45.45,47.32-68.05,1.12-1.58-1.48-3.08-2.59-1.51Z"/><path d="M165,235.81a85.33,85.33,0,0,1,9.2-11.14c1.35-1.38-.77-3.5-2.12-2.12a90,90,0,0,0-9.67,11.75c-1.1,1.59,1.5,3.09,2.59,1.51Z"/><path d="M181.86,214.9l1.95-3.13c1-1.64-1.57-3.15-2.59-1.52l-1.95,3.14c-1,1.64,1.56,3.15,2.59,1.51Z"/><path d="M107.9,302.84c3.19-8.89,9.33-17.31,14-25.48a1.5,1.5,0,0,0-2.59-1.52c-4.86,8.47-11,17-14.32,26.2-.65,1.83,2.24,2.61,2.89.8Z"/><path d="M127,269.81a1.5,1.5,0,0,0,0-3,1.5,1.5,0,0,0,0,3Z"/><path d="M101.74,326a39.15,39.15,0,0,0-2.4,6.34,1.5,1.5,0,0,0,2.89.8,33.9,33.9,0,0,1,2.1-5.62c.84-1.73-1.74-3.25-2.59-1.52Z"/><path d="M95.54,341.84a10.43,10.43,0,0,1-1,2.07,1.5,1.5,0,0,0,2.59,1.52,15.29,15.29,0,0,0,1.26-2.8,1.51,1.51,0,0,0-1.05-1.84,1.53,1.53,0,0,0-1.84,1Z"/><path d="M346.68,103.73a214.25,214.25,0,0,1,40.09-16.11,1.5,1.5,0,0,0-.8-2.89,217.62,217.62,0,0,0-40.81,16.41c-1.71.9-.19,3.49,1.52,2.59Z"/><path d="M394.09,84.34q7.71-2.58,15.59-4.55c1.87-.47,1.08-3.37-.8-2.9q-7.87,2-15.59,4.56c-1.82.6-1,3.5.8,2.89Z"/><path d="M333.59,110.91a1.5,1.5,0,0,0,0-3,1.5,1.5,0,0,0,0,3Z"/><path class="cls-1" d="M541,1010A470.13,470.13,0,0,1,358.06,106.93,470.12,470.12,0,0,1,723.94,973.07,467.16,467.16,0,0,1,541,1010Z"/><path d="M541,71A469.12,469.12,0,0,1,723.56,972.14,469.12,469.12,0,0,1,358.44,107.86,466,466,0,0,1,541,71m0-2C280.87,69,70,279.87,70,540s210.87,471,471,471,471-210.87,471-471S801.13,69,541,69Z"/><path class="cls-2" d="M363.39,419.54a1.5,1.5,0,0,0,0-3,1.5,1.5,0,0,0,0,3Z"/><path class="cls-3" d="M379.5,517.5c48.95-10.52,87.43-7.09,111-3,26.31,4.57,41,7.34,51,20,16.44,20.82,0,42.72,13,86,3,9.78,14.62,48.49,35,50,15.9,1.18,33-20.6,38-41,6-24.49-9.07-31.65-7-61,2.61-37,29.14-61.79,35-67,13.78-12.26,26.7-23.75,40-22,49.37,6.5,35.39,186.46,109,213,12.4,4.47,31.1-13.27,59-7,5,1.14,13.13,3.55,16,0,.67-.82,3.78-5.34-8-23-19.88-29.81-41-35.29-60-55-25.1-26-37.87-68-26-80,9.58-9.7,38.73-3.45,51,13,12,16.08,3.72,36.36,11,39s26.15-14.11,31-36c6.8-30.68-19.59-45.44-12-76,3.39-13.64,13.38-29.77,26-32,20.8-3.68,47.39,34.41,59,69,17.93,53.41-3,90.06,24,149,6.27,13.7,10,17.29,13,17,11.72-1.11,2.49-55.37,18-136,2.12-11,6.81-33.48-4-42-6.45-5.08-13.44-1.29-23-3-22.24-4-34.41-33.44-45-60-6-14.93-13.6-39.28-22-95-8.3-55-6.21-68.75-19.5-90.5-9.86-16.14-21.7-26.08-41-40-64.46-46.49-96.69-69.74-133-77-62.88-12.58-71.27,24.35-168,26-61.95,1.06-62.62-14-120-11-71.6,3.77-124,30-157,47,0,0-75.4,38.77-132.5,119.5-2,2.81-9.57,13.75-6,19,6.06,8.91,34.74-12.38,67-4,28.11,7.3,42.28,32.8,44,36,18.62,34.7.6,70-1,73-1,1.95-21.48,39.2-55,41-46.64,2.51-82.14-65.53-98-56-2.89,1.74-3.63,6.85-5,17-5.26,39.06-7.9,58.58-8,63-2.28,96.63,13,156,13,156,7.39,29.29,42.26,167.39,162,247,1.9,1.27,5.31,6.44,11,7,9.29.92,17.29-9.72,19-12,10.79-14.36,11.79-36.1,5-54-7.92-20.88-19.4-17.91-27-36-10.18-24.23-1.54-58,17-78,17.54-19,34.71-15.66,38-30,3.42-14.91-14.13-22.91-20-54-1.9-10.08-4.94-26.18,2-31,12.67-8.79,39.95,33,68,26,15.55-3.86,14.48-18.51,45-55,21.89-26.18,35.75-34.54,33-40-6.12-12.12-79.37,19.72-87,6C355.09,543.37,366,530.39,379.5,517.5Z"/><path class="cls-1" d="M333.22,385.63a27.81,27.81,0,0,1-7.45-1.09l-.21-.06c-4.92-1.29-21.44-6.44-27.16-18.41-8.06-16.87,9-42.62,28.56-52.68,3.38-1.75,8.5-4.38,14.22-4.38a18.65,18.65,0,0,1,4.09.46c6.53,1.52,9.47,6.1,13.55,12.44a95.06,95.06,0,0,0,8.93,12.25c10.07,11.42,21.22,16.44,29.37,20.11,7.38,3.32,12.25,5.52,12.38,10.26.18,6.76-9,12.64-14.41,15.06a18.61,18.61,0,0,1-7.89,1.67h0a55.74,55.74,0,0,1-7.62-.75c-2.6-.36-5.54-.77-9-1-1.61-.11-3.21-.16-4.73-.16-9.27,0-15.3,2-20.61,3.74C341.1,384.45,337.54,385.63,333.22,385.63Z"/><path d="M341.18,310a17.27,17.27,0,0,1,3.87.44c6.13,1.42,8.83,5.63,12.93,12a95.21,95.21,0,0,0,9,12.37c10.21,11.59,21.48,16.66,29.7,20.36,7.68,3.46,11.69,5.45,11.8,9.37.17,6.25-9,12-13.81,14.12a17.57,17.57,0,0,1-7.49,1.59,54.34,54.34,0,0,1-7.48-.74c-2.61-.36-5.57-.78-9.08-1-1.64-.11-3.25-.16-4.8-.16-9.43,0-15.54,2-20.93,3.8-4,1.33-7.54,2.49-11.69,2.49a26.7,26.7,0,0,1-7.19-1.06l-.22-.06c-4.82-1.26-21-6.29-26.51-17.87-7.83-16.39,9-41.5,28.12-51.36,3.3-1.7,8.28-4.27,13.76-4.27m0-2c-5.82,0-10.93,2.56-14.68,4.49-18.9,9.74-37.72,35.74-29,54,6.6,13.81,26.85,18.68,28,19a28.69,28.69,0,0,0,7.72,1.13c10.15,0,16.32-6.29,32.62-6.29,1.47,0,3,.05,4.66.16,7.24.49,12.11,1.76,16.7,1.76a19.67,19.67,0,0,0,8.3-1.76c5.83-2.59,15.19-8.77,15-16-.3-11.19-22.93-9.37-42-31-10.71-12.14-12.19-22.49-23-25a19.22,19.22,0,0,0-4.32-.49Z"/><path class="cls-4" d="M465,285a80.83,80.83,0,0,0-9,25c-2.09,11.65,0,15.53,0,32,0,27.57-5.77,33.91,0,41,7.26,8.92,25.4,9.9,31,3,4.49-5.53-2.41-12-4-32-1.23-15.41,2.47-16.65,1-36-1.19-15.66-4.19-22.35-9-27A26.83,26.83,0,0,0,465,285Z"/><path class="cls-4" d="M211,490c2.8,15.84,25.79,49.67,39,70a105.52,105.52,0,0,0,25,27c4.91,3.7,17.32,13,21,10,2.41-2-2.69-14-13-38-11.5-26.75-12.33-28.6-15-32C262.92,520.52,234.58,496,211,490Z"/><g id="Layer_2_copy_2" data-name="Layer 2 copy 2"><path d="M598.66,1041.4a1.5,1.5,0,0,0,0-3,1.5,1.5,0,0,0,0,3Z"/></g><path class="cls-5" d="M765,817c-39.07-4.61-68.47-.85-97,3-43.72,5.89-65.58,8.84-76,22-21.86,27.62,8.3,63.2-15,89-16.7,18.5-43.23,12.43-56,37-2.57,5-7.7,14.81-4,22,12.2,23.73,109.21-3.82,138-12,66.41-18.86,109.67-42,142-64,32.07-21.81,65.42-44.5,61-64C852.87,827.36,799.58,821.08,765,817Z"/><path class="cls-5" d="M525,79c-7.18,1.58-47.1,10.33-48,27-.48,8.87,10.28,16.14,16,20,5,3.37,15.5,9.39,51,11,30.49,1.38,48.82-1.88,65-9,2.57-1.13,12.64-5.68,12-9-1-5-24.17,2-39-11-8-7.06-5.47-12.86-16-21a47.14,47.14,0,0,0-21-9C538,76.86,531.85,77.5,525,79Z"/></svg>