<svg width="123" height="61" viewBox="0 0 123 61" fill="none" xmlns="http://www.w3.org/2000/svg">
<path d="M20.5469 44.3359L19.576 44.5755L21.5168 44.5795L20.5469 44.3359ZM27.2266 17.7344V16.7344H26.4466L26.2567 17.4908L27.2266 17.7344ZM41.0938 17.7344L42.0444 18.0445L42.4719 16.7344H41.0938V17.7344ZM27.3047 60V61H28.0303L28.2554 60.3102L27.3047 60ZM13.8672 60L12.9165 60.3102L13.1416 61H13.8672V60ZM0.078125 17.7344V16.7344H-1.3L-0.87256 18.0445L0.078125 17.7344ZM13.9844 17.7344L14.9553 17.4949L14.7677 16.7344H13.9844V17.7344ZM21.5168 44.5795L28.1965 17.9779L26.2567 17.4908L19.577 44.0924L21.5168 44.5795ZM27.2266 18.7344H41.0938V16.7344H27.2266V18.7344ZM40.1431 17.4242L26.354 59.6898L28.2554 60.3102L42.0444 18.0445L40.1431 17.4242ZM27.3047 59H13.8672V61H27.3047V59ZM14.8179 59.6898L1.02881 17.4242L-0.87256 18.0445L12.9165 60.3102L14.8179 59.6898ZM0.078125 18.7344H13.9844V16.7344H0.078125V18.7344ZM13.0135 17.9739L19.576 44.5755L21.5178 44.0964L14.9553 17.4949L13.0135 17.9739ZM51.7969 49.1016L51.1256 49.8428L51.1334 49.8498L51.7969 49.1016ZM51.7969 58.5938L52.4604 59.342L52.4682 59.335L51.7969 58.5938ZM41.3672 58.5547L40.6889 59.2895L40.6959 59.2959L41.3672 58.5547ZM41.3672 49.1016L40.6959 48.3603L40.6889 48.3668L41.3672 49.1016ZM46.6016 48.2266C48.4685 48.2266 49.9515 48.7795 51.1256 49.8428L52.4682 48.3604C50.8818 46.9237 48.9013 46.2266 46.6016 46.2266V48.2266ZM51.1334 49.8498C52.289 50.8745 52.8672 52.1726 52.8672 53.8281H54.8672C54.8672 51.6295 54.0652 49.7765 52.4604 48.3534L51.1334 49.8498ZM52.8672 53.8281C52.8672 55.484 52.2883 56.7995 51.1256 57.8525L52.4682 59.335C54.0658 57.888 54.8672 56.0264 54.8672 53.8281H52.8672ZM51.1334 57.8456C49.96 58.8861 48.4743 59.4297 46.6016 59.4297V61.4297C48.8955 61.4297 50.8734 60.7493 52.4604 59.3419L51.1334 57.8456ZM46.6016 59.4297C44.7049 59.4297 43.2101 58.8746 42.0385 57.8135L40.6959 59.2959C42.2846 60.7347 44.2794 61.4297 46.6016 61.4297V59.4297ZM42.0455 57.8199C40.9036 56.7659 40.3359 55.46 40.3359 53.8281H38.3359C38.3359 55.9983 39.1224 57.8435 40.6889 59.2895L42.0455 57.8199ZM40.3359 53.8281C40.3359 52.1962 40.9036 50.8904 42.0455 49.8364L40.6889 48.3668C39.1224 49.8127 38.3359 51.658 38.3359 53.8281H40.3359ZM42.0385 49.8428C43.2101 48.7816 44.7049 48.2266 46.6016 48.2266V46.2266C44.2794 46.2266 42.2846 46.9215 40.6959 48.3604L42.0385 49.8428ZM76.5625 60V61H77.5625V60H76.5625ZM63.3594 60H62.3594V61H63.3594V60ZM63.3594 17.7344V16.7344H62.3594V17.7344H63.3594ZM76.5625 17.7344H77.5625V16.7344H76.5625V17.7344ZM76.5625 59H63.3594V61H76.5625V59ZM64.3594 60V17.7344H62.3594V60H64.3594ZM63.3594 18.7344H76.5625V16.7344H63.3594V18.7344ZM75.5625 17.7344V60H77.5625V17.7344H75.5625ZM63.5781 6.83594C63.5781 5.23531 64.1412 3.9758 65.2719 2.97556L63.9468 1.47757C62.3692 2.87316 61.5781 4.68656 61.5781 6.83594H63.5781ZM65.2719 2.97556C66.4089 1.9698 67.9152 1.42969 69.8828 1.42969V-0.570312C67.5275 -0.570312 65.5182 0.0874878 63.9468 1.47757L65.2719 2.97556ZM69.8828 1.42969C71.8504 1.42969 73.3567 1.9698 74.4937 2.97556L75.8188 1.47757C74.2474 0.0874878 72.2381 -0.570312 69.8828 -0.570312V1.42969ZM74.4937 2.97556C75.6244 3.9758 76.1875 5.23531 76.1875 6.83594H78.1875C78.1875 4.68656 77.3965 2.87316 75.8188 1.47757L74.4937 2.97556ZM76.1875 6.83594C76.1875 8.43656 75.6244 9.69608 74.4937 10.6963L75.8188 12.1943C77.3965 10.7987 78.1875 8.98531 78.1875 6.83594H76.1875ZM74.4937 10.6963C73.3567 11.7021 71.8504 12.2422 69.8828 12.2422V14.2422C72.2381 14.2422 74.2474 13.5844 75.8188 12.1943L74.4937 10.6963ZM69.8828 12.2422C67.9152 12.2422 66.4089 11.7021 65.2719 10.6963L63.9468 12.1943C65.5182 13.5844 67.5275 14.2422 69.8828 14.2422V12.2422ZM65.2719 10.6963C64.1412 9.69608 63.5781 8.43656 63.5781 6.83594H61.5781C61.5781 8.98531 62.3692 10.7987 63.9468 12.1943L65.2719 10.6963ZM101.562 44.3359L100.592 44.5755L102.532 44.5795L101.562 44.3359ZM108.242 17.7344V16.7344H107.462L107.272 17.4908L108.242 17.7344ZM122.109 17.7344L123.06 18.0445L123.487 16.7344H122.109V17.7344ZM108.32 60V61H109.046L109.271 60.3102L108.32 60ZM94.8828 60L93.9321 60.3102L94.1572 61H94.8828V60ZM81.0938 17.7344V16.7344H79.7156L80.1431 18.0445L81.0938 17.7344ZM95 17.7344L95.9709 17.4949L95.7833 16.7344H95V17.7344ZM102.532 44.5795L109.212 17.9779L107.272 17.4908L100.593 44.0924L102.532 44.5795ZM108.242 18.7344H122.109V16.7344H108.242V18.7344ZM121.159 17.4242L107.37 59.6898L109.271 60.3102L123.06 18.0445L121.159 17.4242ZM108.32 59H94.8828V61H108.32V59ZM95.8335 59.6898L82.0444 17.4242L80.1431 18.0445L93.9321 60.3102L95.8335 59.6898ZM81.0938 18.7344H95V16.7344H81.0938V18.7344ZM94.0291 17.9739L100.592 44.5755L102.533 44.0964L95.9709 17.4949L94.0291 17.9739Z" fill="#E2B22D"/>
</svg>
