<svg id="Layer_1" data-name="Layer 1" xmlns="http://www.w3.org/2000/svg" viewBox="0 0 4325.5 1527.81"><title>1Artboard 11 copy</title><path d="M1337.46,697.19l109-5.86,6.59,160.8,168.49-5.91,6.32-162.93,109-4.39,3.65-155.07-398.64.73Zm804.05-108.44q-30.91-30.53-74.61-47t-96.73-16.45a211,211,0,0,0-62.54,9.14,220,220,0,0,0-55,25.6,229.84,229.84,0,0,0-45.9,39.13,248.39,248.39,0,0,0-34.93,49.74,255.7,255.7,0,0,0-29.8,120,235.51,235.51,0,0,0,8.22,62.54c1,3.45,2,6.82,3.13,10.2l175.41-6.15a70.38,70.38,0,0,1-10.48-11.73,91,91,0,0,1-13.17-27.8,111.2,111.2,0,0,1-4.39-30.72,90.61,90.61,0,0,1,5.12-30.54,74.52,74.52,0,0,1,14.81-25.23,70.33,70.33,0,0,1,23.23-17q13.52-6.21,30.72-6.22,16.82,0,29.8,7.14A68.41,68.41,0,0,1,2026.12,712a83.71,83.71,0,0,1,13.35,26.33,102.9,102.9,0,0,1,4.57,30.54,95.29,95.29,0,0,1-5.12,31.08,83.89,83.89,0,0,1-14.62,26.52,70.33,70.33,0,0,1-6,5.85l179.74-6.3c.22-.83.49-1.64.7-2.48a265.09,265.09,0,0,0,7.68-64.18q0-53.4-17-96.74T2141.51,588.75Zm-836.41,168a122.13,122.13,0,0,0-39.68-28.16Q1242,718,1212.75,716.2a129.45,129.45,0,0,0-15,.19q-9.15.54-19.75,1.09t-21.4.55a90.38,90.38,0,0,1-19.75-2,36.52,36.52,0,0,1-14.62-6.4q-5.68-4.39-6-12.43a17.39,17.39,0,0,1,3.66-12.07,28.84,28.84,0,0,1,10.6-8.23,70.58,70.58,0,0,1,15-4.94,162.87,162.87,0,0,1,16.64-2.74q8.24-.91,15.73-1.1t12.25-.18a260.78,260.78,0,0,1,53.21,5.67,446.79,446.79,0,0,1,52.12,14.08l13.89-148.49a218.56,218.56,0,0,0-34-12.8,361.82,361.82,0,0,0-74.61-13q-19-1.27-36.93-1.28a240.48,240.48,0,0,0-77.9,12.8,210.62,210.62,0,0,0-66.75,36.75,180.24,180.24,0,0,0-46.45,58.16q-17.37,34.2-17.37,77.35,0,31.45,10.24,57.23a125.3,125.3,0,0,0,28.71,43.89,127.56,127.56,0,0,0,44.26,28q25.77,9.87,57.23,9.87h11.7q7.32,0,15.73.73c5.61.5,11.34,1.28,17.19,2.38a71.06,71.06,0,0,1,15.73,4.75,33,33,0,0,1,11.33,8.05,17,17,0,0,1,4.06,9.93l166.93-5.85c0-1.33.17-2.55.17-3.9q0-29.25-8.59-53.58A119.26,119.26,0,0,0,1305.1,756.8ZM2594.46,549.43q-30-23-68.94-34.56a282.86,282.86,0,0,0-80.64-11.52q-27.08,0-52.85,1.28t-50.83,4.76a473.8,473.8,0,0,0-49.93,9.69,479.09,479.09,0,0,0-50.47,15.72q-2.19,42.06-2.92,83.39t-1.46,83.38c-1.09,41.25-2,82.23-2.85,123.21l384.75-13.49a150.18,150.18,0,0,0,21.86-30,155.56,155.56,0,0,0,15.54-42.6,249.71,249.71,0,0,0,4.94-51.75q0-45.72-18.11-80.1A173.28,173.28,0,0,0,2594.46,549.43ZM2488.58,730.1a68.92,68.92,0,0,1-21.21,21.58,95.44,95.44,0,0,1-29.26,12.43,132.67,132.67,0,0,1-32,4h-8.78l5.86-136a98.24,98.24,0,0,1,13.53-2.75,110.7,110.7,0,0,1,14.26-.91q16.45,0,28.71,5.3a57.16,57.16,0,0,1,20.48,14.63,62.48,62.48,0,0,1,12.44,22.13,90.23,90.23,0,0,1,4.2,28.16Q2496.81,717,2488.58,730.1Zm-1739,146.68,166.68-5.84,17.8-346.38L739.51,534.8ZM3856.94,709.62l12.63,57.82,160.33-5.61-71.29-246L3755.27,526l-74.11,248,163.3-5.73Zm-795.8,86.15,173.24-6.07L3248,524.56,3053.44,534.8ZM3460.5,752c0,9.82-.2,19.75-.51,29.76l162.89-5.71V738.15q0-114.1-11-228.22l-167.5,11q4.39,57.8,10.24,115.38A1144.92,1144.92,0,0,1,3460.5,752ZM2680,520.91l1.46,147L2871,654.76l-124,152L2911.3,801l117.64-148.45-6.58-131.66Zm-407,329.22q-1.59,79.53-3.34,159.7H2427l6.58-152.14,45.35-1.46,56.32,155.8,164.58-32.19L2620.17,838Zm-423.38,61.14a224,224,0,0,0,47,36.57,238.06,238.06,0,0,0,55.77,23.59,229.79,229.79,0,0,0,62.72,8.41,225.46,225.46,0,0,0,120.51-34,223.78,223.78,0,0,0,46.45-38.58,240.51,240.51,0,0,0,35.11-49.56c1-1.87,1.86-3.81,2.81-5.7l-404.71,14.18A227,227,0,0,0,1849.68,911.27Zm1052.38-71.13,9.81-12.39-165.56,5.8L2720.66,865l14.62,143.37,326.23-13.17-5.12-155.06Zm206.63,166.77,154.34-8,9.44-183.75L3103.21,821Zm975.92-220.26-163.77,5.74,4.51,20.68h-54.86l4.06-19.06-167.61,5.87-56.61,189.47,186.52,18.29L3855.13,925h83.39l21.94,82.66,181.4-23.41Zm-590,20.68A133.27,133.27,0,0,1,3490,822a77.78,77.78,0,0,1-14.45,24,63.21,63.21,0,0,1-23,16.09q-13.91,5.85-34,5.85A128.1,128.1,0,0,1,3361,855a188.41,188.41,0,0,1-47.91-33.83l-22.68,151.41A165.1,165.1,0,0,0,3323.92,995a254.79,254.79,0,0,0,39.5,16.27,279.69,279.69,0,0,0,41.69,9.88,261.88,261.88,0,0,0,40.41,3.29q49.72,0,88.14-17.92a195.29,195.29,0,0,0,65.28-48.64q26.88-30.72,42.61-71.5a316.54,316.54,0,0,0,19.56-84.91ZM1501,1006.91l154.34-8,4.94-127.25-164.58,5.77Zm-706.21,0,154.34-8,5.27-102.51-162.7,5.7ZM995.9,973.26q15.72,7.32,36,15.54t42.24,15.36q21.94,7.14,43.34,11.89a183,183,0,0,0,39.32,4.75q46.44,0,86.86-11.15t70.58-34.75q30.18-23.58,47.55-60a168.11,168.11,0,0,0,11.31-33.26l-368.39,12.91Z"/><path d="M252.43,1019.1q18.33,1.95,35.89,2.92t35.89,1a642.42,642.42,0,0,0,95.78-7,456.25,456.25,0,0,0,88-22.05A347.76,347.76,0,0,0,584,955.51a248.46,248.46,0,0,0,45.33-39.29l-375,13.14Z"/><polygon points="206.56 820.85 204.78 903.32 381.41 897.13 386.67 820.85 206.56 820.85"/><path d="M419.92,788.8l7.41-107.38q25,.8,42.13,9.17a74.3,74.3,0,0,1,27.7,22.63,92.36,92.36,0,0,1,15.22,33.55,176,176,0,0,1,4.68,41.55c0,.16,0,.32,0,.48H675.69c.8-10,1.32-20.25,1.32-30.91q0-57.74-18.92-102t-52.86-74.52q-33.94-30.23-80.76-45.84t-102.6-15.6a732.76,732.76,0,0,0-90.32,5.65,490,490,0,0,0-88.37,19.32L237.94,788.8Z"/><path d="M538.91,820.85c-.33.95-.58,1.93-.93,2.87a114.39,114.39,0,0,1-21.66,35.89A126.22,126.22,0,0,1,483,886.14a121.08,121.08,0,0,1-25.49,10.39l217.37-7.62a276.87,276.87,0,0,0,16.64-40.42,261.52,261.52,0,0,0,7.12-27.64Z"/></svg>