<svg xmlns="http://www.w3.org/2000/svg" viewBox="0 0 4325.5 1527.81"><defs><style>.cls-1,.cls-2{fill:#faad1c;}.cls-2{font-size:326.84px;font-family:PapayaSunrise, Papaya Sunrise;}</style></defs><title>1Artboard 11 copyorange_i</title><g id="Logos"><path class="cls-1" d="M296.54,1038.36q76.84-183.82,152.82-368c10.49-25.32,20.81-50.71,31.8-77.5C443.64,578.29,434,548,430.81,514c-1.53-16.08,4.17-22,19.59-17.79,28.66,7.75,57.53,15.88,72.09,46.1,1.3,2.69,3.83,4.78,6.83,8.39,15.2-14.09,32.84-24,29.63-50.07-2.72-22,13.36-35.28,32.42-47.55,0,16.28-.85,30.61.41,44.76.53,6,4.16,13.24,8.77,16.88,9.59,7.56,18,2.87,18.5-9.4.32-7.77-.94-15.62-.41-23.35.92-13.49,6-24.56,22.66-31.76,0,7.61-1.13,12.75.22,17.13C645,478.76,649.45,490,654,501.11c1.32,3.26,5.64,5.7,6.06,8.86,3.16,23.39,20.64,35.86,36.17,50.44,14.17,13.3,29.28,26.1,34.66,46.8,1.87,7.17,9.85,13,15.61,18.86,14.88,15.19,30.26,29.89,45.08,45.12,9.3,9.56,7.08,19.34-.14,29.44-14.82,20.74-33.39,25.24-58.32,20a337.3,337.3,0,0,0-78.57-7.17c-38.65,1.16-51.9,14.17-62,51-20.08,73.31-33,147.92-40.9,223.45-5,48-22.74,91.37-47.36,132.34q-7.56,12.6-15,25.28a413.35,413.35,0,0,0,50.3,3.07c225.35,0,408-182.68,408-408s-182.69-408-408-408-408,182.69-408,408c0,129,59.91,244.1,153.43,318.87C292,1055.53,293.53,1045.58,296.54,1038.36Z"/><text class="cls-2" transform="translate(1106.74 930.56)">SpeakOut</text></g></svg>