<svg xmlns="http://www.w3.org/2000/svg" xmlns:xlink="http://www.w3.org/1999/xlink" viewBox="0 0 1081 1080"><defs><style>.cls-1{fill:url(#linear-gradient);}.cls-2{fill:#e8821c;}</style><linearGradient id="linear-gradient" x1="71" y1="540" x2="1011" y2="540" gradientUnits="userSpaceOnUse"><stop offset="0" stop-color="#ff851e"/><stop offset="1" stop-color="#ff8d33"/></linearGradient></defs><title>1p-sun</title><g id="Layer_1" data-name="Layer 1"><path class="cls-1" d="M541,1010A470.13,470.13,0,0,1,358.06,106.93,470.12,470.12,0,0,1,723.94,973.07,467.16,467.16,0,0,1,541,1010Z"/><path d="M541,71A469.12,469.12,0,0,1,723.56,972.14,469.12,469.12,0,0,1,358.44,107.86,466,466,0,0,1,541,71m0-2C280.87,69,70,279.87,70,540s210.87,471,471,471,471-210.87,471-471S801.13,69,541,69Z"/><path class="cls-2" d="M363.39,419.54a1.5,1.5,0,0,0,0-3,1.5,1.5,0,0,0,0,3Z"/><path d="M860.06,518.47c7.08,0,7.09-11,0-11s-7.09,11,0,11Z"/><path d="M875.19,499.46c3.86,0,3.87-6,0-6s-3.87,6,0,6Z"/><path d="M850.43,497.59c3.21,0,3.22-5,0-5s-3.23,5,0,5Z"/><path d="M615.17,227.93c3.21,0,3.22-5,0-5s-3.23,5,0,5Z"/><path d="M602.78,217.93c4.51,0,4.52-7,0-7s-4.51,7,0,7Z"/><path d="M261.59,728.72c3.21,0,3.22-5,0-5s-3.23,5,0,5Z"/><path d="M256.08,714.46c9.65,0,9.67-15,0-15s-9.66,15,0,15Z"/><path d="M269.84,716.84c3.86,0,3.87-6,0-6s-3.87,6,0,6Z"/></g><g id="Layer_2" data-name="Layer 2"><path d="M881.54,192.81a317.81,317.81,0,0,1,76.69,90.33,1.5,1.5,0,0,0,2.59-1.51,320.13,320.13,0,0,0-77.16-90.94c-1.49-1.2-3.62.91-2.12,2.12Z"/><path d="M931.15,220.26a221.34,221.34,0,0,1,56.67,73.47c.84,1.74,3.42.22,2.59-1.52a223.38,223.38,0,0,0-57.14-74.07c-1.46-1.24-3.6.87-2.12,2.12Z"/><path d="M58.28,572.06a399.7,399.7,0,0,0,8.55,120c.42,1.89,3.31,1.09,2.89-.79a397.08,397.08,0,0,1-8.44-119.22c.16-1.93-2.84-1.92-3,0Z"/><path d="M43.35,612c-1.46,22.39-2.67,45.47,5.84,66.71.71,1.77,3.62,1,2.9-.79-8.43-21-7.18-43.79-5.74-65.92.13-1.93-2.87-1.92-3,0Z"/><path d="M401.22,1012.78a1051,1051,0,0,0,229,14c1.92-.09,1.93-3.09,0-3A1047.33,1047.33,0,0,1,402,1009.89c-1.89-.32-2.7,2.57-.8,2.89Z"/><path d="M472.09,1033.1q52.8,5.52,105.94,6.34c1.93,0,1.93-3,0-3q-53.09-.81-105.94-6.34c-1.92-.2-1.91,2.8,0,3Z"/><path d="M667.25,57a343.19,343.19,0,0,1,106.59,53c1.56,1.14,3.06-1.46,1.52-2.59A346,346,0,0,0,668.05,54.06c-1.86-.54-2.65,2.35-.8,2.9Z"/><path d="M645.43,52.21a1.5,1.5,0,0,0,0-3,1.5,1.5,0,0,0,0,3Z"/><path d="M80,705.71a1.5,1.5,0,0,0,0-3,1.5,1.5,0,0,0,0,3Z"/><path d="M450.07,1031.77a1.5,1.5,0,0,0,0-3,1.5,1.5,0,0,0,0,3Z"/><path d="M598.66,1041.4a1.5,1.5,0,0,0,0-3,1.5,1.5,0,0,0,0,3Z"/><path d="M979.44,743.05A316.9,316.9,0,0,1,923,846.79c-1.21,1.48.9,3.62,2.12,2.12a321,321,0,0,0,57.24-105.06c.59-1.84-2.31-2.63-2.9-.8Z"/><path d="M971.71,799.22a220.62,220.62,0,0,1-47.94,79c-1.33,1.41.79,3.53,2.12,2.13A224.33,224.33,0,0,0,974.6,800c.63-1.83-2.26-2.62-2.89-.8Z"/><path d="M155.16,243.85c-15.9,22.6-35.49,42.79-47.32,68-.81,1.74,1.78,3.27,2.59,1.52,11.83-25.26,31.42-45.45,47.32-68.05,1.12-1.58-1.48-3.08-2.59-1.51Z"/><path d="M165,235.81a85.33,85.33,0,0,1,9.2-11.14c1.35-1.38-.77-3.5-2.12-2.12a90,90,0,0,0-9.67,11.75c-1.1,1.59,1.5,3.09,2.59,1.51Z"/><path d="M181.86,214.9l1.95-3.13c1-1.64-1.57-3.15-2.59-1.52l-1.95,3.14c-1,1.64,1.56,3.15,2.59,1.51Z"/><path d="M107.9,302.84c3.19-8.89,9.33-17.31,14-25.48a1.5,1.5,0,0,0-2.59-1.52c-4.86,8.47-11,17-14.32,26.2-.65,1.83,2.24,2.61,2.89.8Z"/><path d="M127,269.81a1.5,1.5,0,0,0,0-3,1.5,1.5,0,0,0,0,3Z"/><path d="M101.74,326a39.15,39.15,0,0,0-2.4,6.34,1.5,1.5,0,0,0,2.89.8,33.9,33.9,0,0,1,2.1-5.62c.84-1.73-1.74-3.25-2.59-1.52Z"/><path d="M95.54,341.84a10.43,10.43,0,0,1-1,2.07,1.5,1.5,0,0,0,2.59,1.52,15.29,15.29,0,0,0,1.26-2.8,1.51,1.51,0,0,0-1.05-1.84,1.53,1.53,0,0,0-1.84,1Z"/><path d="M346.68,103.73a214.25,214.25,0,0,1,40.09-16.11,1.5,1.5,0,0,0-.8-2.89,217.62,217.62,0,0,0-40.81,16.41c-1.71.9-.19,3.49,1.52,2.59Z"/><path d="M394.09,84.34q7.71-2.58,15.59-4.55c1.87-.47,1.08-3.37-.8-2.9q-7.87,2-15.59,4.56c-1.82.6-1,3.5.8,2.89Z"/><path d="M333.59,110.91a1.5,1.5,0,0,0,0-3,1.5,1.5,0,0,0,0,3Z"/></g></svg>