<svg xmlns="http://www.w3.org/2000/svg" viewBox="0 0 911.62 910.64"><defs><style>.cls-1{fill:#212121;}.cls-2{fill:#e2b22d;}</style></defs><title>1v.ivlogo</title><g id="Layer_2" data-name="Layer 2"><g id="Layer_1-2" data-name="Layer 1"><path class="cls-1" d="M1.77,26.62,407.55,899.8A18.72,18.72,0,0,0,441,900.9l468.33-856a18.72,18.72,0,0,0-16.06-27.71L19.12,0A18.73,18.73,0,0,0,1.77,26.62Z"/><path class="cls-2" d="M219.58,232.1,422.53,680.52a8.35,8.35,0,0,0,15,.49l234.23-439.6a8.35,8.35,0,0,0-7.19-12.27l-437.19-8.82A8.34,8.34,0,0,0,219.58,232.1Z"/><rect class="cls-2" x="390.58" y="109.41" width="89.39" height="89.39" rx="44.7"/><path class="cls-1" d="M458.6,548.09l-51.13-1a9.69,9.69,0,0,1-9.53-9.78L402.6,264.2a9.69,9.69,0,0,1,9.53-9.79H455.8a9.69,9.69,0,0,1,9.53,9.79l2.79,274.1A9.68,9.68,0,0,1,458.6,548.09Z"/></g></g></svg>