<?xml version="1.0" encoding="utf-8"?>
<!-- Generator: Adobe Illustrator 23.0.1, SVG Export Plug-In . SVG Version: 6.00 Build 0)  -->
<svg version="1.1" id="Layer_1" xmlns="http://www.w3.org/2000/svg" xmlns:xlink="http://www.w3.org/1999/xlink" x="0px" y="0px"
	 viewBox="0 0 911.6 910.6" style="enable-background:new 0 0 911.6 910.6;" xml:space="preserve">
<style type="text/css">
	.st0{fill:none;stroke:#E2B22D;stroke-width:5.8945;stroke-miterlimit:10;}
	.st1{fill:#E2B22D;}
</style>
<title>1v.ivlogo</title>
<g>
	<g id="Layer_1-2">
		<path class="st0" d="M9.8,34.2L408.4,892c4.3,9.2,15.2,13.3,24.4,9c3.6-1.7,6.6-4.4,8.5-7.9l460.1-841c4.9-8.9,1.6-20.1-7.3-25
			c-2.6-1.4-5.5-2.2-8.5-2.3L26.8,8C16.6,7.8,8.2,15.9,8,26C8,28.8,8.6,31.6,9.8,34.2z"/>
		<path class="st1" d="M435.6,115.5L435.6,115.5c24.3,0,43.9,19.7,43.9,43.9l0,0c0,24.3-19.7,43.9-43.9,43.9h0
			c-24.3,0-43.9-19.7-43.9-43.9l0,0C391.7,135.1,411.4,115.5,435.6,115.5z"/>
		<path class="st1" d="M664.6,234.1c-1.1-0.6-2.4-0.9-3.7-1l-429.5-8.7c-4.5-0.1-8.3,3.5-8.4,8c0,1.2,0.2,2.5,0.7,3.6l199.4,440.5
			c1.9,4.1,6.7,6,10.8,4.1c1.7-0.7,3-2,3.9-3.6L668,245.2C670.1,241.2,668.6,236.2,664.6,234.1z M458.6,546.5l-50.2-1
			c-5.2-0.1-9.4-4.4-9.4-9.6l4.6-268.3c-0.1-5.2,4.1-9.5,9.4-9.6h42.9c5.2,0.1,9.4,4.4,9.4,9.6l2.7,269.3
			C468,542.1,463.8,546.4,458.6,546.5z"/>
	</g>
</g>
</svg>
