<svg width="210" height="109" viewBox="0 0 210 109" fill="none" xmlns="http://www.w3.org/2000/svg">
<g clip-path="url(#clip0)">
<path d="M171.317 14.6512C154.019 13.2804 137.814 25.4758 123.842 38.522C103.266 18.6218 78.8867 -1.89295 52.8445 0.13962C11.1202 3.40118 0 35.8277 0 54.4989C0 73.1702 11.1202 105.597 52.8445 108.858C54.0326 108.953 55.2207 109 56.4562 109C81.1202 109 104.216 89.4775 123.842 70.4758C137.102 82.8603 152.308 94.441 168.656 94.441C169.559 94.441 170.414 94.394 171.317 94.347C201.874 91.9836 210 68.2069 210 54.4989C210 40.7909 201.874 17.0146 171.317 14.6512ZM170.747 86.8309C170.081 86.8781 169.369 86.9254 168.703 86.9254C155.065 86.9254 141.425 76.479 129.26 65.1816C127.407 63.48 125.6 61.731 123.795 59.9821C122.084 58.2804 120.374 56.626 118.758 55.0189C118.567 54.8298 118.425 54.688 118.234 54.4989L115.526 51.8046C114.671 50.9538 113.768 50.0556 112.865 49.2048C112.675 49.0157 112.484 48.8267 112.295 48.6848C96.2325 32.7552 76.2254 12.9495 54.4128 14.6984C23.8561 17.0619 15.7298 40.8382 15.7298 54.5462C15.7298 68.2069 23.8561 91.9836 54.4128 94.394C55.3157 94.441 56.1711 94.4888 57.074 94.4888C77.8886 94.4888 96.8972 75.6281 112.342 60.4075C112.532 60.2184 112.722 60.0294 112.912 59.8403C113.103 60.0294 113.292 60.2184 113.483 60.3602C115.099 61.9674 116.762 63.6218 118.473 65.2762C99.8915 83.2384 78.2689 101.484 56.5037 101.484C55.5058 101.484 54.5078 101.437 53.5099 101.389C36.3544 100.066 23.6659 93.3067 15.7298 81.3004C9.74204 72.2247 7.60352 61.542 7.60352 54.5462C7.60352 47.5504 9.74204 36.8676 15.7298 27.792C23.6659 15.7856 36.3544 9.02617 53.5099 7.70264C54.5078 7.6081 55.5058 7.6081 56.5037 7.6081C78.2689 7.6081 99.8915 25.9011 118.473 43.8161C120.278 45.5651 122.084 47.3141 123.842 49.0629C125.125 50.292 126.361 51.5683 127.596 52.75C128.215 53.3644 128.785 53.9317 129.403 54.5462L132.111 57.1933C132.777 57.8078 133.395 58.4695 134.06 59.1313C134.298 59.3676 134.535 59.6039 134.773 59.7931C144.277 69.1996 155.92 80.4495 168.941 80.4495C169.511 80.4495 170.081 80.4495 170.699 80.4023C190.468 78.8424 195.743 63.4328 195.743 54.5462C195.743 45.6597 190.468 30.2499 170.699 28.69C156.965 27.6029 144.704 39.4201 134.773 49.252C134.154 48.6376 133.537 48.0231 132.919 47.4559C131.731 46.2741 130.495 45.0924 129.308 43.8634C142.044 31.9989 156.49 21.127 170.794 22.2142C201.636 24.625 202.539 51.5209 202.539 54.5462C202.539 57.5714 201.588 84.4201 170.747 86.8309ZM107.542 54.4989C107.353 54.688 107.209 54.8298 107.02 55.0189C92.0503 69.8613 73.4216 88.249 55.0306 86.8309C24.1887 84.4201 23.2858 57.5241 23.2858 54.4989C23.2858 51.4737 24.1887 24.5776 55.0306 22.167C55.6958 22.1196 56.4087 22.0724 57.074 22.0724C74.7998 22.0724 92.6207 39.7037 107.02 53.9789C107.162 54.1207 107.353 54.3098 107.542 54.4989ZM140.095 54.4516C148.935 45.7069 159.769 35.2604 170.081 36.064C187.664 37.4349 188.188 52.7027 188.188 54.4516C188.188 56.2006 187.664 71.4685 170.081 72.8393C159.769 73.6901 148.935 63.2437 140.095 54.4516Z" fill="#F4F4F4"/>
</g>
<defs>
<clipPath id="clip0">
<rect width="210" height="109" fill="white"/>
</clipPath>
</defs>
</svg>
