<svg width="176" height="92" viewBox="0 0 176 92" fill="none" xmlns="http://www.w3.org/2000/svg">
<path d="M143.58 12.3661C129.083 11.2091 115.501 21.5025 103.792 32.514C86.5463 15.7175 66.1145 -1.59771 44.2888 0.117844C9.31977 2.87072 0 30.2399 0 45.9991C0 61.7583 9.31977 89.1274 44.2888 91.8803C45.2845 91.9601 46.2801 92 47.3157 92C67.9864 92 87.3428 75.5227 103.792 59.4842C114.904 69.9371 127.649 79.7118 141.35 79.7118C142.106 79.7118 142.823 79.6719 143.58 79.632C169.189 77.6372 176 57.5691 176 45.9991C176 34.429 169.189 14.361 143.58 12.3661ZM143.102 73.2884C142.544 73.3283 141.947 73.3682 141.389 73.3682C129.959 73.3682 118.528 64.5511 108.332 55.0157C106.779 53.5795 105.265 52.1033 103.752 50.6271C102.318 49.1908 100.884 47.7944 99.5302 46.4379C99.3709 46.2784 99.2514 46.1587 99.0921 45.9991L96.8219 43.725C96.105 43.0068 95.3483 42.2488 94.5915 41.5306C94.4322 41.3711 94.2729 41.2115 94.1136 41.0918C80.6517 27.6466 63.8841 10.9299 45.6031 12.406C19.9937 14.4009 13.1831 34.4689 13.1831 46.039C13.1831 57.5691 19.9937 77.6372 45.6031 79.6719C46.3598 79.7118 47.0767 79.7517 47.8335 79.7517C65.2781 79.7517 81.2093 63.8329 94.1534 50.9862C94.3127 50.8266 94.4721 50.667 94.6314 50.5074C94.7907 50.667 94.95 50.8266 95.1093 50.9463C96.4634 52.3028 97.8574 53.6991 99.2912 55.0955C83.7185 70.2563 65.5967 85.6564 47.3555 85.6564C46.5191 85.6564 45.6827 85.6165 44.8464 85.5766C30.4684 84.4595 19.8343 78.7543 13.1831 68.6205C8.16473 60.9604 6.37248 51.9437 6.37248 46.039C6.37248 40.1343 8.16473 31.1176 13.1831 23.4574C19.8343 13.3237 30.4684 7.61842 44.8464 6.50131C45.6827 6.42152 46.5191 6.42152 47.3555 6.42152C65.5967 6.42152 83.7185 21.8616 99.2912 36.9824C100.805 38.4586 102.318 39.9348 103.792 41.411C104.867 42.4483 105.903 43.5255 106.938 44.5229C107.456 45.0415 107.934 45.5203 108.452 46.039L110.722 48.2732C111.279 48.7919 111.797 49.3504 112.355 49.909C112.554 50.1084 112.753 50.3079 112.952 50.4675C120.918 58.407 130.676 67.9024 141.589 67.9024C142.067 67.9024 142.544 67.9024 143.062 67.8625C159.631 66.5459 164.052 53.5396 164.052 46.039C164.052 38.5384 159.631 25.532 143.062 24.2155C131.552 23.2978 121.276 33.272 112.952 41.5705C112.434 41.0519 111.917 40.5332 111.399 40.0545C110.403 39.057 109.368 38.0596 108.372 37.0223C119.046 27.0082 131.154 17.832 143.142 18.7496C168.99 20.7843 169.747 43.4856 169.747 46.039C169.747 48.5924 168.95 71.2537 143.102 73.2884ZM90.1308 45.9991C89.9715 46.1587 89.852 46.2784 89.6927 46.4379C77.1469 58.9655 61.5343 74.4853 46.1208 73.2884C20.2725 71.2537 19.5157 48.5525 19.5157 45.9991C19.5157 43.4457 20.2725 20.7445 46.1208 18.7097C46.6784 18.6698 47.2759 18.6299 47.8335 18.6299C62.6893 18.6299 77.6248 33.5114 89.6927 45.5602C89.8122 45.6799 89.9715 45.8395 90.1308 45.9991ZM117.413 45.9592C124.821 38.5783 133.902 29.7611 142.544 30.4394C157.281 31.5964 157.719 44.483 157.719 45.9592C157.719 47.4354 157.281 60.322 142.544 61.479C133.902 62.1971 124.821 53.38 117.413 45.9592Z" fill="url(#paint0_linear)"/>
<defs>
<linearGradient id="paint0_linear" x1="69.4222" y1="-17.617" x2="123.286" y2="101.748" gradientUnits="userSpaceOnUse">
<stop stop-color="#F5E76B"/>
<stop offset="1" stop-color="#FCF8CC"/>
</linearGradient>
</defs>
</svg>
