<svg xmlns="http://www.w3.org/2000/svg" viewBox="0 0 168.91 55.25"><defs><style>.cls-1{fill:#fff;}</style></defs><title>1android_sol</title><g id="Layer_2" data-name="Layer 2"><g id="Layer_1-2" data-name="Layer 1"><path class="cls-1" d="M73,11.76a1.08,1.08,0,0,0-.88.46,1.85,1.85,0,0,0-.36,1.17,1.86,1.86,0,0,0,.38,1.21,1.21,1.21,0,0,0,.94.46,1.11,1.11,0,0,0,.88-.47,1.85,1.85,0,0,0,.36-1.17,1.83,1.83,0,0,0-.38-1.2A1.16,1.16,0,0,0,73,11.76Z"/><path class="cls-1" d="M79.91,11.78l-.42,0c0,.48,0,1,0,1.49s0,1.12,0,1.68A2.38,2.38,0,0,0,80,15a1.36,1.36,0,0,0,1.13-.47,1.87,1.87,0,0,0,.37-1.16,1.72,1.72,0,0,0-.4-1.14A1.52,1.52,0,0,0,79.91,11.78Z"/><path class="cls-1" d="M91.52,11.74a3.38,3.38,0,0,0-.53,0c0,.45,0,1,0,1.52h.2c.87,0,1.3-.28,1.3-.82S92.19,11.74,91.52,11.74Z"/><path class="cls-1" d="M87,11.73c0,.09-.21.75-.62,2h1.29a18.78,18.78,0,0,1-.61-2Z"/><path class="cls-1" d="M53.49,11.73q0,.13-.63,2h1.3a18.78,18.78,0,0,1-.61-2Z"/><path class="cls-1" d="M68,11.74a3.42,3.42,0,0,0-.59,0c0,.37,0,.85,0,1.43h.33c.76,0,1.13-.26,1.13-.78S68.62,11.74,68,11.74Z"/><path class="cls-1" d="M62.93,11.78l-.42,0c0,.48,0,1,0,1.49s0,1.12,0,1.68a2.49,2.49,0,0,0,.47,0,1.37,1.37,0,0,0,1.13-.47,1.86,1.86,0,0,0,.36-1.16,1.67,1.67,0,0,0-.4-1.14A1.49,1.49,0,0,0,62.93,11.78Z"/><path class="cls-1" d="M102.36,11.76a1.07,1.07,0,0,0-.88.46,1.85,1.85,0,0,0-.36,1.17,1.81,1.81,0,0,0,.38,1.21,1.19,1.19,0,0,0,.93.46,1.08,1.08,0,0,0,.88-.47,1.86,1.86,0,0,0,.37-1.17,1.83,1.83,0,0,0-.38-1.2A1.18,1.18,0,0,0,102.36,11.76Z"/><path class="cls-1" d="M95.78,11.74a3.5,3.5,0,0,0-.54,0c0,.45,0,1,0,1.52h.21c.86,0,1.29-.28,1.29-.82S96.45,11.74,95.78,11.74Z"/><path class="cls-1" d="M86.53,28.38A3.47,3.47,0,0,0,84,29.49a4,4,0,0,0-1.09,2.95A4,4,0,0,0,84,35.38a3.55,3.55,0,0,0,5.16,0,4,4,0,0,0,1.08-2.94,4,4,0,0,0-1.08-2.95A3.51,3.51,0,0,0,86.53,28.38Z"/><path class="cls-1" d="M74.26,28.38a3.51,3.51,0,0,0-2.58,1.11,4.05,4.05,0,0,0-1.09,2.95,4,4,0,0,0,1.09,2.94,3.55,3.55,0,0,0,5.16,0,4,4,0,0,0,1.09-2.94,4,4,0,0,0-1.09-2.95A3.49,3.49,0,0,0,74.26,28.38Z"/><path class="cls-1" d="M132.47,23.65h-3.53v5.74h3.53a2.73,2.73,0,0,0,2.13-.9,2.83,2.83,0,0,0,0-3.94A2.73,2.73,0,0,0,132.47,23.65Z"/><path class="cls-1" d="M145.26,33.15a2,2,0,0,0-.78,1.55,1.49,1.49,0,0,0,.71,1.31,2.82,2.82,0,0,0,1.63.48,3.42,3.42,0,0,0,2.37-1,3,3,0,0,0,1.06-2.31,4.2,4.2,0,0,0-2.68-.73A3.44,3.44,0,0,0,145.26,33.15Z"/><path class="cls-1" d="M115.09,28.38a3,3,0,0,0-2,.73,3.76,3.76,0,0,0-1.18,2h6.51a3,3,0,0,0-.88-1.83A3.15,3.15,0,0,0,115.09,28.38Z"/><path class="cls-1" d="M98.7,28.38a3.35,3.35,0,0,0-2.52,1.11,4.07,4.07,0,0,0-1.06,2.95,4.07,4.07,0,0,0,1.06,2.94,3.44,3.44,0,0,0,5,0,4.09,4.09,0,0,0,1-3,4.1,4.1,0,0,0-1-3A3.33,3.33,0,0,0,98.7,28.38Z"/><path class="cls-1" d="M161.44,0H7.47A7.46,7.46,0,0,0,0,7.47V47.79a7.46,7.46,0,0,0,7.47,7.46h154a7.46,7.46,0,0,0,7.47-7.46V7.47A7.46,7.46,0,0,0,161.44,0ZM94.33,11.09H96.1a2,2,0,0,1,1.13.31,1,1,0,0,1,.47.92,1.37,1.37,0,0,1-.63,1.25,2.82,2.82,0,0,1-1.55.41h-.23c0,.45,0,1,0,1.76h-1c0-.68,0-1.49,0-2.41S94.36,11.71,94.33,11.09Zm-8.69,2.35a17,17,0,0,0,.82-2.35H87.8a20.56,20.56,0,0,0,.76,2.32,20.37,20.37,0,0,1,.75,2.3H88.17a7.86,7.86,0,0,0-.32-1.33H86.21a6.94,6.94,0,0,0-.33,1.33H84.81A22.52,22.52,0,0,1,85.64,13.44Zm-7.06-2.35h1.47a2.4,2.4,0,0,1,1.86.64,2.23,2.23,0,0,1,.57,1.53A2.62,2.62,0,0,1,81.84,15a2.25,2.25,0,0,1-1.81.75c-.35,0-.83,0-1.45,0,0-.71,0-1.52,0-2.41S78.61,11.7,78.58,11.09Zm-2.24,0h1c0,.6,0,1.33,0,2.21s0,1.69,0,2.41h-1c0-.73,0-1.54,0-2.41S76.37,11.7,76.34,11.09Zm-4.85.61A2.14,2.14,0,0,1,73.14,11a2.1,2.1,0,0,1,1.57.65,2.33,2.33,0,0,1,.63,1.68,2.57,2.57,0,0,1-.67,1.8,2.15,2.15,0,0,1-1.65.72,2.09,2.09,0,0,1-1.57-.66,2.33,2.33,0,0,1-.63-1.67A2.53,2.53,0,0,1,71.49,11.7Zm-9.88-.61h1.47a2.36,2.36,0,0,1,1.85.64,2.2,2.2,0,0,1,.58,1.53A2.62,2.62,0,0,1,64.87,15a2.28,2.28,0,0,1-1.81.75c-.35,0-.84,0-1.45,0,0-.71,0-1.52,0-2.41S61.64,11.7,61.61,11.09Zm-5,0h1.06a6.47,6.47,0,0,0,.87,1.5,8.84,8.84,0,0,1,1.07,1.89h.06a12.57,12.57,0,0,1-.09-1.42c0-.64,0-1.29-.05-2h.89c0,.59,0,1.32,0,2.21s0,1.69,0,2.41h-.88a8.37,8.37,0,0,0-1-1.54,8.68,8.68,0,0,1-1.17-2H57.3a12.41,12.41,0,0,1,.09,1.41c0,.58,0,1.29,0,2.13h-.88c0-.73.06-1.54.06-2.41S56.6,11.7,56.56,11.09Zm-4.44,2.35A16.31,16.31,0,0,0,53,11.09h1.34A19.22,19.22,0,0,0,55,13.41a20.37,20.37,0,0,1,.75,2.3H54.66a7.86,7.86,0,0,0-.32-1.33H52.7a7.34,7.34,0,0,0-.34,1.33H51.3A23.77,23.77,0,0,1,52.12,13.44Zm-37.4-1.63L36.26,23.87c.33.18.32.29.07.54-1.61,1.58-3.2,3.17-4.79,4.76-.17.18-.28.28-.51,0L13.88,11.75c-.05-.05-.09-.11-.19-.23A1.92,1.92,0,0,1,14.72,11.81ZM12.51,47.28a2.13,2.13,0,0,1-.83-1.81c0-3.11,0-6.21,0-9.32V29.57h0V13.84a2.35,2.35,0,0,1,.58-1.72c.17-.19.3-.24.52,0l10.6,10.79,6.87,7c.23.22.25.34,0,.57q-8.43,8.39-16.84,16.8A.57.57,0,0,1,12.51,47.28ZM35.63,35.89l-20.06,11a2.71,2.71,0,0,0-.27.2q7.82-7.91,15.63-15.82c.32-.32.47-.28.76,0,1.32,1.38,2.66,2.73,4,4.08C35.93,35.62,36,35.72,35.63,35.89ZM44.35,31a9.2,9.2,0,0,1-1,.61c-2,1.11-4.05,2.22-6.07,3.35a.46.46,0,0,1-.66-.09c-1.43-1.48-2.88-3-4.34-4.42-.21-.21-.22-.33,0-.54q2.55-2.52,5.07-5.05a.41.41,0,0,1,.59-.08c2,1.13,4,2.25,6,3.37a1.82,1.82,0,0,1,1.12,1.53A1.64,1.64,0,0,1,44.35,31Zm21.22,5a7.94,7.94,0,0,1-6,2.43A8.45,8.45,0,0,1,51,29.84a8.44,8.44,0,0,1,8.52-8.57,8.43,8.43,0,0,1,3.37.69,6.8,6.8,0,0,1,2.57,1.83L64,25.24a5.56,5.56,0,0,0-4.5-1.95,6.34,6.34,0,0,0-6.37,6.55,6.34,6.34,0,0,0,6.37,6.56,6.23,6.23,0,0,0,4.59-1.83,5.19,5.19,0,0,0,1.37-3.33h-6v-2h8a6.72,6.72,0,0,1,.11,1.24A7.41,7.41,0,0,1,65.57,36Zm1.9-22.12c0,.61,0,1.22,0,1.84h-1c0-.71,0-1.52,0-2.41s0-1.6,0-2.21H68.2c1.08,0,1.63.37,1.63,1.11a1.26,1.26,0,0,1-.93,1.24v.05a1.1,1.1,0,0,1,.62.56,11.49,11.49,0,0,1,.73,1.68h-1a6.63,6.63,0,0,0-.63-1.55.82.82,0,0,0-.71-.29ZM78.41,36.71a5.89,5.89,0,0,1-8.3,0,6,6,0,0,1-1.63-4.27,6,6,0,0,1,1.63-4.28,5.89,5.89,0,0,1,8.3,0A5.93,5.93,0,0,1,80,32.44,5.93,5.93,0,0,1,78.41,36.71Zm12.27,0a5.89,5.89,0,0,1-8.3,0,5.93,5.93,0,0,1-1.63-4.27,5.93,5.93,0,0,1,1.63-4.28,5.89,5.89,0,0,1,8.3,0,6,6,0,0,1,1.62,4.28A6,6,0,0,1,90.68,36.71ZM91.27,14H91c0,.45,0,1,0,1.76h-1c0-.68.05-1.49.05-2.41s0-1.59-.05-2.21h1.77a2,2,0,0,1,1.14.31,1,1,0,0,1,.46.92,1.37,1.37,0,0,1-.63,1.25A2.78,2.78,0,0,1,91.27,14Zm13,23.52a5.62,5.62,0,0,1-1.67,4.39,5.91,5.91,0,0,1-4.08,1.5,5.07,5.07,0,0,1-3.26-1,5.82,5.82,0,0,1-1.81-2.28l1.93-.8a3.13,3.13,0,0,0,1.18,1.53,3.2,3.2,0,0,0,2,.62,3.6,3.6,0,0,0,2.74-1,3.94,3.94,0,0,0,1-2.83V36.49h-.1a4.27,4.27,0,0,1-1.55,1.38,4.76,4.76,0,0,1-2.27.55A4.91,4.91,0,0,1,94.6,36.7,6.05,6.05,0,0,1,93,32.44a6.06,6.06,0,0,1,1.59-4.27,4.91,4.91,0,0,1,3.76-1.72,4.76,4.76,0,0,1,2.27.55,4.27,4.27,0,0,1,1.55,1.38h.1V26.82h2ZM104,15.12a2.18,2.18,0,0,1-1.65.72,2.08,2.08,0,0,1-1.57-.66,2.33,2.33,0,0,1-.63-1.67,2.53,2.53,0,0,1,.67-1.81,2.14,2.14,0,0,1,1.65-.71,2.06,2.06,0,0,1,1.56.65,2.33,2.33,0,0,1,.63,1.68A2.56,2.56,0,0,1,104,15.12Zm4.41,22.93h-2.11V21.64h2.11Zm1.06-22.34h-.87a8.83,8.83,0,0,0-1-1.54,8.14,8.14,0,0,1-1.16-2h-.06a12.41,12.41,0,0,1,.09,1.41c0,.58,0,1.29,0,2.13h-.87c0-.73,0-1.54,0-2.41s0-1.6,0-2.21h1a6.31,6.31,0,0,0,.88,1.5,8.84,8.84,0,0,1,1.07,1.89h0a12.4,12.4,0,0,1-.08-1.42c0-.64,0-1.29,0-2h.88c0,.59,0,1.32,0,2.21S109.43,15,109.46,15.71Zm11.15,17.11h-8.87a3.8,3.8,0,0,0,1.14,2.69,3.46,3.46,0,0,0,2.44,1,3,3,0,0,0,3.07-1.92l1.88.78a5.08,5.08,0,0,1-1.81,2.19,5.32,5.32,0,0,1-3.1.88,5.41,5.41,0,0,1-4.13-1.7,6,6,0,0,1-1.6-4.28,6.18,6.18,0,0,1,1.55-4.22,5,5,0,0,1,4-1.77,5.19,5.19,0,0,1,4,1.63,6.18,6.18,0,0,1,1.5,4.36ZM136,30a5.21,5.21,0,0,1-3.61,1.38h-3.48v6.65h-2.11V21.64h5.59A5.21,5.21,0,0,1,136,23a4.79,4.79,0,0,1,0,7Zm5,8h-2.11V21.64H141Zm11.23,0h-2V36.49h-.09a4.12,4.12,0,0,1-3.69,1.93,4.47,4.47,0,0,1-3-1,3.43,3.43,0,0,1-1.2-2.73,3.38,3.38,0,0,1,1.42-2.88,5.79,5.79,0,0,1,3.51-1,6,6,0,0,1,3,.69v-.32a2.53,2.53,0,0,0-.84-2,3.09,3.09,0,0,0-2.09-.74,3.21,3.21,0,0,0-1.66.43,2.23,2.23,0,0,0-1,1.19l-1.93-.82a4.34,4.34,0,0,1,1.54-1.87,4.92,4.92,0,0,1,3-.86,5.2,5.2,0,0,1,3.58,1.26,4.5,4.5,0,0,1,1.42,3.56Zm4.59,5h-2.18l2.61-5.66-4.63-10.52H155l3.35,8.07h0l3.25-8.07h2.29Z"/></g></g></svg>