<svg xmlns="http://www.w3.org/2000/svg" viewBox="0 0 159.12 55.3"><defs><style>.cls-1{fill:#fff;}</style></defs><title>1apple_sol</title><g id="Layer_2" data-name="Layer 2"><g id="Layer_1-2" data-name="Layer 1"><path class="cls-1" d="M21,14h3a.36.36,0,1,0,0-.71H21A.36.36,0,1,0,21,14Zm1.5,26.41A1.57,1.57,0,1,0,24,42,1.56,1.56,0,0,0,22.47,40.38ZM14.79,39H30.16V16.29H14.79Zm49.29-7.47a3.1,3.1,0,0,0-2,.72,3.42,3.42,0,0,0-1.16,1.91,4.05,4.05,0,0,0-.14.9v2.22a3.51,3.51,0,0,0,.89,2.45,3,3,0,0,0,2.31,1,3,3,0,0,0,2.61-1.29,5.68,5.68,0,0,0,.92-3.4,5.39,5.39,0,0,0-.87-3.19A3,3,0,0,0,64.08,31.57ZM118,31.38A3,3,0,0,0,115.3,33a6,6,0,0,0-.79,3.18,5.91,5.91,0,0,0,.79,3.14A3,3,0,0,0,118,40.87a2.93,2.93,0,0,0,2.64-1.61,6.51,6.51,0,0,0,0-6.29A2.94,2.94,0,0,0,118,31.38Zm-39.31.19a3.08,3.08,0,0,0-2,.72,3.49,3.49,0,0,0-1.17,1.91,3.94,3.94,0,0,0-.13.9v2.22a3.51,3.51,0,0,0,.89,2.45,3,3,0,0,0,2.31,1,3,3,0,0,0,2.6-1.29,5.68,5.68,0,0,0,.94-3.4,5.46,5.46,0,0,0-.88-3.19A3,3,0,0,0,78.7,31.57ZM48.16,26.81H48.1q-.27,1.17-.87,3.48L45.69,35.1h5l-1.56-4.81Q48.84,29.54,48.16,26.81Zm92.27,4.43a2.84,2.84,0,0,0-2.36,1.21,4.41,4.41,0,0,0-.87,2.29h6.16a4.13,4.13,0,0,0-.58-2.27A2.6,2.6,0,0,0,140.43,31.24ZM61.19,18.11a1.23,1.23,0,0,0,0-.38v-.94c-1.22,0-2.39.24-2.39,1.28a.91.91,0,0,0,1,1A1.42,1.42,0,0,0,61.19,18.11Zm-16.13-4.3c-.18-.58-.34-1.23-.48-1.78h0c-.14.55-.29,1.21-.45,1.78l-.73,2.33h2.44ZM152.39,0H6.72A6.73,6.73,0,0,0,0,6.72V48.59A6.73,6.73,0,0,0,6.72,55.3H152.39a6.73,6.73,0,0,0,6.73-6.71V6.72A6.74,6.74,0,0,0,152.39,0Zm-9.23,13.13c2.22,0,3,1.83,3,3.33a4.1,4.1,0,0,1-.06.74h-4.58A1.86,1.86,0,0,0,143.58,19a5.63,5.63,0,0,0,1.9-.31l.25,1.18a6.21,6.21,0,0,1-2.39.44,3.24,3.24,0,0,1-3.53-3.46A3.39,3.39,0,0,1,143.16,13.13Zm-27.46.16.08,1h0a2.53,2.53,0,0,1,2.2-1.18c1.19,0,2.43.77,2.43,2.94v4.07h-1.73V16.27c0-1-.37-1.73-1.31-1.73a1.45,1.45,0,0,0-1.35,1,1.52,1.52,0,0,0-.08.55v4h-1.73V15.33c0-.79,0-1.45-.06-2Zm-18.18-.16c2.23,0,3,1.83,3,3.33a4.1,4.1,0,0,1-.06.74H95.83A1.86,1.86,0,0,0,97.94,19a5.54,5.54,0,0,0,1.9-.31l.26,1.18a6.21,6.21,0,0,1-2.39.44,3.25,3.25,0,0,1-3.54-3.46A3.4,3.4,0,0,1,97.52,13.13Zm-7.09-3h1.73v10H90.43Zm-13.72,4.2a3.71,3.71,0,0,0-1.85.51l-.34-1.12A5,5,0,0,1,77,13.13c2.2,0,2.83,1.39,2.83,2.9v2.46a9.81,9.81,0,0,0,.11,1.65H78.38l-.13-.76h0a2.53,2.53,0,0,1-2,.91,2,2,0,0,1-2.15-2c0-1.71,1.53-2.6,4.07-2.59v-.11C78.1,15.1,77.91,14.35,76.71,14.35ZM66.47,10.43a.94.94,0,1,1-1,.94A.92.92,0,0,1,66.47,10.43Zm.86,2.86v6.85H65.6V13.29Zm-23.8-2.64h2.21l3.08,9.49H47l-.86-2.69h-3l-.81,2.69H40.49ZM32,42.1a3,3,0,0,1-3,3H16a3,3,0,0,1-3-3V13.22a3,3,0,0,1,3-3H29a3,3,0,0,1,3,3Zm20.89.69-1.72-5.41h-6l-1.64,5.41H40.47L46.4,24.34h3.67l6,18.45Zm.67-22.65h-1.7l-2.55-6.85h1.88l1.11,3.47c.19.61.33,1.15.46,1.72h0c.13-.57.29-1.1.47-1.72l1.1-3.47h1.81Zm3.57-1.89c0-1.71,1.53-2.6,4.06-2.59v-.11c0-.45-.18-1.2-1.39-1.2a3.65,3.65,0,0,0-1.84.51l-.34-1.12a4.9,4.9,0,0,1,2.48-.61c2.19,0,2.82,1.39,2.82,2.9v2.46A8.77,8.77,0,0,0,63,20.14H61.47l-.12-.76h0a2.53,2.53,0,0,1-2,.91A2,2,0,0,1,57.13,18.25ZM68.7,41.35a5.43,5.43,0,0,1-4.1,1.74,4.09,4.09,0,0,1-3.8-1.89v7H57.85V33.86c0-1.42,0-2.88-.11-4.37h2.6l.16,2.11h0A5.27,5.27,0,0,1,69,31.08,7.39,7.39,0,0,1,70.55,36,7.55,7.55,0,0,1,68.7,41.35Zm3.08-21.21H70.05v-10h1.73ZM83.32,41.35a5.44,5.44,0,0,1-4.1,1.74,4.09,4.09,0,0,1-3.8-1.89v7h-3V33.86c0-1.42,0-2.88-.11-4.37H75l.17,2.11h0a5.26,5.26,0,0,1,8.42-.52A7.34,7.34,0,0,1,85.16,36,7.55,7.55,0,0,1,83.32,41.35Zm2-21.06a2.34,2.34,0,0,1-2.17-1.18h0l-.08,1H81.59c0-.47.06-1.23.06-1.93V10.15h1.73v4.08h0a2.5,2.5,0,0,1,2.2-1.1c1.67,0,2.87,1.39,2.86,3.48C88.46,19.07,86.89,20.29,85.35,20.29Zm14.88,21.16a7.27,7.27,0,0,1-5,1.61,8.83,8.83,0,0,1-4.78-1.14l.68-2.47a8.21,8.21,0,0,0,4.27,1.15,4,4,0,0,0,2.6-.75,2.46,2.46,0,0,0,.93-2A2.6,2.6,0,0,0,98.14,36a7.26,7.26,0,0,0-2.55-1.42c-3.22-1.2-4.84-3-4.84-5.28a4.64,4.64,0,0,1,1.71-3.73A6.8,6.8,0,0,1,97,24.07a9.06,9.06,0,0,1,4.19.88l-.75,2.41a7.24,7.24,0,0,0-3.54-.85,3.68,3.68,0,0,0-2.45.76,2.21,2.21,0,0,0-.73,1.67,2.28,2.28,0,0,0,.84,1.81,9.69,9.69,0,0,0,2.68,1.42,9,9,0,0,1,3.51,2.25,4.68,4.68,0,0,1,1.12,3.2A4.94,4.94,0,0,1,100.23,41.45Zm10.42-9.75h-3.27v6.47c0,1.64.58,2.46,1.73,2.46a5.44,5.44,0,0,0,1.32-.13l.08,2.24a6.63,6.63,0,0,1-2.3.33A3.53,3.53,0,0,1,105.48,42a5.17,5.17,0,0,1-1-3.59V31.7h-1.95V29.49h1.95V27.05l2.89-.87v3.31h3.27ZM109,20.29a3.31,3.31,0,0,1-3.43-3.53,3.38,3.38,0,0,1,3.54-3.63,3.29,3.29,0,0,1,3.41,3.52A3.39,3.39,0,0,1,109,20.29Zm13.8,20.78a6.29,6.29,0,0,1-4.88,2,6,6,0,0,1-4.67-1.94,7.06,7.06,0,0,1-1.73-4.9,7.2,7.2,0,0,1,1.79-5.06,6.17,6.17,0,0,1,4.83-2,6,6,0,0,1,4.71,2A7,7,0,0,1,124.52,36,7.34,7.34,0,0,1,122.78,41.07Zm3-27.78h1V12l1.7-.47v1.76h1.65v1.29H128.5v3c0,.85.23,1.27.89,1.27a2.18,2.18,0,0,0,.68-.07l0,1.31a3.72,3.72,0,0,1-1.25.18,2,2,0,0,1-1.49-.56,2.7,2.7,0,0,1-.55-1.93V14.58h-1Zm7.59,18.8a5.55,5.55,0,0,0-.93-.08,2.81,2.81,0,0,0-2.41,1.18,4.34,4.34,0,0,0-.74,2.62v7h-3V33.67c0-1.52,0-2.92-.08-4.18h2.58L129,32h.08a4.49,4.49,0,0,1,1.48-2.11,3.52,3.52,0,0,1,2.13-.71,5.38,5.38,0,0,1,.74.05ZM133.87,16v4.11h-1.73v-10h1.73v4.06h0a2.36,2.36,0,0,1,.86-.77,2.41,2.41,0,0,1,1.2-.31c1.17,0,2.39.77,2.39,3v4h-1.73V16.28c0-1-.37-1.74-1.32-1.74a1.43,1.43,0,0,0-1.35,1A1.46,1.46,0,0,0,133.87,16Zm12.2,20.83H137.2a3.8,3.8,0,0,0,1.29,3,4.31,4.31,0,0,0,2.89.94,9.6,9.6,0,0,0,3.59-.64l.47,2.06A11.11,11.11,0,0,1,141,43a6.44,6.44,0,0,1-4.85-1.82,6.69,6.69,0,0,1-1.77-4.88,7.69,7.69,0,0,1,1.64-5,5.7,5.7,0,0,1,4.66-2.13A4.94,4.94,0,0,1,145,31.32a7.23,7.23,0,0,1,1.17,4.19A7.44,7.44,0,0,1,146.07,36.86ZM85,14.48a1.62,1.62,0,0,0-1.54,1.27,1.93,1.93,0,0,0-.05.45v1.11a1.84,1.84,0,0,0,0,.41A1.58,1.58,0,0,0,85,18.93c1.09,0,1.75-.86,1.75-2.25C86.7,15.47,86.12,14.48,85,14.48Zm12.45-.17A1.69,1.69,0,0,0,95.83,16h3A1.47,1.47,0,0,0,97.42,14.31Zm11.63.07c-1.22,0-1.72,1.2-1.72,2.34C107.33,18,108,19,109,19s1.67-1,1.67-2.35C110.71,15.62,110.23,14.38,109.05,14.38Zm-33.3,3.69a.9.9,0,0,0,1,1,1.42,1.42,0,0,0,1.37-.94,1.23,1.23,0,0,0,0-.38v-.94C76.92,16.78,75.75,17,75.75,18.07Zm67.31-3.76A1.69,1.69,0,0,0,141.47,16h3A1.48,1.48,0,0,0,143.06,14.31Z"/></g></g></svg>