<svg width="57" height="45" viewBox="0 0 57 45" fill="none" xmlns="http://www.w3.org/2000/svg">
<path d="M56.25 11.964V37.125C56.25 41.475 52.7714 45 48.4786 45H7.77138C5.71028 45 3.7336 44.1703 2.27618 42.6935C0.818768 41.2166 0 39.2136 0 37.125V11.964L27.2339 27.144C27.789 27.453 28.4625 27.453 29.0161 27.144L56.25 11.9625V11.964ZM48.4786 3.38674e-08C50.5073 0.000191033 52.4555 0.804229 53.907 2.24036C55.3585 3.6765 56.1984 5.63087 56.247 7.686L28.125 23.361L0.00296031 7.6845L0.00592133 7.5495C0.0888198 5.51889 0.943234 3.59937 2.39049 2.19236C3.83775 0.785357 5.76577 -0.000188329 7.77138 3.38674e-08H48.4786Z" fill="#212121"/>
</svg>
