<svg xmlns="http://www.w3.org/2000/svg" viewBox="0 0 1358 922"><defs><style>.cls-1{fill:#29294c;stroke:#fff;stroke-miterlimit:10;stroke-width:8px;}</style></defs><title>1Artboard 2</title><g id="Layer_2" data-name="Layer 2"><line class="cls-1" x1="9.12" y1="314.74" x2="255.24" y2="441.6"/><line class="cls-1" x1="288.77" y1="458.47" x2="970" y2="602"/><line class="cls-1" x1="299.86" y1="444.03" x2="970" y2="493"/><line class="cls-1" x1="1002.16" y1="510.83" x2="1007.9" y2="592.18"/><line class="cls-1" x1="1007.06" y1="618.61" x2="1034.83" y2="665.68"/><line class="cls-1" x1="1041.73" y1="684.11" x2="1004.17" y2="855.36"/><line class="cls-1" x1="1023.38" y1="605.11" x2="1237.13" y2="594.8"/><line class="cls-1" x1="1009.87" y1="487.12" x2="1265.8" y2="140.86"/><line class="cls-1" x1="1287.55" y1="129.31" x2="1348.32" y2="110.66"/><line class="cls-1" x1="1262.97" y1="119.96" x2="1236.24" y2="91.92"/><line class="cls-1" x1="281.39" y1="428.7" x2="335.99" y2="363.47"/><line class="cls-1" x1="352.88" y1="340.11" x2="370.8" y2="269.27"/><line class="cls-1" x1="365.58" y1="240.65" x2="236.75" y2="45.75"/><line class="cls-1" x1="213.35" y1="32.41" x2="159.99" y2="33.77"/><line class="cls-1" x1="1239.31" y1="-0.12" x2="1233.73" y2="63.65"/><circle class="cls-1" cx="281.47" cy="439.98" r="33.13"/><circle class="cls-1" cx="998.42" cy="496.74" r="28.36"/><circle class="cls-1" cx="1001.39" cy="601.6" r="28.36"/><circle class="cls-1" cx="1276.85" cy="136.4" r="24.43"/><circle class="cls-1" cx="1234.05" cy="80.55" r="19.09"/><circle class="cls-1" cx="1039.61" cy="671.19" r="21.9"/><circle class="cls-1" cx="343.46" cy="353.27" r="21.9"/><circle class="cls-1" cx="367.74" cy="252.93" r="21.9"/><circle class="cls-1" cx="226.21" cy="38.03" r="21.9"/><circle class="cls-1" cx="1001.07" cy="860.56" r="21.9"/><line class="cls-1" x1="985.27" y1="875.15" x2="922.48" y2="909.73"/></g></svg>