<svg width="50" height="50" viewBox="0 0 50 50" fill="none" xmlns="http://www.w3.org/2000/svg">
<path d="M18.9061 3.125C15.9096 3.1148 12.9759 3.98404 10.4686 5.625L20.4686 15.625C20.8016 15.9092 21.0744 16.2571 21.2709 16.6483C21.4675 17.0395 21.5837 17.4661 21.6128 17.9029C21.6419 18.3397 21.5833 18.7779 21.4405 19.1918C21.2977 19.6056 21.0735 19.9867 20.7811 20.3125C20.4552 20.6049 20.0742 20.8291 19.6603 20.9719C19.2465 21.1148 18.8083 21.1734 18.3715 21.1442C17.9346 21.1151 17.5081 20.9989 17.1169 20.8024C16.7257 20.6058 16.3777 20.333 16.0936 20L5.78108 10C3.9981 12.6236 3.07029 15.7346 3.12483 18.9062C3.14129 23.0866 4.80924 27.0911 7.76524 30.0471C10.7212 33.0031 14.7257 34.671 18.9061 34.6875C20.2742 34.695 21.6382 34.5376 22.9686 34.2187L33.4373 44.6875C34.9085 46.1586 36.9037 46.9851 38.9842 46.9851C41.0647 46.9851 43.06 46.1586 44.5311 44.6875C46.0022 43.2164 46.8287 41.2211 46.8287 39.1406C46.8287 37.0601 46.0022 35.0649 44.5311 33.5938L34.0623 23.125C34.3812 21.7946 34.5386 20.4306 34.5311 19.0625C34.5727 16.9844 34.1992 14.919 33.4326 12.9871C32.666 11.0551 31.5217 9.29556 30.0666 7.81138C28.6115 6.3272 26.875 5.14825 24.9586 4.34355C23.0422 3.53885 20.9845 3.12458 18.9061 3.125V3.125ZM31.4061 18.9062C31.4038 20.0165 31.246 21.121 30.9373 22.1875L30.4686 23.9062L31.7186 25.1563L42.1873 35.625C42.6332 36.0471 42.9879 36.5559 43.2298 37.1202C43.4716 37.6845 43.5954 38.2923 43.5936 38.9062C43.6112 39.5224 43.4945 40.1351 43.2517 40.7017C43.0088 41.2683 42.6457 41.7753 42.1873 42.1875C41.7641 42.6319 41.2551 42.9856 40.691 43.2274C40.127 43.4691 39.5197 43.5938 38.9061 43.5938C38.2924 43.5938 37.6852 43.4691 37.1211 43.2274C36.5571 42.9856 36.048 42.6319 35.6248 42.1875L25.1561 31.7187L23.9061 30.4687L22.1873 30.9375C21.1208 31.2462 20.0164 31.404 18.9061 31.4063C15.5859 31.397 12.3966 30.1101 9.99983 27.8125C8.78772 26.672 7.82784 25.2903 7.18199 23.7564C6.53613 22.2224 6.2186 20.5703 6.24983 18.9062C6.25199 17.7446 6.40964 16.5885 6.71858 15.4687L13.5936 22.3437C14.1745 22.9759 14.8755 23.4861 15.6556 23.8446C16.4357 24.2031 17.2794 24.4027 18.1375 24.4318C18.9955 24.4609 19.8508 24.3189 20.6534 24.014C21.456 23.7092 22.1899 23.2476 22.8123 22.6562C23.4037 22.0338 23.8653 21.2999 24.1701 20.4973C24.4749 19.6947 24.617 18.8394 24.5879 17.9814C24.5588 17.1233 24.3592 16.2796 24.0007 15.4995C23.6422 14.7194 23.132 14.0184 22.4998 13.4375L15.6248 6.5625C16.6354 6.2429 17.69 6.0847 18.7498 6.09375C22.07 6.10297 25.2593 7.38986 27.6561 9.6875C30.0551 12.1573 31.3998 15.4631 31.4061 18.9062V18.9062Z" fill="white"/>
</svg>
