<svg width="50" height="50" viewBox="0 0 50 50" fill="none" xmlns="http://www.w3.org/2000/svg">
<path d="M11.6144 4.32084C11.8797 4.44837 12.1035 4.64822 12.2601 4.89738C12.4168 5.14653 12.4999 5.43486 12.4998 5.72917C12.4998 7.45834 13.1498 8.45417 13.9644 9.66667L14.0248 9.75417C14.7165 10.7833 15.6248 12.1313 15.6248 14.0625C15.6248 16.0333 14.6311 17.7708 13.1165 18.8021C13.5144 19.1354 13.8665 19.5458 14.1707 20.0375C15.1623 21.6417 15.6248 24.0938 15.6248 27.6146C15.6248 31.1813 15.1457 35.4646 14.3644 38.8854C13.9769 40.5854 13.4957 42.1542 12.9228 43.3313C12.6373 43.9167 12.2894 44.4875 11.8603 44.9354C11.4311 45.375 10.7707 45.8438 9.89567 45.8438C9.02067 45.8438 8.36026 45.375 7.93317 44.9354C7.49819 44.4589 7.13977 43.9177 6.87067 43.3313C6.29567 42.1521 5.81442 40.5854 5.42692 38.8833C4.61431 35.1807 4.19187 31.4032 4.16651 27.6125C4.16651 24.0917 4.62901 21.6417 5.62067 20.0375C5.90358 19.5719 6.25951 19.1547 6.67484 18.8021C5.90145 18.277 5.26846 17.5705 4.8312 16.7443C4.39394 15.918 4.16572 14.9973 4.16651 14.0625C4.16651 13.2958 4.16651 11.9771 4.96442 10.275C5.74567 8.60834 7.23109 6.69375 9.96026 4.50834C10.1903 4.32435 10.4676 4.20912 10.7603 4.17594C11.053 4.14277 11.3491 4.193 11.6144 4.32084V4.32084ZM7.29151 14.0604V14.0625C7.29151 14.7532 7.56587 15.4156 8.05425 15.9039C8.54262 16.3923 9.205 16.6667 9.89567 16.6667C10.5863 16.6667 11.2487 16.3923 11.7371 15.9039C12.2255 15.4156 12.4998 14.7532 12.4998 14.0625C12.4998 13.1479 12.1144 12.5146 11.3707 11.4083L11.3457 11.3708C10.8686 10.6625 10.304 9.82292 9.90401 8.74584C8.77276 9.89584 8.14776 10.85 7.79567 11.6C7.29151 12.675 7.29151 13.4396 7.29151 14.0583V14.0604ZM8.27901 21.6792C7.76234 22.5167 7.29151 24.2333 7.29151 27.6146C7.29151 30.95 7.74567 35 8.47276 38.1896C8.83942 39.7938 9.25609 41.0958 9.67901 41.9625C9.75609 42.1229 9.82901 42.2563 9.89567 42.3688C9.96234 42.2563 10.0353 42.1229 10.1123 41.9625C10.5353 41.0958 10.9519 39.7917 11.3186 38.1896C12.0478 35.0021 12.4998 30.9521 12.4998 27.6146C12.4998 24.2333 12.029 22.5167 11.5123 21.6792C11.3565 21.3972 11.121 21.1675 10.8353 21.0188C10.5394 20.8899 10.2181 20.8301 9.89567 20.8438C9.47901 20.8438 9.18109 20.9083 8.95609 21.0188C8.67035 21.1675 8.43483 21.3972 8.27901 21.6792V21.6792Z" fill="white"/>
<path d="M20.8331 31.0771C19.7294 30.892 18.6557 30.5584 17.6414 30.0854C17.7024 28.9038 17.7198 27.7204 17.6935 26.5375C18.6331 27.1688 19.6935 27.6333 20.8331 27.8917V21.875C20.8331 21.0462 21.1623 20.2514 21.7484 19.6653C22.3344 19.0793 23.1293 18.75 23.9581 18.75H32.2914C32.2913 17.0015 31.8022 15.2878 30.8794 13.8026C29.9565 12.3174 28.6367 11.1199 27.069 10.3454C25.5014 9.57087 23.7484 9.25022 22.008 9.41965C20.2677 9.58908 18.6094 10.2418 17.2206 11.3042C16.8039 10.1521 16.2102 9.27085 15.7977 8.65835L15.7144 8.53335C17.5861 7.21386 19.7844 6.43395 22.0693 6.27874C24.3541 6.12354 26.6377 6.59901 28.6707 7.65325C30.7038 8.70749 32.4081 10.3 33.5977 12.2569C34.7873 14.2138 35.4164 16.4599 35.4164 18.75H42.7081C43.5369 18.75 44.3318 19.0793 44.9178 19.6653C45.5039 20.2514 45.8331 21.0462 45.8331 21.875V40.625C45.8331 41.4538 45.5039 42.2487 44.9178 42.8347C44.3318 43.4208 43.5369 43.75 42.7081 43.75H23.9581C23.1293 43.75 22.3344 43.4208 21.7484 42.8347C21.1623 42.2487 20.8331 41.4538 20.8331 40.625V31.0771ZM23.9581 31.2083V40.625H42.7081V21.875H35.0206C34.3715 24.3855 32.9583 26.6322 30.9764 28.3043C28.9945 29.9763 26.542 30.9912 23.9581 31.2083V31.2083ZM31.7581 21.875H23.9581V28.0688C25.7085 27.8725 27.3683 27.1875 28.7477 26.0922C30.1271 24.9969 31.1703 23.5354 31.7581 21.875V21.875Z" fill="white"/>
</svg>
