<svg width="205" height="40" viewBox="0 0 205 40" fill="none" xmlns="http://www.w3.org/2000/svg">
<rect x="0.227234" y="0.275505" width="204.295" height="39.7212" rx="12" fill="#F87C6B"/>
<path d="M17.2389 8.60031V18.4003H15.8389V14.0323H10.2109V18.4003H8.81085V8.60031H10.2109V12.8143H15.8389V8.60031H17.2389ZM27.2422 14.7323C27.2422 14.835 27.2328 14.9703 27.2142 15.1383H21.1942C21.2782 15.7916 21.5628 16.319 22.0482 16.7203C22.5428 17.1123 23.1542 17.3083 23.8822 17.3083C24.7688 17.3083 25.4828 17.0096 26.0242 16.4123L26.7662 17.2803C26.4302 17.6723 26.0102 17.971 25.5062 18.1763C25.0115 18.3816 24.4562 18.4843 23.8402 18.4843C23.0562 18.4843 22.3608 18.3256 21.7542 18.0083C21.1475 17.6816 20.6762 17.229 20.3402 16.6503C20.0135 16.0716 19.8502 15.4183 19.8502 14.6903C19.8502 13.9716 20.0088 13.323 20.3262 12.7443C20.6528 12.1656 21.0962 11.7176 21.6562 11.4003C22.2255 11.0736 22.8648 10.9103 23.5742 10.9103C24.2835 10.9103 24.9135 11.0736 25.4642 11.4003C26.0242 11.7176 26.4582 12.1656 26.7662 12.7443C27.0835 13.323 27.2422 13.9856 27.2422 14.7323ZM23.5742 12.0443C22.9302 12.0443 22.3888 12.2403 21.9502 12.6323C21.5208 13.0243 21.2688 13.5376 21.1942 14.1723H25.9542C25.8795 13.547 25.6228 13.0383 25.1842 12.6463C24.7548 12.245 24.2182 12.0443 23.5742 12.0443ZM36.0977 10.9803L32.4997 19.1423C32.1824 19.8983 31.8091 20.4303 31.3797 20.7383C30.9597 21.0463 30.4511 21.2003 29.8537 21.2003C29.4897 21.2003 29.1351 21.1396 28.7897 21.0183C28.4537 20.9063 28.1737 20.7383 27.9497 20.5143L28.5237 19.5063C28.9064 19.8703 29.3497 20.0523 29.8537 20.0523C30.1804 20.0523 30.4511 19.9636 30.6657 19.7863C30.8897 19.6183 31.0904 19.3243 31.2677 18.9043L31.5057 18.3863L28.2297 10.9803H29.6297L32.2197 16.9163L34.7817 10.9803H36.0977ZM48.6718 15.9503H43.4638L42.3858 18.4003H40.9438L45.3818 8.60031H46.7678L51.2198 18.4003H49.7498L48.6718 15.9503ZM48.1818 14.8303L46.0678 10.0283L43.9538 14.8303H48.1818ZM55.9297 14.9423L54.3897 16.3703V18.4003H53.0457V8.01231H54.3897V14.6763L58.4357 10.9803H60.0597L56.9377 14.0463L60.3677 18.4003H58.7157L55.9297 14.9423ZM64.7979 10.9103C65.8246 10.9103 66.6086 11.1623 67.1499 11.6663C67.7006 12.1703 67.9759 12.9216 67.9759 13.9203V18.4003H66.7019V17.4203C66.4779 17.7656 66.1559 18.0316 65.7359 18.2183C65.3253 18.3956 64.8353 18.4843 64.2659 18.4843C63.4353 18.4843 62.7679 18.2836 62.2639 17.8823C61.7693 17.481 61.5219 16.9536 61.5219 16.3003C61.5219 15.647 61.7599 15.1243 62.2359 14.7323C62.7119 14.331 63.4679 14.1303 64.5039 14.1303H66.6319V13.8643C66.6319 13.2856 66.4639 12.8423 66.1279 12.5343C65.7919 12.2263 65.2973 12.0723 64.6439 12.0723C64.2053 12.0723 63.7759 12.147 63.3559 12.2963C62.9359 12.4363 62.5813 12.6276 62.2919 12.8703L61.7319 11.8623C62.1146 11.5543 62.5719 11.321 63.1039 11.1623C63.6359 10.9943 64.2006 10.9103 64.7979 10.9103ZM64.4899 17.4483C65.0033 17.4483 65.4466 17.3363 65.8199 17.1123C66.1933 16.879 66.4639 16.5523 66.6319 16.1323V15.0963H64.5599C63.4213 15.0963 62.8519 15.479 62.8519 16.2443C62.8519 16.6176 62.9966 16.9116 63.2859 17.1263C63.5753 17.341 63.9766 17.4483 64.4899 17.4483ZM73.1511 18.4843C72.5445 18.4843 71.9611 18.405 71.4011 18.2463C70.8411 18.0783 70.4025 17.8683 70.0851 17.6163L70.6451 16.5523C70.9718 16.7856 71.3685 16.9723 71.8351 17.1123C72.3018 17.2523 72.7731 17.3223 73.2491 17.3223C74.4251 17.3223 75.0131 16.9863 75.0131 16.3143C75.0131 16.0903 74.9338 15.913 74.7751 15.7823C74.6165 15.6516 74.4158 15.5583 74.1731 15.5023C73.9398 15.437 73.6038 15.367 73.1651 15.2923C72.5678 15.199 72.0778 15.0916 71.6951 14.9703C71.3218 14.849 70.9998 14.6436 70.7291 14.3543C70.4585 14.065 70.3231 13.659 70.3231 13.1363C70.3231 12.4643 70.6031 11.9276 71.1631 11.5263C71.7231 11.1156 72.4745 10.9103 73.4171 10.9103C73.9118 10.9103 74.4065 10.971 74.9011 11.0923C75.3958 11.2136 75.8018 11.377 76.1191 11.5823L75.5451 12.6463C74.9385 12.2543 74.2245 12.0583 73.4031 12.0583C72.8338 12.0583 72.3998 12.1516 72.1011 12.3383C71.8025 12.525 71.6531 12.7723 71.6531 13.0803C71.6531 13.323 71.7371 13.5143 71.9051 13.6543C72.0731 13.7943 72.2785 13.897 72.5211 13.9623C72.7731 14.0276 73.1231 14.1023 73.5711 14.1863C74.1685 14.289 74.6491 14.401 75.0131 14.5223C75.3865 14.6343 75.7038 14.8303 75.9651 15.1103C76.2265 15.3903 76.3571 15.7823 76.3571 16.2863C76.3571 16.9583 76.0678 17.495 75.4891 17.8963C74.9198 18.2883 74.1405 18.4843 73.1511 18.4843ZM82.5588 10.9103C83.5015 10.9103 84.2481 11.1856 84.7988 11.7363C85.3588 12.2776 85.6388 13.0756 85.6388 14.1303V18.4003H84.2948V14.2843C84.2948 13.5656 84.1221 13.0243 83.7768 12.6603C83.4315 12.2963 82.9368 12.1143 82.2928 12.1143C81.5648 12.1143 80.9908 12.329 80.5708 12.7583C80.1508 13.1783 79.9408 13.785 79.9408 14.5783V18.4003H78.5968V8.01231H79.9408V12.0303C80.2208 11.6756 80.5848 11.4003 81.0328 11.2043C81.4901 11.0083 81.9988 10.9103 82.5588 10.9103ZM88.5041 8.60031H90.0861L89.8201 15.3063H88.7561L88.5041 8.60031ZM89.3021 18.4843C89.0408 18.4843 88.8214 18.4003 88.6441 18.2323C88.4668 18.055 88.3781 17.8403 88.3781 17.5883C88.3781 17.3363 88.4668 17.1263 88.6441 16.9583C88.8214 16.781 89.0408 16.6923 89.3021 16.6923C89.5634 16.6923 89.7781 16.781 89.9461 16.9583C90.1141 17.1263 90.1981 17.3363 90.1981 17.5883C90.1981 17.8403 90.1094 18.055 89.9321 18.2323C89.7641 18.4003 89.5541 18.4843 89.3021 18.4843ZM97.508 8.60031H98.908V18.4003H97.508V8.60031ZM109.228 10.9103C110.254 10.9103 111.038 11.1623 111.58 11.6663C112.13 12.1703 112.406 12.9216 112.406 13.9203V18.4003H111.132V17.4203C110.908 17.7656 110.586 18.0316 110.166 18.2183C109.755 18.3956 109.265 18.4843 108.696 18.4843C107.865 18.4843 107.198 18.2836 106.694 17.8823C106.199 17.481 105.952 16.9536 105.952 16.3003C105.952 15.647 106.19 15.1243 106.666 14.7323C107.142 14.331 107.898 14.1303 108.934 14.1303H111.062V13.8643C111.062 13.2856 110.894 12.8423 110.558 12.5343C110.222 12.2263 109.727 12.0723 109.074 12.0723C108.635 12.0723 108.206 12.147 107.786 12.2963C107.366 12.4363 107.011 12.6276 106.722 12.8703L106.162 11.8623C106.544 11.5543 107.002 11.321 107.534 11.1623C108.066 10.9943 108.63 10.9103 109.228 10.9103ZM108.92 17.4483C109.433 17.4483 109.876 17.3363 110.25 17.1123C110.623 16.879 110.894 16.5523 111.062 16.1323V15.0963H108.99C107.851 15.0963 107.282 15.479 107.282 16.2443C107.282 16.6176 107.426 16.9116 107.716 17.1263C108.005 17.341 108.406 17.4483 108.92 17.4483ZM118.728 18.4843C117.972 18.4843 117.295 18.321 116.698 17.9943C116.11 17.6676 115.648 17.2196 115.312 16.6503C114.976 16.0716 114.808 15.4183 114.808 14.6903C114.808 13.9623 114.976 13.3136 115.312 12.7443C115.648 12.1656 116.11 11.7176 116.698 11.4003C117.295 11.0736 117.972 10.9103 118.728 10.9103C119.4 10.9103 119.997 11.0456 120.52 11.3163C121.052 11.587 121.463 11.979 121.752 12.4923L120.73 13.1503C120.497 12.7956 120.207 12.5296 119.862 12.3523C119.517 12.175 119.134 12.0863 118.714 12.0863C118.229 12.0863 117.79 12.1936 117.398 12.4083C117.015 12.623 116.712 12.931 116.488 13.3323C116.273 13.7243 116.166 14.177 116.166 14.6903C116.166 15.213 116.273 15.675 116.488 16.0763C116.712 16.4683 117.015 16.7716 117.398 16.9863C117.79 17.201 118.229 17.3083 118.714 17.3083C119.134 17.3083 119.517 17.2196 119.862 17.0423C120.207 16.865 120.497 16.599 120.73 16.2443L121.752 16.8883C121.463 17.4016 121.052 17.7983 120.52 18.0783C119.997 18.349 119.4 18.4843 118.728 18.4843ZM128.32 17.9663C128.124 18.1343 127.881 18.265 127.592 18.3583C127.302 18.4423 127.004 18.4843 126.696 18.4843C125.949 18.4843 125.37 18.2836 124.96 17.8823C124.549 17.481 124.344 16.907 124.344 16.1603V12.0863H123.084V10.9803H124.344V9.35631H125.688V10.9803H127.816V12.0863H125.688V16.1043C125.688 16.5056 125.786 16.8136 125.982 17.0283C126.187 17.243 126.476 17.3503 126.85 17.3503C127.26 17.3503 127.61 17.2336 127.9 17.0003L128.32 17.9663ZM137.421 10.9803V18.4003H136.147V17.2803C135.876 17.663 135.517 17.9616 135.069 18.1763C134.63 18.3816 134.149 18.4843 133.627 18.4843C132.637 18.4843 131.858 18.2136 131.289 17.6723C130.719 17.1216 130.435 16.3143 130.435 15.2503V10.9803H131.779V15.0963C131.779 15.815 131.951 16.361 132.297 16.7343C132.642 17.0983 133.137 17.2803 133.781 17.2803C134.49 17.2803 135.05 17.0656 135.461 16.6363C135.871 16.207 136.077 15.6003 136.077 14.8163V10.9803H137.421ZM143.241 10.9103C144.268 10.9103 145.052 11.1623 145.593 11.6663C146.144 12.1703 146.419 12.9216 146.419 13.9203V18.4003H145.145V17.4203C144.921 17.7656 144.599 18.0316 144.179 18.2183C143.768 18.3956 143.278 18.4843 142.709 18.4843C141.878 18.4843 141.211 18.2836 140.707 17.8823C140.212 17.481 139.965 16.9536 139.965 16.3003C139.965 15.647 140.203 15.1243 140.679 14.7323C141.155 14.331 141.911 14.1303 142.947 14.1303H145.075V13.8643C145.075 13.2856 144.907 12.8423 144.571 12.5343C144.235 12.2263 143.74 12.0723 143.087 12.0723C142.648 12.0723 142.219 12.147 141.799 12.2963C141.379 12.4363 141.024 12.6276 140.735 12.8703L140.175 11.8623C140.558 11.5543 141.015 11.321 141.547 11.1623C142.079 10.9943 142.644 10.9103 143.241 10.9103ZM142.933 17.4483C143.446 17.4483 143.89 17.3363 144.263 17.1123C144.636 16.879 144.907 16.5523 145.075 16.1323V15.0963H143.003C141.864 15.0963 141.295 15.479 141.295 16.2443C141.295 16.6176 141.44 16.9116 141.729 17.1263C142.018 17.341 142.42 17.4483 142.933 17.4483ZM149.466 8.01231H150.81V18.4003H149.466V8.01231ZM153.936 8.01231H155.28V18.4003H153.936V8.01231ZM164.973 10.9803L161.375 19.1423C161.057 19.8983 160.684 20.4303 160.255 20.7383C159.835 21.0463 159.326 21.2003 158.729 21.2003C158.365 21.2003 158.01 21.1396 157.665 21.0183C157.329 20.9063 157.049 20.7383 156.825 20.5143L157.399 19.5063C157.781 19.8703 158.225 20.0523 158.729 20.0523C159.055 20.0523 159.326 19.9636 159.541 19.7863C159.765 19.6183 159.965 19.3243 160.143 18.9043L160.381 18.3863L157.105 10.9803H158.505L161.095 16.9163L163.657 10.9803H164.973ZM171.107 8.01231H172.451V18.4003H171.107V8.01231ZM178.755 18.4843C178.018 18.4843 177.355 18.321 176.767 17.9943C176.179 17.6676 175.717 17.2196 175.381 16.6503C175.054 16.0716 174.891 15.4183 174.891 14.6903C174.891 13.9623 175.054 13.3136 175.381 12.7443C175.717 12.1656 176.179 11.7176 176.767 11.4003C177.355 11.0736 178.018 10.9103 178.755 10.9103C179.492 10.9103 180.15 11.0736 180.729 11.4003C181.317 11.7176 181.774 12.1656 182.101 12.7443C182.437 13.3136 182.605 13.9623 182.605 14.6903C182.605 15.4183 182.437 16.0716 182.101 16.6503C181.774 17.2196 181.317 17.6676 180.729 17.9943C180.15 18.321 179.492 18.4843 178.755 18.4843ZM178.755 17.3083C179.231 17.3083 179.656 17.201 180.029 16.9863C180.412 16.7623 180.71 16.4543 180.925 16.0623C181.14 15.661 181.247 15.2036 181.247 14.6903C181.247 14.177 181.14 13.7243 180.925 13.3323C180.71 12.931 180.412 12.623 180.029 12.4083C179.656 12.1936 179.231 12.0863 178.755 12.0863C178.279 12.0863 177.85 12.1936 177.467 12.4083C177.094 12.623 176.795 12.931 176.571 13.3323C176.356 13.7243 176.249 14.177 176.249 14.6903C176.249 15.2036 176.356 15.661 176.571 16.0623C176.795 16.4543 177.094 16.7623 177.467 16.9863C177.85 17.201 178.279 17.3083 178.755 17.3083ZM191.385 10.9803L188.137 18.4003H186.765L183.517 10.9803H184.917L187.465 16.9303L190.069 10.9803H191.385ZM199.7 14.7323C199.7 14.835 199.69 14.9703 199.672 15.1383H193.652C193.736 15.7916 194.02 16.319 194.506 16.7203C195 17.1123 195.612 17.3083 196.34 17.3083C197.226 17.3083 197.94 17.0096 198.482 16.4123L199.224 17.2803C198.888 17.6723 198.468 17.971 197.964 18.1763C197.469 18.3816 196.914 18.4843 196.298 18.4843C195.514 18.4843 194.818 18.3256 194.212 18.0083C193.605 17.6816 193.134 17.229 192.798 16.6503C192.471 16.0716 192.308 15.4183 192.308 14.6903C192.308 13.9716 192.466 13.323 192.784 12.7443C193.11 12.1656 193.554 11.7176 194.114 11.4003C194.683 11.0736 195.322 10.9103 196.032 10.9103C196.741 10.9103 197.371 11.0736 197.922 11.4003C198.482 11.7176 198.916 12.1656 199.224 12.7443C199.541 13.323 199.7 13.9856 199.7 14.7323ZM196.032 12.0443C195.388 12.0443 194.846 12.2403 194.408 12.6323C193.978 13.0243 193.726 13.5376 193.652 14.1723H198.412C198.337 13.547 198.08 13.0383 197.642 12.6463C197.212 12.245 196.676 12.0443 196.032 12.0443ZM15.4049 28.3183C15.9742 28.477 16.4222 28.7663 16.7489 29.1863C17.0755 29.597 17.2389 30.1196 17.2389 30.7543C17.2389 31.6036 16.9169 32.257 16.2729 32.7143C15.6382 33.1716 14.7095 33.4003 13.4869 33.4003H8.81085V23.6003H13.2069C14.3269 23.6003 15.1902 23.8243 15.7969 24.2723C16.4129 24.7203 16.7209 25.341 16.7209 26.1343C16.7209 26.6476 16.5995 27.091 16.3569 27.4643C16.1235 27.8376 15.8062 28.1223 15.4049 28.3183ZM10.2109 24.7343V27.8703H13.0809C13.7995 27.8703 14.3502 27.7396 14.7329 27.4783C15.1249 27.2076 15.3209 26.8156 15.3209 26.3023C15.3209 25.789 15.1249 25.4016 14.7329 25.1403C14.3502 24.8696 13.7995 24.7343 13.0809 24.7343H10.2109ZM13.4309 32.2663C14.2242 32.2663 14.8215 32.1356 15.2229 31.8743C15.6242 31.613 15.8249 31.2023 15.8249 30.6423C15.8249 29.5503 15.0269 29.0043 13.4309 29.0043H10.2109V32.2663H13.4309ZM23.7326 25.9103C24.6752 25.9103 25.4219 26.1856 25.9726 26.7363C26.5326 27.2776 26.8126 28.0756 26.8126 29.1303V33.4003H25.4686V29.2843C25.4686 28.5656 25.2959 28.0243 24.9506 27.6603C24.6052 27.2963 24.1106 27.1143 23.4666 27.1143C22.7386 27.1143 22.1646 27.329 21.7446 27.7583C21.3246 28.1783 21.1146 28.785 21.1146 29.5783V33.4003H19.7706V23.0123H21.1146V27.0303C21.3946 26.6756 21.7586 26.4003 22.2066 26.2043C22.6639 26.0083 23.1726 25.9103 23.7326 25.9103ZM32.5619 25.9103C33.5885 25.9103 34.3725 26.1623 34.9139 26.6663C35.4645 27.1703 35.7399 27.9216 35.7399 28.9203V33.4003H34.4659V32.4203C34.2419 32.7656 33.9199 33.0316 33.4999 33.2183C33.0892 33.3956 32.5992 33.4843 32.0299 33.4843C31.1992 33.4843 30.5319 33.2836 30.0279 32.8823C29.5332 32.481 29.2859 31.9536 29.2859 31.3003C29.2859 30.647 29.5239 30.1243 29.9999 29.7323C30.4759 29.331 31.2319 29.1303 32.2679 29.1303H34.3959V28.8643C34.3959 28.2856 34.2279 27.8423 33.8919 27.5343C33.5559 27.2263 33.0612 27.0723 32.4079 27.0723C31.9692 27.0723 31.5399 27.147 31.1199 27.2963C30.6999 27.4363 30.3452 27.6276 30.0559 27.8703L29.4959 26.8623C29.8785 26.5543 30.3359 26.321 30.8679 26.1623C31.3999 25.9943 31.9645 25.9103 32.5619 25.9103ZM32.2539 32.4483C32.7672 32.4483 33.2105 32.3363 33.5839 32.1123C33.9572 31.879 34.2279 31.5523 34.3959 31.1323V30.0963H32.3239C31.1852 30.0963 30.6159 30.479 30.6159 31.2443C30.6159 31.6176 30.7605 31.9116 31.0499 32.1263C31.3392 32.341 31.7405 32.4483 32.2539 32.4483ZM42.749 25.9103C43.6917 25.9103 44.4384 26.1856 44.989 26.7363C45.549 27.2776 45.829 28.0756 45.829 29.1303V33.4003H44.485V29.2843C44.485 28.5656 44.3124 28.0243 43.967 27.6603C43.6217 27.2963 43.127 27.1143 42.483 27.1143C41.755 27.1143 41.181 27.329 40.761 27.7583C40.341 28.1783 40.131 28.785 40.131 29.5783V33.4003H38.787V25.9803H40.075V27.1003C40.3457 26.7176 40.7097 26.4236 41.167 26.2183C41.6337 26.013 42.161 25.9103 42.749 25.9103ZM56.0154 25.9803V32.3923C56.0154 33.6896 55.6934 34.6463 55.0494 35.2623C54.4054 35.8876 53.444 36.2003 52.1654 36.2003C51.4654 36.2003 50.798 36.1023 50.1634 35.9063C49.5287 35.7196 49.0154 35.449 48.6234 35.0943L49.2674 34.0583C49.6127 34.357 50.0374 34.5903 50.5414 34.7583C51.0547 34.9356 51.582 35.0243 52.1234 35.0243C52.9914 35.0243 53.6307 34.819 54.0414 34.4083C54.4614 33.9976 54.6714 33.3723 54.6714 32.5323V31.9443C54.354 32.327 53.962 32.6163 53.4954 32.8123C53.038 32.999 52.5387 33.0923 51.9974 33.0923C51.288 33.0923 50.644 32.943 50.0654 32.6443C49.496 32.3363 49.048 31.9116 48.7214 31.3703C48.3947 30.8196 48.2314 30.1943 48.2314 29.4943C48.2314 28.7943 48.3947 28.1736 48.7214 27.6323C49.048 27.0816 49.496 26.657 50.0654 26.3583C50.644 26.0596 51.288 25.9103 51.9974 25.9103C52.5574 25.9103 53.0754 26.013 53.5514 26.2183C54.0367 26.4236 54.4334 26.727 54.7414 27.1283V25.9803H56.0154ZM52.1514 31.9163C52.6367 31.9163 53.0707 31.8136 53.4534 31.6083C53.8454 31.403 54.1487 31.1183 54.3634 30.7543C54.5874 30.381 54.6994 29.961 54.6994 29.4943C54.6994 28.7756 54.4614 28.197 53.9854 27.7583C53.5094 27.3103 52.898 27.0863 52.1514 27.0863C51.3954 27.0863 50.7794 27.3103 50.3034 27.7583C49.8274 28.197 49.5894 28.7756 49.5894 29.4943C49.5894 29.961 49.6967 30.381 49.9114 30.7543C50.1354 31.1183 50.4387 31.403 50.8214 31.6083C51.2134 31.8136 51.6567 31.9163 52.1514 31.9163ZM60.4314 27.2263C60.6647 26.797 61.01 26.4703 61.4674 26.2463C61.9247 26.0223 62.48 25.9103 63.1334 25.9103V27.2123C63.0587 27.203 62.956 27.1983 62.8254 27.1983C62.0974 27.1983 61.5234 27.4176 61.1034 27.8563C60.6927 28.2856 60.4874 28.9016 60.4874 29.7043V33.4003H59.1434V25.9803H60.4314V27.2263ZM68.0382 25.9103C69.0648 25.9103 69.8488 26.1623 70.3902 26.6663C70.9408 27.1703 71.2162 27.9216 71.2162 28.9203V33.4003H69.9422V32.4203C69.7182 32.7656 69.3962 33.0316 68.9762 33.2183C68.5655 33.3956 68.0755 33.4843 67.5062 33.4843C66.6755 33.4843 66.0082 33.2836 65.5042 32.8823C65.0095 32.481 64.7622 31.9536 64.7622 31.3003C64.7622 30.647 65.0002 30.1243 65.4762 29.7323C65.9522 29.331 66.7082 29.1303 67.7442 29.1303H69.8722V28.8643C69.8722 28.2856 69.7042 27.8423 69.3682 27.5343C69.0322 27.2263 68.5375 27.0723 67.8842 27.0723C67.4455 27.0723 67.0162 27.147 66.5962 27.2963C66.1762 27.4363 65.8215 27.6276 65.5322 27.8703L64.9722 26.8623C65.3548 26.5543 65.8122 26.321 66.3442 26.1623C66.8762 25.9943 67.4408 25.9103 68.0382 25.9103ZM67.7302 32.4483C68.2435 32.4483 68.6868 32.3363 69.0602 32.1123C69.4335 31.879 69.7042 31.5523 69.8722 31.1323V30.0963H67.8002C66.6615 30.0963 66.0922 30.479 66.0922 31.2443C66.0922 31.6176 66.2368 31.9116 66.5262 32.1263C66.8155 32.341 67.2168 32.4483 67.7302 32.4483ZM82.7551 32.9663C82.5591 33.1343 82.3165 33.265 82.0271 33.3583C81.7378 33.4423 81.4391 33.4843 81.1311 33.4843C80.3845 33.4843 79.8058 33.2836 79.3951 32.8823C78.9845 32.481 78.7791 31.907 78.7791 31.1603V27.0863H77.5191V25.9803H78.7791V24.3563H80.1231V25.9803H82.2511V27.0863H80.1231V31.1043C80.1231 31.5056 80.2211 31.8136 80.4171 32.0283C80.6225 32.243 80.9118 32.3503 81.2851 32.3503C81.6958 32.3503 82.0458 32.2336 82.3351 32.0003L82.7551 32.9663ZM87.8719 33.4843C87.1346 33.4843 86.4719 33.321 85.8839 32.9943C85.2959 32.6676 84.8339 32.2196 84.4979 31.6503C84.1712 31.0716 84.0079 30.4183 84.0079 29.6903C84.0079 28.9623 84.1712 28.3136 84.4979 27.7443C84.8339 27.1656 85.2959 26.7176 85.8839 26.4003C86.4719 26.0736 87.1346 25.9103 87.8719 25.9103C88.6092 25.9103 89.2672 26.0736 89.8459 26.4003C90.4339 26.7176 90.8912 27.1656 91.2179 27.7443C91.5539 28.3136 91.7219 28.9623 91.7219 29.6903C91.7219 30.4183 91.5539 31.0716 91.2179 31.6503C90.8912 32.2196 90.4339 32.6676 89.8459 32.9943C89.2672 33.321 88.6092 33.4843 87.8719 33.4843ZM87.8719 32.3083C88.3479 32.3083 88.7726 32.201 89.1459 31.9863C89.5286 31.7623 89.8272 31.4543 90.0419 31.0623C90.2566 30.661 90.3639 30.2036 90.3639 29.6903C90.3639 29.177 90.2566 28.7243 90.0419 28.3323C89.8272 27.931 89.5286 27.623 89.1459 27.4083C88.7726 27.1936 88.3479 27.0863 87.8719 27.0863C87.3959 27.0863 86.9666 27.1936 86.5839 27.4083C86.2106 27.623 85.9119 27.931 85.6879 28.3323C85.4732 28.7243 85.3659 29.177 85.3659 29.6903C85.3659 30.2036 85.4732 30.661 85.6879 31.0623C85.9119 31.4543 86.2106 31.7623 86.5839 31.9863C86.9666 32.201 87.3959 32.3083 87.8719 32.3083ZM97.3186 33.4843C96.5813 33.4843 95.9186 33.321 95.3306 32.9943C94.7426 32.6676 94.2806 32.2196 93.9446 31.6503C93.618 31.0716 93.4546 30.4183 93.4546 29.6903C93.4546 28.9623 93.618 28.3136 93.9446 27.7443C94.2806 27.1656 94.7426 26.7176 95.3306 26.4003C95.9186 26.0736 96.5813 25.9103 97.3186 25.9103C98.056 25.9103 98.714 26.0736 99.2926 26.4003C99.8806 26.7176 100.338 27.1656 100.665 27.7443C101.001 28.3136 101.169 28.9623 101.169 29.6903C101.169 30.4183 101.001 31.0716 100.665 31.6503C100.338 32.2196 99.8806 32.6676 99.2926 32.9943C98.714 33.321 98.056 33.4843 97.3186 33.4843ZM97.3186 32.3083C97.7946 32.3083 98.2193 32.201 98.5926 31.9863C98.9753 31.7623 99.274 31.4543 99.4886 31.0623C99.7033 30.661 99.8106 30.2036 99.8106 29.6903C99.8106 29.177 99.7033 28.7243 99.4886 28.3323C99.274 27.931 98.9753 27.623 98.5926 27.4083C98.2193 27.1936 97.7946 27.0863 97.3186 27.0863C96.8426 27.0863 96.4133 27.1936 96.0306 27.4083C95.6573 27.623 95.3586 27.931 95.1346 28.3323C94.92 28.7243 94.8126 29.177 94.8126 29.6903C94.8126 30.2036 94.92 30.661 95.1346 31.0623C95.3586 31.4543 95.6573 31.7623 96.0306 31.9863C96.4133 32.201 96.8426 32.3083 97.3186 32.3083ZM108.229 27.8283C107.968 27.8283 107.744 27.7396 107.557 27.5623C107.37 27.3756 107.277 27.1423 107.277 26.8623C107.277 26.5916 107.37 26.3676 107.557 26.1903C107.744 26.0036 107.968 25.9103 108.229 25.9103C108.49 25.9103 108.71 25.999 108.887 26.1763C109.064 26.3536 109.153 26.5823 109.153 26.8623C109.153 27.1423 109.06 27.3756 108.873 27.5623C108.696 27.7396 108.481 27.8283 108.229 27.8283ZM108.229 33.4843C107.968 33.4843 107.744 33.3956 107.557 33.2183C107.37 33.0316 107.277 32.7983 107.277 32.5183C107.277 32.2476 107.37 32.0236 107.557 31.8463C107.744 31.6596 107.968 31.5663 108.229 31.5663C108.49 31.5663 108.71 31.655 108.887 31.8323C109.064 32.0096 109.153 32.2383 109.153 32.5183C109.153 32.7983 109.06 33.0316 108.873 33.2183C108.696 33.3956 108.481 33.4843 108.229 33.4843ZM110.813 36.1163C111.373 35.1363 111.784 34.1096 112.045 33.0363C112.316 31.963 112.451 30.8056 112.451 29.5643C112.451 28.323 112.316 27.1656 112.045 26.0923C111.784 25.019 111.373 23.9923 110.813 23.0123H112.087C112.628 23.8523 113.044 24.8323 113.333 25.9523C113.622 27.0723 113.767 28.2763 113.767 29.5643C113.767 30.843 113.622 32.0423 113.333 33.1623C113.044 34.2823 112.628 35.267 112.087 36.1163H110.813Z" fill="white"/>
</svg>
