<svg width="206" height="41" viewBox="0 0 206 41" fill="none" xmlns="http://www.w3.org/2000/svg">
<rect y="0.724487" width="204.295" height="39.7212" rx="12" fill="#F87C6B"/>
<path d="M13.2576 14.4753L9.50562 7.72727H11.1856L13.9716 12.9353L16.7436 7.72727H18.4096L14.6156 14.4753V17.8493H13.2576V14.4753ZM18.5067 14.8953C18.5067 14.3166 18.6421 13.7939 18.9127 13.3273C19.1927 12.8606 19.5754 12.4919 20.0607 12.2213C20.5461 11.9506 21.1014 11.8153 21.7267 11.8153C22.3521 11.8153 22.9027 11.9506 23.3787 12.2213C23.8547 12.4919 24.2234 12.8606 24.4847 13.3273C24.7554 13.7939 24.8907 14.3166 24.8907 14.8953C24.8907 15.4739 24.7554 15.9966 24.4847 16.4633C24.2234 16.9299 23.8501 17.3033 23.3647 17.5833C22.8887 17.8539 22.3334 17.9893 21.6987 17.9893C21.0827 17.9893 20.5321 17.8633 20.0467 17.6113C19.5707 17.3593 19.1927 16.9999 18.9127 16.5333C18.6421 16.0666 18.5067 15.5206 18.5067 14.8953ZM19.8227 14.9093C19.8227 15.2826 19.9021 15.6233 20.0607 15.9313C20.2287 16.2299 20.4527 16.4679 20.7327 16.6453C21.0127 16.8226 21.3301 16.9113 21.6847 16.9113C22.0487 16.9113 22.3707 16.8226 22.6507 16.6453C22.9307 16.4679 23.1501 16.2299 23.3087 15.9313C23.4767 15.6233 23.5607 15.2826 23.5607 14.9093C23.5607 14.5359 23.4767 14.1999 23.3087 13.9013C23.1501 13.5933 22.9307 13.3506 22.6507 13.1733C22.3707 12.9866 22.0487 12.8933 21.6847 12.8933C21.3301 12.8933 21.0081 12.9866 20.7187 13.1733C20.4387 13.3599 20.2194 13.6073 20.0607 13.9153C19.9021 14.2139 19.8227 14.5453 19.8227 14.9093ZM29.0476 18.0733C28.5156 18.0733 28.077 17.9146 27.7316 17.5973C27.3863 17.2706 27.209 16.8506 27.1996 16.3373V12.0533H28.5016V15.8753C28.5203 16.1926 28.6136 16.4493 28.7816 16.6453C28.9496 16.8413 29.211 16.9439 29.5656 16.9533C29.883 16.9533 30.1723 16.8599 30.4336 16.6733C30.695 16.4773 30.9003 16.2159 31.0496 15.8893C31.2083 15.5533 31.2876 15.1753 31.2876 14.7553V12.0533H32.5896V17.8493H31.4136L31.3156 16.7573C31.129 17.1399 30.8303 17.4573 30.4196 17.7093C30.0183 17.9519 29.561 18.0733 29.0476 18.0733ZM42.0436 17.9613C41.6236 17.9613 41.2176 17.8913 40.8256 17.7513C40.4429 17.6019 40.1256 17.3826 39.8736 17.0933L40.4336 16.3373C40.6669 16.5706 40.9143 16.7479 41.1756 16.8693C41.4369 16.9813 41.6889 17.0373 41.9316 17.0373C42.2116 17.0373 42.4543 16.9813 42.6596 16.8693C42.8743 16.7573 42.9816 16.5659 42.9816 16.2953C42.9816 16.0899 42.9116 15.9266 42.7716 15.8053C42.6409 15.6839 42.4683 15.5906 42.2536 15.5253C42.0483 15.4506 41.8336 15.3759 41.6096 15.3013C40.6203 14.9839 40.1256 14.4193 40.1256 13.6073C40.1256 13.3086 40.2003 13.0239 40.3496 12.7533C40.5083 12.4826 40.7369 12.2633 41.0356 12.0953C41.3436 11.9273 41.7216 11.8433 42.1696 11.8433C42.5709 11.8433 42.9303 11.8946 43.2476 11.9973C43.5649 12.0999 43.8636 12.2633 44.1436 12.4873L43.6256 13.2853C43.4576 13.1173 43.2569 12.9913 43.0236 12.9073C42.7996 12.8139 42.5943 12.7626 42.4076 12.7533C42.1556 12.7533 41.9316 12.8139 41.7356 12.9353C41.5489 13.0566 41.4556 13.2246 41.4556 13.4393C41.4463 13.6353 41.5069 13.7939 41.6376 13.9153C41.7683 14.0273 41.9363 14.1206 42.1416 14.1953C42.3563 14.2699 42.5709 14.3399 42.7856 14.4053C43.2056 14.5453 43.5603 14.7366 43.8496 14.9793C44.1483 15.2219 44.2976 15.5766 44.2976 16.0433C44.2976 16.5659 44.1109 17.0186 43.7376 17.4013C43.3643 17.7746 42.7996 17.9613 42.0436 17.9613ZM46.6804 17.8493V6.99927H47.9544V13.1033C48.1598 12.7299 48.4631 12.4266 48.8644 12.1933C49.2658 11.9506 49.7371 11.8293 50.2784 11.8293C50.8198 11.8293 51.2631 11.9926 51.6084 12.3193C51.9631 12.6366 52.1498 13.0519 52.1684 13.5653V17.8493H50.8524V14.0133C50.8338 13.7053 50.7358 13.4533 50.5584 13.2573C50.3904 13.0613 50.1244 12.9586 49.7604 12.9493C49.4244 12.9493 49.1211 13.0473 48.8504 13.2433C48.5891 13.4299 48.3791 13.6866 48.2204 14.0133C48.0618 14.3399 47.9824 14.7133 47.9824 15.1333V17.8493H46.6804ZM54.4747 14.8953C54.4747 14.3166 54.61 13.7939 54.8807 13.3273C55.1607 12.8606 55.5434 12.4919 56.0287 12.2213C56.514 11.9506 57.0694 11.8153 57.6947 11.8153C58.32 11.8153 58.8707 11.9506 59.3467 12.2213C59.8227 12.4919 60.1914 12.8606 60.4527 13.3273C60.7234 13.7939 60.8587 14.3166 60.8587 14.8953C60.8587 15.4739 60.7234 15.9966 60.4527 16.4633C60.1914 16.9299 59.818 17.3033 59.3327 17.5833C58.8567 17.8539 58.3014 17.9893 57.6667 17.9893C57.0507 17.9893 56.5 17.8633 56.0147 17.6113C55.5387 17.3593 55.1607 16.9999 54.8807 16.5333C54.61 16.0666 54.4747 15.5206 54.4747 14.8953ZM55.7907 14.9093C55.7907 15.2826 55.87 15.6233 56.0287 15.9313C56.1967 16.2299 56.4207 16.4679 56.7007 16.6453C56.9807 16.8226 57.298 16.9113 57.6527 16.9113C58.0167 16.9113 58.3387 16.8226 58.6187 16.6453C58.8987 16.4679 59.118 16.2299 59.2767 15.9313C59.4447 15.6233 59.5287 15.2826 59.5287 14.9093C59.5287 14.5359 59.4447 14.1999 59.2767 13.9013C59.118 13.5933 58.8987 13.3506 58.6187 13.1733C58.3387 12.9866 58.0167 12.8933 57.6527 12.8933C57.298 12.8933 56.976 12.9866 56.6867 13.1733C56.4067 13.3599 56.1874 13.6073 56.0287 13.9153C55.87 14.2139 55.7907 14.5453 55.7907 14.9093ZM65.0156 18.0733C64.4836 18.0733 64.0449 17.9146 63.6996 17.5973C63.3543 17.2706 63.1769 16.8506 63.1676 16.3373V12.0533H64.4696V15.8753C64.4883 16.1926 64.5816 16.4493 64.7496 16.6453C64.9176 16.8413 65.1789 16.9439 65.5336 16.9533C65.8509 16.9533 66.1403 16.8599 66.4016 16.6733C66.6629 16.4773 66.8683 16.2159 67.0176 15.8893C67.1763 15.5533 67.2556 15.1753 67.2556 14.7553V12.0533H68.5576V17.8493H67.3816L67.2836 16.7573C67.0969 17.1399 66.7983 17.4573 66.3876 17.7093C65.9863 17.9519 65.5289 18.0733 65.0156 18.0733ZM71.3839 6.99927H72.6859V17.8493H71.3839V6.99927ZM77.8782 17.9893C77.3276 17.9893 76.8329 17.8633 76.3942 17.6113C75.9649 17.3499 75.6242 16.9859 75.3722 16.5193C75.1296 16.0433 75.0082 15.4926 75.0082 14.8673C75.0082 14.2326 75.1389 13.6866 75.4002 13.2293C75.6616 12.7719 76.0209 12.4219 76.4782 12.1793C76.9449 11.9366 77.4629 11.8153 78.0322 11.8153C78.4709 11.8153 78.8909 11.9086 79.2922 12.0953C79.6936 12.2726 80.0156 12.5199 80.2582 12.8373V6.99927H81.5602V17.8493H80.2442V16.9533C79.9642 17.2613 79.6189 17.5133 79.2082 17.7093C78.8069 17.8959 78.3636 17.9893 77.8782 17.9893ZM78.2842 16.8693C78.7882 16.8693 79.2129 16.7339 79.5582 16.4633C79.9036 16.1926 80.1276 15.8286 80.2302 15.3713V14.2793C80.1276 13.8686 79.8942 13.5279 79.5302 13.2573C79.1756 12.9866 78.7602 12.8513 78.2842 12.8513C77.9296 12.8513 77.6029 12.9399 77.3042 13.1173C77.0056 13.2853 76.7676 13.5186 76.5902 13.8173C76.4129 14.1159 76.3242 14.4613 76.3242 14.8533C76.3242 15.2266 76.4129 15.5673 76.5902 15.8753C76.7676 16.1833 77.0056 16.4259 77.3042 16.6033C77.6029 16.7806 77.9296 16.8693 78.2842 16.8693ZM92.1607 20.7193C91.5167 20.7193 90.9801 20.6073 90.5507 20.3833C90.1214 20.1686 89.7247 19.8933 89.3607 19.5573L90.1307 18.6613C90.4294 18.9599 90.7374 19.1839 91.0547 19.3333C91.3721 19.4919 91.7314 19.5713 92.1327 19.5713C92.7861 19.5713 93.2854 19.4126 93.6307 19.0953C93.9761 18.7873 94.1534 18.3766 94.1627 17.8633V16.7993C93.9667 17.1446 93.6634 17.4293 93.2527 17.6533C92.8421 17.8773 92.3567 17.9893 91.7967 17.9893C91.2554 17.9893 90.7607 17.8539 90.3127 17.5833C89.8741 17.3126 89.5194 16.9486 89.2487 16.4913C88.9874 16.0246 88.8567 15.5019 88.8567 14.9233C88.8567 14.3166 88.9967 13.7799 89.2767 13.3133C89.5567 12.8466 89.9254 12.4826 90.3827 12.2213C90.8401 11.9506 91.3394 11.8153 91.8807 11.8153C92.3847 11.8153 92.8421 11.9133 93.2527 12.1093C93.6634 12.3053 93.9714 12.5573 94.1767 12.8653L94.2887 12.0533H95.4787V17.8913C95.4787 18.4139 95.3434 18.8899 95.0727 19.3193C94.8021 19.7486 94.4194 20.0893 93.9247 20.3413C93.4301 20.5933 92.8421 20.7193 92.1607 20.7193ZM90.1727 14.8813C90.1727 15.2639 90.2614 15.6093 90.4387 15.9173C90.6161 16.2159 90.8541 16.4586 91.1527 16.6453C91.4607 16.8226 91.8014 16.9113 92.1747 16.9113C92.6787 16.9113 93.1081 16.7759 93.4627 16.5053C93.8267 16.2253 94.0601 15.8706 94.1627 15.4413V14.2933C94.0414 13.8826 93.7987 13.5466 93.4347 13.2853C93.0707 13.0239 92.6507 12.8933 92.1747 12.8933C91.7921 12.8933 91.4467 12.9773 91.1387 13.1453C90.8401 13.3133 90.6021 13.5466 90.4247 13.8453C90.2567 14.1439 90.1727 14.4893 90.1727 14.8813ZM98.3016 12.0533H99.6036V17.8493H98.3016V12.0533ZM98.2036 9.96727C98.2036 9.75261 98.2829 9.57994 98.4416 9.44927C98.6096 9.30927 98.7916 9.23927 98.9876 9.23927C99.1836 9.23927 99.3609 9.30927 99.5196 9.44927C99.6783 9.57994 99.7576 9.75261 99.7576 9.96727C99.7576 10.1819 99.6783 10.3593 99.5196 10.4993C99.3609 10.6299 99.1836 10.6953 98.9876 10.6953C98.7916 10.6953 98.6096 10.6299 98.4416 10.4993C98.2829 10.3593 98.2036 10.1819 98.2036 9.96727ZM104.782 18.0173L101.562 12.0533H103.116L104.866 15.7633L106.49 12.0533H107.946L104.852 18.0173H104.782ZM112.459 17.9893C111.806 17.9893 111.237 17.8586 110.751 17.5973C110.275 17.3266 109.907 16.9579 109.645 16.4913C109.393 16.0246 109.267 15.4973 109.267 14.9093C109.267 14.3399 109.407 13.8219 109.687 13.3553C109.977 12.8793 110.364 12.5059 110.849 12.2353C111.344 11.9553 111.89 11.8153 112.487 11.8153C113.253 11.8153 113.887 12.0393 114.391 12.4873C114.895 12.9353 115.241 13.5513 115.427 14.3353L110.835 15.9453C110.994 16.2346 111.218 16.4633 111.507 16.6313C111.797 16.7899 112.123 16.8693 112.487 16.8693C112.749 16.8693 112.996 16.8226 113.229 16.7293C113.463 16.6359 113.687 16.5146 113.901 16.3653L114.503 17.3313C114.205 17.5273 113.873 17.6859 113.509 17.8073C113.155 17.9286 112.805 17.9893 112.459 17.9893ZM110.555 14.8393C110.546 14.9513 110.551 15.0586 110.569 15.1613L113.943 13.9153C113.813 13.6353 113.621 13.3879 113.369 13.1733C113.127 12.9586 112.8 12.8513 112.389 12.8513C111.857 12.8513 111.419 13.0379 111.073 13.4113C110.728 13.7846 110.555 14.2606 110.555 14.8393ZM123.77 12.0533L123.854 13.1593C124.078 12.7393 124.382 12.4126 124.764 12.1793C125.156 11.9366 125.604 11.8153 126.108 11.8153C126.584 11.8153 126.981 11.9273 127.298 12.1513C127.625 12.3753 127.826 12.6786 127.9 13.0613C128.134 12.6693 128.437 12.3659 128.81 12.1513C129.193 11.9273 129.599 11.8153 130.028 11.8153C130.588 11.8153 131.032 11.9786 131.358 12.3053C131.694 12.6319 131.872 13.0473 131.89 13.5513V17.8493H130.588V14.0413C130.57 13.7426 130.49 13.4953 130.35 13.2993C130.22 13.0939 129.991 12.9819 129.664 12.9633C129.319 12.9633 129.016 13.0659 128.754 13.2713C128.493 13.4673 128.288 13.7286 128.138 14.0553C127.989 14.3819 127.91 14.7273 127.9 15.0913V17.8493H126.584V14.0413C126.575 13.7426 126.496 13.4953 126.346 13.2993C126.206 13.0939 125.968 12.9819 125.632 12.9633C125.296 12.9633 124.998 13.0659 124.736 13.2713C124.475 13.4673 124.27 13.7286 124.12 14.0553C123.971 14.3819 123.896 14.7319 123.896 15.1053V17.8493H122.594V12.0533H123.77ZM137.395 17.9893C136.742 17.9893 136.172 17.8586 135.687 17.5973C135.211 17.3266 134.842 16.9579 134.581 16.4913C134.329 16.0246 134.203 15.4973 134.203 14.9093C134.203 14.3399 134.343 13.8219 134.623 13.3553C134.912 12.8793 135.3 12.5059 135.785 12.2353C136.28 11.9553 136.826 11.8153 137.423 11.8153C138.188 11.8153 138.823 12.0393 139.327 12.4873C139.831 12.9353 140.176 13.5513 140.363 14.3353L135.771 15.9453C135.93 16.2346 136.154 16.4633 136.443 16.6313C136.732 16.7899 137.059 16.8693 137.423 16.8693C137.684 16.8693 137.932 16.8226 138.165 16.7293C138.398 16.6359 138.622 16.5146 138.837 16.3653L139.439 17.3313C139.14 17.5273 138.809 17.6859 138.445 17.8073C138.09 17.9286 137.74 17.9893 137.395 17.9893ZM135.491 14.8393C135.482 14.9513 135.486 15.0586 135.505 15.1613L138.879 13.9153C138.748 13.6353 138.557 13.3879 138.305 13.1733C138.062 12.9586 137.736 12.8513 137.325 12.8513C136.793 12.8513 136.354 13.0379 136.009 13.4113C135.664 13.7846 135.491 14.2606 135.491 14.8393ZM149.168 17.9613C148.748 17.9613 148.342 17.8913 147.95 17.7513C147.568 17.6019 147.25 17.3826 146.998 17.0933L147.558 16.3373C147.792 16.5706 148.039 16.7479 148.3 16.8693C148.562 16.9813 148.814 17.0373 149.056 17.0373C149.336 17.0373 149.579 16.9813 149.784 16.8693C149.999 16.7573 150.106 16.5659 150.106 16.2953C150.106 16.0899 150.036 15.9266 149.896 15.8053C149.766 15.6839 149.593 15.5906 149.378 15.5253C149.173 15.4506 148.958 15.3759 148.734 15.3013C147.745 14.9839 147.25 14.4193 147.25 13.6073C147.25 13.3086 147.325 13.0239 147.474 12.7533C147.633 12.4826 147.862 12.2633 148.16 12.0953C148.468 11.9273 148.846 11.8433 149.294 11.8433C149.696 11.8433 150.055 11.8946 150.372 11.9973C150.69 12.0999 150.988 12.2633 151.268 12.4873L150.75 13.2853C150.582 13.1173 150.382 12.9913 150.148 12.9073C149.924 12.8139 149.719 12.7626 149.532 12.7533C149.28 12.7533 149.056 12.8139 148.86 12.9353C148.674 13.0566 148.58 13.2246 148.58 13.4393C148.571 13.6353 148.632 13.7939 148.762 13.9153C148.893 14.0273 149.061 14.1206 149.266 14.1953C149.481 14.2699 149.696 14.3399 149.91 14.4053C150.33 14.5453 150.685 14.7366 150.974 14.9793C151.273 15.2219 151.422 15.5766 151.422 16.0433C151.422 16.5659 151.236 17.0186 150.862 17.4013C150.489 17.7746 149.924 17.9613 149.168 17.9613ZM153.301 14.8953C153.301 14.3166 153.436 13.7939 153.707 13.3273C153.987 12.8606 154.37 12.4919 154.855 12.2213C155.34 11.9506 155.896 11.8153 156.521 11.8153C157.146 11.8153 157.697 11.9506 158.173 12.2213C158.649 12.4919 159.018 12.8606 159.279 13.3273C159.55 13.7939 159.685 14.3166 159.685 14.8953C159.685 15.4739 159.55 15.9966 159.279 16.4633C159.018 16.9299 158.644 17.3033 158.159 17.5833C157.683 17.8539 157.128 17.9893 156.493 17.9893C155.877 17.9893 155.326 17.8633 154.841 17.6113C154.365 17.3593 153.987 16.9999 153.707 16.5333C153.436 16.0666 153.301 15.5206 153.301 14.8953ZM154.617 14.9093C154.617 15.2826 154.696 15.6233 154.855 15.9313C155.023 16.2299 155.247 16.4679 155.527 16.6453C155.807 16.8226 156.124 16.9113 156.479 16.9113C156.843 16.9113 157.165 16.8226 157.445 16.6453C157.725 16.4679 157.944 16.2299 158.103 15.9313C158.271 15.6233 158.355 15.2826 158.355 14.9093C158.355 14.5359 158.271 14.1999 158.103 13.9013C157.944 13.5933 157.725 13.3506 157.445 13.1733C157.165 12.9866 156.843 12.8933 156.479 12.8933C156.124 12.8933 155.802 12.9866 155.513 13.1733C155.233 13.3599 155.014 13.6073 154.855 13.9153C154.696 14.2139 154.617 14.5453 154.617 14.9093ZM163.17 12.0533L163.254 13.1593C163.478 12.7393 163.781 12.4126 164.164 12.1793C164.556 11.9366 165.004 11.8153 165.508 11.8153C165.984 11.8153 166.381 11.9273 166.698 12.1513C167.025 12.3753 167.225 12.6786 167.3 13.0613C167.533 12.6693 167.837 12.3659 168.21 12.1513C168.593 11.9273 168.999 11.8153 169.428 11.8153C169.988 11.8153 170.431 11.9786 170.758 12.3053C171.094 12.6319 171.271 13.0473 171.29 13.5513V17.8493H169.988V14.0413C169.969 13.7426 169.89 13.4953 169.75 13.2993C169.619 13.0939 169.391 12.9819 169.064 12.9633C168.719 12.9633 168.415 13.0659 168.154 13.2713C167.893 13.4673 167.687 13.7286 167.538 14.0553C167.389 14.3819 167.309 14.7273 167.3 15.0913V17.8493H165.984V14.0413C165.975 13.7426 165.895 13.4953 165.746 13.2993C165.606 13.0939 165.368 12.9819 165.032 12.9633C164.696 12.9633 164.397 13.0659 164.136 13.2713C163.875 13.4673 163.669 13.7286 163.52 14.0553C163.371 14.3819 163.296 14.7319 163.296 15.1053V17.8493H161.994V12.0533H163.17ZM176.795 17.9893C176.141 17.9893 175.572 17.8586 175.087 17.5973C174.611 17.3266 174.242 16.9579 173.981 16.4913C173.729 16.0246 173.603 15.4973 173.603 14.9093C173.603 14.3399 173.743 13.8219 174.023 13.3553C174.312 12.8793 174.699 12.5059 175.185 12.2353C175.679 11.9553 176.225 11.8153 176.823 11.8153C177.588 11.8153 178.223 12.0393 178.727 12.4873C179.231 12.9353 179.576 13.5513 179.763 14.3353L175.171 15.9453C175.329 16.2346 175.553 16.4633 175.843 16.6313C176.132 16.7899 176.459 16.8693 176.823 16.8693C177.084 16.8693 177.331 16.8226 177.565 16.7293C177.798 16.6359 178.022 16.5146 178.237 16.3653L178.839 17.3313C178.54 17.5273 178.209 17.6859 177.845 17.8073C177.49 17.9286 177.14 17.9893 176.795 17.9893ZM174.891 14.8393C174.881 14.9513 174.886 15.0586 174.905 15.1613L178.279 13.9153C178.148 13.6353 177.957 13.3879 177.705 13.1733C177.462 12.9586 177.135 12.8513 176.725 12.8513C176.193 12.8513 175.754 13.0379 175.409 13.4113C175.063 13.7846 174.891 14.2606 174.891 14.8393ZM10.8076 24.5053H12.1236V27.0673H13.7056V28.1033H12.1236V32.8493H10.8076V28.1033H9.74362V27.0673H10.8076V24.5053ZM15.8525 27.0533H17.1545V32.8493H15.8525V27.0533ZM15.7545 24.9673C15.7545 24.7526 15.8339 24.5799 15.9925 24.4493C16.1605 24.3093 16.3425 24.2393 16.5385 24.2393C16.7345 24.2393 16.9119 24.3093 17.0705 24.4493C17.2292 24.5799 17.3085 24.7526 17.3085 24.9673C17.3085 25.1819 17.2292 25.3593 17.0705 25.4993C16.9119 25.6299 16.7345 25.6953 16.5385 25.6953C16.3425 25.6953 16.1605 25.6299 15.9925 25.4993C15.8339 25.3593 15.7545 25.1819 15.7545 24.9673ZM23.4109 32.9893C22.9909 32.9893 22.5849 32.9006 22.1929 32.7233C21.8102 32.5366 21.5069 32.2893 21.2829 31.9813V35.6353H19.9809V26.9553H21.1149L21.2269 27.9353C21.5069 27.6086 21.8522 27.3426 22.2629 27.1373C22.6829 26.9226 23.1449 26.8153 23.6489 26.8153C24.1996 26.8153 24.6896 26.9459 25.1189 27.2073C25.5576 27.4686 25.9029 27.8326 26.1549 28.2993C26.4069 28.7659 26.5329 29.3119 26.5329 29.9373C26.5329 30.5626 26.3929 31.1039 26.1129 31.5613C25.8422 32.0186 25.4689 32.3733 24.9929 32.6253C24.5262 32.8679 23.9989 32.9893 23.4109 32.9893ZM23.1589 31.9393C23.5229 31.9393 23.8589 31.8553 24.1669 31.6873C24.4842 31.5099 24.7362 31.2719 24.9229 30.9733C25.1096 30.6746 25.2029 30.3339 25.2029 29.9513C25.2029 29.5593 25.1142 29.2139 24.9369 28.9153C24.7596 28.6073 24.5216 28.3693 24.2229 28.2013C23.9336 28.0239 23.6069 27.9353 23.2429 27.9353C22.7389 27.9353 22.3142 28.0753 21.9689 28.3553C21.6236 28.6353 21.3949 28.9993 21.2829 29.4473V30.4273C21.3576 30.8659 21.5676 31.2299 21.9129 31.5193C22.2676 31.7993 22.6829 31.9393 23.1589 31.9393ZM30.4777 32.9613C30.0577 32.9613 29.6517 32.8913 29.2597 32.7513C28.8771 32.6019 28.5597 32.3826 28.3077 32.0933L28.8677 31.3373C29.1011 31.5706 29.3484 31.7479 29.6097 31.8693C29.8711 31.9813 30.1231 32.0373 30.3657 32.0373C30.6457 32.0373 30.8884 31.9813 31.0937 31.8693C31.3084 31.7573 31.4157 31.5659 31.4157 31.2953C31.4157 31.0899 31.3457 30.9266 31.2057 30.8053C31.0751 30.6839 30.9024 30.5906 30.6877 30.5253C30.4824 30.4506 30.2677 30.3759 30.0437 30.3013C29.0544 29.9839 28.5597 29.4193 28.5597 28.6073C28.5597 28.3086 28.6344 28.0239 28.7837 27.7533C28.9424 27.4826 29.1711 27.2633 29.4697 27.0953C29.7777 26.9273 30.1557 26.8433 30.6037 26.8433C31.0051 26.8433 31.3644 26.8946 31.6817 26.9973C31.9991 27.0999 32.2977 27.2633 32.5777 27.4873L32.0597 28.2853C31.8917 28.1173 31.6911 27.9913 31.4577 27.9073C31.2337 27.8139 31.0284 27.7626 30.8417 27.7533C30.5897 27.7533 30.3657 27.8139 30.1697 27.9353C29.9831 28.0566 29.8897 28.2246 29.8897 28.4393C29.8804 28.6353 29.9411 28.7939 30.0717 28.9153C30.2024 29.0273 30.3704 29.1206 30.5757 29.1953C30.7904 29.2699 31.0051 29.3399 31.2197 29.4053C31.6397 29.5453 31.9944 29.7366 32.2837 29.9793C32.5824 30.2219 32.7317 30.5766 32.7317 31.0433C32.7317 31.5659 32.5451 32.0186 32.1717 32.4013C31.7984 32.7746 31.2337 32.9613 30.4777 32.9613ZM39.8803 28.5653C39.8803 28.3506 39.9549 28.1733 40.1043 28.0333C40.2629 27.8839 40.4356 27.8093 40.6223 27.8093C40.7996 27.8093 40.9629 27.8839 41.1123 28.0333C41.2616 28.1733 41.3363 28.3506 41.3363 28.5653C41.3363 28.7893 41.2616 28.9713 41.1123 29.1113C40.9629 29.2419 40.7996 29.3073 40.6223 29.3073C40.4356 29.3073 40.2629 29.2419 40.1043 29.1113C39.9549 28.9713 39.8803 28.7893 39.8803 28.5653ZM41.0843 31.6173C40.8789 32.1119 40.6736 32.6019 40.4683 33.0873C40.2723 33.5726 40.0716 34.0579 39.8663 34.5433H38.8023C38.9889 34.0579 39.1709 33.5726 39.3483 33.0873C39.5256 32.6019 39.7076 32.1119 39.8943 31.6173H41.0843ZM46.7697 28.7193C46.7697 29.6713 46.6577 30.5579 46.4337 31.3793C46.2097 32.2006 45.9203 32.9333 45.5657 33.5773C45.211 34.2213 44.8377 34.7533 44.4457 35.1733L43.4097 34.5853C43.7643 34.1653 44.091 33.6659 44.3897 33.0873C44.6977 32.5086 44.945 31.8553 45.1317 31.1273C45.3183 30.3899 45.4117 29.5873 45.4117 28.7193C45.4117 27.8513 45.3183 27.0533 45.1317 26.3253C44.945 25.5973 44.6977 24.9439 44.3897 24.3653C44.091 23.7866 43.7643 23.2873 43.4097 22.8673L44.4457 22.2793C44.8377 22.6993 45.211 23.2313 45.5657 23.8753C45.9203 24.5193 46.2097 25.2519 46.4337 26.0733C46.6577 26.8946 46.7697 27.7766 46.7697 28.7193Z" fill="white"/>
</svg>
