<?xml version="1.0" encoding="utf-8"?>
<!-- Generator: Adobe Illustrator 23.0.1, SVG Export Plug-In . SVG Version: 6.00 Build 0)  -->
<svg version="1.1" id="Layer_1" xmlns="http://www.w3.org/2000/svg" xmlns:xlink="http://www.w3.org/1999/xlink" x="0px" y="0px"
	 viewBox="0 0 279.9 450.6" style="enable-background:new 0 0 279.9 450.6;" xml:space="preserve">
<style type="text/css">
	.st0{fill:none;stroke:#E2B22D;stroke-width:5.9399;stroke-miterlimit:10;}
</style>
<title>1bolt_1</title>
<g>
	<g id="Layer_1-2">
		<path class="st0" d="M105.8,442.1l169-291c2.5-4.4,1-10-3.3-12.5c-1.8-1-3.8-1.4-5.8-1.2l-112.4,15.3l26.9-141
			c0.5-2.5-1.2-4.9-3.7-5.3c-1.7-0.3-3.4,0.3-4.5,1.7L5.8,227.4c-3.1,4-2.3,9.8,1.8,12.8c1.9,1.4,4.2,2,6.5,1.8l123.9-13L97.3,438.9
			c-0.5,2.5,1.1,4.9,3.6,5.4C102.9,444.6,104.8,443.8,105.8,442.1z"/>
	</g>
</g>
</svg>
