<svg width="29" height="45" viewBox="0 0 29 45" fill="none" xmlns="http://www.w3.org/2000/svg">
<path fill-rule="evenodd" clip-rule="evenodd" d="M25.1138 3.87835L3.87489 22.4629L25.1138 41.0473L25.1138 3.87835V3.87835ZM22.5601 0.960473L1.32514 19.545C0.908932 19.9087 0.575348 20.3572 0.346786 20.8605C0.118224 21.3638 -2.87155e-05 21.9101 -2.86671e-05 22.4629C-2.86188e-05 23.0156 0.118224 23.5619 0.346787 24.0652C0.575349 24.5685 0.908932 25.017 1.32514 25.3807L22.5563 43.9652C25.0711 46.1585 28.9888 44.376 28.9888 41.0473L28.9888 3.87835C28.9894 3.1334 28.7753 2.40406 28.3721 1.77766C27.9689 1.15127 27.3937 0.654373 26.7153 0.346482C26.037 0.0385901 25.2843 -0.0672454 24.5473 0.0416493C23.8104 0.150544 23.1204 0.469552 22.5601 0.960473V0.960473Z" fill="#D0D0D0"/>
</svg>
