<svg width="29" height="46" viewBox="0 0 29 46" fill="none" xmlns="http://www.w3.org/2000/svg">
<path fill-rule="evenodd" clip-rule="evenodd" d="M6.42863 44.5024L27.6636 25.9179C28.0798 25.5542 28.4134 25.1057 28.642 24.6024C28.8705 24.0991 28.9888 23.5528 28.9888 23C28.9888 22.4473 28.8705 21.901 28.642 21.3977C28.4134 20.8944 28.0798 20.4459 27.6636 20.0822L6.4325 1.49767C3.91763 -0.695583 1.42486e-06 1.08692 1.42486e-06 4.41554V41.5845C-0.00063728 42.3295 0.213465 43.0588 0.616671 43.6852C1.01988 44.3116 1.59509 44.8085 2.27344 45.1164C2.95178 45.4243 3.70449 45.5301 4.44144 45.4212C5.17838 45.3123 5.86832 44.9933 6.42863 44.5024Z" fill="#D0D0D0"/>
</svg>
