<svg width="29" height="46" viewBox="0 0 29 46" fill="none" xmlns="http://www.w3.org/2000/svg">
<path fill-rule="evenodd" clip-rule="evenodd" d="M22.5601 1.4919L1.32515 20.0764C0.908936 20.4401 0.575353 20.8887 0.346791 21.3919C0.118228 21.8952 -2.46903e-05 22.4415 -2.47386e-05 22.9943C-2.47869e-05 23.547 0.118228 24.0934 0.34679 24.5966C0.575352 25.0999 0.908936 25.5484 1.32515 25.9122L22.5563 44.4967C25.0711 46.6899 28.9888 44.9074 28.9888 41.5788L28.9888 4.40978C28.9894 3.66484 28.7753 2.93549 28.3721 2.3091C27.9689 1.6827 27.3937 1.18581 26.7153 0.877914C26.037 0.570023 25.2843 0.464187 24.5473 0.573082C23.8104 0.681976 23.1205 1.00098 22.5601 1.4919Z" fill="#D0D0D0"/>
</svg>
