<svg width="106" height="106" viewBox="0 0 106 106" fill="none" xmlns="http://www.w3.org/2000/svg">
<path d="M42.3691 48.4551C39.9753 48.4551 38.0894 50.553 38.0894 53.1147C38.0894 55.6675 40.0194 57.7742 42.3691 57.7742C44.7585 57.7742 46.6444 55.6675 46.6444 53.1147C46.693 50.5486 44.7585 48.4551 42.3691 48.4551ZM57.6861 48.4551C55.2923 48.4551 53.4064 50.553 53.4064 53.1147C53.4064 55.6675 55.3364 57.7742 57.6861 57.7742C60.0755 57.7742 61.9614 55.6675 61.9614 53.1147C61.957 50.5486 60.0755 48.4551 57.6861 48.4551Z" fill="#212121"/>
<path d="M78.0779 13.25H21.8493C20.7171 13.2529 19.5966 13.4788 18.5517 13.9147C17.5068 14.3506 16.558 14.9881 15.7595 15.7907C14.961 16.5934 14.3284 17.5454 13.8978 18.5925C13.4672 19.6396 13.2471 20.7612 13.25 21.8934V78.6211C13.25 83.4043 17.1102 87.2645 21.8493 87.2645H69.43L67.1996 79.4956L72.5747 84.4908L77.6494 89.1902L86.6771 97.1667V21.8934C86.68 20.7612 86.4599 19.6396 86.0293 18.5925C85.5987 17.5454 84.9661 16.5934 84.1676 15.7907C83.3691 14.9881 82.4203 14.3506 81.3754 13.9147C80.3306 13.4788 79.21 13.2529 78.0779 13.25ZM61.8775 68.0476C61.8775 68.0476 60.367 66.2456 59.1127 64.6423C64.607 63.0877 66.7049 59.6515 66.7049 59.6515C64.9824 60.7822 63.3483 61.586 61.8775 62.1337C56.5231 64.3746 50.6266 64.986 44.9264 63.8915C42.8201 63.4778 40.7562 62.8716 38.7607 62.0807C37.7083 61.6809 36.6855 61.2071 35.6999 60.6629C35.5719 60.5702 35.4482 60.5348 35.3245 60.4509C35.2584 60.4195 35.1997 60.3743 35.1523 60.3184C34.397 59.9033 33.9774 59.6118 33.9774 59.6118C33.9774 59.6118 35.9914 62.9684 41.3224 64.5628C40.0636 66.1528 38.5089 68.0476 38.5089 68.0476C29.2384 67.7517 25.7183 61.6699 25.7183 61.6699C25.7183 48.1593 31.7603 37.2104 31.7603 37.2104C37.8023 32.6745 43.5484 32.8026 43.5484 32.8026L43.9679 33.3061C36.4154 35.4923 32.9307 38.8048 32.9307 38.8048C32.9307 38.8048 33.8582 38.3013 35.4084 37.5903C39.8958 35.6204 43.46 35.0728 44.9308 34.9447C45.1825 34.9049 45.3945 34.8608 45.6463 34.8608C52.9215 33.8803 60.3192 35.263 66.7491 38.8048C66.7491 38.8048 63.4322 35.6602 56.2993 33.4783L56.8867 32.807C56.8867 32.807 62.6372 32.6789 68.6748 37.2148C68.6748 37.2148 74.7168 48.1637 74.7168 61.6743C74.7168 61.6699 71.1525 67.7517 61.8775 68.0476Z" fill="#212121"/>
</svg>
